G75*
G70*
%OFA0B0*%
%FSLAX24Y24*%
%IPPOS*%
%LPD*%
%AMOC8*
5,1,8,0,0,1.08239X$1,22.5*
%
%ADD10C,0.0130*%
%ADD11C,0.0740*%
%ADD12R,0.0740X0.0740*%
%ADD13C,0.0330*%
%ADD14C,0.0070*%
%ADD15C,0.0160*%
%ADD16C,0.0240*%
%ADD17C,0.0080*%
D10*
X005101Y004860D02*
X005196Y004765D01*
X005386Y004765D01*
X005481Y004860D01*
X005101Y005240D01*
X005101Y004860D01*
X005481Y004860D02*
X005481Y005240D01*
X005386Y005335D01*
X005196Y005335D01*
X005101Y005240D01*
X005936Y005335D02*
X005936Y004765D01*
X006126Y004765D02*
X005746Y004765D01*
X006390Y004860D02*
X006485Y004765D01*
X006675Y004765D01*
X006770Y004860D01*
X006390Y005240D01*
X006390Y004860D01*
X006770Y004860D02*
X006770Y005240D01*
X006675Y005335D01*
X006485Y005335D01*
X006390Y005240D01*
X006126Y005145D02*
X005936Y005335D01*
X007035Y005145D02*
X007225Y004765D01*
X007415Y005145D01*
D11*
X009830Y005000D03*
X010830Y005000D03*
X011830Y005000D03*
X012830Y005000D03*
X013830Y005000D03*
X014830Y005000D03*
X016830Y005000D03*
X017830Y005000D03*
X018830Y005000D03*
X019830Y005000D03*
X020830Y005000D03*
X021830Y005000D03*
X022830Y005000D03*
X023830Y005000D03*
X024830Y005000D03*
X024830Y007000D03*
X025830Y007000D03*
X026830Y007000D03*
X026830Y008250D03*
X025830Y008250D03*
X024830Y008250D03*
X024830Y009500D03*
X025830Y009500D03*
X026830Y009500D03*
X026830Y010750D03*
X025830Y010750D03*
X024830Y010750D03*
X024830Y012000D03*
X025830Y012000D03*
X026830Y012000D03*
X026830Y013250D03*
X025830Y013250D03*
X024830Y013250D03*
X024830Y014500D03*
X025830Y014500D03*
X026830Y014500D03*
X026830Y015750D03*
X025830Y015750D03*
X024830Y015750D03*
X025830Y017000D03*
X026830Y017000D03*
X020830Y018000D03*
X018830Y018000D03*
X017830Y018000D03*
X016830Y018000D03*
X015830Y018000D03*
X014830Y018000D03*
X013830Y018000D03*
X012830Y018000D03*
X011830Y018000D03*
X010830Y018000D03*
X009830Y018000D03*
X008830Y018000D03*
X008830Y019000D03*
X007830Y019000D03*
X006830Y019000D03*
X005830Y019000D03*
X004830Y019000D03*
X004830Y018000D03*
X005830Y018000D03*
X006830Y018000D03*
X009830Y019000D03*
X010830Y019000D03*
X011830Y019000D03*
X012830Y019000D03*
X013830Y019000D03*
X014830Y019000D03*
X015830Y019000D03*
X016830Y019000D03*
X017830Y019000D03*
X018830Y019000D03*
X020830Y019000D03*
X002830Y017000D03*
X001830Y017000D03*
X000830Y017000D03*
X000830Y016000D03*
X001830Y016000D03*
X002830Y016000D03*
X002830Y015000D03*
X001830Y015000D03*
X000830Y015000D03*
X000830Y013750D03*
X001830Y013750D03*
X002830Y013750D03*
X002830Y012750D03*
X001830Y012750D03*
X000830Y012750D03*
X000830Y011750D03*
X001830Y011750D03*
X002830Y011750D03*
X002830Y010500D03*
X001830Y010500D03*
X000830Y010500D03*
X000830Y009500D03*
X001830Y009500D03*
X002830Y009500D03*
X009830Y006000D03*
X010830Y006000D03*
X011830Y006000D03*
X012830Y006000D03*
X013830Y006000D03*
X014830Y006000D03*
X016830Y006000D03*
X017830Y006000D03*
X018830Y006000D03*
D12*
X015830Y006000D03*
X015830Y005000D03*
X007830Y018000D03*
D13*
X005230Y016700D03*
X004330Y017000D03*
X002880Y017750D03*
X004330Y016000D03*
X004330Y015000D03*
X004330Y014250D03*
X005330Y013000D03*
X005830Y013000D03*
X006330Y013000D03*
X006330Y012500D03*
X005830Y012500D03*
X005330Y012500D03*
X005330Y012000D03*
X005830Y012000D03*
X006330Y012000D03*
X004330Y012000D03*
X004300Y011250D03*
X004330Y010310D03*
X004330Y009500D03*
X005210Y007660D03*
X006960Y006310D03*
X006705Y005915D03*
X008080Y005600D03*
X008730Y005930D03*
X008030Y006500D03*
X008780Y005050D03*
X013330Y006500D03*
X012940Y007540D03*
X012330Y008000D03*
X011735Y007580D03*
X011190Y007635D03*
X010635Y007645D03*
X010530Y008750D03*
X011150Y008720D03*
X010650Y009540D03*
X010250Y009970D03*
X011300Y009890D03*
X011940Y009970D03*
X011970Y009420D03*
X012650Y008620D03*
X014510Y008000D03*
X015100Y008330D03*
X015370Y008770D03*
X016680Y008520D03*
X017920Y008760D03*
X019440Y008830D03*
X019440Y008320D03*
X019420Y007740D03*
X018060Y007480D03*
X016890Y007470D03*
X015760Y007570D03*
X019440Y009360D03*
X019730Y009790D03*
X018590Y009940D03*
X018010Y010330D03*
X017480Y010330D03*
X017030Y010070D03*
X016430Y010120D03*
X014890Y011270D03*
X015500Y011380D03*
X015570Y011950D03*
X015160Y012330D03*
X013586Y012530D03*
X012890Y011480D03*
X011330Y012300D03*
X009930Y013270D03*
X010280Y014000D03*
X012280Y013750D03*
X013660Y014310D03*
X013230Y014900D03*
X013830Y015500D03*
X014330Y015500D03*
X014940Y015420D03*
X016330Y015760D03*
X016780Y015350D03*
X017000Y015750D03*
X018660Y015300D03*
X019570Y015280D03*
X019710Y014750D03*
X019050Y014330D03*
X018160Y013550D03*
X017500Y013550D03*
X017230Y013200D03*
X017830Y013100D03*
X016530Y013200D03*
X016240Y013580D03*
X015280Y013600D03*
X016830Y012000D03*
X016360Y011400D03*
X017300Y011380D03*
X017830Y011380D03*
X018390Y011380D03*
X018480Y010670D03*
X020380Y010580D03*
X020190Y011850D03*
X020050Y012310D03*
X020420Y012790D03*
X020210Y013250D03*
X022680Y011880D03*
X023770Y011670D03*
X023830Y011000D03*
X023330Y011000D03*
X023320Y009530D03*
X022900Y006920D03*
X023580Y006060D03*
X019610Y006040D03*
X009180Y011100D03*
X008880Y011700D03*
X008330Y011550D03*
X007480Y010850D03*
X008530Y008980D03*
X002000Y007280D03*
X007430Y013400D03*
X007330Y014000D03*
X007330Y015250D03*
X007980Y015900D03*
X007380Y016200D03*
X006780Y016250D03*
X009530Y015250D03*
X010330Y016500D03*
X011980Y016500D03*
X013330Y017150D03*
X014320Y016250D03*
X015350Y016630D03*
X015310Y017270D03*
X016370Y017430D03*
X019330Y016570D03*
X020980Y016180D03*
X022030Y015530D03*
X022580Y015050D03*
X022705Y015935D03*
X023380Y016000D03*
X023030Y013670D03*
X023450Y012660D03*
X023940Y012560D03*
X012630Y015600D03*
D14*
X002050Y004896D02*
X001804Y004690D01*
X004960Y004690D01*
X004881Y004769D01*
X004881Y005332D01*
X005010Y005460D01*
X005105Y005555D01*
X005477Y005555D01*
X005606Y005427D01*
X005701Y005332D01*
X005701Y004985D01*
X005716Y004985D01*
X005716Y005427D01*
X005845Y005555D01*
X006027Y005555D01*
X006156Y005427D01*
X006210Y005372D01*
X006299Y005460D01*
X006299Y005460D01*
X006394Y005555D01*
X006766Y005555D01*
X006895Y005427D01*
X006965Y005357D01*
X007018Y005383D01*
X007191Y005325D01*
X007225Y005257D01*
X007259Y005325D01*
X007432Y005383D01*
X007595Y005301D01*
X007653Y005128D01*
X007433Y004690D01*
X009406Y004690D01*
X009381Y004725D01*
X009343Y004798D01*
X009318Y004877D01*
X009305Y004959D01*
X009305Y004965D01*
X009795Y004965D01*
X009795Y005035D01*
X009305Y005035D01*
X009305Y005041D01*
X009318Y005123D01*
X009343Y005202D01*
X009381Y005275D01*
X009400Y005301D01*
X009100Y005001D01*
X009100Y004986D01*
X009051Y004869D01*
X008961Y004779D01*
X008844Y004730D01*
X008716Y004730D01*
X008599Y004779D01*
X008509Y004869D01*
X008460Y004986D01*
X008460Y005114D01*
X008509Y005231D01*
X008599Y005321D01*
X008716Y005370D01*
X008844Y005370D01*
X008906Y005344D01*
X009140Y005579D01*
X009140Y007639D01*
X009790Y008289D01*
X009901Y008400D01*
X012199Y008400D01*
X012279Y008320D01*
X012394Y008320D01*
X012511Y008271D01*
X012601Y008181D01*
X012650Y008064D01*
X012650Y008049D01*
X012930Y008329D01*
X012930Y008460D01*
X012921Y008439D01*
X012831Y008349D01*
X012714Y008300D01*
X012586Y008300D01*
X012469Y008349D01*
X012379Y008439D01*
X012330Y008556D01*
X012330Y008684D01*
X012379Y008801D01*
X012469Y008891D01*
X012586Y008940D01*
X012714Y008940D01*
X012831Y008891D01*
X012921Y008801D01*
X012930Y008780D01*
X012930Y010189D01*
X013920Y011179D01*
X013920Y011909D01*
X014031Y012020D01*
X014031Y012020D01*
X014800Y012789D01*
X014800Y012789D01*
X014911Y012900D01*
X015361Y012900D01*
X015351Y012910D01*
X015190Y013071D01*
X015190Y013071D01*
X015171Y013090D01*
X010451Y013090D01*
X010250Y013291D01*
X010250Y013206D01*
X010201Y013089D01*
X010111Y012999D01*
X009994Y012950D01*
X009866Y012950D01*
X009749Y012999D01*
X009722Y013025D01*
X008775Y013025D01*
X008674Y013067D01*
X008597Y013144D01*
X007747Y013994D01*
X007705Y014095D01*
X007705Y015728D01*
X007660Y015836D01*
X007660Y015964D01*
X007709Y016081D01*
X007799Y016171D01*
X007916Y016220D01*
X008044Y016220D01*
X008140Y016180D01*
X008140Y016579D01*
X009131Y017570D01*
X009105Y017551D01*
X009032Y017513D01*
X008953Y017488D01*
X008871Y017475D01*
X008865Y017475D01*
X008865Y017965D01*
X008795Y017965D01*
X008795Y017475D01*
X008789Y017475D01*
X008707Y017488D01*
X008628Y017513D01*
X008555Y017551D01*
X008488Y017600D01*
X008430Y017658D01*
X008381Y017725D01*
X008355Y017776D01*
X008355Y017566D01*
X008264Y017475D01*
X007396Y017475D01*
X007305Y017566D01*
X007305Y017775D01*
X007275Y017703D01*
X007127Y017555D01*
X006934Y017475D01*
X006726Y017475D01*
X006533Y017555D01*
X006385Y017703D01*
X006330Y017835D01*
X006275Y017703D01*
X006127Y017555D01*
X005934Y017475D01*
X005726Y017475D01*
X005533Y017555D01*
X005385Y017703D01*
X005329Y017837D01*
X005317Y017798D01*
X005279Y017725D01*
X005230Y017658D01*
X005172Y017600D01*
X005105Y017551D01*
X005032Y017513D01*
X004953Y017488D01*
X004871Y017475D01*
X004865Y017475D01*
X004865Y017965D01*
X004795Y017965D01*
X004795Y017475D01*
X004789Y017475D01*
X004707Y017488D01*
X004628Y017513D01*
X004555Y017551D01*
X004488Y017600D01*
X004430Y017658D01*
X004381Y017725D01*
X004343Y017798D01*
X004318Y017877D01*
X004305Y017959D01*
X004305Y017965D01*
X004795Y017965D01*
X004795Y018035D01*
X004795Y018475D01*
X004795Y018965D01*
X004865Y018965D01*
X004865Y018035D01*
X004795Y018035D01*
X004305Y018035D01*
X004305Y018041D01*
X004318Y018123D01*
X004343Y018202D01*
X004381Y018275D01*
X004430Y018342D01*
X004488Y018400D01*
X004555Y018449D01*
X004628Y018487D01*
X004670Y018500D01*
X004628Y018513D01*
X004555Y018551D01*
X004488Y018600D01*
X004430Y018658D01*
X004381Y018725D01*
X004343Y018798D01*
X004318Y018877D01*
X004305Y018959D01*
X004305Y018965D01*
X004795Y018965D01*
X004795Y019035D01*
X004305Y019035D01*
X004305Y019041D01*
X004318Y019123D01*
X004343Y019202D01*
X004381Y019275D01*
X004406Y019310D01*
X001804Y019310D01*
X002050Y019104D01*
X002050Y019104D01*
X002213Y018821D01*
X002213Y018821D01*
X002269Y018500D01*
X002269Y018500D01*
X002213Y018179D01*
X002213Y018179D01*
X002050Y017896D01*
X002050Y017896D01*
X002050Y017896D01*
X001800Y017687D01*
X001800Y017687D01*
X001493Y017575D01*
X001167Y017575D01*
X000860Y017687D01*
X000860Y017687D01*
X000610Y017896D01*
X000610Y017896D01*
X000520Y018053D01*
X000520Y017424D01*
X000555Y017449D01*
X000628Y017487D01*
X000707Y017512D01*
X000789Y017525D01*
X000795Y017525D01*
X000795Y017035D01*
X000865Y017035D01*
X000865Y017525D01*
X000871Y017525D01*
X000953Y017512D01*
X001032Y017487D01*
X001105Y017449D01*
X001172Y017400D01*
X001230Y017342D01*
X001279Y017275D01*
X001317Y017202D01*
X001329Y017163D01*
X001385Y017297D01*
X001533Y017445D01*
X001726Y017525D01*
X001934Y017525D01*
X002127Y017445D01*
X002275Y017297D01*
X002330Y017165D01*
X002385Y017297D01*
X002533Y017445D01*
X002674Y017504D01*
X002609Y017569D01*
X002560Y017686D01*
X002560Y017814D01*
X002609Y017931D01*
X002699Y018021D01*
X002816Y018070D01*
X002944Y018070D01*
X003061Y018021D01*
X003151Y017931D01*
X003200Y017814D01*
X003200Y017686D01*
X003151Y017569D01*
X003061Y017479D01*
X003054Y017476D01*
X003127Y017445D01*
X003275Y017297D01*
X003355Y017104D01*
X004027Y017104D01*
X004010Y017064D02*
X004010Y016936D01*
X004059Y016819D01*
X004149Y016729D01*
X004266Y016680D01*
X004394Y016680D01*
X004511Y016729D01*
X004601Y016819D01*
X004650Y016936D01*
X004650Y017064D01*
X004601Y017181D01*
X004511Y017271D01*
X004394Y017320D01*
X004266Y017320D01*
X004149Y017271D01*
X004059Y017181D01*
X004010Y017064D01*
X004010Y017036D02*
X003355Y017036D01*
X003355Y017104D02*
X003355Y016896D01*
X003275Y016703D01*
X003127Y016555D01*
X002995Y016500D01*
X003127Y016445D01*
X003275Y016297D01*
X003355Y016104D01*
X003355Y015896D01*
X003275Y015703D01*
X003127Y015555D01*
X002995Y015500D01*
X003127Y015445D01*
X003275Y015297D01*
X003355Y015104D01*
X003355Y014896D01*
X003275Y014703D01*
X003127Y014555D01*
X002934Y014475D01*
X002726Y014475D01*
X002533Y014555D01*
X002385Y014703D01*
X002330Y014835D01*
X002275Y014703D01*
X002127Y014555D01*
X001934Y014475D01*
X001726Y014475D01*
X001533Y014555D01*
X001385Y014703D01*
X001329Y014837D01*
X001317Y014798D01*
X001279Y014725D01*
X001230Y014658D01*
X001172Y014600D01*
X001105Y014551D01*
X001032Y014513D01*
X000953Y014488D01*
X000871Y014475D01*
X000865Y014475D01*
X000865Y014965D01*
X000795Y014965D01*
X000795Y014475D01*
X000789Y014475D01*
X000707Y014488D01*
X000628Y014513D01*
X000555Y014551D01*
X000520Y014576D01*
X000520Y014174D01*
X000555Y014199D01*
X000628Y014237D01*
X000707Y014262D01*
X000789Y014275D01*
X000795Y014275D01*
X000795Y013785D01*
X000865Y013785D01*
X000865Y014275D01*
X000871Y014275D01*
X000953Y014262D01*
X001032Y014237D01*
X001105Y014199D01*
X001172Y014150D01*
X001230Y014092D01*
X001279Y014025D01*
X001317Y013952D01*
X001329Y013913D01*
X001385Y014047D01*
X001533Y014195D01*
X001726Y014275D01*
X001934Y014275D01*
X002127Y014195D01*
X002275Y014047D01*
X002330Y013915D01*
X002385Y014047D01*
X002533Y014195D01*
X002726Y014275D01*
X002934Y014275D01*
X003127Y014195D01*
X003275Y014047D01*
X003355Y013854D01*
X003355Y013646D01*
X003275Y013453D01*
X003127Y013305D01*
X002995Y013250D01*
X003127Y013195D01*
X003275Y013047D01*
X003355Y012854D01*
X003355Y012646D01*
X003275Y012453D01*
X003127Y012305D01*
X002995Y012250D01*
X003127Y012195D01*
X003275Y012047D01*
X003355Y011854D01*
X003355Y011646D01*
X003275Y011453D01*
X003127Y011305D01*
X002934Y011225D01*
X002726Y011225D01*
X002533Y011305D01*
X002385Y011453D01*
X002330Y011585D01*
X002275Y011453D01*
X002127Y011305D01*
X001934Y011225D01*
X001726Y011225D01*
X001533Y011305D01*
X001385Y011453D01*
X001329Y011587D01*
X001317Y011548D01*
X001279Y011475D01*
X001230Y011408D01*
X001172Y011350D01*
X001105Y011301D01*
X001032Y011263D01*
X000953Y011238D01*
X000871Y011225D01*
X000865Y011225D01*
X000865Y011715D01*
X000795Y011715D01*
X000795Y011225D01*
X000789Y011225D01*
X000707Y011238D01*
X000628Y011263D01*
X000555Y011301D01*
X000520Y011326D01*
X000520Y010924D01*
X000555Y010949D01*
X000628Y010987D01*
X000707Y011012D01*
X000789Y011025D01*
X000795Y011025D01*
X000795Y010535D01*
X000865Y010535D01*
X000865Y011025D01*
X000871Y011025D01*
X000953Y011012D01*
X001032Y010987D01*
X001105Y010949D01*
X001172Y010900D01*
X001230Y010842D01*
X001279Y010775D01*
X001317Y010702D01*
X001329Y010663D01*
X001385Y010797D01*
X001533Y010945D01*
X001726Y011025D01*
X001934Y011025D01*
X002127Y010945D01*
X002275Y010797D01*
X002330Y010665D01*
X002330Y010665D01*
X002385Y010797D01*
X002533Y010945D01*
X002726Y011025D01*
X002934Y011025D01*
X003127Y010945D01*
X003275Y010797D01*
X003355Y010604D01*
X003355Y010396D01*
X003275Y010203D01*
X003127Y010055D01*
X002995Y010000D01*
X003127Y009945D01*
X003275Y009797D01*
X003355Y009604D01*
X003355Y009396D01*
X003275Y009203D01*
X003127Y009055D01*
X002934Y008975D01*
X002726Y008975D01*
X002533Y009055D01*
X002385Y009203D01*
X002330Y009335D01*
X002275Y009203D01*
X002127Y009055D01*
X001934Y008975D01*
X001726Y008975D01*
X001533Y009055D01*
X001385Y009203D01*
X001329Y009337D01*
X001317Y009298D01*
X001279Y009225D01*
X001230Y009158D01*
X001172Y009100D01*
X001105Y009051D01*
X001032Y009013D01*
X000953Y008988D01*
X000871Y008975D01*
X000865Y008975D01*
X000865Y009465D01*
X000795Y009465D01*
X000795Y008975D01*
X000789Y008975D01*
X000707Y008988D01*
X000628Y009013D01*
X000555Y009051D01*
X000520Y009076D01*
X000520Y005947D01*
X000610Y006104D01*
X000610Y006104D01*
X000610Y006104D01*
X000860Y006313D01*
X000860Y006313D01*
X001167Y006425D01*
X001493Y006425D01*
X001800Y006313D01*
X001800Y006313D01*
X002050Y006104D01*
X002050Y006104D01*
X002213Y005821D01*
X002213Y005821D01*
X002269Y005500D01*
X002269Y005500D01*
X002213Y005179D01*
X002213Y005179D01*
X002050Y004896D01*
X002050Y004896D01*
X002050Y004896D01*
X002058Y004911D02*
X004881Y004911D01*
X004881Y004843D02*
X001985Y004843D01*
X001904Y004774D02*
X004881Y004774D01*
X004944Y004706D02*
X001822Y004706D01*
X002098Y004980D02*
X004881Y004980D01*
X004881Y005048D02*
X002137Y005048D01*
X002177Y005117D02*
X004881Y005117D01*
X004881Y005185D02*
X002214Y005185D01*
X002226Y005254D02*
X004881Y005254D01*
X004881Y005322D02*
X002238Y005322D01*
X002250Y005391D02*
X004940Y005391D01*
X005008Y005459D02*
X002262Y005459D01*
X002264Y005528D02*
X005077Y005528D01*
X005505Y005528D02*
X005817Y005528D01*
X005748Y005459D02*
X005574Y005459D01*
X005642Y005391D02*
X005716Y005391D01*
X005716Y005322D02*
X005701Y005322D01*
X005701Y005254D02*
X005716Y005254D01*
X005716Y005185D02*
X005701Y005185D01*
X005701Y005117D02*
X005716Y005117D01*
X005716Y005048D02*
X005701Y005048D01*
X006192Y005391D02*
X006229Y005391D01*
X006298Y005459D02*
X006123Y005459D01*
X006055Y005528D02*
X006366Y005528D01*
X006503Y005665D02*
X002240Y005665D01*
X002228Y005733D02*
X006434Y005733D01*
X006434Y005734D02*
X006524Y005644D01*
X006641Y005595D01*
X006769Y005595D01*
X006886Y005644D01*
X006976Y005734D01*
X007025Y005851D01*
X007025Y005979D01*
X006976Y006096D01*
X006886Y006186D01*
X006769Y006235D01*
X006641Y006235D01*
X006524Y006186D01*
X006434Y006096D01*
X006385Y005979D01*
X006385Y005851D01*
X006434Y005734D01*
X006406Y005802D02*
X002216Y005802D01*
X002184Y005870D02*
X006385Y005870D01*
X006385Y005939D02*
X002145Y005939D01*
X002105Y006007D02*
X006397Y006007D01*
X006425Y006076D02*
X002066Y006076D01*
X002002Y006144D02*
X006481Y006144D01*
X006587Y006213D02*
X001920Y006213D01*
X001838Y006281D02*
X007796Y006281D01*
X007759Y006319D02*
X007849Y006229D01*
X007966Y006180D01*
X008094Y006180D01*
X008211Y006229D01*
X008301Y006319D01*
X008350Y006436D01*
X008350Y006564D01*
X008301Y006681D01*
X008211Y006771D01*
X008094Y006820D01*
X007966Y006820D01*
X007849Y006771D01*
X007759Y006681D01*
X007710Y006564D01*
X007710Y006436D01*
X007759Y006319D01*
X007746Y006350D02*
X001701Y006350D01*
X001512Y006418D02*
X007718Y006418D01*
X007710Y006487D02*
X000520Y006487D01*
X000520Y006555D02*
X007710Y006555D01*
X007735Y006624D02*
X000520Y006624D01*
X000520Y006692D02*
X007769Y006692D01*
X007838Y006761D02*
X000520Y006761D01*
X000520Y006829D02*
X009140Y006829D01*
X009140Y006761D02*
X008222Y006761D01*
X008291Y006692D02*
X009140Y006692D01*
X009140Y006624D02*
X008325Y006624D01*
X008350Y006555D02*
X009140Y006555D01*
X009140Y006487D02*
X008350Y006487D01*
X008342Y006418D02*
X009140Y006418D01*
X009140Y006350D02*
X008314Y006350D01*
X008264Y006281D02*
X009140Y006281D01*
X009140Y006213D02*
X008172Y006213D01*
X007888Y006213D02*
X006823Y006213D01*
X006929Y006144D02*
X009140Y006144D01*
X009140Y006076D02*
X006985Y006076D01*
X007013Y006007D02*
X009140Y006007D01*
X009140Y005939D02*
X007025Y005939D01*
X007025Y005870D02*
X007897Y005870D01*
X007899Y005871D02*
X007809Y005781D01*
X007760Y005664D01*
X007760Y005536D01*
X007809Y005419D01*
X007899Y005329D01*
X008016Y005280D01*
X008144Y005280D01*
X008261Y005329D01*
X008351Y005419D01*
X008400Y005536D01*
X008400Y005664D01*
X008351Y005781D01*
X008261Y005871D01*
X008144Y005920D01*
X008016Y005920D01*
X007899Y005871D01*
X007829Y005802D02*
X007004Y005802D01*
X006976Y005733D02*
X007789Y005733D01*
X007760Y005665D02*
X006907Y005665D01*
X006771Y005596D02*
X007760Y005596D01*
X007764Y005528D02*
X006794Y005528D01*
X006863Y005459D02*
X007792Y005459D01*
X007837Y005391D02*
X006931Y005391D01*
X007192Y005322D02*
X007257Y005322D01*
X007554Y005322D02*
X007915Y005322D01*
X007611Y005254D02*
X008531Y005254D01*
X008490Y005185D02*
X007634Y005185D01*
X007647Y005117D02*
X008461Y005117D01*
X008460Y005048D02*
X007612Y005048D01*
X007578Y004980D02*
X008463Y004980D01*
X008491Y004911D02*
X007544Y004911D01*
X007510Y004843D02*
X008535Y004843D01*
X008610Y004774D02*
X007475Y004774D01*
X007441Y004706D02*
X009395Y004706D01*
X009356Y004774D02*
X008950Y004774D01*
X009025Y004843D02*
X009329Y004843D01*
X009313Y004911D02*
X009069Y004911D01*
X009097Y004980D02*
X009795Y004980D01*
X009865Y004980D02*
X010795Y004980D01*
X010795Y004965D02*
X009865Y004965D01*
X009865Y005035D01*
X010355Y005035D01*
X010795Y005035D01*
X010795Y004965D01*
X010865Y004965D02*
X010865Y005035D01*
X011795Y005035D01*
X011795Y004965D01*
X011305Y004965D01*
X010865Y004965D01*
X010865Y004980D02*
X011795Y004980D01*
X011560Y005500D02*
X011330Y005730D01*
X011330Y007495D01*
X011190Y007635D01*
X012120Y008210D02*
X012330Y008000D01*
X012120Y008210D02*
X009980Y008210D01*
X009330Y007560D01*
X009330Y005500D01*
X008880Y005050D01*
X008780Y005050D01*
X008600Y005322D02*
X008245Y005322D01*
X008323Y005391D02*
X008952Y005391D01*
X009020Y005459D02*
X008368Y005459D01*
X008396Y005528D02*
X009089Y005528D01*
X009140Y005596D02*
X008400Y005596D01*
X008400Y005665D02*
X009140Y005665D01*
X009140Y005733D02*
X008371Y005733D01*
X008331Y005802D02*
X009140Y005802D01*
X009140Y005870D02*
X008263Y005870D01*
X009352Y005254D02*
X009370Y005254D01*
X009338Y005185D02*
X009284Y005185D01*
X009317Y005117D02*
X009215Y005117D01*
X009147Y005048D02*
X009306Y005048D01*
X011560Y005500D02*
X015330Y005500D01*
X015830Y005000D01*
X017795Y006035D02*
X017795Y006525D01*
X017789Y006525D01*
X017707Y006512D01*
X017628Y006487D01*
X017027Y006487D01*
X016934Y006525D02*
X017127Y006445D01*
X017275Y006297D01*
X017331Y006163D01*
X017343Y006202D01*
X017381Y006275D01*
X017430Y006342D01*
X017488Y006400D01*
X017555Y006449D01*
X017628Y006487D01*
X017512Y006418D02*
X017154Y006418D01*
X017223Y006350D02*
X017437Y006350D01*
X017385Y006281D02*
X017282Y006281D01*
X017310Y006213D02*
X017349Y006213D01*
X017795Y006213D02*
X017865Y006213D01*
X017865Y006281D02*
X017795Y006281D01*
X017795Y006350D02*
X017865Y006350D01*
X017865Y006418D02*
X017795Y006418D01*
X017795Y006487D02*
X017865Y006487D01*
X017865Y006525D02*
X017865Y006035D01*
X017795Y006035D01*
X017795Y006076D02*
X017865Y006076D01*
X017865Y006144D02*
X017795Y006144D01*
X017865Y006525D02*
X017871Y006525D01*
X017953Y006512D01*
X018032Y006487D01*
X018595Y006487D01*
X018595Y006471D02*
X018533Y006445D01*
X018385Y006297D01*
X018329Y006163D01*
X018317Y006202D01*
X018279Y006275D01*
X018230Y006342D01*
X018172Y006400D01*
X018105Y006449D01*
X018032Y006487D01*
X018148Y006418D02*
X018506Y006418D01*
X018437Y006350D02*
X018223Y006350D01*
X018275Y006281D02*
X018378Y006281D01*
X018350Y006213D02*
X018311Y006213D01*
X018595Y006471D02*
X018595Y007247D01*
X019088Y007740D01*
X018595Y008233D01*
X018595Y008903D01*
X018233Y009265D01*
X016733Y009265D01*
X016595Y009403D01*
X016220Y009778D01*
X016220Y009249D01*
X016629Y008840D01*
X016744Y008840D01*
X016861Y008791D01*
X016951Y008701D01*
X017000Y008584D01*
X017000Y008456D01*
X016951Y008339D01*
X016861Y008249D01*
X016744Y008200D01*
X016616Y008200D01*
X016499Y008249D01*
X016409Y008339D01*
X016360Y008456D01*
X016360Y008571D01*
X015840Y009091D01*
X015840Y011767D01*
X015751Y011679D01*
X015682Y011650D01*
X015771Y011561D01*
X015820Y011444D01*
X015820Y011316D01*
X015771Y011199D01*
X015681Y011109D01*
X015564Y011060D01*
X015436Y011060D01*
X015319Y011109D01*
X015229Y011199D01*
X015210Y011244D01*
X015210Y011206D01*
X015161Y011089D01*
X015071Y010999D01*
X014954Y010950D01*
X014826Y010950D01*
X014709Y010999D01*
X014619Y011089D01*
X014570Y011206D01*
X014570Y011334D01*
X014619Y011451D01*
X014709Y011541D01*
X014826Y011590D01*
X014954Y011590D01*
X015071Y011541D01*
X015161Y011451D01*
X015180Y011406D01*
X015180Y011444D01*
X015229Y011561D01*
X015319Y011651D01*
X015388Y011680D01*
X015299Y011769D01*
X015250Y011886D01*
X015250Y012014D01*
X015254Y012022D01*
X015224Y012010D01*
X015109Y012010D01*
X014520Y011421D01*
X014520Y010921D01*
X014409Y010810D01*
X013520Y009921D01*
X013520Y006763D01*
X013601Y006681D01*
X013650Y006564D01*
X013650Y006494D01*
X013726Y006525D01*
X013934Y006525D01*
X014127Y006445D01*
X014275Y006297D01*
X014330Y006165D01*
X014385Y006297D01*
X014533Y006445D01*
X014726Y006525D01*
X014934Y006525D01*
X015127Y006445D01*
X015275Y006297D01*
X015305Y006225D01*
X015305Y006434D01*
X015396Y006525D01*
X016264Y006525D01*
X016355Y006434D01*
X016355Y006225D01*
X016385Y006297D01*
X016533Y006445D01*
X016726Y006525D01*
X016934Y006525D01*
X016633Y006487D02*
X016303Y006487D01*
X016355Y006418D02*
X016506Y006418D01*
X016437Y006350D02*
X016355Y006350D01*
X016355Y006281D02*
X016378Y006281D01*
X015357Y006487D02*
X015027Y006487D01*
X015154Y006418D02*
X015305Y006418D01*
X015305Y006350D02*
X015223Y006350D01*
X015282Y006281D02*
X015305Y006281D01*
X014633Y006487D02*
X014027Y006487D01*
X014154Y006418D02*
X014506Y006418D01*
X014437Y006350D02*
X014223Y006350D01*
X014282Y006281D02*
X014378Y006281D01*
X014350Y006213D02*
X014310Y006213D01*
X013650Y006555D02*
X018595Y006555D01*
X018595Y006624D02*
X013625Y006624D01*
X013591Y006692D02*
X018595Y006692D01*
X018595Y006761D02*
X013522Y006761D01*
X013520Y006829D02*
X018595Y006829D01*
X018595Y006898D02*
X013520Y006898D01*
X013520Y006966D02*
X018595Y006966D01*
X018595Y007035D02*
X013520Y007035D01*
X013520Y007103D02*
X018595Y007103D01*
X018595Y007172D02*
X018151Y007172D01*
X018124Y007160D02*
X018241Y007209D01*
X018331Y007299D01*
X018380Y007416D01*
X018380Y007544D01*
X018331Y007661D01*
X018241Y007751D01*
X018124Y007800D01*
X017996Y007800D01*
X017879Y007751D01*
X017789Y007661D01*
X017740Y007544D01*
X017740Y007416D01*
X017789Y007299D01*
X017879Y007209D01*
X017996Y007160D01*
X018124Y007160D01*
X017969Y007172D02*
X013520Y007172D01*
X013520Y007240D02*
X017847Y007240D01*
X017785Y007309D02*
X015951Y007309D01*
X015941Y007299D02*
X016031Y007389D01*
X016080Y007506D01*
X016080Y007634D01*
X016031Y007751D01*
X015941Y007841D01*
X015824Y007890D01*
X015696Y007890D01*
X015579Y007841D01*
X015489Y007751D01*
X015440Y007634D01*
X015440Y007506D01*
X015489Y007389D01*
X015579Y007299D01*
X015696Y007250D01*
X015824Y007250D01*
X015941Y007299D01*
X016020Y007377D02*
X017756Y007377D01*
X017740Y007446D02*
X016055Y007446D01*
X016080Y007514D02*
X017740Y007514D01*
X017756Y007583D02*
X016080Y007583D01*
X016073Y007651D02*
X017784Y007651D01*
X017847Y007720D02*
X016044Y007720D01*
X015995Y007788D02*
X017967Y007788D01*
X018153Y007788D02*
X019040Y007788D01*
X019067Y007720D02*
X018273Y007720D01*
X018336Y007651D02*
X018999Y007651D01*
X018930Y007583D02*
X018364Y007583D01*
X018380Y007514D02*
X018862Y007514D01*
X018793Y007446D02*
X018380Y007446D01*
X018364Y007377D02*
X018725Y007377D01*
X018656Y007309D02*
X018335Y007309D01*
X018273Y007240D02*
X018595Y007240D01*
X019065Y007053D02*
X019432Y007420D01*
X019484Y007420D01*
X019601Y007469D01*
X019691Y007559D01*
X019740Y007676D01*
X019740Y007804D01*
X019691Y007921D01*
X019601Y008011D01*
X019484Y008060D01*
X019432Y008060D01*
X019065Y008427D01*
X019065Y009097D01*
X018927Y009235D01*
X018542Y009620D01*
X018654Y009620D01*
X018771Y009669D01*
X018861Y009759D01*
X018910Y009876D01*
X018910Y010004D01*
X018861Y010121D01*
X018771Y010211D01*
X018654Y010260D01*
X018526Y010260D01*
X018409Y010211D01*
X018319Y010121D01*
X018270Y010004D01*
X018270Y009876D01*
X018319Y009759D01*
X018342Y009735D01*
X016927Y009735D01*
X016708Y009955D01*
X016750Y010056D01*
X016750Y010184D01*
X016701Y010301D01*
X016611Y010391D01*
X016494Y010440D01*
X016366Y010440D01*
X016249Y010391D01*
X016220Y010363D01*
X016220Y011112D01*
X016296Y011080D01*
X016424Y011080D01*
X016541Y011129D01*
X016631Y011219D01*
X016680Y011336D01*
X016680Y011430D01*
X016980Y011430D01*
X016980Y011316D01*
X017029Y011199D01*
X017119Y011109D01*
X017236Y011060D01*
X017364Y011060D01*
X017481Y011109D01*
X017565Y011192D01*
X017649Y011109D01*
X017766Y011060D01*
X017894Y011060D01*
X018011Y011109D01*
X018101Y011199D01*
X018110Y011220D01*
X018119Y011199D01*
X018209Y011109D01*
X018326Y011060D01*
X018454Y011060D01*
X018571Y011109D01*
X018661Y011199D01*
X018710Y011316D01*
X018710Y011444D01*
X018661Y011561D01*
X018571Y011651D01*
X018454Y011700D01*
X018326Y011700D01*
X018209Y011651D01*
X018119Y011561D01*
X018110Y011540D01*
X018101Y011561D01*
X018011Y011651D01*
X017894Y011700D01*
X017766Y011700D01*
X017649Y011651D01*
X017565Y011568D01*
X017481Y011651D01*
X017364Y011700D01*
X017339Y011700D01*
X017370Y011731D01*
X017370Y012111D01*
X017690Y012431D01*
X017690Y012812D01*
X017766Y012780D01*
X017894Y012780D01*
X018011Y012829D01*
X018101Y012919D01*
X018150Y013036D01*
X018150Y013164D01*
X018123Y013230D01*
X018224Y013230D01*
X018341Y013279D01*
X018431Y013369D01*
X018480Y013486D01*
X018480Y013614D01*
X018431Y013731D01*
X018341Y013821D01*
X018224Y013870D01*
X018096Y013870D01*
X017979Y013821D01*
X017889Y013731D01*
X017840Y013614D01*
X017840Y013486D01*
X017867Y013420D01*
X017793Y013420D01*
X017820Y013486D01*
X017820Y013614D01*
X017771Y013731D01*
X017681Y013821D01*
X017564Y013870D01*
X017436Y013870D01*
X017319Y013821D01*
X017229Y013731D01*
X017180Y013614D01*
X017180Y013520D01*
X017166Y013520D01*
X017049Y013471D01*
X016959Y013381D01*
X016910Y013264D01*
X016910Y013136D01*
X016959Y013019D01*
X017049Y012929D01*
X017166Y012880D01*
X017294Y012880D01*
X017310Y012887D01*
X017310Y012589D01*
X017101Y012380D01*
X017067Y012346D01*
X017063Y012356D01*
X016539Y012880D01*
X016594Y012880D01*
X016711Y012929D01*
X016801Y013019D01*
X016850Y013136D01*
X016850Y013264D01*
X016801Y013381D01*
X016711Y013471D01*
X016594Y013520D01*
X016560Y013520D01*
X016560Y013631D01*
X018374Y015445D01*
X018340Y015364D01*
X018340Y015236D01*
X018389Y015119D01*
X018479Y015029D01*
X018596Y014980D01*
X018724Y014980D01*
X018841Y015029D01*
X018931Y015119D01*
X018980Y015236D01*
X018980Y015364D01*
X018931Y015481D01*
X018841Y015571D01*
X018724Y015620D01*
X018596Y015620D01*
X018515Y015586D01*
X018739Y015810D01*
X020244Y015810D01*
X020249Y015805D01*
X020411Y015805D01*
X020525Y015919D01*
X020525Y016034D01*
X020660Y016169D01*
X020660Y016116D01*
X020709Y015999D01*
X020799Y015909D01*
X020916Y015860D01*
X021044Y015860D01*
X021161Y015909D01*
X021251Y015999D01*
X021300Y016116D01*
X021300Y016244D01*
X021254Y016355D01*
X022016Y016355D01*
X022385Y015986D01*
X022385Y015871D01*
X021070Y015871D01*
X021192Y015940D02*
X022385Y015940D01*
X022385Y015871D02*
X022434Y015754D01*
X022524Y015664D01*
X022641Y015615D01*
X022769Y015615D01*
X022886Y015664D01*
X022976Y015754D01*
X023025Y015871D01*
X023087Y015871D01*
X023109Y015819D02*
X023199Y015729D01*
X023316Y015680D01*
X023444Y015680D01*
X023561Y015729D01*
X023651Y015819D01*
X023700Y015936D01*
X023700Y016064D01*
X023651Y016181D01*
X023561Y016271D01*
X023444Y016320D01*
X023316Y016320D01*
X023199Y016271D01*
X023109Y016181D01*
X023060Y016064D01*
X023060Y015936D01*
X023109Y015819D01*
X023125Y015803D02*
X022996Y015803D01*
X023025Y015871D02*
X023025Y015999D01*
X022976Y016116D01*
X022886Y016206D01*
X022769Y016255D01*
X022654Y016255D01*
X022285Y016624D01*
X022285Y016631D01*
X022171Y016745D01*
X020684Y016745D01*
X020570Y016631D01*
X020135Y016196D01*
X020135Y016190D01*
X018581Y016190D01*
X016291Y013900D01*
X016176Y013900D01*
X016155Y013891D01*
X016155Y015936D01*
X016486Y016267D01*
X016563Y016344D01*
X016605Y016445D01*
X016605Y017212D01*
X016641Y017249D01*
X016690Y017366D01*
X016690Y017493D01*
X016707Y017488D01*
X016789Y017475D01*
X016795Y017475D01*
X016795Y017965D01*
X016355Y017965D01*
X015865Y017965D01*
X015865Y018035D01*
X016795Y018035D01*
X016795Y017965D01*
X016865Y017965D01*
X016865Y018035D01*
X017795Y018035D01*
X017795Y017965D01*
X017305Y017965D01*
X016865Y017965D01*
X016865Y017475D01*
X016871Y017475D01*
X016953Y017488D01*
X017032Y017513D01*
X017105Y017551D01*
X017172Y017600D01*
X017230Y017658D01*
X017279Y017725D01*
X017317Y017798D01*
X017330Y017840D01*
X017343Y017798D01*
X017381Y017725D01*
X017430Y017658D01*
X017488Y017600D01*
X017555Y017551D01*
X017628Y017513D01*
X017707Y017488D01*
X017789Y017475D01*
X017795Y017475D01*
X017795Y017965D01*
X017865Y017965D01*
X017865Y018035D01*
X018795Y018035D01*
X018795Y017965D01*
X018305Y017965D01*
X017865Y017965D01*
X017865Y017475D01*
X017871Y017475D01*
X017953Y017488D01*
X018032Y017513D01*
X018105Y017551D01*
X018172Y017600D01*
X018230Y017658D01*
X018279Y017725D01*
X018317Y017798D01*
X018330Y017840D01*
X018343Y017798D01*
X018381Y017725D01*
X018430Y017658D01*
X018488Y017600D01*
X018555Y017551D01*
X018628Y017513D01*
X018707Y017488D01*
X018789Y017475D01*
X018795Y017475D01*
X018795Y017965D01*
X018865Y017965D01*
X018865Y018035D01*
X019355Y018035D01*
X019355Y018041D01*
X019342Y018123D01*
X019317Y018202D01*
X019279Y018275D01*
X019230Y018342D01*
X019172Y018400D01*
X019105Y018449D01*
X019032Y018487D01*
X018993Y018499D01*
X019127Y018555D01*
X019275Y018703D01*
X019355Y018896D01*
X019355Y019104D01*
X019275Y019297D01*
X019262Y019310D01*
X020406Y019310D01*
X020381Y019275D01*
X020343Y019202D01*
X020318Y019123D01*
X020305Y019041D01*
X020305Y019035D01*
X020795Y019035D01*
X020795Y018965D01*
X020305Y018965D01*
X020305Y018959D01*
X020318Y018877D01*
X020343Y018798D01*
X020381Y018725D01*
X020430Y018658D01*
X020488Y018600D01*
X020555Y018551D01*
X020628Y018513D01*
X020667Y018501D01*
X020533Y018445D01*
X020385Y018297D01*
X020305Y018104D01*
X020305Y017896D01*
X020385Y017703D01*
X020533Y017555D01*
X020726Y017475D01*
X020934Y017475D01*
X021127Y017555D01*
X021275Y017703D01*
X021355Y017896D01*
X021355Y018104D01*
X021275Y018297D01*
X021127Y018445D01*
X020993Y018501D01*
X021032Y018513D01*
X021105Y018551D01*
X021172Y018600D01*
X021230Y018658D01*
X021279Y018725D01*
X021317Y018798D01*
X021342Y018877D01*
X021355Y018959D01*
X021355Y018965D01*
X020865Y018965D01*
X020865Y019035D01*
X021355Y019035D01*
X021355Y019041D01*
X021342Y019123D01*
X021317Y019202D01*
X021279Y019275D01*
X021254Y019310D01*
X025856Y019310D01*
X025610Y019104D01*
X025610Y019104D01*
X025610Y019104D01*
X025447Y018821D01*
X025391Y018500D01*
X025447Y018179D01*
X025447Y018179D01*
X025610Y017896D01*
X025860Y017687D01*
X026167Y017575D01*
X026493Y017575D01*
X026800Y017687D01*
X027050Y017896D01*
X027140Y018053D01*
X027140Y017424D01*
X027105Y017449D01*
X027032Y017487D01*
X026953Y017512D01*
X026871Y017525D01*
X026865Y017525D01*
X026865Y017035D01*
X026795Y017035D01*
X026795Y017525D01*
X026789Y017525D01*
X026707Y017512D01*
X026628Y017487D01*
X026555Y017449D01*
X026488Y017400D01*
X026430Y017342D01*
X026381Y017275D01*
X026343Y017202D01*
X026331Y017163D01*
X026275Y017297D01*
X026127Y017445D01*
X025934Y017525D01*
X025726Y017525D01*
X025533Y017445D01*
X025385Y017297D01*
X025305Y017104D01*
X016605Y017104D01*
X016605Y017036D02*
X025305Y017036D01*
X025305Y017104D02*
X025305Y016896D01*
X025385Y016703D01*
X025533Y016555D01*
X025726Y016475D01*
X025934Y016475D01*
X026127Y016555D01*
X026275Y016703D01*
X026331Y016837D01*
X026343Y016798D01*
X026381Y016725D01*
X026430Y016658D01*
X026488Y016600D01*
X026555Y016551D01*
X026628Y016513D01*
X026707Y016488D01*
X026789Y016475D01*
X026795Y016475D01*
X026795Y016965D01*
X026865Y016965D01*
X026865Y016475D01*
X026871Y016475D01*
X026953Y016488D01*
X027032Y016513D01*
X027105Y016551D01*
X027140Y016576D01*
X027140Y016174D01*
X027105Y016199D01*
X027032Y016237D01*
X026953Y016262D01*
X026871Y016275D01*
X026865Y016275D01*
X026865Y015785D01*
X026795Y015785D01*
X026795Y016275D01*
X026789Y016275D01*
X026707Y016262D01*
X026628Y016237D01*
X026555Y016199D01*
X026488Y016150D01*
X026430Y016092D01*
X026381Y016025D01*
X026343Y015952D01*
X026331Y015913D01*
X026275Y016047D01*
X026127Y016195D01*
X025934Y016275D01*
X025726Y016275D01*
X025533Y016195D01*
X025385Y016047D01*
X025330Y015915D01*
X025275Y016047D01*
X025127Y016195D01*
X024934Y016275D01*
X024726Y016275D01*
X024533Y016195D01*
X024385Y016047D01*
X024305Y015854D01*
X024305Y015646D01*
X024385Y015453D01*
X024533Y015305D01*
X024726Y015225D01*
X024934Y015225D01*
X025127Y015305D01*
X025275Y015453D01*
X025330Y015585D01*
X025385Y015453D01*
X025533Y015305D01*
X025726Y015225D01*
X025934Y015225D01*
X026127Y015305D01*
X026275Y015453D01*
X026331Y015587D01*
X026343Y015548D01*
X026381Y015475D01*
X026430Y015408D01*
X026488Y015350D01*
X026555Y015301D01*
X026628Y015263D01*
X026707Y015238D01*
X026789Y015225D01*
X026795Y015225D01*
X026795Y015715D01*
X026865Y015715D01*
X026865Y015225D01*
X026871Y015225D01*
X026953Y015238D01*
X027032Y015263D01*
X027105Y015301D01*
X027140Y015326D01*
X027140Y014924D01*
X027105Y014949D01*
X027032Y014987D01*
X026953Y015012D01*
X026871Y015025D01*
X026865Y015025D01*
X026865Y014535D01*
X026795Y014535D01*
X026795Y015025D01*
X026789Y015025D01*
X026707Y015012D01*
X026628Y014987D01*
X026555Y014949D01*
X026488Y014900D01*
X026430Y014842D01*
X026381Y014775D01*
X026284Y014775D01*
X026275Y014797D02*
X026331Y014663D01*
X026343Y014702D01*
X026381Y014775D01*
X026346Y014707D02*
X026313Y014707D01*
X026275Y014797D02*
X026127Y014945D01*
X025934Y015025D01*
X025726Y015025D01*
X025533Y014945D01*
X025385Y014797D01*
X025330Y014665D01*
X025275Y014797D01*
X025127Y014945D01*
X024934Y015025D01*
X024726Y015025D01*
X024533Y014945D01*
X024385Y014797D01*
X024305Y014604D01*
X024305Y014396D01*
X024385Y014203D01*
X024533Y014055D01*
X024726Y013975D01*
X024934Y013975D01*
X025127Y014055D01*
X025275Y014203D01*
X025330Y014335D01*
X025385Y014203D01*
X025533Y014055D01*
X025726Y013975D01*
X025934Y013975D01*
X026127Y014055D01*
X026275Y014203D01*
X026331Y014337D01*
X026343Y014298D01*
X026381Y014225D01*
X026430Y014158D01*
X026488Y014100D01*
X026555Y014051D01*
X026628Y014013D01*
X026707Y013988D01*
X026789Y013975D01*
X026795Y013975D01*
X026795Y014465D01*
X026865Y014465D01*
X026865Y013975D01*
X026871Y013975D01*
X026953Y013988D01*
X027032Y014013D01*
X027105Y014051D01*
X027140Y014076D01*
X027140Y013674D01*
X027105Y013699D01*
X027032Y013737D01*
X026953Y013762D01*
X026871Y013775D01*
X026865Y013775D01*
X026865Y013285D01*
X026795Y013285D01*
X026795Y013775D01*
X026789Y013775D01*
X026707Y013762D01*
X026628Y013737D01*
X026555Y013699D01*
X026488Y013650D01*
X026430Y013592D01*
X026381Y013525D01*
X026343Y013452D01*
X026331Y013413D01*
X026275Y013547D01*
X026127Y013695D01*
X025934Y013775D01*
X025726Y013775D01*
X025533Y013695D01*
X025385Y013547D01*
X025330Y013415D01*
X025275Y013547D01*
X025127Y013695D01*
X024934Y013775D01*
X024726Y013775D01*
X024533Y013695D01*
X024385Y013547D01*
X024305Y013354D01*
X024305Y013146D01*
X024385Y012953D01*
X024533Y012805D01*
X024726Y012725D01*
X024934Y012725D01*
X025127Y012805D01*
X025275Y012953D01*
X025330Y013085D01*
X025385Y012953D01*
X025533Y012805D01*
X025726Y012725D01*
X025934Y012725D01*
X026127Y012805D01*
X026275Y012953D01*
X026331Y013087D01*
X026343Y013048D01*
X026381Y012975D01*
X026430Y012908D01*
X026488Y012850D01*
X026555Y012801D01*
X026628Y012763D01*
X026707Y012738D01*
X026789Y012725D01*
X026795Y012725D01*
X026795Y013215D01*
X026865Y013215D01*
X026865Y012725D01*
X026871Y012725D01*
X026953Y012738D01*
X027032Y012763D01*
X027105Y012801D01*
X027140Y012826D01*
X027140Y012424D01*
X027105Y012449D01*
X027032Y012487D01*
X026953Y012512D01*
X026871Y012525D01*
X026865Y012525D01*
X026865Y012035D01*
X026795Y012035D01*
X026795Y012525D01*
X026789Y012525D01*
X026707Y012512D01*
X026628Y012487D01*
X026555Y012449D01*
X026488Y012400D01*
X026430Y012342D01*
X026381Y012275D01*
X026343Y012202D01*
X026331Y012163D01*
X026275Y012297D01*
X026127Y012445D01*
X025934Y012525D01*
X025726Y012525D01*
X025533Y012445D01*
X025385Y012297D01*
X025330Y012165D01*
X025275Y012297D01*
X025127Y012445D01*
X024934Y012525D01*
X024726Y012525D01*
X024533Y012445D01*
X024385Y012297D01*
X024305Y012104D01*
X024305Y011896D01*
X024385Y011703D01*
X024533Y011555D01*
X024726Y011475D01*
X024934Y011475D01*
X025127Y011555D01*
X025275Y011703D01*
X025330Y011835D01*
X025385Y011703D01*
X025533Y011555D01*
X025726Y011475D01*
X025934Y011475D01*
X026127Y011555D01*
X026275Y011703D01*
X026331Y011837D01*
X026343Y011798D01*
X026381Y011725D01*
X026430Y011658D01*
X026488Y011600D01*
X026555Y011551D01*
X026628Y011513D01*
X026707Y011488D01*
X026789Y011475D01*
X026795Y011475D01*
X026795Y011965D01*
X026865Y011965D01*
X026865Y011475D01*
X026871Y011475D01*
X026953Y011488D01*
X027032Y011513D01*
X027105Y011551D01*
X027140Y011576D01*
X027140Y011174D01*
X027105Y011199D01*
X027032Y011237D01*
X026953Y011262D01*
X026871Y011275D01*
X026865Y011275D01*
X026865Y010785D01*
X026795Y010785D01*
X026795Y011275D01*
X026789Y011275D01*
X026707Y011262D01*
X026628Y011237D01*
X026555Y011199D01*
X026488Y011150D01*
X026430Y011092D01*
X026381Y011025D01*
X026343Y010952D01*
X026331Y010913D01*
X026275Y011047D01*
X026127Y011195D01*
X025934Y011275D01*
X025726Y011275D01*
X025533Y011195D01*
X025385Y011047D01*
X025330Y010915D01*
X025275Y011047D01*
X025127Y011195D01*
X024934Y011275D01*
X024726Y011275D01*
X024533Y011195D01*
X024385Y011047D01*
X024305Y010854D01*
X024305Y010646D01*
X024385Y010453D01*
X024533Y010305D01*
X024726Y010225D01*
X024934Y010225D01*
X025127Y010305D01*
X025275Y010453D01*
X025330Y010585D01*
X025385Y010453D01*
X025533Y010305D01*
X025726Y010225D01*
X025934Y010225D01*
X026127Y010305D01*
X026275Y010453D01*
X026331Y010587D01*
X026343Y010548D01*
X026381Y010475D01*
X026430Y010408D01*
X026488Y010350D01*
X026555Y010301D01*
X026628Y010263D01*
X026707Y010238D01*
X026789Y010225D01*
X026795Y010225D01*
X026795Y010715D01*
X026865Y010715D01*
X026865Y010225D01*
X026871Y010225D01*
X026953Y010238D01*
X027032Y010263D01*
X027105Y010301D01*
X027140Y010326D01*
X027140Y009924D01*
X027105Y009949D01*
X027032Y009987D01*
X026953Y010012D01*
X026871Y010025D01*
X026865Y010025D01*
X026865Y009535D01*
X026795Y009535D01*
X026795Y010025D01*
X026789Y010025D01*
X026707Y010012D01*
X026628Y009987D01*
X026555Y009949D01*
X026488Y009900D01*
X026430Y009842D01*
X026381Y009775D01*
X026343Y009702D01*
X026331Y009663D01*
X026275Y009797D01*
X026127Y009945D01*
X025934Y010025D01*
X025726Y010025D01*
X025533Y009945D01*
X025385Y009797D01*
X025330Y009665D01*
X025275Y009797D01*
X025127Y009945D01*
X024934Y010025D01*
X024726Y010025D01*
X024533Y009945D01*
X024385Y009797D01*
X024305Y009604D01*
X024305Y009396D01*
X024385Y009203D01*
X024533Y009055D01*
X024726Y008975D01*
X024934Y008975D01*
X025127Y009055D01*
X025275Y009203D01*
X025330Y009335D01*
X025385Y009203D01*
X025533Y009055D01*
X025726Y008975D01*
X025934Y008975D01*
X026127Y009055D01*
X026275Y009203D01*
X026331Y009337D01*
X026343Y009298D01*
X026381Y009225D01*
X026430Y009158D01*
X026488Y009100D01*
X026555Y009051D01*
X026628Y009013D01*
X026707Y008988D01*
X026789Y008975D01*
X026795Y008975D01*
X026795Y009465D01*
X026865Y009465D01*
X026865Y008975D01*
X026871Y008975D01*
X026953Y008988D01*
X027032Y009013D01*
X027105Y009051D01*
X027140Y009076D01*
X027140Y008674D01*
X027105Y008699D01*
X027032Y008737D01*
X026953Y008762D01*
X026871Y008775D01*
X026865Y008775D01*
X026865Y008285D01*
X026795Y008285D01*
X026795Y008775D01*
X026789Y008775D01*
X026707Y008762D01*
X026628Y008737D01*
X026555Y008699D01*
X026488Y008650D01*
X026430Y008592D01*
X026381Y008525D01*
X026343Y008452D01*
X026331Y008413D01*
X026275Y008547D01*
X026127Y008695D01*
X025934Y008775D01*
X025726Y008775D01*
X025533Y008695D01*
X025385Y008547D01*
X025330Y008415D01*
X025275Y008547D01*
X025127Y008695D01*
X024934Y008775D01*
X024726Y008775D01*
X024533Y008695D01*
X024385Y008547D01*
X024305Y008354D01*
X024305Y008146D01*
X024385Y007953D01*
X024533Y007805D01*
X024726Y007725D01*
X024934Y007725D01*
X025127Y007805D01*
X025275Y007953D01*
X025330Y008085D01*
X025385Y007953D01*
X025533Y007805D01*
X025726Y007725D01*
X025934Y007725D01*
X026127Y007805D01*
X026275Y007953D01*
X026331Y008087D01*
X026343Y008048D01*
X026381Y007975D01*
X026430Y007908D01*
X026488Y007850D01*
X026555Y007801D01*
X026628Y007763D01*
X026707Y007738D01*
X026789Y007725D01*
X026795Y007725D01*
X026795Y008215D01*
X026865Y008215D01*
X026865Y007725D01*
X026871Y007725D01*
X026953Y007738D01*
X027032Y007763D01*
X027105Y007801D01*
X027140Y007826D01*
X027140Y007424D01*
X027105Y007449D01*
X027032Y007487D01*
X026953Y007512D01*
X026871Y007525D01*
X026865Y007525D01*
X026865Y007035D01*
X026795Y007035D01*
X026795Y007525D01*
X026789Y007525D01*
X026707Y007512D01*
X026628Y007487D01*
X026555Y007449D01*
X026488Y007400D01*
X026430Y007342D01*
X026381Y007275D01*
X026343Y007202D01*
X026331Y007163D01*
X026275Y007297D01*
X026127Y007445D01*
X025934Y007525D01*
X025726Y007525D01*
X025533Y007445D01*
X025385Y007297D01*
X025330Y007165D01*
X025275Y007297D01*
X025127Y007445D01*
X024934Y007525D01*
X024726Y007525D01*
X024533Y007445D01*
X024385Y007297D01*
X024305Y007104D01*
X024305Y006896D01*
X024385Y006703D01*
X024533Y006555D01*
X024726Y006475D01*
X024934Y006475D01*
X025127Y006555D01*
X025275Y006703D01*
X025330Y006835D01*
X025385Y006703D01*
X025533Y006555D01*
X025726Y006475D01*
X025934Y006475D01*
X026127Y006555D01*
X026275Y006703D01*
X026331Y006837D01*
X026343Y006798D01*
X026381Y006725D01*
X026430Y006658D01*
X026488Y006600D01*
X026555Y006551D01*
X026628Y006513D01*
X026707Y006488D01*
X026789Y006475D01*
X026795Y006475D01*
X026795Y006965D01*
X026865Y006965D01*
X026865Y006475D01*
X026871Y006475D01*
X026953Y006488D01*
X027032Y006513D01*
X027105Y006551D01*
X027140Y006576D01*
X027140Y005947D01*
X027050Y006104D01*
X026800Y006313D01*
X026800Y006313D01*
X026493Y006425D01*
X026167Y006425D01*
X025860Y006313D01*
X025610Y006104D01*
X025610Y006104D01*
X025610Y006104D01*
X025447Y005821D01*
X025391Y005500D01*
X025447Y005179D01*
X025447Y005179D01*
X025610Y004896D01*
X025856Y004690D01*
X025262Y004690D01*
X025275Y004703D01*
X025355Y004896D01*
X025355Y005104D01*
X025275Y005297D01*
X025127Y005445D01*
X024934Y005525D01*
X024726Y005525D01*
X024533Y005445D01*
X024385Y005297D01*
X024330Y005165D01*
X024275Y005297D01*
X024127Y005445D01*
X023934Y005525D01*
X023726Y005525D01*
X023533Y005445D01*
X023385Y005297D01*
X023330Y005165D01*
X023275Y005297D01*
X023127Y005445D01*
X022934Y005525D01*
X022726Y005525D01*
X022533Y005445D01*
X022385Y005297D01*
X022329Y005163D01*
X022317Y005202D01*
X022279Y005275D01*
X022230Y005342D01*
X022172Y005400D01*
X022105Y005449D01*
X022032Y005487D01*
X021953Y005512D01*
X021871Y005525D01*
X021865Y005525D01*
X021865Y005035D01*
X021795Y005035D01*
X021795Y005525D01*
X021789Y005525D01*
X021707Y005512D01*
X021628Y005487D01*
X021555Y005449D01*
X021488Y005400D01*
X021430Y005342D01*
X021381Y005275D01*
X021343Y005202D01*
X021331Y005163D01*
X021275Y005297D01*
X021127Y005445D01*
X020934Y005525D01*
X020726Y005525D01*
X020533Y005445D01*
X020385Y005297D01*
X020330Y005165D01*
X020275Y005297D01*
X020127Y005445D01*
X019934Y005525D01*
X019726Y005525D01*
X019533Y005445D01*
X019385Y005297D01*
X019329Y005163D01*
X019317Y005202D01*
X019279Y005275D01*
X019230Y005342D01*
X019172Y005400D01*
X019105Y005449D01*
X019032Y005487D01*
X018993Y005499D01*
X019127Y005555D01*
X019275Y005703D01*
X019339Y005858D01*
X019429Y005769D01*
X019546Y005720D01*
X019674Y005720D01*
X019791Y005769D01*
X019881Y005859D01*
X019930Y005976D01*
X019930Y006104D01*
X019881Y006221D01*
X019850Y006253D01*
X019850Y006751D01*
X020409Y007310D01*
X020520Y007421D01*
X020520Y009421D01*
X020909Y009810D01*
X021020Y009921D01*
X021020Y012459D01*
X020740Y012739D01*
X020740Y012854D01*
X020691Y012971D01*
X020601Y013061D01*
X020496Y013105D01*
X020530Y013186D01*
X020530Y013314D01*
X020481Y013431D01*
X020391Y013521D01*
X020274Y013570D01*
X020146Y013570D01*
X020029Y013521D01*
X019939Y013431D01*
X019890Y013314D01*
X019890Y013186D01*
X019939Y013069D01*
X020029Y012979D01*
X020134Y012935D01*
X020100Y012854D01*
X020100Y012726D01*
X020145Y012617D01*
X020114Y012630D01*
X019986Y012630D01*
X019869Y012581D01*
X019779Y012491D01*
X019730Y012374D01*
X019730Y012246D01*
X019779Y012129D01*
X019869Y012039D01*
X019914Y012020D01*
X019870Y011914D01*
X019870Y011786D01*
X019919Y011669D01*
X020009Y011579D01*
X020126Y011530D01*
X020254Y011530D01*
X020371Y011579D01*
X020461Y011669D01*
X020510Y011786D01*
X020510Y011914D01*
X020461Y012031D01*
X020371Y012121D01*
X020326Y012140D01*
X020370Y012246D01*
X020370Y012374D01*
X020325Y012483D01*
X020356Y012470D01*
X020471Y012470D01*
X020640Y012301D01*
X020640Y010773D01*
X020561Y010851D01*
X020444Y010900D01*
X020316Y010900D01*
X020199Y010851D01*
X020109Y010761D01*
X020060Y010644D01*
X020060Y010516D01*
X020109Y010399D01*
X020199Y010309D01*
X020316Y010260D01*
X020444Y010260D01*
X020561Y010309D01*
X020640Y010387D01*
X020640Y010079D01*
X020140Y009579D01*
X020140Y007579D01*
X019581Y007020D01*
X019470Y006909D01*
X019470Y006328D01*
X019429Y006311D01*
X019339Y006221D01*
X019323Y006182D01*
X019275Y006297D01*
X019127Y006445D01*
X019065Y006471D01*
X019065Y007053D01*
X019065Y007035D02*
X019596Y007035D01*
X019581Y007020D02*
X019581Y007020D01*
X019527Y006966D02*
X019065Y006966D01*
X019065Y006898D02*
X019470Y006898D01*
X019470Y006829D02*
X019065Y006829D01*
X019065Y006761D02*
X019470Y006761D01*
X019470Y006692D02*
X019065Y006692D01*
X019065Y006624D02*
X019470Y006624D01*
X019470Y006555D02*
X019065Y006555D01*
X019065Y006487D02*
X019470Y006487D01*
X019470Y006418D02*
X019154Y006418D01*
X019223Y006350D02*
X019470Y006350D01*
X019398Y006281D02*
X019282Y006281D01*
X019310Y006213D02*
X019335Y006213D01*
X019610Y006040D02*
X019660Y006090D01*
X019660Y006830D01*
X020330Y007500D01*
X020330Y009500D01*
X020830Y010000D01*
X020830Y012380D01*
X020420Y012790D01*
X020740Y012789D02*
X023157Y012789D01*
X023179Y012841D02*
X023130Y012724D01*
X023130Y012596D01*
X023179Y012479D01*
X023269Y012389D01*
X023386Y012340D01*
X023514Y012340D01*
X023631Y012389D01*
X023655Y012412D01*
X023669Y012379D01*
X023759Y012289D01*
X023876Y012240D01*
X024004Y012240D01*
X024121Y012289D01*
X024211Y012379D01*
X024260Y012496D01*
X024260Y012624D01*
X024211Y012741D01*
X024121Y012831D01*
X024004Y012880D01*
X023876Y012880D01*
X023759Y012831D01*
X023735Y012808D01*
X023721Y012841D01*
X023631Y012931D01*
X023514Y012980D01*
X023386Y012980D01*
X023269Y012931D01*
X023179Y012841D01*
X023194Y012857D02*
X020739Y012857D01*
X020710Y012926D02*
X023263Y012926D01*
X023130Y012720D02*
X020759Y012720D01*
X020827Y012652D02*
X023130Y012652D01*
X023136Y012583D02*
X020896Y012583D01*
X020964Y012515D02*
X023164Y012515D01*
X023211Y012446D02*
X021020Y012446D01*
X021020Y012378D02*
X023296Y012378D01*
X023604Y012378D02*
X023670Y012378D01*
X023738Y012309D02*
X021020Y012309D01*
X021020Y012241D02*
X023875Y012241D01*
X024005Y012241D02*
X024361Y012241D01*
X024333Y012172D02*
X021020Y012172D01*
X021020Y012104D02*
X024305Y012104D01*
X024305Y012035D02*
X021020Y012035D01*
X021020Y011967D02*
X023650Y011967D01*
X023706Y011990D02*
X023589Y011941D01*
X023499Y011851D01*
X023450Y011734D01*
X023450Y011606D01*
X023499Y011489D01*
X023589Y011399D01*
X023706Y011350D01*
X021020Y011350D01*
X021020Y011282D02*
X023173Y011282D01*
X023149Y011271D02*
X023059Y011181D01*
X023010Y011064D01*
X023010Y010936D01*
X023059Y010819D01*
X023149Y010729D01*
X023266Y010680D01*
X023394Y010680D01*
X023511Y010729D01*
X023580Y010797D01*
X023649Y010729D01*
X023766Y010680D01*
X023894Y010680D01*
X024011Y010729D01*
X024101Y010819D01*
X024150Y010936D01*
X024150Y011064D01*
X024101Y011181D01*
X024011Y011271D01*
X023894Y011320D01*
X023766Y011320D01*
X023649Y011271D01*
X023580Y011203D01*
X023511Y011271D01*
X023394Y011320D01*
X023266Y011320D01*
X023149Y011271D01*
X023090Y011213D02*
X021020Y011213D01*
X021020Y011145D02*
X023043Y011145D01*
X023015Y011076D02*
X021020Y011076D01*
X021020Y011008D02*
X023010Y011008D01*
X023010Y010939D02*
X021020Y010939D01*
X021020Y010871D02*
X023037Y010871D01*
X023075Y010802D02*
X021020Y010802D01*
X021020Y010734D02*
X023144Y010734D01*
X023516Y010734D02*
X023644Y010734D01*
X024016Y010734D02*
X024305Y010734D01*
X024305Y010802D02*
X024085Y010802D01*
X024123Y010871D02*
X024312Y010871D01*
X024340Y010939D02*
X024150Y010939D01*
X024150Y011008D02*
X024368Y011008D01*
X024414Y011076D02*
X024145Y011076D01*
X024117Y011145D02*
X024482Y011145D01*
X024576Y011213D02*
X024070Y011213D01*
X023987Y011282D02*
X027140Y011282D01*
X027140Y011350D02*
X023834Y011350D01*
X023951Y011399D01*
X024041Y011489D01*
X024090Y011606D01*
X024090Y011734D01*
X024041Y011851D01*
X023951Y011941D01*
X023834Y011990D01*
X023706Y011990D01*
X023545Y011898D02*
X021020Y011898D01*
X021020Y011830D02*
X023490Y011830D01*
X023461Y011761D02*
X021020Y011761D01*
X021020Y011693D02*
X023450Y011693D01*
X023450Y011624D02*
X021020Y011624D01*
X021020Y011556D02*
X023471Y011556D01*
X023500Y011487D02*
X021020Y011487D01*
X021020Y011419D02*
X023569Y011419D01*
X023706Y011350D02*
X023834Y011350D01*
X023971Y011419D02*
X027140Y011419D01*
X027140Y011487D02*
X026947Y011487D01*
X026865Y011487D02*
X026795Y011487D01*
X026795Y011556D02*
X026865Y011556D01*
X026865Y011624D02*
X026795Y011624D01*
X026795Y011693D02*
X026865Y011693D01*
X026865Y011761D02*
X026795Y011761D01*
X026795Y011830D02*
X026865Y011830D01*
X026865Y011898D02*
X026795Y011898D01*
X026795Y012035D02*
X026865Y012035D01*
X026865Y012104D02*
X026795Y012104D01*
X026795Y012172D02*
X026865Y012172D01*
X026865Y012241D02*
X026795Y012241D01*
X026795Y012309D02*
X026865Y012309D01*
X026865Y012378D02*
X026795Y012378D01*
X026795Y012446D02*
X026865Y012446D01*
X026865Y012515D02*
X026795Y012515D01*
X026723Y012515D02*
X025960Y012515D01*
X026125Y012446D02*
X026551Y012446D01*
X026465Y012378D02*
X026195Y012378D01*
X026263Y012309D02*
X026406Y012309D01*
X026363Y012241D02*
X026299Y012241D01*
X026327Y012172D02*
X026334Y012172D01*
X026328Y011830D02*
X026333Y011830D01*
X026363Y011761D02*
X026299Y011761D01*
X026265Y011693D02*
X026404Y011693D01*
X026464Y011624D02*
X026196Y011624D01*
X026128Y011556D02*
X026549Y011556D01*
X026713Y011487D02*
X025963Y011487D01*
X025697Y011487D02*
X024963Y011487D01*
X025128Y011556D02*
X025532Y011556D01*
X025464Y011624D02*
X025196Y011624D01*
X025265Y011693D02*
X025395Y011693D01*
X025361Y011761D02*
X025299Y011761D01*
X025328Y011830D02*
X025332Y011830D01*
X025327Y012172D02*
X025333Y012172D01*
X025361Y012241D02*
X025299Y012241D01*
X025263Y012309D02*
X025397Y012309D01*
X025465Y012378D02*
X025195Y012378D01*
X025125Y012446D02*
X025535Y012446D01*
X025700Y012515D02*
X024960Y012515D01*
X024700Y012515D02*
X024260Y012515D01*
X024260Y012583D02*
X027140Y012583D01*
X027140Y012515D02*
X026937Y012515D01*
X027109Y012446D02*
X027140Y012446D01*
X027140Y012652D02*
X024248Y012652D01*
X024220Y012720D02*
X027140Y012720D01*
X027140Y012789D02*
X027081Y012789D01*
X026865Y012789D02*
X026795Y012789D01*
X026795Y012857D02*
X026865Y012857D01*
X026865Y012926D02*
X026795Y012926D01*
X026795Y012994D02*
X026865Y012994D01*
X026865Y013063D02*
X026795Y013063D01*
X026795Y013131D02*
X026865Y013131D01*
X026865Y013200D02*
X026795Y013200D01*
X026795Y013337D02*
X026865Y013337D01*
X026865Y013405D02*
X026795Y013405D01*
X026795Y013474D02*
X026865Y013474D01*
X026865Y013542D02*
X026795Y013542D01*
X026795Y013611D02*
X026865Y013611D01*
X026865Y013679D02*
X026795Y013679D01*
X026795Y013748D02*
X026865Y013748D01*
X026998Y013748D02*
X027140Y013748D01*
X027140Y013816D02*
X023316Y013816D01*
X023301Y013851D02*
X023211Y013941D01*
X023094Y013990D01*
X022966Y013990D01*
X022849Y013941D01*
X022759Y013851D01*
X022710Y013734D01*
X022710Y013606D01*
X022759Y013489D01*
X022849Y013399D01*
X022966Y013350D01*
X023094Y013350D01*
X023211Y013399D01*
X023301Y013489D01*
X023350Y013606D01*
X023350Y013734D01*
X023301Y013851D01*
X023268Y013885D02*
X027140Y013885D01*
X027140Y013953D02*
X023183Y013953D01*
X023344Y013748D02*
X024659Y013748D01*
X024517Y013679D02*
X023350Y013679D01*
X023350Y013611D02*
X024448Y013611D01*
X024383Y013542D02*
X023323Y013542D01*
X023286Y013474D02*
X024354Y013474D01*
X024326Y013405D02*
X023218Y013405D01*
X022842Y013405D02*
X020492Y013405D01*
X020521Y013337D02*
X024305Y013337D01*
X024305Y013268D02*
X020530Y013268D01*
X020530Y013200D02*
X024305Y013200D01*
X024311Y013131D02*
X020507Y013131D01*
X020598Y013063D02*
X024339Y013063D01*
X024368Y012994D02*
X020669Y012994D01*
X020130Y012926D02*
X018104Y012926D01*
X018132Y012994D02*
X020013Y012994D01*
X019945Y013063D02*
X018150Y013063D01*
X018150Y013131D02*
X019913Y013131D01*
X019890Y013200D02*
X018135Y013200D01*
X018315Y013268D02*
X019890Y013268D01*
X019899Y013337D02*
X018399Y013337D01*
X018446Y013405D02*
X019928Y013405D01*
X019981Y013474D02*
X018475Y013474D01*
X018480Y013542D02*
X020079Y013542D01*
X020341Y013542D02*
X022737Y013542D01*
X022710Y013611D02*
X018480Y013611D01*
X018453Y013679D02*
X022710Y013679D01*
X022716Y013748D02*
X018415Y013748D01*
X018347Y013816D02*
X022744Y013816D01*
X022792Y013885D02*
X016813Y013885D01*
X016882Y013953D02*
X022877Y013953D01*
X022774Y013474D02*
X020439Y013474D01*
X020101Y012857D02*
X018040Y012857D01*
X017914Y012789D02*
X020100Y012789D01*
X020103Y012720D02*
X017690Y012720D01*
X017690Y012652D02*
X020131Y012652D01*
X019873Y012583D02*
X017690Y012583D01*
X017690Y012515D02*
X019802Y012515D01*
X019760Y012446D02*
X017690Y012446D01*
X017636Y012378D02*
X019732Y012378D01*
X019730Y012309D02*
X017568Y012309D01*
X017499Y012241D02*
X019732Y012241D01*
X019761Y012172D02*
X017431Y012172D01*
X017370Y012104D02*
X019804Y012104D01*
X019878Y012035D02*
X017370Y012035D01*
X017370Y011967D02*
X019892Y011967D01*
X019870Y011898D02*
X017370Y011898D01*
X017370Y011830D02*
X019870Y011830D01*
X019880Y011761D02*
X017370Y011761D01*
X017382Y011693D02*
X017748Y011693D01*
X017621Y011624D02*
X017509Y011624D01*
X017180Y011810D02*
X016990Y011620D01*
X016610Y011620D01*
X016230Y012000D01*
X016230Y012300D01*
X015430Y013100D01*
X015380Y013150D01*
X015250Y013280D01*
X010530Y013280D01*
X010200Y013610D01*
X009220Y013610D01*
X008330Y014500D01*
X008330Y016500D01*
X009830Y018000D01*
X010311Y017789D02*
X010349Y017789D01*
X010330Y017835D02*
X010385Y017703D01*
X010533Y017555D01*
X010726Y017475D01*
X010934Y017475D01*
X011042Y017519D01*
X011251Y017310D01*
X011751Y017310D01*
X012631Y016430D01*
X014048Y016430D01*
X014000Y016314D01*
X014000Y016186D01*
X014049Y016069D01*
X014139Y015979D01*
X014256Y015930D01*
X014384Y015930D01*
X014501Y015979D01*
X014591Y016069D01*
X014640Y016186D01*
X014640Y016314D01*
X014592Y016430D01*
X015097Y016430D01*
X015169Y016359D01*
X015286Y016310D01*
X015414Y016310D01*
X015531Y016359D01*
X015621Y016449D01*
X015670Y016566D01*
X015670Y016694D01*
X015621Y016811D01*
X015531Y016901D01*
X015414Y016950D01*
X015286Y016950D01*
X015169Y016901D01*
X015079Y016811D01*
X015078Y016810D01*
X012789Y016810D01*
X012289Y017310D01*
X013050Y017310D01*
X013010Y017214D01*
X013010Y017086D01*
X013059Y016969D01*
X013149Y016879D01*
X013266Y016830D01*
X012769Y016830D01*
X012700Y016899D02*
X013129Y016899D01*
X013060Y016967D02*
X012632Y016967D01*
X012563Y017036D02*
X013031Y017036D01*
X013010Y017104D02*
X012495Y017104D01*
X012426Y017173D02*
X013010Y017173D01*
X013021Y017241D02*
X012358Y017241D01*
X012289Y017310D02*
X013050Y017310D01*
X013610Y017310D02*
X014990Y017310D01*
X014990Y017206D01*
X015039Y017089D01*
X015129Y016999D01*
X015246Y016950D01*
X015374Y016950D01*
X015491Y016999D01*
X015581Y017089D01*
X015630Y017206D01*
X015630Y017334D01*
X015581Y017451D01*
X015491Y017541D01*
X015374Y017590D01*
X015259Y017590D01*
X015211Y017638D01*
X015230Y017658D01*
X015279Y017725D01*
X015317Y017798D01*
X015330Y017840D01*
X015343Y017798D01*
X015381Y017725D01*
X015430Y017658D01*
X015488Y017600D01*
X015555Y017551D01*
X015628Y017513D01*
X015707Y017488D01*
X015789Y017475D01*
X015795Y017475D01*
X015795Y017965D01*
X015305Y017965D01*
X014865Y017965D01*
X014865Y018035D01*
X015795Y018035D01*
X015795Y017965D01*
X015865Y017965D01*
X015865Y017475D01*
X015871Y017475D01*
X015953Y017488D01*
X016032Y017513D01*
X016065Y017531D01*
X016050Y017494D01*
X016050Y017366D01*
X016055Y017354D01*
X016055Y016614D01*
X015647Y016206D01*
X015605Y016105D01*
X015605Y013194D01*
X015466Y013333D01*
X015551Y013419D01*
X015600Y013536D01*
X015600Y013664D01*
X015551Y013781D01*
X015461Y013871D01*
X015344Y013920D01*
X015229Y013920D01*
X013947Y015202D01*
X014011Y015229D01*
X014080Y015297D01*
X014149Y015229D01*
X014266Y015180D01*
X014394Y015180D01*
X014511Y015229D01*
X014601Y015319D01*
X014620Y015364D01*
X014620Y015356D01*
X014669Y015239D01*
X014759Y015149D01*
X014876Y015100D01*
X015004Y015100D01*
X015121Y015149D01*
X015211Y015239D01*
X015260Y015356D01*
X015260Y015484D01*
X015211Y015601D01*
X015121Y015691D01*
X015004Y015740D01*
X014876Y015740D01*
X014759Y015691D01*
X014669Y015601D01*
X014650Y015556D01*
X014650Y015564D01*
X014601Y015681D01*
X014511Y015771D01*
X014394Y015820D01*
X014266Y015820D01*
X014149Y015771D01*
X014080Y015703D01*
X014011Y015771D01*
X013894Y015820D01*
X013766Y015820D01*
X013649Y015771D01*
X013559Y015681D01*
X013532Y015617D01*
X013359Y015790D01*
X012893Y015790D01*
X012811Y015871D01*
X012694Y015920D01*
X012566Y015920D01*
X012449Y015871D01*
X012359Y015781D01*
X012310Y015664D01*
X012310Y015536D01*
X012359Y015419D01*
X012449Y015329D01*
X012566Y015280D01*
X012694Y015280D01*
X012811Y015329D01*
X012893Y015410D01*
X013201Y015410D01*
X014960Y013651D01*
X014960Y013536D01*
X014987Y013470D01*
X010609Y013470D01*
X010390Y013689D01*
X010279Y013800D01*
X009299Y013800D01*
X008520Y014579D01*
X008520Y016421D01*
X009618Y017519D01*
X009726Y017475D01*
X009934Y017475D01*
X010127Y017555D01*
X010275Y017703D01*
X010330Y017835D01*
X010283Y017721D02*
X010377Y017721D01*
X010435Y017652D02*
X010225Y017652D01*
X010156Y017584D02*
X010504Y017584D01*
X010629Y017515D02*
X010031Y017515D01*
X009629Y017515D02*
X009614Y017515D01*
X009545Y017447D02*
X011115Y017447D01*
X011046Y017515D02*
X011031Y017515D01*
X011183Y017378D02*
X009477Y017378D01*
X009408Y017310D02*
X011752Y017310D01*
X011820Y017241D02*
X009340Y017241D01*
X009271Y017173D02*
X011889Y017173D01*
X011957Y017104D02*
X009203Y017104D01*
X009134Y017036D02*
X012026Y017036D01*
X012094Y016967D02*
X009066Y016967D01*
X008997Y016899D02*
X012163Y016899D01*
X012231Y016830D02*
X008929Y016830D01*
X008860Y016762D02*
X010139Y016762D01*
X010149Y016771D02*
X010059Y016681D01*
X010010Y016564D01*
X010010Y016436D01*
X010059Y016319D01*
X010149Y016229D01*
X010266Y016180D01*
X010394Y016180D01*
X010511Y016229D01*
X010601Y016319D01*
X010650Y016436D01*
X010650Y016564D01*
X010601Y016681D01*
X010511Y016771D01*
X010394Y016820D01*
X010266Y016820D01*
X010149Y016771D01*
X010070Y016693D02*
X008792Y016693D01*
X008723Y016625D02*
X010035Y016625D01*
X010010Y016556D02*
X008655Y016556D01*
X008586Y016488D02*
X010010Y016488D01*
X010017Y016419D02*
X008520Y016419D01*
X008520Y016351D02*
X010046Y016351D01*
X010095Y016282D02*
X008520Y016282D01*
X008520Y016214D02*
X010185Y016214D01*
X010475Y016214D02*
X014000Y016214D01*
X014000Y016282D02*
X010565Y016282D01*
X010614Y016351D02*
X014015Y016351D01*
X014044Y016419D02*
X010643Y016419D01*
X010650Y016488D02*
X012574Y016488D01*
X012505Y016556D02*
X010650Y016556D01*
X010625Y016625D02*
X012437Y016625D01*
X012368Y016693D02*
X010590Y016693D01*
X010521Y016762D02*
X012300Y016762D01*
X012710Y016620D02*
X011830Y017500D01*
X011330Y017500D01*
X010830Y018000D01*
X011830Y018000D02*
X012330Y017500D01*
X015080Y017500D01*
X015310Y017270D01*
X015528Y017036D02*
X016055Y017036D01*
X016055Y017104D02*
X015588Y017104D01*
X015616Y017173D02*
X016055Y017173D01*
X016055Y017241D02*
X015630Y017241D01*
X015630Y017310D02*
X016055Y017310D01*
X016050Y017378D02*
X015612Y017378D01*
X015583Y017447D02*
X016050Y017447D01*
X016059Y017515D02*
X016035Y017515D01*
X015865Y017515D02*
X015795Y017515D01*
X015795Y017584D02*
X015865Y017584D01*
X015865Y017652D02*
X015795Y017652D01*
X015795Y017721D02*
X015865Y017721D01*
X015865Y017789D02*
X015795Y017789D01*
X015795Y017858D02*
X015865Y017858D01*
X015865Y017926D02*
X015795Y017926D01*
X015795Y017995D02*
X014865Y017995D01*
X014865Y018035D02*
X014795Y018035D01*
X014795Y018525D01*
X014795Y018965D01*
X014865Y018965D01*
X014865Y018035D01*
X014865Y018063D02*
X014795Y018063D01*
X014795Y018035D02*
X014795Y017965D01*
X014305Y017965D01*
X013865Y017965D01*
X013865Y018035D01*
X014795Y018035D01*
X014795Y017995D02*
X013865Y017995D01*
X013610Y017310D02*
X013650Y017214D01*
X013650Y017086D01*
X013601Y016969D01*
X013511Y016879D01*
X013394Y016830D01*
X015097Y016830D01*
X015166Y016899D02*
X013531Y016899D01*
X013600Y016967D02*
X015205Y016967D01*
X015092Y017036D02*
X013629Y017036D01*
X013650Y017104D02*
X015032Y017104D01*
X015004Y017173D02*
X013650Y017173D01*
X013639Y017241D02*
X014990Y017241D01*
X014990Y017310D02*
X013610Y017310D01*
X013394Y016830D02*
X013266Y016830D01*
X012710Y016620D02*
X015260Y016620D01*
X015350Y016630D01*
X015670Y016625D02*
X016055Y016625D01*
X016055Y016693D02*
X015670Y016693D01*
X015642Y016762D02*
X016055Y016762D01*
X016055Y016830D02*
X015603Y016830D01*
X015534Y016899D02*
X016055Y016899D01*
X016055Y016967D02*
X015415Y016967D01*
X015666Y016556D02*
X015997Y016556D01*
X015929Y016488D02*
X015637Y016488D01*
X015592Y016419D02*
X015860Y016419D01*
X015792Y016351D02*
X015512Y016351D01*
X015655Y016214D02*
X014640Y016214D01*
X014640Y016282D02*
X015723Y016282D01*
X015622Y016145D02*
X014623Y016145D01*
X014595Y016077D02*
X015605Y016077D01*
X015605Y016008D02*
X014531Y016008D01*
X014407Y015940D02*
X015605Y015940D01*
X015605Y015871D02*
X012812Y015871D01*
X012880Y015803D02*
X013724Y015803D01*
X013611Y015734D02*
X013415Y015734D01*
X013483Y015666D02*
X013552Y015666D01*
X013280Y015600D02*
X015280Y013600D01*
X015574Y013474D02*
X015605Y013474D01*
X015600Y013542D02*
X015605Y013542D01*
X015600Y013611D02*
X015605Y013611D01*
X015594Y013679D02*
X015605Y013679D01*
X015605Y013748D02*
X015565Y013748D01*
X015605Y013816D02*
X015517Y013816D01*
X015429Y013885D02*
X015605Y013885D01*
X015605Y013953D02*
X015196Y013953D01*
X015127Y014022D02*
X015605Y014022D01*
X015605Y014090D02*
X015059Y014090D01*
X014990Y014159D02*
X015605Y014159D01*
X015605Y014227D02*
X014922Y014227D01*
X014853Y014296D02*
X015605Y014296D01*
X015605Y014364D02*
X014785Y014364D01*
X014716Y014433D02*
X015605Y014433D01*
X015605Y014501D02*
X014648Y014501D01*
X014579Y014570D02*
X015605Y014570D01*
X015605Y014638D02*
X014511Y014638D01*
X014442Y014707D02*
X015605Y014707D01*
X015605Y014775D02*
X014374Y014775D01*
X014305Y014844D02*
X015605Y014844D01*
X015605Y014912D02*
X014237Y014912D01*
X014168Y014981D02*
X015605Y014981D01*
X015605Y015049D02*
X014100Y015049D01*
X014031Y015118D02*
X014834Y015118D01*
X014721Y015186D02*
X014408Y015186D01*
X014537Y015255D02*
X014662Y015255D01*
X014634Y015323D02*
X014603Y015323D01*
X014636Y015597D02*
X014667Y015597D01*
X014608Y015666D02*
X014733Y015666D01*
X014862Y015734D02*
X014549Y015734D01*
X014436Y015803D02*
X015605Y015803D01*
X015605Y015734D02*
X015018Y015734D01*
X015147Y015666D02*
X015605Y015666D01*
X015605Y015597D02*
X015213Y015597D01*
X015241Y015529D02*
X015605Y015529D01*
X015605Y015460D02*
X015260Y015460D01*
X015260Y015392D02*
X015605Y015392D01*
X015605Y015323D02*
X015246Y015323D01*
X015218Y015255D02*
X015605Y015255D01*
X015605Y015186D02*
X015159Y015186D01*
X015046Y015118D02*
X015605Y015118D01*
X016155Y015118D02*
X016560Y015118D01*
X016599Y015079D02*
X016716Y015030D01*
X016844Y015030D01*
X016961Y015079D01*
X017051Y015169D01*
X017100Y015286D01*
X017100Y015414D01*
X017089Y015440D01*
X017181Y015479D01*
X017271Y015569D01*
X017320Y015686D01*
X017320Y015814D01*
X017271Y015931D01*
X017181Y016021D01*
X017064Y016070D01*
X016936Y016070D01*
X016819Y016021D01*
X016729Y015931D01*
X016680Y015814D01*
X016680Y015686D01*
X016691Y015660D01*
X016599Y015621D01*
X016509Y015531D01*
X016460Y015414D01*
X016460Y015286D01*
X016509Y015169D01*
X016599Y015079D01*
X016670Y015049D02*
X016155Y015049D01*
X016155Y014981D02*
X017372Y014981D01*
X017440Y015049D02*
X016890Y015049D01*
X017000Y015118D02*
X017509Y015118D01*
X017577Y015186D02*
X017058Y015186D01*
X017087Y015255D02*
X017646Y015255D01*
X017714Y015323D02*
X017100Y015323D01*
X017100Y015392D02*
X017783Y015392D01*
X017851Y015460D02*
X017136Y015460D01*
X017231Y015529D02*
X017920Y015529D01*
X017988Y015597D02*
X017283Y015597D01*
X017311Y015666D02*
X018057Y015666D01*
X018125Y015734D02*
X017320Y015734D01*
X017320Y015803D02*
X018194Y015803D01*
X018262Y015871D02*
X017296Y015871D01*
X017263Y015940D02*
X018331Y015940D01*
X018399Y016008D02*
X017195Y016008D01*
X016805Y016008D02*
X016227Y016008D01*
X016295Y016077D02*
X018468Y016077D01*
X018536Y016145D02*
X016364Y016145D01*
X016432Y016214D02*
X020153Y016214D01*
X020221Y016282D02*
X019471Y016282D01*
X019511Y016299D02*
X019601Y016389D01*
X019650Y016506D01*
X019650Y016634D01*
X019601Y016751D01*
X019511Y016841D01*
X019394Y016890D01*
X019266Y016890D01*
X019149Y016841D01*
X019059Y016751D01*
X019010Y016634D01*
X019010Y016506D01*
X019059Y016389D01*
X019149Y016299D01*
X019266Y016250D01*
X019394Y016250D01*
X019511Y016299D01*
X019563Y016351D02*
X020290Y016351D01*
X020358Y016419D02*
X019614Y016419D01*
X019642Y016488D02*
X020427Y016488D01*
X020495Y016556D02*
X019650Y016556D01*
X019650Y016625D02*
X020564Y016625D01*
X020632Y016693D02*
X019625Y016693D01*
X019591Y016762D02*
X025361Y016762D01*
X025332Y016830D02*
X019523Y016830D01*
X019137Y016830D02*
X016605Y016830D01*
X016605Y016762D02*
X019069Y016762D01*
X019035Y016693D02*
X016605Y016693D01*
X016605Y016625D02*
X019010Y016625D01*
X019010Y016556D02*
X016605Y016556D01*
X016605Y016488D02*
X019018Y016488D01*
X019046Y016419D02*
X016594Y016419D01*
X016566Y016351D02*
X019097Y016351D01*
X019189Y016282D02*
X016501Y016282D01*
X016737Y015940D02*
X016158Y015940D01*
X016155Y015871D02*
X016704Y015871D01*
X016680Y015803D02*
X016155Y015803D01*
X016155Y015734D02*
X016680Y015734D01*
X016689Y015666D02*
X016155Y015666D01*
X016155Y015597D02*
X016574Y015597D01*
X016508Y015529D02*
X016155Y015529D01*
X016155Y015460D02*
X016479Y015460D01*
X016460Y015392D02*
X016155Y015392D01*
X016155Y015323D02*
X016460Y015323D01*
X016473Y015255D02*
X016155Y015255D01*
X016155Y015186D02*
X016502Y015186D01*
X016155Y014912D02*
X017303Y014912D01*
X017235Y014844D02*
X016155Y014844D01*
X016155Y014775D02*
X017166Y014775D01*
X017098Y014707D02*
X016155Y014707D01*
X016155Y014638D02*
X017029Y014638D01*
X016961Y014570D02*
X016155Y014570D01*
X016155Y014501D02*
X016892Y014501D01*
X016824Y014433D02*
X016155Y014433D01*
X016155Y014364D02*
X016755Y014364D01*
X016687Y014296D02*
X016155Y014296D01*
X016155Y014227D02*
X016618Y014227D01*
X016550Y014159D02*
X016155Y014159D01*
X016155Y014090D02*
X016481Y014090D01*
X016413Y014022D02*
X016155Y014022D01*
X016155Y013953D02*
X016344Y013953D01*
X016676Y013748D02*
X017245Y013748D01*
X017207Y013679D02*
X016608Y013679D01*
X016560Y013611D02*
X017180Y013611D01*
X017180Y013542D02*
X016560Y013542D01*
X016706Y013474D02*
X017054Y013474D01*
X016982Y013405D02*
X016778Y013405D01*
X016820Y013337D02*
X016940Y013337D01*
X016912Y013268D02*
X016848Y013268D01*
X016850Y013200D02*
X016910Y013200D01*
X016912Y013131D02*
X016848Y013131D01*
X016819Y013063D02*
X016941Y013063D01*
X016983Y012994D02*
X016777Y012994D01*
X016704Y012926D02*
X017056Y012926D01*
X017310Y012857D02*
X016562Y012857D01*
X016630Y012789D02*
X017310Y012789D01*
X017310Y012720D02*
X016699Y012720D01*
X016767Y012652D02*
X017310Y012652D01*
X017304Y012583D02*
X016836Y012583D01*
X016904Y012515D02*
X017236Y012515D01*
X017167Y012446D02*
X016973Y012446D01*
X017041Y012378D02*
X017099Y012378D01*
X017180Y012190D02*
X017180Y011810D01*
X017180Y012190D02*
X017500Y012510D01*
X017500Y013550D01*
X017793Y013679D02*
X017867Y013679D01*
X017840Y013611D02*
X017820Y013611D01*
X017820Y013542D02*
X017840Y013542D01*
X017845Y013474D02*
X017815Y013474D01*
X017755Y013748D02*
X017905Y013748D01*
X017973Y013816D02*
X017687Y013816D01*
X017313Y013816D02*
X016745Y013816D01*
X016950Y014022D02*
X018959Y014022D01*
X018986Y014010D02*
X019114Y014010D01*
X019231Y014059D01*
X019321Y014149D01*
X019370Y014266D01*
X019370Y014394D01*
X019321Y014511D01*
X019231Y014601D01*
X019114Y014650D01*
X018986Y014650D01*
X018869Y014601D01*
X018779Y014511D01*
X018730Y014394D01*
X018730Y014266D01*
X018779Y014149D01*
X018869Y014059D01*
X018986Y014010D01*
X019141Y014022D02*
X024613Y014022D01*
X024498Y014090D02*
X019263Y014090D01*
X019325Y014159D02*
X024429Y014159D01*
X024375Y014227D02*
X019354Y014227D01*
X019370Y014296D02*
X024346Y014296D01*
X024318Y014364D02*
X019370Y014364D01*
X019354Y014433D02*
X019640Y014433D01*
X019646Y014430D02*
X019774Y014430D01*
X019891Y014479D01*
X019981Y014569D01*
X020030Y014686D01*
X020030Y014814D01*
X019981Y014931D01*
X019891Y015021D01*
X019801Y015059D01*
X019841Y015099D01*
X019890Y015216D01*
X019890Y015344D01*
X019841Y015461D01*
X019751Y015551D01*
X019634Y015600D01*
X019506Y015600D01*
X019389Y015551D01*
X019299Y015461D01*
X019250Y015344D01*
X019250Y015216D01*
X019299Y015099D01*
X019389Y015009D01*
X019479Y014971D01*
X019439Y014931D01*
X019390Y014814D01*
X019390Y014686D01*
X019439Y014569D01*
X019529Y014479D01*
X019646Y014430D01*
X019780Y014433D02*
X024305Y014433D01*
X024305Y014501D02*
X019914Y014501D01*
X019982Y014570D02*
X024305Y014570D01*
X024319Y014638D02*
X020010Y014638D01*
X020030Y014707D02*
X024347Y014707D01*
X024376Y014775D02*
X020030Y014775D01*
X020018Y014844D02*
X024431Y014844D01*
X024500Y014912D02*
X019989Y014912D01*
X019932Y014981D02*
X024618Y014981D01*
X025042Y014981D02*
X025618Y014981D01*
X025500Y014912D02*
X025160Y014912D01*
X025229Y014844D02*
X025431Y014844D01*
X025376Y014775D02*
X025284Y014775D01*
X025313Y014707D02*
X025347Y014707D01*
X026042Y014981D02*
X026617Y014981D01*
X026504Y014912D02*
X026160Y014912D01*
X026229Y014844D02*
X026431Y014844D01*
X026795Y014844D02*
X026865Y014844D01*
X026865Y014912D02*
X026795Y014912D01*
X026795Y014981D02*
X026865Y014981D01*
X027043Y014981D02*
X027140Y014981D01*
X027140Y015049D02*
X019824Y015049D01*
X019849Y015118D02*
X027140Y015118D01*
X027140Y015186D02*
X019877Y015186D01*
X019890Y015255D02*
X021859Y015255D01*
X021849Y015259D02*
X021966Y015210D01*
X022094Y015210D01*
X022211Y015259D01*
X022301Y015349D01*
X022350Y015466D01*
X022350Y015594D01*
X022301Y015711D01*
X022211Y015801D01*
X022094Y015850D01*
X021966Y015850D01*
X021849Y015801D01*
X021759Y015711D01*
X021710Y015594D01*
X021710Y015466D01*
X021759Y015349D01*
X021849Y015259D01*
X021784Y015323D02*
X019890Y015323D01*
X019870Y015392D02*
X021741Y015392D01*
X021713Y015460D02*
X019842Y015460D01*
X019774Y015529D02*
X021710Y015529D01*
X021711Y015597D02*
X019641Y015597D01*
X019499Y015597D02*
X018779Y015597D01*
X018884Y015529D02*
X019366Y015529D01*
X019298Y015460D02*
X018940Y015460D01*
X018968Y015392D02*
X019270Y015392D01*
X019250Y015323D02*
X018980Y015323D01*
X018980Y015255D02*
X019250Y015255D01*
X019263Y015186D02*
X018959Y015186D01*
X018930Y015118D02*
X019291Y015118D01*
X019348Y015049D02*
X018862Y015049D01*
X018725Y014981D02*
X019457Y014981D01*
X019431Y014912D02*
X017841Y014912D01*
X017909Y014981D02*
X018595Y014981D01*
X018458Y015049D02*
X017978Y015049D01*
X018046Y015118D02*
X018390Y015118D01*
X018361Y015186D02*
X018115Y015186D01*
X018183Y015255D02*
X018340Y015255D01*
X018340Y015323D02*
X018252Y015323D01*
X018320Y015392D02*
X018352Y015392D01*
X018526Y015597D02*
X018541Y015597D01*
X018594Y015666D02*
X021740Y015666D01*
X021781Y015734D02*
X018663Y015734D01*
X018731Y015803D02*
X021852Y015803D01*
X022208Y015803D02*
X022414Y015803D01*
X022453Y015734D02*
X022279Y015734D01*
X022320Y015666D02*
X022522Y015666D01*
X022349Y015597D02*
X024325Y015597D01*
X024305Y015666D02*
X022888Y015666D01*
X022957Y015734D02*
X023193Y015734D01*
X023060Y015940D02*
X023025Y015940D01*
X023021Y016008D02*
X023060Y016008D01*
X023065Y016077D02*
X022993Y016077D01*
X022948Y016145D02*
X023094Y016145D01*
X023141Y016214D02*
X022869Y016214D01*
X022627Y016282D02*
X023225Y016282D01*
X023535Y016282D02*
X027140Y016282D01*
X027140Y016214D02*
X027077Y016214D01*
X027140Y016351D02*
X022558Y016351D01*
X022490Y016419D02*
X027140Y016419D01*
X027140Y016488D02*
X026951Y016488D01*
X026865Y016488D02*
X026795Y016488D01*
X026795Y016556D02*
X026865Y016556D01*
X026865Y016625D02*
X026795Y016625D01*
X026795Y016693D02*
X026865Y016693D01*
X026865Y016762D02*
X026795Y016762D01*
X026795Y016830D02*
X026865Y016830D01*
X026865Y016899D02*
X026795Y016899D01*
X026795Y017036D02*
X026865Y017036D01*
X026865Y017104D02*
X026795Y017104D01*
X026795Y017173D02*
X026865Y017173D01*
X026865Y017241D02*
X026795Y017241D01*
X026795Y017310D02*
X026865Y017310D01*
X026865Y017378D02*
X026795Y017378D01*
X026795Y017447D02*
X026865Y017447D01*
X026865Y017515D02*
X026795Y017515D01*
X026726Y017515D02*
X025958Y017515D01*
X025955Y017652D02*
X021225Y017652D01*
X021283Y017721D02*
X025820Y017721D01*
X025860Y017687D02*
X025860Y017687D01*
X025738Y017789D02*
X021311Y017789D01*
X021339Y017858D02*
X025657Y017858D01*
X025610Y017896D02*
X025610Y017896D01*
X025593Y017926D02*
X021355Y017926D01*
X021355Y017995D02*
X025554Y017995D01*
X025514Y018063D02*
X021355Y018063D01*
X021344Y018132D02*
X025475Y018132D01*
X025444Y018200D02*
X021315Y018200D01*
X021287Y018269D02*
X025432Y018269D01*
X025419Y018337D02*
X021235Y018337D01*
X021167Y018406D02*
X025407Y018406D01*
X025395Y018474D02*
X021057Y018474D01*
X021089Y018543D02*
X025398Y018543D01*
X025391Y018500D02*
X025391Y018500D01*
X025410Y018611D02*
X021184Y018611D01*
X021246Y018680D02*
X025422Y018680D01*
X025434Y018748D02*
X021291Y018748D01*
X021322Y018817D02*
X025447Y018817D01*
X025447Y018821D02*
X025447Y018821D01*
X025484Y018885D02*
X021343Y018885D01*
X021354Y018954D02*
X025524Y018954D01*
X025563Y019022D02*
X020865Y019022D01*
X020795Y019022D02*
X019355Y019022D01*
X019355Y018954D02*
X020306Y018954D01*
X020317Y018885D02*
X019351Y018885D01*
X019322Y018817D02*
X020338Y018817D01*
X020369Y018748D02*
X019294Y018748D01*
X019252Y018680D02*
X020414Y018680D01*
X020476Y018611D02*
X019184Y018611D01*
X019098Y018543D02*
X020571Y018543D01*
X020603Y018474D02*
X019056Y018474D01*
X019165Y018406D02*
X020493Y018406D01*
X020425Y018337D02*
X019234Y018337D01*
X019282Y018269D02*
X020373Y018269D01*
X020345Y018200D02*
X019317Y018200D01*
X019339Y018132D02*
X020316Y018132D01*
X020305Y018063D02*
X019352Y018063D01*
X019355Y017965D02*
X018865Y017965D01*
X018865Y017475D01*
X018871Y017475D01*
X018953Y017488D01*
X019032Y017513D01*
X019105Y017551D01*
X019172Y017600D01*
X019230Y017658D01*
X019279Y017725D01*
X019317Y017798D01*
X019342Y017877D01*
X019355Y017959D01*
X019355Y017965D01*
X019350Y017926D02*
X020305Y017926D01*
X020305Y017995D02*
X018865Y017995D01*
X018865Y017926D02*
X018795Y017926D01*
X018795Y017858D02*
X018865Y017858D01*
X018865Y017789D02*
X018795Y017789D01*
X018795Y017721D02*
X018865Y017721D01*
X018865Y017652D02*
X018795Y017652D01*
X018795Y017584D02*
X018865Y017584D01*
X018865Y017515D02*
X018795Y017515D01*
X018625Y017515D02*
X018035Y017515D01*
X018150Y017584D02*
X018510Y017584D01*
X018435Y017652D02*
X018225Y017652D01*
X018276Y017721D02*
X018384Y017721D01*
X018348Y017789D02*
X018312Y017789D01*
X017865Y017789D02*
X017795Y017789D01*
X017795Y017721D02*
X017865Y017721D01*
X017865Y017652D02*
X017795Y017652D01*
X017795Y017584D02*
X017865Y017584D01*
X017865Y017515D02*
X017795Y017515D01*
X017625Y017515D02*
X017035Y017515D01*
X017150Y017584D02*
X017510Y017584D01*
X017435Y017652D02*
X017225Y017652D01*
X017276Y017721D02*
X017384Y017721D01*
X017348Y017789D02*
X017312Y017789D01*
X016865Y017789D02*
X016795Y017789D01*
X016795Y017721D02*
X016865Y017721D01*
X016865Y017652D02*
X016795Y017652D01*
X016795Y017584D02*
X016865Y017584D01*
X016865Y017515D02*
X016795Y017515D01*
X016690Y017447D02*
X025536Y017447D01*
X025466Y017378D02*
X016690Y017378D01*
X016666Y017310D02*
X025397Y017310D01*
X025362Y017241D02*
X016634Y017241D01*
X016605Y017173D02*
X025333Y017173D01*
X025305Y016967D02*
X016605Y016967D01*
X016605Y016899D02*
X025305Y016899D01*
X025394Y016693D02*
X022223Y016693D01*
X022285Y016625D02*
X025463Y016625D01*
X025531Y016556D02*
X022353Y016556D01*
X022421Y016488D02*
X025695Y016488D01*
X025965Y016488D02*
X026709Y016488D01*
X026548Y016556D02*
X026129Y016556D01*
X026197Y016625D02*
X026463Y016625D01*
X026404Y016693D02*
X026266Y016693D01*
X026299Y016762D02*
X026362Y016762D01*
X026333Y016830D02*
X026328Y016830D01*
X026327Y017173D02*
X026334Y017173D01*
X026364Y017241D02*
X026298Y017241D01*
X026263Y017310D02*
X026406Y017310D01*
X026466Y017378D02*
X026194Y017378D01*
X026124Y017447D02*
X026551Y017447D01*
X026517Y017584D02*
X027140Y017584D01*
X027140Y017652D02*
X026705Y017652D01*
X026800Y017687D02*
X026800Y017687D01*
X026840Y017721D02*
X027140Y017721D01*
X027140Y017789D02*
X026922Y017789D01*
X027003Y017858D02*
X027140Y017858D01*
X027140Y017926D02*
X027067Y017926D01*
X027050Y017896D02*
X027050Y017896D01*
X027050Y017896D01*
X027106Y017995D02*
X027140Y017995D01*
X027140Y017515D02*
X026934Y017515D01*
X027109Y017447D02*
X027140Y017447D01*
X026143Y017584D02*
X021156Y017584D01*
X021031Y017515D02*
X025702Y017515D01*
X027112Y016556D02*
X027140Y016556D01*
X026865Y016214D02*
X026795Y016214D01*
X026795Y016145D02*
X026865Y016145D01*
X026865Y016077D02*
X026795Y016077D01*
X026795Y016008D02*
X026865Y016008D01*
X026865Y015940D02*
X026795Y015940D01*
X026795Y015871D02*
X026865Y015871D01*
X026865Y015803D02*
X026795Y015803D01*
X026795Y015666D02*
X026865Y015666D01*
X026865Y015597D02*
X026795Y015597D01*
X026795Y015529D02*
X026865Y015529D01*
X026865Y015460D02*
X026795Y015460D01*
X026795Y015392D02*
X026865Y015392D01*
X026865Y015323D02*
X026795Y015323D01*
X026795Y015255D02*
X026865Y015255D01*
X027004Y015255D02*
X027140Y015255D01*
X027136Y015323D02*
X027140Y015323D01*
X026656Y015255D02*
X026006Y015255D01*
X026146Y015323D02*
X026524Y015323D01*
X026446Y015392D02*
X026214Y015392D01*
X026278Y015460D02*
X026392Y015460D01*
X026354Y015529D02*
X026307Y015529D01*
X026320Y015940D02*
X026340Y015940D01*
X026372Y016008D02*
X026291Y016008D01*
X026246Y016077D02*
X026418Y016077D01*
X026483Y016145D02*
X026177Y016145D01*
X026083Y016214D02*
X026583Y016214D01*
X025577Y016214D02*
X025083Y016214D01*
X025177Y016145D02*
X025483Y016145D01*
X025414Y016077D02*
X025246Y016077D01*
X025291Y016008D02*
X025369Y016008D01*
X025340Y015940D02*
X025320Y015940D01*
X025307Y015529D02*
X025353Y015529D01*
X025382Y015460D02*
X025278Y015460D01*
X025214Y015392D02*
X025446Y015392D01*
X025514Y015323D02*
X025146Y015323D01*
X025006Y015255D02*
X025654Y015255D01*
X024654Y015255D02*
X022201Y015255D01*
X022276Y015323D02*
X024514Y015323D01*
X024446Y015392D02*
X022319Y015392D01*
X022347Y015460D02*
X024382Y015460D01*
X024353Y015529D02*
X022350Y015529D01*
X022363Y016008D02*
X021255Y016008D01*
X021284Y016077D02*
X022295Y016077D01*
X022226Y016145D02*
X021300Y016145D01*
X021300Y016214D02*
X022158Y016214D01*
X022089Y016282D02*
X021284Y016282D01*
X021256Y016351D02*
X022021Y016351D01*
X022090Y016550D02*
X022705Y015935D01*
X023567Y015734D02*
X024305Y015734D01*
X024305Y015803D02*
X023635Y015803D01*
X023673Y015871D02*
X024312Y015871D01*
X024340Y015940D02*
X023700Y015940D01*
X023700Y016008D02*
X024369Y016008D01*
X024414Y016077D02*
X023695Y016077D01*
X023666Y016145D02*
X024483Y016145D01*
X024577Y016214D02*
X023619Y016214D01*
X020890Y015871D02*
X020477Y015871D01*
X020525Y015940D02*
X020768Y015940D01*
X020705Y016008D02*
X020525Y016008D01*
X020567Y016077D02*
X020676Y016077D01*
X020660Y016145D02*
X020636Y016145D01*
X020330Y016000D02*
X018660Y016000D01*
X016240Y013580D01*
X015605Y013405D02*
X015538Y013405D01*
X015605Y013337D02*
X015469Y013337D01*
X015531Y013268D02*
X015605Y013268D01*
X015599Y013200D02*
X015605Y013200D01*
X015336Y012926D02*
X003326Y012926D01*
X003297Y012994D02*
X009760Y012994D01*
X010100Y012994D02*
X015267Y012994D01*
X015199Y013063D02*
X010175Y013063D01*
X010219Y013131D02*
X010410Y013131D01*
X010342Y013200D02*
X010247Y013200D01*
X010250Y013268D02*
X010273Y013268D01*
X010605Y013474D02*
X014986Y013474D01*
X014960Y013542D02*
X010537Y013542D01*
X010468Y013611D02*
X014960Y013611D01*
X014932Y013679D02*
X010400Y013679D01*
X010331Y013748D02*
X014864Y013748D01*
X014795Y013816D02*
X009283Y013816D01*
X009214Y013885D02*
X014727Y013885D01*
X014658Y013953D02*
X009146Y013953D01*
X009077Y014022D02*
X014590Y014022D01*
X014521Y014090D02*
X009009Y014090D01*
X008940Y014159D02*
X014453Y014159D01*
X014384Y014227D02*
X008872Y014227D01*
X008803Y014296D02*
X014316Y014296D01*
X014247Y014364D02*
X008735Y014364D01*
X008666Y014433D02*
X014179Y014433D01*
X014110Y014501D02*
X008598Y014501D01*
X008529Y014570D02*
X014042Y014570D01*
X013973Y014638D02*
X013421Y014638D01*
X013411Y014629D02*
X013501Y014719D01*
X013550Y014836D01*
X013550Y014964D01*
X013501Y015081D01*
X013411Y015171D01*
X013294Y015220D01*
X013166Y015220D01*
X013049Y015171D01*
X012959Y015081D01*
X012910Y014964D01*
X012910Y014836D01*
X012959Y014719D01*
X013049Y014629D01*
X013166Y014580D01*
X013294Y014580D01*
X013411Y014629D01*
X013489Y014707D02*
X013905Y014707D01*
X013836Y014775D02*
X013525Y014775D01*
X013550Y014844D02*
X013768Y014844D01*
X013699Y014912D02*
X013550Y014912D01*
X013543Y014981D02*
X013631Y014981D01*
X013562Y015049D02*
X013515Y015049D01*
X013494Y015118D02*
X013465Y015118D01*
X013425Y015186D02*
X013376Y015186D01*
X013357Y015255D02*
X009850Y015255D01*
X009850Y015314D02*
X009801Y015431D01*
X009711Y015521D01*
X009594Y015570D01*
X009466Y015570D01*
X009349Y015521D01*
X009259Y015431D01*
X009210Y015314D01*
X009210Y015186D01*
X008520Y015186D01*
X008520Y015118D02*
X009239Y015118D01*
X009259Y015069D02*
X009349Y014979D01*
X009466Y014930D01*
X009594Y014930D01*
X009711Y014979D01*
X009801Y015069D01*
X009850Y015186D01*
X013084Y015186D01*
X012995Y015118D02*
X009821Y015118D01*
X009850Y015186D02*
X009850Y015314D01*
X009846Y015323D02*
X012462Y015323D01*
X012386Y015392D02*
X009818Y015392D01*
X009773Y015460D02*
X012342Y015460D01*
X012313Y015529D02*
X009694Y015529D01*
X009366Y015529D02*
X008520Y015529D01*
X008520Y015597D02*
X012310Y015597D01*
X012311Y015666D02*
X008520Y015666D01*
X008520Y015734D02*
X012339Y015734D01*
X012380Y015803D02*
X008520Y015803D01*
X008520Y015871D02*
X012448Y015871D01*
X012630Y015600D02*
X013280Y015600D01*
X013220Y015392D02*
X012874Y015392D01*
X012798Y015323D02*
X013288Y015323D01*
X012945Y015049D02*
X009782Y015049D01*
X009713Y014981D02*
X012917Y014981D01*
X012910Y014912D02*
X008520Y014912D01*
X008520Y014844D02*
X012910Y014844D01*
X012935Y014775D02*
X008520Y014775D01*
X008520Y014707D02*
X012971Y014707D01*
X013039Y014638D02*
X008520Y014638D01*
X008520Y014981D02*
X009347Y014981D01*
X009278Y015049D02*
X008520Y015049D01*
X008520Y015255D02*
X009210Y015255D01*
X009214Y015323D02*
X008520Y015323D01*
X008520Y015392D02*
X009242Y015392D01*
X009287Y015460D02*
X008520Y015460D01*
X008520Y015940D02*
X014233Y015940D01*
X014224Y015803D02*
X013936Y015803D01*
X014049Y015734D02*
X014111Y015734D01*
X014109Y016008D02*
X008520Y016008D01*
X008520Y016077D02*
X014045Y016077D01*
X014017Y016145D02*
X008520Y016145D01*
X008140Y016214D02*
X008059Y016214D01*
X008140Y016282D02*
X007692Y016282D01*
X007700Y016264D02*
X007651Y016381D01*
X007561Y016471D01*
X007444Y016520D01*
X007316Y016520D01*
X007199Y016471D01*
X007109Y016381D01*
X007060Y016264D01*
X007060Y016136D01*
X007109Y016019D01*
X007199Y015929D01*
X007316Y015880D01*
X007444Y015880D01*
X007561Y015929D01*
X007651Y016019D01*
X007700Y016136D01*
X007700Y016264D01*
X007700Y016214D02*
X007901Y016214D01*
X007772Y016145D02*
X007700Y016145D01*
X007707Y016077D02*
X007675Y016077D01*
X007678Y016008D02*
X007641Y016008D01*
X007660Y015940D02*
X007572Y015940D01*
X007660Y015871D02*
X004623Y015871D01*
X004601Y015819D02*
X004650Y015936D01*
X004650Y016064D01*
X004601Y016181D01*
X004511Y016271D01*
X004394Y016320D01*
X004266Y016320D01*
X004149Y016271D01*
X004059Y016181D01*
X004010Y016064D01*
X004010Y015936D01*
X004059Y015819D01*
X004149Y015729D01*
X004266Y015680D01*
X004394Y015680D01*
X004511Y015729D01*
X004601Y015819D01*
X004585Y015803D02*
X007674Y015803D01*
X007702Y015734D02*
X004517Y015734D01*
X004650Y015940D02*
X007188Y015940D01*
X007119Y016008D02*
X004650Y016008D01*
X004645Y016077D02*
X007085Y016077D01*
X007060Y016145D02*
X004616Y016145D01*
X004569Y016214D02*
X007060Y016214D01*
X007068Y016282D02*
X004485Y016282D01*
X004175Y016282D02*
X003281Y016282D01*
X003310Y016214D02*
X004091Y016214D01*
X004044Y016145D02*
X003338Y016145D01*
X003355Y016077D02*
X004015Y016077D01*
X004010Y016008D02*
X003355Y016008D01*
X003355Y015940D02*
X004010Y015940D01*
X004037Y015871D02*
X003345Y015871D01*
X003316Y015803D02*
X004075Y015803D01*
X004143Y015734D02*
X003288Y015734D01*
X003238Y015666D02*
X007705Y015666D01*
X007705Y015597D02*
X003170Y015597D01*
X003064Y015529D02*
X007166Y015529D01*
X007149Y015521D02*
X007059Y015431D01*
X007010Y015314D01*
X007010Y015186D01*
X004597Y015186D01*
X004601Y015181D02*
X004511Y015271D01*
X004394Y015320D01*
X004266Y015320D01*
X004149Y015271D01*
X004059Y015181D01*
X004010Y015064D01*
X004010Y014936D01*
X004059Y014819D01*
X004149Y014729D01*
X004266Y014680D01*
X004394Y014680D01*
X004511Y014729D01*
X004601Y014819D01*
X004650Y014936D01*
X004650Y015064D01*
X004601Y015181D01*
X004628Y015118D02*
X007039Y015118D01*
X007059Y015069D02*
X007149Y014979D01*
X007266Y014930D01*
X007394Y014930D01*
X007511Y014979D01*
X007601Y015069D01*
X007650Y015186D01*
X007705Y015186D01*
X007650Y015186D02*
X007650Y015314D01*
X007601Y015431D01*
X007511Y015521D01*
X007394Y015570D01*
X007266Y015570D01*
X007149Y015521D01*
X007087Y015460D02*
X003091Y015460D01*
X003181Y015392D02*
X007042Y015392D01*
X007014Y015323D02*
X003249Y015323D01*
X003293Y015255D02*
X004132Y015255D01*
X004063Y015186D02*
X003321Y015186D01*
X003350Y015118D02*
X004032Y015118D01*
X004010Y015049D02*
X003355Y015049D01*
X003355Y014981D02*
X004010Y014981D01*
X004020Y014912D02*
X003355Y014912D01*
X003333Y014844D02*
X004048Y014844D01*
X004102Y014775D02*
X003305Y014775D01*
X003277Y014707D02*
X004202Y014707D01*
X004265Y014570D02*
X003142Y014570D01*
X003210Y014638D02*
X007705Y014638D01*
X007705Y014570D02*
X004395Y014570D01*
X004394Y014570D02*
X004266Y014570D01*
X004149Y014521D01*
X004059Y014431D01*
X004010Y014314D01*
X004010Y014186D01*
X004059Y014069D01*
X004149Y013979D01*
X004266Y013930D01*
X004394Y013930D01*
X004511Y013979D01*
X004601Y014069D01*
X004650Y014186D01*
X004650Y014314D01*
X004601Y014431D01*
X004511Y014521D01*
X004394Y014570D01*
X004458Y014707D02*
X007705Y014707D01*
X007705Y014775D02*
X004558Y014775D01*
X004612Y014844D02*
X007705Y014844D01*
X007705Y014912D02*
X004640Y014912D01*
X004650Y014981D02*
X007147Y014981D01*
X007078Y015049D02*
X004650Y015049D01*
X004528Y015255D02*
X007010Y015255D01*
X007010Y015186D02*
X007059Y015069D01*
X007513Y014981D02*
X007705Y014981D01*
X007705Y015049D02*
X007582Y015049D01*
X007621Y015118D02*
X007705Y015118D01*
X007705Y015255D02*
X007650Y015255D01*
X007646Y015323D02*
X007705Y015323D01*
X007705Y015392D02*
X007618Y015392D01*
X007573Y015460D02*
X007705Y015460D01*
X007705Y015529D02*
X007494Y015529D01*
X007664Y016351D02*
X008140Y016351D01*
X008140Y016419D02*
X007614Y016419D01*
X007522Y016488D02*
X008140Y016488D01*
X008140Y016556D02*
X005517Y016556D01*
X005501Y016519D02*
X005550Y016636D01*
X005550Y016764D01*
X005501Y016881D01*
X005411Y016971D01*
X005294Y017020D01*
X005166Y017020D01*
X005049Y016971D01*
X004959Y016881D01*
X004910Y016764D01*
X004910Y016636D01*
X004959Y016519D01*
X005049Y016429D01*
X005166Y016380D01*
X005294Y016380D01*
X005411Y016429D01*
X005501Y016519D01*
X005470Y016488D02*
X007238Y016488D01*
X007146Y016419D02*
X005388Y016419D01*
X005545Y016625D02*
X008186Y016625D01*
X008254Y016693D02*
X005550Y016693D01*
X005550Y016762D02*
X008323Y016762D01*
X008391Y016830D02*
X005522Y016830D01*
X005484Y016899D02*
X008460Y016899D01*
X008528Y016967D02*
X005416Y016967D01*
X005044Y016967D02*
X004650Y016967D01*
X004650Y017036D02*
X008597Y017036D01*
X008665Y017104D02*
X004633Y017104D01*
X004605Y017173D02*
X008734Y017173D01*
X008802Y017241D02*
X004542Y017241D01*
X004419Y017310D02*
X008871Y017310D01*
X008939Y017378D02*
X003194Y017378D01*
X003263Y017310D02*
X004241Y017310D01*
X004118Y017241D02*
X003298Y017241D01*
X003327Y017173D02*
X004055Y017173D01*
X004010Y016967D02*
X003355Y016967D01*
X003355Y016899D02*
X004026Y016899D01*
X004054Y016830D02*
X003328Y016830D01*
X003299Y016762D02*
X004116Y016762D01*
X004235Y016693D02*
X003266Y016693D01*
X003197Y016625D02*
X004915Y016625D01*
X004910Y016693D02*
X004425Y016693D01*
X004544Y016762D02*
X004910Y016762D01*
X004938Y016830D02*
X004606Y016830D01*
X004634Y016899D02*
X004976Y016899D01*
X004943Y016556D02*
X003129Y016556D01*
X003025Y016488D02*
X004990Y016488D01*
X005072Y016419D02*
X003153Y016419D01*
X003222Y016351D02*
X007096Y016351D01*
X007031Y017515D02*
X007356Y017515D01*
X007305Y017584D02*
X007156Y017584D01*
X007225Y017652D02*
X007305Y017652D01*
X007305Y017721D02*
X007283Y017721D01*
X006629Y017515D02*
X006031Y017515D01*
X006156Y017584D02*
X006504Y017584D01*
X006435Y017652D02*
X006225Y017652D01*
X006283Y017721D02*
X006377Y017721D01*
X006349Y017789D02*
X006311Y017789D01*
X005830Y018000D02*
X006330Y018500D01*
X008330Y018500D01*
X008830Y019000D01*
X008795Y017926D02*
X008865Y017926D01*
X008865Y017858D02*
X008795Y017858D01*
X008795Y017789D02*
X008865Y017789D01*
X008865Y017721D02*
X008795Y017721D01*
X008795Y017652D02*
X008865Y017652D01*
X008865Y017584D02*
X008795Y017584D01*
X008795Y017515D02*
X008865Y017515D01*
X009008Y017447D02*
X003124Y017447D01*
X003098Y017515D02*
X004625Y017515D01*
X004510Y017584D02*
X003157Y017584D01*
X003186Y017652D02*
X004435Y017652D01*
X004384Y017721D02*
X003200Y017721D01*
X003200Y017789D02*
X004348Y017789D01*
X004324Y017858D02*
X003182Y017858D01*
X003153Y017926D02*
X004310Y017926D01*
X004308Y018063D02*
X002960Y018063D01*
X003088Y017995D02*
X004795Y017995D01*
X004795Y018063D02*
X004865Y018063D01*
X004865Y018132D02*
X004795Y018132D01*
X004795Y018200D02*
X004865Y018200D01*
X004865Y018269D02*
X004795Y018269D01*
X004795Y018337D02*
X004865Y018337D01*
X004865Y018406D02*
X004795Y018406D01*
X004795Y018474D02*
X004865Y018474D01*
X004865Y018543D02*
X004795Y018543D01*
X004795Y018611D02*
X004865Y018611D01*
X004865Y018680D02*
X004795Y018680D01*
X004795Y018748D02*
X004865Y018748D01*
X004865Y018817D02*
X004795Y018817D01*
X004795Y018885D02*
X004865Y018885D01*
X004865Y018954D02*
X004795Y018954D01*
X004795Y019022D02*
X002097Y019022D01*
X002136Y018954D02*
X004306Y018954D01*
X004317Y018885D02*
X002176Y018885D01*
X002213Y018817D02*
X004338Y018817D01*
X004369Y018748D02*
X002226Y018748D01*
X002238Y018680D02*
X004414Y018680D01*
X004476Y018611D02*
X002250Y018611D01*
X002262Y018543D02*
X004571Y018543D01*
X004604Y018474D02*
X002265Y018474D01*
X002253Y018406D02*
X004495Y018406D01*
X004426Y018337D02*
X002241Y018337D01*
X002228Y018269D02*
X004378Y018269D01*
X004343Y018200D02*
X002216Y018200D01*
X002185Y018132D02*
X004321Y018132D01*
X004795Y017926D02*
X004865Y017926D01*
X004865Y017858D02*
X004795Y017858D01*
X004795Y017789D02*
X004865Y017789D01*
X004865Y017721D02*
X004795Y017721D01*
X004795Y017652D02*
X004865Y017652D01*
X004865Y017584D02*
X004795Y017584D01*
X004795Y017515D02*
X004865Y017515D01*
X005035Y017515D02*
X005629Y017515D01*
X005504Y017584D02*
X005150Y017584D01*
X005225Y017652D02*
X005435Y017652D01*
X005377Y017721D02*
X005276Y017721D01*
X005312Y017789D02*
X005349Y017789D01*
X004313Y019091D02*
X002057Y019091D01*
X001984Y019159D02*
X004330Y019159D01*
X004357Y019228D02*
X001902Y019228D01*
X001820Y019296D02*
X004396Y019296D01*
X002800Y018063D02*
X002146Y018063D01*
X002106Y017995D02*
X002672Y017995D01*
X002607Y017926D02*
X002067Y017926D01*
X002003Y017858D02*
X002578Y017858D01*
X002560Y017789D02*
X001922Y017789D01*
X001840Y017721D02*
X002560Y017721D01*
X002574Y017652D02*
X001705Y017652D01*
X001702Y017515D02*
X000934Y017515D01*
X000865Y017515D02*
X000795Y017515D01*
X000795Y017447D02*
X000865Y017447D01*
X000865Y017378D02*
X000795Y017378D01*
X000795Y017310D02*
X000865Y017310D01*
X000865Y017241D02*
X000795Y017241D01*
X000795Y017173D02*
X000865Y017173D01*
X000865Y017104D02*
X000795Y017104D01*
X000795Y017036D02*
X000865Y017036D01*
X000865Y016965D02*
X000865Y016475D01*
X000865Y016035D01*
X000795Y016035D01*
X000795Y016965D01*
X000865Y016965D01*
X000865Y016899D02*
X000795Y016899D01*
X000795Y016830D02*
X000865Y016830D01*
X000865Y016762D02*
X000795Y016762D01*
X000795Y016693D02*
X000865Y016693D01*
X000865Y016625D02*
X000795Y016625D01*
X000795Y016556D02*
X000865Y016556D01*
X000865Y016488D02*
X000795Y016488D01*
X000795Y016419D02*
X000865Y016419D01*
X000865Y016351D02*
X000795Y016351D01*
X000795Y016282D02*
X000865Y016282D01*
X000865Y016214D02*
X000795Y016214D01*
X000795Y016145D02*
X000865Y016145D01*
X000865Y016077D02*
X000795Y016077D01*
X000795Y015965D02*
X000865Y015965D01*
X000865Y015525D01*
X000865Y015035D01*
X000795Y015035D01*
X000795Y015965D01*
X000795Y015940D02*
X000865Y015940D01*
X000865Y015871D02*
X000795Y015871D01*
X000795Y015803D02*
X000865Y015803D01*
X000865Y015734D02*
X000795Y015734D01*
X000795Y015666D02*
X000865Y015666D01*
X000865Y015597D02*
X000795Y015597D01*
X000795Y015529D02*
X000865Y015529D01*
X000865Y015460D02*
X000795Y015460D01*
X000795Y015392D02*
X000865Y015392D01*
X000865Y015323D02*
X000795Y015323D01*
X000795Y015255D02*
X000865Y015255D01*
X000865Y015186D02*
X000795Y015186D01*
X000795Y015118D02*
X000865Y015118D01*
X000865Y015049D02*
X000795Y015049D01*
X000795Y014912D02*
X000865Y014912D01*
X000865Y014844D02*
X000795Y014844D01*
X000795Y014775D02*
X000865Y014775D01*
X000865Y014707D02*
X000795Y014707D01*
X000795Y014638D02*
X000865Y014638D01*
X000865Y014570D02*
X000795Y014570D01*
X000795Y014501D02*
X000865Y014501D01*
X000993Y014501D02*
X001663Y014501D01*
X001518Y014570D02*
X001131Y014570D01*
X001210Y014638D02*
X001450Y014638D01*
X001383Y014707D02*
X001266Y014707D01*
X001305Y014775D02*
X001355Y014775D01*
X001997Y014501D02*
X002663Y014501D01*
X002518Y014570D02*
X002142Y014570D01*
X002210Y014638D02*
X002450Y014638D01*
X002383Y014707D02*
X002277Y014707D01*
X002305Y014775D02*
X002355Y014775D01*
X002997Y014501D02*
X004128Y014501D01*
X004060Y014433D02*
X000520Y014433D01*
X000520Y014501D02*
X000667Y014501D01*
X000529Y014570D02*
X000520Y014570D01*
X000520Y014364D02*
X004031Y014364D01*
X004010Y014296D02*
X000520Y014296D01*
X000520Y014227D02*
X000610Y014227D01*
X000795Y014227D02*
X000865Y014227D01*
X000865Y014159D02*
X000795Y014159D01*
X000795Y014090D02*
X000865Y014090D01*
X000865Y014022D02*
X000795Y014022D01*
X000795Y013953D02*
X000865Y013953D01*
X000865Y013885D02*
X000795Y013885D01*
X000795Y013816D02*
X000865Y013816D01*
X000865Y013715D02*
X000865Y012785D01*
X000795Y012785D01*
X000795Y013225D01*
X000795Y013715D01*
X000865Y013715D01*
X000865Y013679D02*
X000795Y013679D01*
X000795Y013611D02*
X000865Y013611D01*
X000865Y013542D02*
X000795Y013542D01*
X000795Y013474D02*
X000865Y013474D01*
X000865Y013405D02*
X000795Y013405D01*
X000795Y013337D02*
X000865Y013337D01*
X000865Y013268D02*
X000795Y013268D01*
X000795Y013200D02*
X000865Y013200D01*
X000865Y013131D02*
X000795Y013131D01*
X000795Y013063D02*
X000865Y013063D01*
X000865Y012994D02*
X000795Y012994D01*
X000795Y012926D02*
X000865Y012926D01*
X000865Y012857D02*
X000795Y012857D01*
X000795Y012789D02*
X000865Y012789D01*
X000865Y012715D02*
X000865Y011785D01*
X000795Y011785D01*
X000795Y012225D01*
X000795Y012715D01*
X000865Y012715D01*
X000865Y012652D02*
X000795Y012652D01*
X000795Y012583D02*
X000865Y012583D01*
X000865Y012515D02*
X000795Y012515D01*
X000795Y012446D02*
X000865Y012446D01*
X000865Y012378D02*
X000795Y012378D01*
X000795Y012309D02*
X000865Y012309D01*
X000865Y012241D02*
X000795Y012241D01*
X000795Y012172D02*
X000865Y012172D01*
X000865Y012104D02*
X000795Y012104D01*
X000795Y012035D02*
X000865Y012035D01*
X000865Y011967D02*
X000795Y011967D01*
X000795Y011898D02*
X000865Y011898D01*
X000865Y011830D02*
X000795Y011830D01*
X000795Y011693D02*
X000865Y011693D01*
X000865Y011624D02*
X000795Y011624D01*
X000795Y011556D02*
X000865Y011556D01*
X000865Y011487D02*
X000795Y011487D01*
X000795Y011419D02*
X000865Y011419D01*
X000865Y011350D02*
X000795Y011350D01*
X000795Y011282D02*
X000865Y011282D01*
X001067Y011282D02*
X001589Y011282D01*
X001488Y011350D02*
X001172Y011350D01*
X001238Y011419D02*
X001419Y011419D01*
X001371Y011487D02*
X001285Y011487D01*
X001319Y011556D02*
X001342Y011556D01*
X002172Y011350D02*
X002488Y011350D01*
X002419Y011419D02*
X002241Y011419D01*
X002289Y011487D02*
X002371Y011487D01*
X002342Y011556D02*
X002318Y011556D01*
X002071Y011282D02*
X002589Y011282D01*
X002683Y011008D02*
X001977Y011008D01*
X002133Y010939D02*
X002527Y010939D01*
X002458Y010871D02*
X002202Y010871D01*
X002270Y010802D02*
X002390Y010802D01*
X002358Y010734D02*
X002302Y010734D01*
X002977Y011008D02*
X004090Y011008D01*
X004119Y010979D02*
X004236Y010930D01*
X004364Y010930D01*
X004481Y010979D01*
X004571Y011069D01*
X004620Y011186D01*
X004620Y011314D01*
X004571Y011431D01*
X004481Y011521D01*
X004364Y011570D01*
X004236Y011570D01*
X004119Y011521D01*
X004029Y011431D01*
X003980Y011314D01*
X003980Y011186D01*
X004029Y011069D01*
X004119Y010979D01*
X004215Y010939D02*
X003133Y010939D01*
X003202Y010871D02*
X007160Y010871D01*
X007160Y010914D02*
X007160Y010786D01*
X007209Y010669D01*
X007299Y010579D01*
X007416Y010530D01*
X007544Y010530D01*
X007661Y010579D01*
X007751Y010669D01*
X007800Y010786D01*
X007800Y010914D01*
X007751Y011031D01*
X007661Y011121D01*
X007544Y011170D01*
X007416Y011170D01*
X007299Y011121D01*
X007209Y011031D01*
X007160Y010914D01*
X007171Y010939D02*
X004385Y010939D01*
X004510Y011008D02*
X007199Y011008D01*
X007253Y011076D02*
X004574Y011076D01*
X004603Y011145D02*
X007355Y011145D01*
X007605Y011145D02*
X008860Y011145D01*
X008860Y011164D02*
X008860Y011036D01*
X008909Y010919D01*
X008999Y010829D01*
X009116Y010780D01*
X009244Y010780D01*
X009361Y010829D01*
X009451Y010919D01*
X009500Y011036D01*
X009500Y011164D01*
X009451Y011281D01*
X009361Y011371D01*
X009244Y011420D01*
X009116Y011420D01*
X008999Y011371D01*
X008909Y011281D01*
X008860Y011164D01*
X008880Y011213D02*
X004620Y011213D01*
X004620Y011282D02*
X008909Y011282D01*
X008977Y011350D02*
X004605Y011350D01*
X004577Y011419D02*
X008723Y011419D01*
X008699Y011429D02*
X008816Y011380D01*
X008944Y011380D01*
X009061Y011429D01*
X009151Y011519D01*
X009200Y011636D01*
X009200Y011764D01*
X009151Y011881D01*
X009061Y011971D01*
X008944Y012020D01*
X008816Y012020D01*
X008699Y011971D01*
X008609Y011881D01*
X008560Y011764D01*
X008560Y011636D01*
X008609Y011519D01*
X008699Y011429D01*
X008640Y011487D02*
X004516Y011487D01*
X004399Y011556D02*
X008593Y011556D01*
X008565Y011624D02*
X003346Y011624D01*
X003355Y011693D02*
X004236Y011693D01*
X004266Y011680D02*
X004394Y011680D01*
X004511Y011729D01*
X004601Y011819D01*
X004650Y011936D01*
X004650Y012064D01*
X004601Y012181D01*
X004511Y012271D01*
X004394Y012320D01*
X004266Y012320D01*
X004149Y012271D01*
X004059Y012181D01*
X004010Y012064D01*
X004010Y011936D01*
X004059Y011819D01*
X004149Y011729D01*
X004266Y011680D01*
X004201Y011556D02*
X003318Y011556D01*
X003289Y011487D02*
X004084Y011487D01*
X004023Y011419D02*
X003241Y011419D01*
X003172Y011350D02*
X003995Y011350D01*
X003980Y011282D02*
X003071Y011282D01*
X003270Y010802D02*
X007160Y010802D01*
X007182Y010734D02*
X003302Y010734D01*
X003330Y010665D02*
X007212Y010665D01*
X007281Y010597D02*
X004474Y010597D01*
X004511Y010581D02*
X004394Y010630D01*
X004266Y010630D01*
X004149Y010581D01*
X004059Y010491D01*
X004010Y010374D01*
X004010Y010246D01*
X004059Y010129D01*
X004149Y010039D01*
X004266Y009990D01*
X004394Y009990D01*
X004511Y010039D01*
X004601Y010129D01*
X004650Y010246D01*
X004650Y010374D01*
X004601Y010491D01*
X004511Y010581D01*
X004565Y010528D02*
X009640Y010528D01*
X009640Y010460D02*
X004614Y010460D01*
X004643Y010391D02*
X009640Y010391D01*
X009640Y010323D02*
X004650Y010323D01*
X004650Y010254D02*
X009640Y010254D01*
X009640Y010186D02*
X004625Y010186D01*
X004590Y010117D02*
X009640Y010117D01*
X009640Y010049D02*
X004521Y010049D01*
X004394Y009820D02*
X004266Y009820D01*
X004149Y009771D01*
X004059Y009681D01*
X004010Y009564D01*
X004010Y009436D01*
X004059Y009319D01*
X004149Y009229D01*
X004266Y009180D01*
X004394Y009180D01*
X004511Y009229D01*
X004601Y009319D01*
X004650Y009436D01*
X004650Y009564D01*
X004601Y009681D01*
X004511Y009771D01*
X004394Y009820D01*
X004503Y009775D02*
X009640Y009775D01*
X009640Y009843D02*
X003229Y009843D01*
X003285Y009775D02*
X004157Y009775D01*
X004083Y009706D02*
X003313Y009706D01*
X003341Y009638D02*
X004041Y009638D01*
X004012Y009569D02*
X003355Y009569D01*
X003355Y009501D02*
X004010Y009501D01*
X004012Y009432D02*
X003355Y009432D01*
X003342Y009364D02*
X004040Y009364D01*
X004082Y009295D02*
X003313Y009295D01*
X003285Y009227D02*
X004154Y009227D01*
X004506Y009227D02*
X009835Y009227D01*
X009766Y009295D02*
X004578Y009295D01*
X004620Y009364D02*
X009698Y009364D01*
X009751Y009310D02*
X009640Y009421D01*
X009640Y010879D01*
X011010Y012249D01*
X011010Y012364D01*
X011059Y012481D01*
X011149Y012571D01*
X011266Y012620D01*
X011394Y012620D01*
X011511Y012571D01*
X011601Y012481D01*
X011650Y012364D01*
X011650Y012236D01*
X011601Y012119D01*
X011511Y012029D01*
X011394Y011980D01*
X011279Y011980D01*
X010020Y010721D01*
X010020Y009579D01*
X010529Y009070D01*
X010594Y009070D01*
X010711Y009021D01*
X010801Y008931D01*
X010846Y008823D01*
X010879Y008901D01*
X010969Y008991D01*
X011086Y009040D01*
X011214Y009040D01*
X011331Y008991D01*
X011421Y008901D01*
X011470Y008784D01*
X011470Y008656D01*
X011421Y008539D01*
X011331Y008449D01*
X011214Y008400D01*
X011086Y008400D01*
X010969Y008449D01*
X010879Y008539D01*
X010834Y008647D01*
X010801Y008569D01*
X010711Y008479D01*
X010594Y008430D01*
X010466Y008430D01*
X010349Y008479D01*
X010259Y008569D01*
X010210Y008686D01*
X010210Y008814D01*
X010221Y008840D01*
X009751Y009310D01*
X009640Y009432D02*
X004648Y009432D01*
X004650Y009501D02*
X009640Y009501D01*
X009640Y009569D02*
X004648Y009569D01*
X004619Y009638D02*
X009640Y009638D01*
X009640Y009706D02*
X004577Y009706D01*
X004139Y010049D02*
X003112Y010049D01*
X003043Y009980D02*
X009640Y009980D01*
X009640Y009912D02*
X003161Y009912D01*
X003189Y010117D02*
X004070Y010117D01*
X004035Y010186D02*
X003258Y010186D01*
X003296Y010254D02*
X004010Y010254D01*
X004010Y010323D02*
X003325Y010323D01*
X003353Y010391D02*
X004017Y010391D01*
X004046Y010460D02*
X003355Y010460D01*
X003355Y010528D02*
X004095Y010528D01*
X004186Y010597D02*
X003355Y010597D01*
X004026Y011076D02*
X000520Y011076D01*
X000520Y011008D02*
X000693Y011008D01*
X000795Y011008D02*
X000865Y011008D01*
X000865Y010939D02*
X000795Y010939D01*
X000795Y010871D02*
X000865Y010871D01*
X000865Y010802D02*
X000795Y010802D01*
X000795Y010734D02*
X000865Y010734D01*
X000865Y010665D02*
X000795Y010665D01*
X000795Y010597D02*
X000865Y010597D01*
X000865Y010465D02*
X000865Y009535D01*
X000795Y009535D01*
X000795Y010025D01*
X000795Y010465D01*
X000865Y010465D01*
X000865Y010460D02*
X000795Y010460D01*
X000795Y010391D02*
X000865Y010391D01*
X000865Y010323D02*
X000795Y010323D01*
X000795Y010254D02*
X000865Y010254D01*
X000865Y010186D02*
X000795Y010186D01*
X000795Y010117D02*
X000865Y010117D01*
X000865Y010049D02*
X000795Y010049D01*
X000795Y009980D02*
X000865Y009980D01*
X000865Y009912D02*
X000795Y009912D01*
X000795Y009843D02*
X000865Y009843D01*
X000865Y009775D02*
X000795Y009775D01*
X000795Y009706D02*
X000865Y009706D01*
X000865Y009638D02*
X000795Y009638D01*
X000795Y009569D02*
X000865Y009569D01*
X000865Y009432D02*
X000795Y009432D01*
X000795Y009364D02*
X000865Y009364D01*
X000865Y009295D02*
X000795Y009295D01*
X000795Y009227D02*
X000865Y009227D01*
X000865Y009158D02*
X000795Y009158D01*
X000795Y009090D02*
X000865Y009090D01*
X000865Y009021D02*
X000795Y009021D01*
X000614Y009021D02*
X000520Y009021D01*
X000520Y008953D02*
X010109Y008953D01*
X010040Y009021D02*
X003046Y009021D01*
X003162Y009090D02*
X009972Y009090D01*
X009903Y009158D02*
X003230Y009158D01*
X002614Y009021D02*
X002046Y009021D01*
X002162Y009090D02*
X002498Y009090D01*
X002430Y009158D02*
X002230Y009158D01*
X002285Y009227D02*
X002375Y009227D01*
X002347Y009295D02*
X002313Y009295D01*
X001614Y009021D02*
X001046Y009021D01*
X001158Y009090D02*
X001498Y009090D01*
X001430Y009158D02*
X001230Y009158D01*
X001280Y009227D02*
X001375Y009227D01*
X001347Y009295D02*
X001315Y009295D01*
X000520Y008884D02*
X010177Y008884D01*
X010211Y008816D02*
X000520Y008816D01*
X000520Y008747D02*
X010210Y008747D01*
X010213Y008679D02*
X000520Y008679D01*
X000520Y008610D02*
X010242Y008610D01*
X010286Y008542D02*
X000520Y008542D01*
X000520Y008473D02*
X010363Y008473D01*
X010697Y008473D02*
X010944Y008473D01*
X010878Y008542D02*
X010774Y008542D01*
X010818Y008610D02*
X010849Y008610D01*
X010872Y008884D02*
X010821Y008884D01*
X010780Y008953D02*
X010930Y008953D01*
X011041Y009021D02*
X010712Y009021D01*
X010714Y009220D02*
X010831Y009269D01*
X010921Y009359D01*
X010970Y009476D01*
X010970Y009604D01*
X010921Y009721D01*
X010831Y009811D01*
X010714Y009860D01*
X010586Y009860D01*
X010469Y009811D01*
X010379Y009721D01*
X010330Y009604D01*
X010330Y009476D01*
X010379Y009359D01*
X010469Y009269D01*
X010586Y009220D01*
X010714Y009220D01*
X010729Y009227D02*
X011711Y009227D01*
X011699Y009239D02*
X011789Y009149D01*
X011906Y009100D01*
X012034Y009100D01*
X012151Y009149D01*
X012241Y009239D01*
X012290Y009356D01*
X012290Y009484D01*
X012241Y009601D01*
X012151Y009691D01*
X012125Y009702D01*
X012211Y009789D01*
X012260Y009906D01*
X012260Y010034D01*
X012211Y010151D01*
X012121Y010241D01*
X012004Y010290D01*
X011876Y010290D01*
X011759Y010241D01*
X011669Y010151D01*
X011620Y010034D01*
X011620Y009906D01*
X011669Y009789D01*
X011759Y009699D01*
X011785Y009688D01*
X011699Y009601D01*
X011650Y009484D01*
X011650Y009356D01*
X011699Y009239D01*
X011675Y009295D02*
X010858Y009295D01*
X010923Y009364D02*
X011650Y009364D01*
X011650Y009432D02*
X010952Y009432D01*
X010970Y009501D02*
X011657Y009501D01*
X011685Y009569D02*
X010970Y009569D01*
X010956Y009638D02*
X011735Y009638D01*
X011751Y009706D02*
X010928Y009706D01*
X010868Y009775D02*
X011683Y009775D01*
X011646Y009843D02*
X010755Y009843D01*
X010545Y009843D02*
X010020Y009843D01*
X010020Y009775D02*
X010432Y009775D01*
X010372Y009706D02*
X010020Y009706D01*
X010020Y009638D02*
X010344Y009638D01*
X010330Y009569D02*
X010030Y009569D01*
X010098Y009501D02*
X010330Y009501D01*
X010348Y009432D02*
X010167Y009432D01*
X010235Y009364D02*
X010377Y009364D01*
X010442Y009295D02*
X010304Y009295D01*
X010372Y009227D02*
X010571Y009227D01*
X010441Y009158D02*
X011779Y009158D01*
X012161Y009158D02*
X012930Y009158D01*
X012930Y009090D02*
X010509Y009090D01*
X010530Y008800D02*
X009830Y009500D01*
X009830Y010800D01*
X011330Y012300D01*
X011623Y012172D02*
X014183Y012172D01*
X014115Y012104D02*
X011586Y012104D01*
X011518Y012035D02*
X014046Y012035D01*
X013978Y011967D02*
X011265Y011967D01*
X011197Y011898D02*
X013920Y011898D01*
X013920Y011830D02*
X011128Y011830D01*
X011060Y011761D02*
X013920Y011761D01*
X013920Y011693D02*
X010991Y011693D01*
X010923Y011624D02*
X013920Y011624D01*
X013920Y011556D02*
X010854Y011556D01*
X010786Y011487D02*
X013920Y011487D01*
X013920Y011419D02*
X010717Y011419D01*
X010649Y011350D02*
X013920Y011350D01*
X013920Y011282D02*
X010580Y011282D01*
X010512Y011213D02*
X013920Y011213D01*
X013886Y011145D02*
X010443Y011145D01*
X010375Y011076D02*
X013817Y011076D01*
X013749Y011008D02*
X010306Y011008D01*
X010238Y010939D02*
X013680Y010939D01*
X013612Y010871D02*
X010169Y010871D01*
X010101Y010802D02*
X013543Y010802D01*
X013475Y010734D02*
X010032Y010734D01*
X010020Y010665D02*
X013406Y010665D01*
X013338Y010597D02*
X010020Y010597D01*
X010020Y010528D02*
X013269Y010528D01*
X013201Y010460D02*
X010020Y010460D01*
X010020Y010391D02*
X013132Y010391D01*
X013064Y010323D02*
X010020Y010323D01*
X010020Y010254D02*
X011789Y010254D01*
X011703Y010186D02*
X010020Y010186D01*
X010020Y010117D02*
X011655Y010117D01*
X011626Y010049D02*
X010020Y010049D01*
X010020Y009980D02*
X011620Y009980D01*
X011620Y009912D02*
X010020Y009912D01*
X009640Y010597D02*
X007679Y010597D01*
X007748Y010665D02*
X009640Y010665D01*
X009640Y010734D02*
X007778Y010734D01*
X007800Y010802D02*
X009063Y010802D01*
X008957Y010871D02*
X007800Y010871D01*
X007789Y010939D02*
X008900Y010939D01*
X008872Y011008D02*
X007761Y011008D01*
X007707Y011076D02*
X008860Y011076D01*
X009297Y010802D02*
X009640Y010802D01*
X009640Y010871D02*
X009403Y010871D01*
X009460Y010939D02*
X009700Y010939D01*
X009769Y011008D02*
X009488Y011008D01*
X009500Y011076D02*
X009837Y011076D01*
X009906Y011145D02*
X009500Y011145D01*
X009480Y011213D02*
X009974Y011213D01*
X010043Y011282D02*
X009451Y011282D01*
X009383Y011350D02*
X010111Y011350D01*
X010180Y011419D02*
X009247Y011419D01*
X009113Y011419D02*
X009037Y011419D01*
X009120Y011487D02*
X010248Y011487D01*
X010317Y011556D02*
X009167Y011556D01*
X009195Y011624D02*
X010385Y011624D01*
X010454Y011693D02*
X009200Y011693D01*
X009200Y011761D02*
X010522Y011761D01*
X010591Y011830D02*
X009173Y011830D01*
X009135Y011898D02*
X010659Y011898D01*
X010728Y011967D02*
X009066Y011967D01*
X008694Y011967D02*
X004650Y011967D01*
X004650Y012035D02*
X010796Y012035D01*
X010865Y012104D02*
X004633Y012104D01*
X004605Y012172D02*
X010933Y012172D01*
X011002Y012241D02*
X004542Y012241D01*
X004420Y012309D02*
X011010Y012309D01*
X011016Y012378D02*
X003200Y012378D01*
X003268Y012446D02*
X011044Y012446D01*
X011092Y012515D02*
X003301Y012515D01*
X003329Y012583D02*
X011177Y012583D01*
X011483Y012583D02*
X014594Y012583D01*
X014526Y012515D02*
X011568Y012515D01*
X011616Y012446D02*
X014457Y012446D01*
X014389Y012378D02*
X011644Y012378D01*
X011650Y012309D02*
X014320Y012309D01*
X014252Y012241D02*
X011650Y012241D01*
X014110Y011830D02*
X014110Y011100D01*
X013120Y010110D01*
X013120Y008250D01*
X012360Y007490D01*
X012360Y007450D01*
X012830Y006980D01*
X012830Y006000D01*
X013330Y006500D02*
X013330Y010000D01*
X014330Y011000D01*
X014330Y011500D01*
X015160Y012330D01*
X015250Y011967D02*
X015065Y011967D01*
X014997Y011898D02*
X015250Y011898D01*
X015274Y011830D02*
X014928Y011830D01*
X014860Y011761D02*
X015306Y011761D01*
X015375Y011693D02*
X014791Y011693D01*
X014723Y011624D02*
X015291Y011624D01*
X015226Y011556D02*
X015037Y011556D01*
X015126Y011487D02*
X015198Y011487D01*
X015180Y011419D02*
X015175Y011419D01*
X015210Y011213D02*
X015223Y011213D01*
X015184Y011145D02*
X015283Y011145D01*
X015398Y011076D02*
X015149Y011076D01*
X015080Y011008D02*
X015840Y011008D01*
X015840Y011076D02*
X015602Y011076D01*
X015717Y011145D02*
X015840Y011145D01*
X015840Y011213D02*
X015777Y011213D01*
X015806Y011282D02*
X015840Y011282D01*
X015840Y011350D02*
X015820Y011350D01*
X015820Y011419D02*
X015840Y011419D01*
X015840Y011487D02*
X015802Y011487D01*
X015774Y011556D02*
X015840Y011556D01*
X015840Y011624D02*
X015709Y011624D01*
X015765Y011693D02*
X015840Y011693D01*
X015834Y011761D02*
X015840Y011761D01*
X016030Y012240D02*
X015560Y012710D01*
X014990Y012710D01*
X014110Y011830D01*
X014654Y011556D02*
X014743Y011556D01*
X014654Y011487D02*
X014586Y011487D01*
X014605Y011419D02*
X014520Y011419D01*
X014520Y011350D02*
X014577Y011350D01*
X014570Y011282D02*
X014520Y011282D01*
X014520Y011213D02*
X014570Y011213D01*
X014596Y011145D02*
X014520Y011145D01*
X014520Y011076D02*
X014631Y011076D01*
X014700Y011008D02*
X014520Y011008D01*
X014520Y010939D02*
X015840Y010939D01*
X015840Y010871D02*
X014469Y010871D01*
X014401Y010802D02*
X015840Y010802D01*
X015840Y010734D02*
X014332Y010734D01*
X014264Y010665D02*
X015840Y010665D01*
X015840Y010597D02*
X014195Y010597D01*
X014127Y010528D02*
X015840Y010528D01*
X015840Y010460D02*
X014058Y010460D01*
X013990Y010391D02*
X015840Y010391D01*
X015840Y010323D02*
X013921Y010323D01*
X013853Y010254D02*
X015840Y010254D01*
X015840Y010186D02*
X013784Y010186D01*
X013716Y010117D02*
X015840Y010117D01*
X015840Y010049D02*
X013647Y010049D01*
X013579Y009980D02*
X015840Y009980D01*
X015840Y009912D02*
X013520Y009912D01*
X013520Y009843D02*
X015840Y009843D01*
X015840Y009775D02*
X013520Y009775D01*
X013520Y009706D02*
X015840Y009706D01*
X015840Y009638D02*
X013520Y009638D01*
X013520Y009569D02*
X015840Y009569D01*
X015840Y009501D02*
X013520Y009501D01*
X013520Y009432D02*
X015840Y009432D01*
X015840Y009364D02*
X013520Y009364D01*
X013520Y009295D02*
X015840Y009295D01*
X015840Y009227D02*
X013520Y009227D01*
X013520Y009158D02*
X015840Y009158D01*
X015842Y009090D02*
X015435Y009090D01*
X015434Y009090D02*
X015306Y009090D01*
X015189Y009041D01*
X015099Y008951D01*
X015050Y008834D01*
X015050Y008706D01*
X015073Y008650D01*
X015036Y008650D01*
X014919Y008601D01*
X014829Y008511D01*
X014780Y008394D01*
X014780Y008266D01*
X014829Y008149D01*
X014919Y008059D01*
X015036Y008010D01*
X015164Y008010D01*
X015281Y008059D01*
X015371Y008149D01*
X015420Y008266D01*
X015420Y008394D01*
X015397Y008450D01*
X015434Y008450D01*
X015551Y008499D01*
X015641Y008589D01*
X015690Y008706D01*
X015690Y008834D01*
X015641Y008951D01*
X015551Y009041D01*
X015434Y009090D01*
X015305Y009090D02*
X013520Y009090D01*
X013520Y009021D02*
X015168Y009021D01*
X015100Y008953D02*
X013520Y008953D01*
X013520Y008884D02*
X015071Y008884D01*
X015050Y008816D02*
X013520Y008816D01*
X013520Y008747D02*
X015050Y008747D01*
X015062Y008679D02*
X013520Y008679D01*
X013520Y008610D02*
X014940Y008610D01*
X014859Y008542D02*
X013520Y008542D01*
X013520Y008473D02*
X014813Y008473D01*
X014785Y008405D02*
X013520Y008405D01*
X013520Y008336D02*
X014780Y008336D01*
X014780Y008268D02*
X014695Y008268D01*
X014691Y008271D02*
X014574Y008320D01*
X014446Y008320D01*
X014329Y008271D01*
X014239Y008181D01*
X014190Y008064D01*
X014190Y007936D01*
X014239Y007819D01*
X014329Y007729D01*
X014446Y007680D01*
X014574Y007680D01*
X014691Y007729D01*
X014781Y007819D01*
X014830Y007936D01*
X014830Y008064D01*
X014781Y008181D01*
X014691Y008271D01*
X014764Y008199D02*
X014808Y008199D01*
X014802Y008131D02*
X014847Y008131D01*
X014830Y008062D02*
X014915Y008062D01*
X014830Y007994D02*
X018834Y007994D01*
X018766Y008062D02*
X015285Y008062D01*
X015353Y008131D02*
X018697Y008131D01*
X018629Y008199D02*
X015392Y008199D01*
X015420Y008268D02*
X016480Y008268D01*
X016411Y008336D02*
X015420Y008336D01*
X015415Y008405D02*
X016381Y008405D01*
X016360Y008473D02*
X015489Y008473D01*
X015594Y008542D02*
X016360Y008542D01*
X016321Y008610D02*
X015650Y008610D01*
X015678Y008679D02*
X016253Y008679D01*
X016184Y008747D02*
X015690Y008747D01*
X015690Y008816D02*
X016116Y008816D01*
X016047Y008884D02*
X015669Y008884D01*
X015640Y008953D02*
X015979Y008953D01*
X015910Y009021D02*
X015572Y009021D01*
X016030Y009170D02*
X016680Y008520D01*
X016803Y008816D02*
X017600Y008816D01*
X017600Y008824D02*
X017600Y008696D01*
X017649Y008579D01*
X017739Y008489D01*
X017856Y008440D01*
X017984Y008440D01*
X018101Y008489D01*
X018191Y008579D01*
X018240Y008696D01*
X018240Y008824D01*
X018191Y008941D01*
X018101Y009031D01*
X017984Y009080D01*
X017856Y009080D01*
X017739Y009031D01*
X017649Y008941D01*
X017600Y008824D01*
X017625Y008884D02*
X016585Y008884D01*
X016516Y008953D02*
X017660Y008953D01*
X017728Y009021D02*
X016448Y009021D01*
X016379Y009090D02*
X018408Y009090D01*
X018340Y009158D02*
X016311Y009158D01*
X016242Y009227D02*
X018271Y009227D01*
X018112Y009021D02*
X018477Y009021D01*
X018545Y008953D02*
X018180Y008953D01*
X018215Y008884D02*
X018595Y008884D01*
X018595Y008816D02*
X018240Y008816D01*
X018240Y008747D02*
X018595Y008747D01*
X018595Y008679D02*
X018233Y008679D01*
X018204Y008610D02*
X018595Y008610D01*
X018595Y008542D02*
X018154Y008542D01*
X018063Y008473D02*
X018595Y008473D01*
X018595Y008405D02*
X016979Y008405D01*
X017000Y008473D02*
X017777Y008473D01*
X017686Y008542D02*
X017000Y008542D01*
X016989Y008610D02*
X017636Y008610D01*
X017607Y008679D02*
X016961Y008679D01*
X016906Y008747D02*
X017600Y008747D01*
X016949Y008336D02*
X018595Y008336D01*
X018595Y008268D02*
X016880Y008268D01*
X015904Y007857D02*
X018971Y007857D01*
X018903Y007925D02*
X014825Y007925D01*
X014797Y007857D02*
X015616Y007857D01*
X015525Y007788D02*
X014751Y007788D01*
X014669Y007720D02*
X015476Y007720D01*
X015447Y007651D02*
X013520Y007651D01*
X013520Y007583D02*
X015440Y007583D01*
X015440Y007514D02*
X013520Y007514D01*
X013520Y007446D02*
X015465Y007446D01*
X015500Y007377D02*
X013520Y007377D01*
X013520Y007309D02*
X015569Y007309D01*
X014351Y007720D02*
X013520Y007720D01*
X013520Y007788D02*
X014269Y007788D01*
X014223Y007857D02*
X013520Y007857D01*
X013520Y007925D02*
X014195Y007925D01*
X014190Y007994D02*
X013520Y007994D01*
X013520Y008062D02*
X014190Y008062D01*
X014218Y008131D02*
X013520Y008131D01*
X013520Y008199D02*
X014256Y008199D01*
X014325Y008268D02*
X013520Y008268D01*
X012930Y008336D02*
X012801Y008336D01*
X012869Y008268D02*
X012515Y008268D01*
X012499Y008336D02*
X012263Y008336D01*
X012413Y008405D02*
X011225Y008405D01*
X011356Y008473D02*
X012365Y008473D01*
X012336Y008542D02*
X011422Y008542D01*
X011451Y008610D02*
X012330Y008610D01*
X012330Y008679D02*
X011470Y008679D01*
X011470Y008747D02*
X012356Y008747D01*
X012393Y008816D02*
X011457Y008816D01*
X011428Y008884D02*
X012461Y008884D01*
X012839Y008884D02*
X012930Y008884D01*
X012930Y008816D02*
X012907Y008816D01*
X012930Y008953D02*
X011370Y008953D01*
X011259Y009021D02*
X012930Y009021D01*
X012930Y009227D02*
X012229Y009227D01*
X012265Y009295D02*
X012930Y009295D01*
X012930Y009364D02*
X012290Y009364D01*
X012290Y009432D02*
X012930Y009432D01*
X012930Y009501D02*
X012283Y009501D01*
X012255Y009569D02*
X012930Y009569D01*
X012930Y009638D02*
X012205Y009638D01*
X012129Y009706D02*
X012930Y009706D01*
X012930Y009775D02*
X012197Y009775D01*
X012234Y009843D02*
X012930Y009843D01*
X012930Y009912D02*
X012260Y009912D01*
X012260Y009980D02*
X012930Y009980D01*
X012930Y010049D02*
X012254Y010049D01*
X012225Y010117D02*
X012930Y010117D01*
X012930Y010186D02*
X012177Y010186D01*
X012091Y010254D02*
X012995Y010254D01*
X010530Y008800D02*
X010530Y008750D01*
X011075Y008405D02*
X000520Y008405D01*
X000520Y008336D02*
X009837Y008336D01*
X009769Y008268D02*
X000520Y008268D01*
X000520Y008199D02*
X009700Y008199D01*
X009632Y008131D02*
X000520Y008131D01*
X000520Y008062D02*
X009563Y008062D01*
X009495Y007994D02*
X000520Y007994D01*
X000520Y007925D02*
X009426Y007925D01*
X009358Y007857D02*
X000520Y007857D01*
X000520Y007788D02*
X009289Y007788D01*
X009221Y007720D02*
X000520Y007720D01*
X000520Y007651D02*
X009152Y007651D01*
X009140Y007583D02*
X000520Y007583D01*
X000520Y007514D02*
X009140Y007514D01*
X009140Y007446D02*
X000520Y007446D01*
X000520Y007377D02*
X009140Y007377D01*
X009140Y007309D02*
X000520Y007309D01*
X000520Y007240D02*
X009140Y007240D01*
X009140Y007172D02*
X000520Y007172D01*
X000520Y007103D02*
X009140Y007103D01*
X009140Y007035D02*
X000520Y007035D01*
X000520Y006966D02*
X009140Y006966D01*
X009140Y006898D02*
X000520Y006898D01*
X000520Y006418D02*
X001148Y006418D01*
X000959Y006350D02*
X000520Y006350D01*
X000520Y006281D02*
X000822Y006281D01*
X000740Y006213D02*
X000520Y006213D01*
X000520Y006144D02*
X000658Y006144D01*
X000594Y006076D02*
X000520Y006076D01*
X000520Y006007D02*
X000555Y006007D01*
X002252Y005596D02*
X006639Y005596D01*
X012584Y008199D02*
X012800Y008199D01*
X012732Y008131D02*
X012622Y008131D01*
X012650Y008062D02*
X012663Y008062D01*
X012887Y008405D02*
X012930Y008405D01*
X016030Y009170D02*
X016030Y012240D01*
X014800Y012789D02*
X003355Y012789D01*
X003354Y012857D02*
X014868Y012857D01*
X014731Y012720D02*
X003355Y012720D01*
X003355Y012652D02*
X014663Y012652D01*
X016680Y011419D02*
X016980Y011419D01*
X016980Y011350D02*
X016680Y011350D01*
X016657Y011282D02*
X016994Y011282D01*
X017023Y011213D02*
X016626Y011213D01*
X016557Y011145D02*
X017083Y011145D01*
X017198Y011076D02*
X016220Y011076D01*
X016220Y011008D02*
X020640Y011008D01*
X020640Y011076D02*
X018492Y011076D01*
X018544Y010990D02*
X018416Y010990D01*
X018299Y010941D01*
X018209Y010851D01*
X018160Y010734D01*
X018160Y010614D01*
X018074Y010650D01*
X017946Y010650D01*
X017829Y010601D01*
X017745Y010518D01*
X017661Y010601D01*
X017544Y010650D01*
X017416Y010650D01*
X017299Y010601D01*
X017209Y010511D01*
X017160Y010394D01*
X017160Y010266D01*
X017209Y010149D01*
X017299Y010059D01*
X017416Y010010D01*
X017544Y010010D01*
X017661Y010059D01*
X017745Y010142D01*
X017829Y010059D01*
X017946Y010010D01*
X018074Y010010D01*
X018191Y010059D01*
X018281Y010149D01*
X018330Y010266D01*
X018330Y010386D01*
X018416Y010350D01*
X018544Y010350D01*
X018661Y010399D01*
X018751Y010489D01*
X018800Y010606D01*
X018800Y010734D01*
X018751Y010851D01*
X018661Y010941D01*
X018544Y010990D01*
X018664Y010939D02*
X020640Y010939D01*
X020640Y010871D02*
X020515Y010871D01*
X020611Y010802D02*
X020640Y010802D01*
X020245Y010871D02*
X018732Y010871D01*
X018772Y010802D02*
X020149Y010802D01*
X020097Y010734D02*
X018800Y010734D01*
X018800Y010665D02*
X020069Y010665D01*
X020060Y010597D02*
X018796Y010597D01*
X018768Y010528D02*
X020060Y010528D01*
X020084Y010460D02*
X018722Y010460D01*
X018643Y010391D02*
X020116Y010391D01*
X020185Y010323D02*
X018330Y010323D01*
X018325Y010254D02*
X018512Y010254D01*
X018383Y010186D02*
X018297Y010186D01*
X018317Y010117D02*
X018250Y010117D01*
X018289Y010049D02*
X018167Y010049D01*
X018270Y009980D02*
X016718Y009980D01*
X016747Y010049D02*
X017323Y010049D01*
X017240Y010117D02*
X016750Y010117D01*
X016749Y010186D02*
X017193Y010186D01*
X017165Y010254D02*
X016721Y010254D01*
X016680Y010323D02*
X017160Y010323D01*
X017160Y010391D02*
X016612Y010391D01*
X016248Y010391D02*
X016220Y010391D01*
X016220Y010460D02*
X017187Y010460D01*
X017225Y010528D02*
X016220Y010528D01*
X016220Y010597D02*
X017294Y010597D01*
X017666Y010597D02*
X017824Y010597D01*
X017755Y010528D02*
X017735Y010528D01*
X018160Y010665D02*
X016220Y010665D01*
X016220Y010734D02*
X018160Y010734D01*
X018188Y010802D02*
X016220Y010802D01*
X016220Y010871D02*
X018228Y010871D01*
X018296Y010939D02*
X016220Y010939D01*
X017402Y011076D02*
X017728Y011076D01*
X017613Y011145D02*
X017517Y011145D01*
X017932Y011076D02*
X018288Y011076D01*
X018173Y011145D02*
X018047Y011145D01*
X018107Y011213D02*
X018113Y011213D01*
X018607Y011145D02*
X020640Y011145D01*
X020640Y011213D02*
X018667Y011213D01*
X018696Y011282D02*
X020640Y011282D01*
X020640Y011350D02*
X018710Y011350D01*
X018710Y011419D02*
X020640Y011419D01*
X020640Y011487D02*
X018692Y011487D01*
X018664Y011556D02*
X020065Y011556D01*
X019963Y011624D02*
X018599Y011624D01*
X018472Y011693D02*
X019909Y011693D01*
X020315Y011556D02*
X020640Y011556D01*
X020640Y011624D02*
X020417Y011624D01*
X020471Y011693D02*
X020640Y011693D01*
X020640Y011761D02*
X020500Y011761D01*
X020510Y011830D02*
X020640Y011830D01*
X020640Y011898D02*
X020510Y011898D01*
X020488Y011967D02*
X020640Y011967D01*
X020640Y012035D02*
X020458Y012035D01*
X020389Y012104D02*
X020640Y012104D01*
X020640Y012172D02*
X020339Y012172D01*
X020368Y012241D02*
X020640Y012241D01*
X020632Y012309D02*
X020370Y012309D01*
X020368Y012378D02*
X020564Y012378D01*
X020495Y012446D02*
X020340Y012446D01*
X018308Y011693D02*
X017912Y011693D01*
X018039Y011624D02*
X018181Y011624D01*
X018116Y011556D02*
X018104Y011556D01*
X017746Y012789D02*
X017690Y012789D01*
X017019Y014090D02*
X018837Y014090D01*
X018775Y014159D02*
X017087Y014159D01*
X017156Y014227D02*
X018746Y014227D01*
X018730Y014296D02*
X017224Y014296D01*
X017293Y014364D02*
X018730Y014364D01*
X018746Y014433D02*
X017361Y014433D01*
X017430Y014501D02*
X018774Y014501D01*
X018837Y014570D02*
X017498Y014570D01*
X017567Y014638D02*
X018957Y014638D01*
X019143Y014638D02*
X019410Y014638D01*
X019390Y014707D02*
X017635Y014707D01*
X017704Y014775D02*
X019390Y014775D01*
X019402Y014844D02*
X017772Y014844D01*
X019263Y014570D02*
X019438Y014570D01*
X019506Y014501D02*
X019326Y014501D01*
X015188Y016351D02*
X014625Y016351D01*
X014596Y016419D02*
X015108Y016419D01*
X015518Y017515D02*
X015625Y017515D01*
X015510Y017584D02*
X015389Y017584D01*
X015435Y017652D02*
X015225Y017652D01*
X015276Y017721D02*
X015384Y017721D01*
X015348Y017789D02*
X015312Y017789D01*
X015865Y017995D02*
X016795Y017995D01*
X016795Y017926D02*
X016865Y017926D01*
X016865Y017858D02*
X016795Y017858D01*
X016865Y017995D02*
X017795Y017995D01*
X017795Y017926D02*
X017865Y017926D01*
X017865Y017858D02*
X017795Y017858D01*
X017865Y017995D02*
X018795Y017995D01*
X019225Y017652D02*
X020435Y017652D01*
X020377Y017721D02*
X019276Y017721D01*
X019312Y017789D02*
X020349Y017789D01*
X020321Y017858D02*
X019336Y017858D01*
X019150Y017584D02*
X020504Y017584D01*
X020629Y017515D02*
X019035Y017515D01*
X019355Y019091D02*
X020313Y019091D01*
X020330Y019159D02*
X019332Y019159D01*
X019304Y019228D02*
X020357Y019228D01*
X020396Y019296D02*
X019276Y019296D01*
X021264Y019296D02*
X025840Y019296D01*
X025758Y019228D02*
X021303Y019228D01*
X021330Y019159D02*
X025676Y019159D01*
X025603Y019091D02*
X021347Y019091D01*
X014865Y018954D02*
X014795Y018954D01*
X014795Y018885D02*
X014865Y018885D01*
X014865Y018817D02*
X014795Y018817D01*
X014795Y018748D02*
X014865Y018748D01*
X014865Y018680D02*
X014795Y018680D01*
X014795Y018611D02*
X014865Y018611D01*
X014865Y018543D02*
X014795Y018543D01*
X014795Y018474D02*
X014865Y018474D01*
X014865Y018406D02*
X014795Y018406D01*
X014795Y018337D02*
X014865Y018337D01*
X014865Y018269D02*
X014795Y018269D01*
X014795Y018200D02*
X014865Y018200D01*
X014865Y018132D02*
X014795Y018132D01*
X014123Y015255D02*
X014037Y015255D01*
X013963Y015186D02*
X014252Y015186D01*
X009259Y015069D02*
X009210Y015186D01*
X007705Y014501D02*
X004532Y014501D01*
X004600Y014433D02*
X007705Y014433D01*
X007705Y014364D02*
X004629Y014364D01*
X004650Y014296D02*
X007207Y014296D01*
X007149Y014271D02*
X007059Y014181D01*
X007010Y014064D01*
X007010Y013936D01*
X007059Y013819D01*
X007149Y013729D01*
X007266Y013680D01*
X007394Y013680D01*
X007511Y013729D01*
X007601Y013819D01*
X007650Y013936D01*
X007650Y014064D01*
X007601Y014181D01*
X007511Y014271D01*
X007394Y014320D01*
X007266Y014320D01*
X007149Y014271D01*
X007104Y014227D02*
X004650Y014227D01*
X004638Y014159D02*
X007049Y014159D01*
X007021Y014090D02*
X004610Y014090D01*
X004554Y014022D02*
X007010Y014022D01*
X007010Y013953D02*
X004449Y013953D01*
X004211Y013953D02*
X003314Y013953D01*
X003286Y014022D02*
X004106Y014022D01*
X004050Y014090D02*
X003232Y014090D01*
X003164Y014159D02*
X004022Y014159D01*
X004010Y014227D02*
X003050Y014227D01*
X002610Y014227D02*
X002050Y014227D01*
X002164Y014159D02*
X002496Y014159D01*
X002428Y014090D02*
X002232Y014090D01*
X002286Y014022D02*
X002374Y014022D01*
X002346Y013953D02*
X002314Y013953D01*
X001610Y014227D02*
X001050Y014227D01*
X001161Y014159D02*
X001496Y014159D01*
X001428Y014090D02*
X001232Y014090D01*
X001281Y014022D02*
X001374Y014022D01*
X001346Y013953D02*
X001316Y013953D01*
X003038Y013268D02*
X008473Y013268D01*
X008405Y013337D02*
X003159Y013337D01*
X003227Y013405D02*
X008336Y013405D01*
X008268Y013474D02*
X003284Y013474D01*
X003312Y013542D02*
X008199Y013542D01*
X008131Y013611D02*
X003340Y013611D01*
X003355Y013679D02*
X008062Y013679D01*
X007994Y013748D02*
X007530Y013748D01*
X007599Y013816D02*
X007925Y013816D01*
X007857Y013885D02*
X007629Y013885D01*
X007650Y013953D02*
X007788Y013953D01*
X007736Y014022D02*
X007650Y014022D01*
X007639Y014090D02*
X007707Y014090D01*
X007705Y014159D02*
X007611Y014159D01*
X007556Y014227D02*
X007705Y014227D01*
X007705Y014296D02*
X007453Y014296D01*
X007031Y013885D02*
X003343Y013885D01*
X003355Y013816D02*
X007061Y013816D01*
X007130Y013748D02*
X003355Y013748D01*
X003117Y013200D02*
X008542Y013200D01*
X008610Y013131D02*
X003191Y013131D01*
X003260Y013063D02*
X008685Y013063D01*
X008625Y011898D02*
X004634Y011898D01*
X004606Y011830D02*
X008587Y011830D01*
X008560Y011761D02*
X004544Y011761D01*
X004424Y011693D02*
X008560Y011693D01*
X004240Y012309D02*
X003131Y012309D01*
X003018Y012241D02*
X004118Y012241D01*
X004055Y012172D02*
X003150Y012172D01*
X003219Y012104D02*
X004027Y012104D01*
X004010Y012035D02*
X003280Y012035D01*
X003309Y011967D02*
X004010Y011967D01*
X004026Y011898D02*
X003337Y011898D01*
X003355Y011830D02*
X004054Y011830D01*
X004116Y011761D02*
X003355Y011761D01*
X003980Y011213D02*
X000520Y011213D01*
X000520Y011145D02*
X003997Y011145D01*
X001683Y011008D02*
X000967Y011008D01*
X001119Y010939D02*
X001527Y010939D01*
X001458Y010871D02*
X001202Y010871D01*
X001260Y010802D02*
X001390Y010802D01*
X001358Y010734D02*
X001300Y010734D01*
X001328Y010665D02*
X001330Y010665D01*
X000541Y010939D02*
X000520Y010939D01*
X000520Y011282D02*
X000593Y011282D01*
X001326Y017173D02*
X001333Y017173D01*
X001362Y017241D02*
X001296Y017241D01*
X001254Y017310D02*
X001397Y017310D01*
X001466Y017378D02*
X001194Y017378D01*
X001109Y017447D02*
X001536Y017447D01*
X001517Y017584D02*
X002603Y017584D01*
X002662Y017515D02*
X001958Y017515D01*
X002124Y017447D02*
X002536Y017447D01*
X002466Y017378D02*
X002194Y017378D01*
X002263Y017310D02*
X002397Y017310D01*
X002362Y017241D02*
X002298Y017241D01*
X002327Y017173D02*
X002333Y017173D01*
X001143Y017584D02*
X000520Y017584D01*
X000520Y017652D02*
X000955Y017652D01*
X000820Y017721D02*
X000520Y017721D01*
X000520Y017789D02*
X000738Y017789D01*
X000657Y017858D02*
X000520Y017858D01*
X000520Y017926D02*
X000593Y017926D01*
X000554Y017995D02*
X000520Y017995D01*
X000520Y017515D02*
X000726Y017515D01*
X000551Y017447D02*
X000520Y017447D01*
X008304Y017515D02*
X008625Y017515D01*
X008510Y017584D02*
X008355Y017584D01*
X008355Y017652D02*
X008435Y017652D01*
X008384Y017721D02*
X008355Y017721D01*
X009035Y017515D02*
X009076Y017515D01*
X021020Y010665D02*
X024305Y010665D01*
X024325Y010597D02*
X021020Y010597D01*
X021020Y010528D02*
X024354Y010528D01*
X024382Y010460D02*
X021020Y010460D01*
X021020Y010391D02*
X024447Y010391D01*
X024515Y010323D02*
X021020Y010323D01*
X021020Y010254D02*
X024656Y010254D01*
X025004Y010254D02*
X025656Y010254D01*
X025515Y010323D02*
X025145Y010323D01*
X025213Y010391D02*
X025447Y010391D01*
X025382Y010460D02*
X025278Y010460D01*
X025306Y010528D02*
X025354Y010528D01*
X026004Y010254D02*
X026658Y010254D01*
X026795Y010254D02*
X026865Y010254D01*
X026865Y010323D02*
X026795Y010323D01*
X026795Y010391D02*
X026865Y010391D01*
X026865Y010460D02*
X026795Y010460D01*
X026795Y010528D02*
X026865Y010528D01*
X026865Y010597D02*
X026795Y010597D01*
X026795Y010665D02*
X026865Y010665D01*
X026865Y010802D02*
X026795Y010802D01*
X026795Y010871D02*
X026865Y010871D01*
X026865Y010939D02*
X026795Y010939D01*
X026795Y011008D02*
X026865Y011008D01*
X026865Y011076D02*
X026795Y011076D01*
X026795Y011145D02*
X026865Y011145D01*
X026865Y011213D02*
X026795Y011213D01*
X026582Y011213D02*
X026084Y011213D01*
X026178Y011145D02*
X026482Y011145D01*
X026418Y011076D02*
X026246Y011076D01*
X026292Y011008D02*
X026372Y011008D01*
X026339Y010939D02*
X026320Y010939D01*
X026306Y010528D02*
X026354Y010528D01*
X026392Y010460D02*
X026278Y010460D01*
X026213Y010391D02*
X026447Y010391D01*
X026525Y010323D02*
X026145Y010323D01*
X026043Y009980D02*
X026616Y009980D01*
X026503Y009912D02*
X026161Y009912D01*
X026229Y009843D02*
X026431Y009843D01*
X026381Y009775D02*
X026285Y009775D01*
X026313Y009706D02*
X026346Y009706D01*
X026795Y009706D02*
X026865Y009706D01*
X026865Y009638D02*
X026795Y009638D01*
X026795Y009569D02*
X026865Y009569D01*
X026865Y009432D02*
X026795Y009432D01*
X026795Y009364D02*
X026865Y009364D01*
X026865Y009295D02*
X026795Y009295D01*
X026795Y009227D02*
X026865Y009227D01*
X026865Y009158D02*
X026795Y009158D01*
X026795Y009090D02*
X026865Y009090D01*
X026865Y009021D02*
X026795Y009021D01*
X026614Y009021D02*
X026046Y009021D01*
X026162Y009090D02*
X026502Y009090D01*
X026430Y009158D02*
X026230Y009158D01*
X026285Y009227D02*
X026380Y009227D01*
X026345Y009295D02*
X026313Y009295D01*
X026002Y008747D02*
X026661Y008747D01*
X026795Y008747D02*
X026865Y008747D01*
X026865Y008679D02*
X026795Y008679D01*
X026795Y008610D02*
X026865Y008610D01*
X026865Y008542D02*
X026795Y008542D01*
X026795Y008473D02*
X026865Y008473D01*
X026865Y008405D02*
X026795Y008405D01*
X026795Y008336D02*
X026865Y008336D01*
X026865Y008199D02*
X026795Y008199D01*
X026795Y008131D02*
X026865Y008131D01*
X026865Y008062D02*
X026795Y008062D01*
X026795Y007994D02*
X026865Y007994D01*
X026865Y007925D02*
X026795Y007925D01*
X026795Y007857D02*
X026865Y007857D01*
X026865Y007788D02*
X026795Y007788D01*
X026580Y007788D02*
X026087Y007788D01*
X026179Y007857D02*
X026481Y007857D01*
X026417Y007925D02*
X026247Y007925D01*
X026292Y007994D02*
X026371Y007994D01*
X026339Y008062D02*
X026320Y008062D01*
X026306Y008473D02*
X026354Y008473D01*
X026393Y008542D02*
X026278Y008542D01*
X026212Y008610D02*
X026448Y008610D01*
X026527Y008679D02*
X026144Y008679D01*
X025658Y008747D02*
X025002Y008747D01*
X025144Y008679D02*
X025516Y008679D01*
X025448Y008610D02*
X025212Y008610D01*
X025278Y008542D02*
X025382Y008542D01*
X025354Y008473D02*
X025306Y008473D01*
X025320Y008062D02*
X025340Y008062D01*
X025368Y007994D02*
X025292Y007994D01*
X025247Y007925D02*
X025413Y007925D01*
X025481Y007857D02*
X025179Y007857D01*
X025087Y007788D02*
X025573Y007788D01*
X025699Y007514D02*
X024961Y007514D01*
X025126Y007446D02*
X025534Y007446D01*
X025465Y007377D02*
X025195Y007377D01*
X025264Y007309D02*
X025396Y007309D01*
X025361Y007240D02*
X025299Y007240D01*
X025327Y007172D02*
X025333Y007172D01*
X025327Y006829D02*
X025333Y006829D01*
X025361Y006761D02*
X025299Y006761D01*
X025264Y006692D02*
X025396Y006692D01*
X025464Y006624D02*
X025196Y006624D01*
X025127Y006555D02*
X025533Y006555D01*
X025698Y006487D02*
X024962Y006487D01*
X024698Y006487D02*
X019850Y006487D01*
X019850Y006555D02*
X024533Y006555D01*
X024464Y006624D02*
X019850Y006624D01*
X019850Y006692D02*
X024396Y006692D01*
X024361Y006761D02*
X019859Y006761D01*
X019928Y006829D02*
X024333Y006829D01*
X024305Y006898D02*
X019996Y006898D01*
X020065Y006966D02*
X024305Y006966D01*
X024305Y007035D02*
X020133Y007035D01*
X020202Y007103D02*
X024305Y007103D01*
X024333Y007172D02*
X020270Y007172D01*
X020339Y007240D02*
X024361Y007240D01*
X024396Y007309D02*
X020407Y007309D01*
X020409Y007310D02*
X020409Y007310D01*
X020476Y007377D02*
X024465Y007377D01*
X024534Y007446D02*
X020520Y007446D01*
X020520Y007514D02*
X024699Y007514D01*
X024573Y007788D02*
X020520Y007788D01*
X020520Y007720D02*
X027140Y007720D01*
X027140Y007788D02*
X027080Y007788D01*
X027140Y007651D02*
X020520Y007651D01*
X020520Y007583D02*
X027140Y007583D01*
X027140Y007514D02*
X026941Y007514D01*
X026865Y007514D02*
X026795Y007514D01*
X026795Y007446D02*
X026865Y007446D01*
X026865Y007377D02*
X026795Y007377D01*
X026795Y007309D02*
X026865Y007309D01*
X026865Y007240D02*
X026795Y007240D01*
X026795Y007172D02*
X026865Y007172D01*
X026865Y007103D02*
X026795Y007103D01*
X026795Y006898D02*
X026865Y006898D01*
X026865Y006829D02*
X026795Y006829D01*
X026795Y006761D02*
X026865Y006761D01*
X026865Y006692D02*
X026795Y006692D01*
X026795Y006624D02*
X026865Y006624D01*
X026865Y006555D02*
X026795Y006555D01*
X026795Y006487D02*
X026865Y006487D01*
X026944Y006487D02*
X027140Y006487D01*
X027140Y006555D02*
X027111Y006555D01*
X027140Y006418D02*
X026512Y006418D01*
X026549Y006555D02*
X026127Y006555D01*
X026196Y006624D02*
X026464Y006624D01*
X026405Y006692D02*
X026264Y006692D01*
X026299Y006761D02*
X026363Y006761D01*
X026334Y006829D02*
X026327Y006829D01*
X026327Y007172D02*
X026334Y007172D01*
X026363Y007240D02*
X026299Y007240D01*
X026264Y007309D02*
X026405Y007309D01*
X026465Y007377D02*
X026195Y007377D01*
X026126Y007446D02*
X026550Y007446D01*
X026719Y007514D02*
X025961Y007514D01*
X027110Y007446D02*
X027140Y007446D01*
X026716Y006487D02*
X025962Y006487D01*
X025959Y006350D02*
X023717Y006350D01*
X023761Y006331D02*
X023644Y006380D01*
X023516Y006380D01*
X023399Y006331D01*
X023309Y006241D01*
X023260Y006124D01*
X023260Y005996D01*
X023309Y005879D01*
X023399Y005789D01*
X023516Y005740D01*
X023644Y005740D01*
X023761Y005789D01*
X023851Y005879D01*
X023900Y005996D01*
X023900Y006124D01*
X023851Y006241D01*
X023761Y006331D01*
X023812Y006281D02*
X025822Y006281D01*
X025860Y006313D02*
X025860Y006313D01*
X025740Y006213D02*
X023863Y006213D01*
X023892Y006144D02*
X025658Y006144D01*
X025594Y006076D02*
X023900Y006076D01*
X023900Y006007D02*
X025555Y006007D01*
X025515Y005939D02*
X023876Y005939D01*
X023843Y005870D02*
X025476Y005870D01*
X025447Y005821D02*
X025447Y005821D01*
X025444Y005802D02*
X023774Y005802D01*
X023386Y005802D02*
X019824Y005802D01*
X019886Y005870D02*
X023317Y005870D01*
X023284Y005939D02*
X019914Y005939D01*
X019930Y006007D02*
X023260Y006007D01*
X023260Y006076D02*
X019930Y006076D01*
X019913Y006144D02*
X023268Y006144D01*
X023297Y006213D02*
X019885Y006213D01*
X019850Y006281D02*
X023348Y006281D01*
X023443Y006350D02*
X019850Y006350D01*
X019850Y006418D02*
X026148Y006418D01*
X026701Y006350D02*
X027140Y006350D01*
X027140Y006281D02*
X026838Y006281D01*
X026920Y006213D02*
X027140Y006213D01*
X027140Y006144D02*
X027002Y006144D01*
X027066Y006076D02*
X027140Y006076D01*
X027140Y006007D02*
X027105Y006007D01*
X025432Y005733D02*
X019705Y005733D01*
X019515Y005733D02*
X019288Y005733D01*
X019316Y005802D02*
X019396Y005802D01*
X019237Y005665D02*
X025420Y005665D01*
X025408Y005596D02*
X019168Y005596D01*
X019061Y005528D02*
X025396Y005528D01*
X025391Y005500D02*
X025391Y005500D01*
X025398Y005459D02*
X025094Y005459D01*
X025182Y005391D02*
X025410Y005391D01*
X025422Y005322D02*
X025250Y005322D01*
X025293Y005254D02*
X025434Y005254D01*
X025446Y005185D02*
X025322Y005185D01*
X025350Y005117D02*
X025483Y005117D01*
X025523Y005048D02*
X025355Y005048D01*
X025355Y004980D02*
X025562Y004980D01*
X025602Y004911D02*
X025355Y004911D01*
X025333Y004843D02*
X025675Y004843D01*
X025610Y004896D02*
X025610Y004896D01*
X025756Y004774D02*
X025305Y004774D01*
X025276Y004706D02*
X025838Y004706D01*
X024478Y005391D02*
X024182Y005391D01*
X024250Y005322D02*
X024410Y005322D01*
X024367Y005254D02*
X024293Y005254D01*
X024322Y005185D02*
X024338Y005185D01*
X024566Y005459D02*
X024094Y005459D01*
X023566Y005459D02*
X023094Y005459D01*
X023182Y005391D02*
X023478Y005391D01*
X023410Y005322D02*
X023250Y005322D01*
X023293Y005254D02*
X023367Y005254D01*
X023338Y005185D02*
X023322Y005185D01*
X022566Y005459D02*
X022086Y005459D01*
X022182Y005391D02*
X022478Y005391D01*
X022410Y005322D02*
X022245Y005322D01*
X022290Y005254D02*
X022367Y005254D01*
X022338Y005185D02*
X022322Y005185D01*
X021865Y005185D02*
X021795Y005185D01*
X021795Y005117D02*
X021865Y005117D01*
X021865Y005048D02*
X021795Y005048D01*
X021795Y005254D02*
X021865Y005254D01*
X021865Y005322D02*
X021795Y005322D01*
X021795Y005391D02*
X021865Y005391D01*
X021865Y005459D02*
X021795Y005459D01*
X021574Y005459D02*
X021094Y005459D01*
X021182Y005391D02*
X021478Y005391D01*
X021415Y005322D02*
X021250Y005322D01*
X021293Y005254D02*
X021370Y005254D01*
X021338Y005185D02*
X021322Y005185D01*
X020566Y005459D02*
X020094Y005459D01*
X020182Y005391D02*
X020478Y005391D01*
X020410Y005322D02*
X020250Y005322D01*
X020293Y005254D02*
X020367Y005254D01*
X020338Y005185D02*
X020322Y005185D01*
X019566Y005459D02*
X019086Y005459D01*
X019182Y005391D02*
X019478Y005391D01*
X019410Y005322D02*
X019245Y005322D01*
X019290Y005254D02*
X019367Y005254D01*
X019338Y005185D02*
X019322Y005185D01*
X019115Y007103D02*
X019664Y007103D01*
X019733Y007172D02*
X019184Y007172D01*
X019252Y007240D02*
X019801Y007240D01*
X019870Y007309D02*
X019321Y007309D01*
X019389Y007377D02*
X019938Y007377D01*
X020007Y007446D02*
X019545Y007446D01*
X019647Y007514D02*
X020075Y007514D01*
X020140Y007583D02*
X019701Y007583D01*
X019730Y007651D02*
X020140Y007651D01*
X020140Y007720D02*
X019740Y007720D01*
X019740Y007788D02*
X020140Y007788D01*
X020140Y007857D02*
X019718Y007857D01*
X019688Y007925D02*
X020140Y007925D01*
X020140Y007994D02*
X019619Y007994D01*
X019430Y008062D02*
X020140Y008062D01*
X020140Y008131D02*
X019362Y008131D01*
X019293Y008199D02*
X020140Y008199D01*
X020140Y008268D02*
X019225Y008268D01*
X019156Y008336D02*
X020140Y008336D01*
X020140Y008405D02*
X019088Y008405D01*
X019065Y008473D02*
X020140Y008473D01*
X020140Y008542D02*
X019580Y008542D01*
X019621Y008559D02*
X019711Y008649D01*
X019760Y008766D01*
X019760Y008894D01*
X019711Y009011D01*
X019628Y009095D01*
X019711Y009179D01*
X019760Y009296D01*
X019760Y009424D01*
X019741Y009470D01*
X019794Y009470D01*
X019911Y009519D01*
X020001Y009609D01*
X020050Y009726D01*
X020050Y009854D01*
X020001Y009971D01*
X019911Y010061D01*
X019794Y010110D01*
X019666Y010110D01*
X019549Y010061D01*
X019459Y009971D01*
X019410Y009854D01*
X019410Y009726D01*
X019429Y009680D01*
X019376Y009680D01*
X019259Y009631D01*
X019169Y009541D01*
X019120Y009424D01*
X019120Y009296D01*
X019169Y009179D01*
X019252Y009095D01*
X019169Y009011D01*
X019120Y008894D01*
X019120Y008766D01*
X019169Y008649D01*
X019259Y008559D01*
X019376Y008510D01*
X019504Y008510D01*
X019621Y008559D01*
X019673Y008610D02*
X020140Y008610D01*
X020140Y008679D02*
X019724Y008679D01*
X019752Y008747D02*
X020140Y008747D01*
X020140Y008816D02*
X019760Y008816D01*
X019760Y008884D02*
X020140Y008884D01*
X020140Y008953D02*
X019736Y008953D01*
X019702Y009021D02*
X020140Y009021D01*
X020140Y009090D02*
X019633Y009090D01*
X019691Y009158D02*
X020140Y009158D01*
X020140Y009227D02*
X019731Y009227D01*
X019759Y009295D02*
X020140Y009295D01*
X020140Y009364D02*
X019760Y009364D01*
X019757Y009432D02*
X020140Y009432D01*
X020140Y009501D02*
X019867Y009501D01*
X019962Y009569D02*
X020140Y009569D01*
X020199Y009638D02*
X020013Y009638D01*
X020042Y009706D02*
X020267Y009706D01*
X020336Y009775D02*
X020050Y009775D01*
X020050Y009843D02*
X020404Y009843D01*
X020473Y009912D02*
X020026Y009912D01*
X019993Y009980D02*
X020541Y009980D01*
X020610Y010049D02*
X019924Y010049D01*
X019536Y010049D02*
X018891Y010049D01*
X018910Y009980D02*
X019467Y009980D01*
X019434Y009912D02*
X018910Y009912D01*
X018896Y009843D02*
X019410Y009843D01*
X019410Y009775D02*
X018868Y009775D01*
X018809Y009706D02*
X019418Y009706D01*
X019274Y009638D02*
X018696Y009638D01*
X018593Y009569D02*
X019196Y009569D01*
X019152Y009501D02*
X018662Y009501D01*
X018730Y009432D02*
X019123Y009432D01*
X019120Y009364D02*
X018799Y009364D01*
X018867Y009295D02*
X019121Y009295D01*
X019149Y009227D02*
X018936Y009227D01*
X019004Y009158D02*
X019189Y009158D01*
X019247Y009090D02*
X019065Y009090D01*
X019065Y009021D02*
X019178Y009021D01*
X019144Y008953D02*
X019065Y008953D01*
X019065Y008884D02*
X019120Y008884D01*
X019120Y008816D02*
X019065Y008816D01*
X019065Y008747D02*
X019128Y008747D01*
X019156Y008679D02*
X019065Y008679D01*
X019065Y008610D02*
X019207Y008610D01*
X019300Y008542D02*
X019065Y008542D01*
X020520Y008542D02*
X024382Y008542D01*
X024354Y008473D02*
X020520Y008473D01*
X020520Y008405D02*
X024326Y008405D01*
X024305Y008336D02*
X020520Y008336D01*
X020520Y008268D02*
X024305Y008268D01*
X024305Y008199D02*
X020520Y008199D01*
X020520Y008131D02*
X024311Y008131D01*
X024340Y008062D02*
X020520Y008062D01*
X020520Y007994D02*
X024368Y007994D01*
X024413Y007925D02*
X020520Y007925D01*
X020520Y007857D02*
X024481Y007857D01*
X024448Y008610D02*
X020520Y008610D01*
X020520Y008679D02*
X024516Y008679D01*
X024658Y008747D02*
X020520Y008747D01*
X020520Y008816D02*
X027140Y008816D01*
X027140Y008884D02*
X020520Y008884D01*
X020520Y008953D02*
X027140Y008953D01*
X027140Y009021D02*
X027046Y009021D01*
X026999Y008747D02*
X027140Y008747D01*
X027133Y008679D02*
X027140Y008679D01*
X025614Y009021D02*
X025046Y009021D01*
X025162Y009090D02*
X025498Y009090D01*
X025430Y009158D02*
X025230Y009158D01*
X025285Y009227D02*
X025375Y009227D01*
X025347Y009295D02*
X025313Y009295D01*
X025313Y009706D02*
X025347Y009706D01*
X025375Y009775D02*
X025285Y009775D01*
X025229Y009843D02*
X025431Y009843D01*
X025499Y009912D02*
X025161Y009912D01*
X025043Y009980D02*
X025617Y009980D01*
X024617Y009980D02*
X021020Y009980D01*
X021020Y010049D02*
X027140Y010049D01*
X027140Y010117D02*
X021020Y010117D01*
X021020Y010186D02*
X027140Y010186D01*
X027140Y010254D02*
X027002Y010254D01*
X027135Y010323D02*
X027140Y010323D01*
X027140Y009980D02*
X027044Y009980D01*
X026865Y009980D02*
X026795Y009980D01*
X026795Y009912D02*
X026865Y009912D01*
X026865Y009843D02*
X026795Y009843D01*
X026795Y009775D02*
X026865Y009775D01*
X024499Y009912D02*
X021010Y009912D01*
X020942Y009843D02*
X024431Y009843D01*
X024375Y009775D02*
X020873Y009775D01*
X020805Y009706D02*
X024347Y009706D01*
X024319Y009638D02*
X020736Y009638D01*
X020668Y009569D02*
X024305Y009569D01*
X024305Y009501D02*
X020599Y009501D01*
X020531Y009432D02*
X024305Y009432D01*
X024318Y009364D02*
X020520Y009364D01*
X020520Y009295D02*
X024347Y009295D01*
X024375Y009227D02*
X020520Y009227D01*
X020520Y009158D02*
X024430Y009158D01*
X024498Y009090D02*
X020520Y009090D01*
X020520Y009021D02*
X024614Y009021D01*
X025320Y010939D02*
X025340Y010939D01*
X025368Y011008D02*
X025292Y011008D01*
X025246Y011076D02*
X025414Y011076D01*
X025482Y011145D02*
X025178Y011145D01*
X025084Y011213D02*
X025576Y011213D01*
X024697Y011487D02*
X024040Y011487D01*
X024069Y011556D02*
X024532Y011556D01*
X024464Y011624D02*
X024090Y011624D01*
X024090Y011693D02*
X024395Y011693D01*
X024361Y011761D02*
X024079Y011761D01*
X024050Y011830D02*
X024332Y011830D01*
X024305Y011898D02*
X023995Y011898D01*
X023890Y011967D02*
X024305Y011967D01*
X024397Y012309D02*
X024142Y012309D01*
X024210Y012378D02*
X024465Y012378D01*
X024535Y012446D02*
X024239Y012446D01*
X024164Y012789D02*
X024572Y012789D01*
X024481Y012857D02*
X024059Y012857D01*
X023821Y012857D02*
X023706Y012857D01*
X023637Y012926D02*
X024412Y012926D01*
X025088Y012789D02*
X025572Y012789D01*
X025481Y012857D02*
X025179Y012857D01*
X025248Y012926D02*
X025412Y012926D01*
X025368Y012994D02*
X025292Y012994D01*
X025321Y013063D02*
X025339Y013063D01*
X025354Y013474D02*
X025306Y013474D01*
X025277Y013542D02*
X025383Y013542D01*
X025448Y013611D02*
X025212Y013611D01*
X025143Y013679D02*
X025517Y013679D01*
X025659Y013748D02*
X025001Y013748D01*
X025047Y014022D02*
X025613Y014022D01*
X025498Y014090D02*
X025162Y014090D01*
X025231Y014159D02*
X025429Y014159D01*
X025375Y014227D02*
X025285Y014227D01*
X025314Y014296D02*
X025346Y014296D01*
X026047Y014022D02*
X026613Y014022D01*
X026501Y014090D02*
X026162Y014090D01*
X026231Y014159D02*
X026429Y014159D01*
X026380Y014227D02*
X026285Y014227D01*
X026314Y014296D02*
X026345Y014296D01*
X026795Y014296D02*
X026865Y014296D01*
X026865Y014364D02*
X026795Y014364D01*
X026795Y014433D02*
X026865Y014433D01*
X026865Y014570D02*
X026795Y014570D01*
X026795Y014638D02*
X026865Y014638D01*
X026865Y014707D02*
X026795Y014707D01*
X026795Y014775D02*
X026865Y014775D01*
X026865Y014227D02*
X026795Y014227D01*
X026795Y014159D02*
X026865Y014159D01*
X026865Y014090D02*
X026795Y014090D01*
X026795Y014022D02*
X026865Y014022D01*
X027047Y014022D02*
X027140Y014022D01*
X026662Y013748D02*
X026001Y013748D01*
X026143Y013679D02*
X026527Y013679D01*
X026448Y013611D02*
X026212Y013611D01*
X026277Y013542D02*
X026393Y013542D01*
X026355Y013474D02*
X026306Y013474D01*
X026321Y013063D02*
X026339Y013063D01*
X026371Y012994D02*
X026292Y012994D01*
X026248Y012926D02*
X026417Y012926D01*
X026481Y012857D02*
X026179Y012857D01*
X026088Y012789D02*
X026579Y012789D01*
X027133Y013679D02*
X027140Y013679D01*
X027111Y011556D02*
X027140Y011556D01*
X027140Y011213D02*
X027078Y011213D01*
X023673Y011282D02*
X023487Y011282D01*
X023570Y011213D02*
X023590Y011213D01*
X020640Y010323D02*
X020575Y010323D01*
X020640Y010254D02*
X018668Y010254D01*
X018797Y010186D02*
X020640Y010186D01*
X020640Y010117D02*
X018863Y010117D01*
X018270Y009912D02*
X016751Y009912D01*
X016819Y009843D02*
X018284Y009843D01*
X018312Y009775D02*
X016888Y009775D01*
X016566Y009432D02*
X016220Y009432D01*
X016220Y009364D02*
X016634Y009364D01*
X016703Y009295D02*
X016220Y009295D01*
X016220Y009501D02*
X016497Y009501D01*
X016429Y009569D02*
X016220Y009569D01*
X016220Y009638D02*
X016360Y009638D01*
X016292Y009706D02*
X016220Y009706D01*
X016220Y009775D02*
X016223Y009775D01*
X017637Y010049D02*
X017853Y010049D01*
X017770Y010117D02*
X017720Y010117D01*
D15*
X018330Y009500D02*
X016830Y009500D01*
X016430Y009900D01*
X016430Y010120D01*
X018330Y009500D02*
X018830Y009000D01*
X018830Y008330D01*
X019420Y007740D01*
X018830Y007150D01*
X018830Y006000D01*
X019230Y005400D02*
X018830Y005000D01*
D16*
X016830Y012000D02*
X016830Y012200D01*
X015880Y013150D01*
X015880Y016050D01*
X016330Y016500D01*
X016330Y017400D01*
X016380Y017450D01*
X009930Y013270D02*
X009900Y013300D01*
X008830Y013300D01*
X007980Y014150D01*
X007980Y015900D01*
D17*
X020330Y016000D02*
X020330Y016115D01*
X020765Y016550D01*
X022090Y016550D01*
M02*
