G75*
G70*
%OFA0B0*%
%FSLAX24Y24*%
%IPPOS*%
%LPD*%
%AMOC8*
5,1,8,0,0,1.08239X$1,22.5*
%
%ADD10C,0.0080*%
%ADD11C,0.0100*%
%ADD12C,0.0050*%
%ADD13C,0.0060*%
%ADD14C,0.0059*%
%ADD15C,0.0010*%
%ADD16R,0.0191X0.0195*%
D10*
X019840Y005645D02*
X020020Y005825D01*
X021635Y005825D01*
X022840Y005805D02*
X024680Y005805D01*
X024840Y005645D01*
D11*
X020080Y005650D02*
X019580Y005650D01*
D12*
X019165Y006626D02*
X019075Y006626D01*
X019030Y006671D01*
X019030Y006761D01*
X019120Y006761D01*
X019210Y006671D02*
X019165Y006626D01*
X019210Y006671D02*
X019210Y006851D01*
X019165Y006896D01*
X019075Y006896D01*
X019030Y006851D01*
X018915Y006896D02*
X018735Y006626D01*
X018735Y006896D01*
X018621Y006896D02*
X018621Y006626D01*
X018486Y006626D01*
X018441Y006671D01*
X018441Y006851D01*
X018486Y006896D01*
X018621Y006896D01*
X018663Y007001D02*
X018708Y007046D01*
X018663Y007001D02*
X018573Y007001D01*
X018528Y007046D01*
X018528Y007091D01*
X018573Y007136D01*
X018618Y007136D01*
X018573Y007136D02*
X018528Y007181D01*
X018528Y007226D01*
X018573Y007271D01*
X018663Y007271D01*
X018708Y007226D01*
X018810Y007046D02*
X018810Y007001D01*
X018855Y007001D01*
X018855Y007046D01*
X018810Y007046D01*
X018970Y007046D02*
X019015Y007001D01*
X019105Y007001D01*
X019150Y007046D01*
X019060Y007136D02*
X019015Y007136D01*
X018970Y007091D01*
X018970Y007046D01*
X019015Y007136D02*
X018970Y007181D01*
X018970Y007226D01*
X019015Y007271D01*
X019105Y007271D01*
X019150Y007226D01*
X018915Y006896D02*
X018915Y006626D01*
X018220Y007046D02*
X018175Y007001D01*
X018085Y007001D01*
X018040Y007046D01*
X018040Y007136D01*
X018130Y007136D01*
X018220Y007226D02*
X018220Y007046D01*
X018220Y007226D02*
X018175Y007271D01*
X018085Y007271D01*
X018040Y007226D01*
X017925Y007271D02*
X017745Y007001D01*
X017745Y007271D01*
X017631Y007271D02*
X017496Y007271D01*
X017451Y007226D01*
X017451Y007046D01*
X017496Y007001D01*
X017631Y007001D01*
X017631Y007271D01*
X017925Y007271D02*
X017925Y007001D01*
X017880Y006896D02*
X018060Y006896D01*
X018060Y006761D01*
X017970Y006806D01*
X017925Y006806D01*
X017880Y006761D01*
X017880Y006671D01*
X017925Y006626D01*
X018015Y006626D01*
X018060Y006671D01*
X017765Y006716D02*
X017765Y006896D01*
X017585Y006896D02*
X017585Y006716D01*
X017675Y006626D01*
X017765Y006716D01*
X017210Y006671D02*
X017210Y006851D01*
X017165Y006896D01*
X017075Y006896D01*
X017030Y006851D01*
X017030Y006761D02*
X017120Y006761D01*
X017030Y006761D02*
X017030Y006671D01*
X017075Y006626D01*
X017165Y006626D01*
X017210Y006671D01*
X016915Y006716D02*
X016780Y006716D01*
X016735Y006761D01*
X016735Y006851D01*
X016780Y006896D01*
X016915Y006896D01*
X016915Y006626D01*
X016825Y006716D02*
X016735Y006626D01*
X016621Y006626D02*
X016441Y006896D01*
X016441Y007011D02*
X016621Y007281D01*
X016735Y007236D02*
X016735Y007146D01*
X016780Y007101D01*
X016915Y007101D01*
X016825Y007101D02*
X016735Y007011D01*
X016621Y007011D02*
X016441Y007281D01*
X016210Y007236D02*
X016210Y007056D01*
X016165Y007011D01*
X016075Y007011D01*
X016030Y007056D01*
X016075Y006896D02*
X016165Y006896D01*
X016210Y006851D01*
X016210Y006671D01*
X016165Y006626D01*
X016075Y006626D01*
X016030Y006671D01*
X016030Y006761D01*
X016120Y006761D01*
X016030Y006851D02*
X016075Y006896D01*
X015915Y006896D02*
X015735Y006896D01*
X015825Y006896D02*
X015825Y006626D01*
X015621Y006626D02*
X015441Y006896D01*
X015441Y007011D02*
X015621Y007281D01*
X015735Y007281D02*
X015915Y007281D01*
X015825Y007281D02*
X015825Y007011D01*
X015621Y007011D02*
X015441Y007281D01*
X015210Y007191D02*
X015210Y007011D01*
X015210Y006896D02*
X015075Y006896D01*
X015030Y006851D01*
X015030Y006761D01*
X015075Y006716D01*
X015210Y006716D01*
X015120Y006716D02*
X015030Y006626D01*
X014915Y006626D02*
X014915Y006806D01*
X014825Y006896D01*
X014735Y006806D01*
X014735Y006626D01*
X014735Y006761D02*
X014915Y006761D01*
X014915Y007011D02*
X014735Y007011D01*
X014621Y007056D02*
X014576Y007011D01*
X014486Y007011D01*
X014441Y007056D01*
X014441Y007101D01*
X014486Y007146D01*
X014531Y007146D01*
X014486Y007146D02*
X014441Y007191D01*
X014441Y007236D01*
X014486Y007281D01*
X014576Y007281D01*
X014621Y007236D01*
X014735Y007236D02*
X014780Y007281D01*
X014870Y007281D01*
X014915Y007236D01*
X015030Y007191D02*
X015030Y007011D01*
X014915Y007011D02*
X014735Y007191D01*
X014735Y007236D01*
X015030Y007191D02*
X015120Y007281D01*
X015210Y007191D01*
X015210Y007146D02*
X015030Y007146D01*
X015210Y006896D02*
X015210Y006626D01*
X015441Y006626D02*
X015621Y006896D01*
X016030Y007236D02*
X016075Y007281D01*
X016165Y007281D01*
X016210Y007236D01*
X016735Y007236D02*
X016780Y007281D01*
X016915Y007281D01*
X016915Y007011D01*
X017030Y007056D02*
X017075Y007011D01*
X017165Y007011D01*
X017210Y007056D01*
X017210Y007236D01*
X017165Y007281D01*
X017075Y007281D01*
X017030Y007236D01*
X016621Y006896D02*
X016441Y006626D01*
X014621Y006761D02*
X014441Y006761D01*
X014486Y006626D02*
X014486Y006896D01*
X014621Y006761D01*
X014210Y006716D02*
X014075Y006716D01*
X014030Y006761D01*
X014030Y006851D01*
X014075Y006896D01*
X014210Y006896D01*
X014210Y006626D01*
X014120Y006716D02*
X014030Y006626D01*
X013915Y006626D02*
X013915Y006806D01*
X013825Y006896D01*
X013735Y006806D01*
X013735Y006626D01*
X013621Y006626D02*
X013441Y006626D01*
X013531Y006626D02*
X013531Y006896D01*
X013621Y006806D01*
X013735Y006761D02*
X013915Y006761D01*
X013915Y007011D02*
X013735Y007191D01*
X013735Y007236D01*
X013780Y007281D01*
X013870Y007281D01*
X013915Y007236D01*
X014030Y007191D02*
X014030Y007011D01*
X013915Y007011D02*
X013735Y007011D01*
X013621Y007146D02*
X013441Y007146D01*
X013486Y007011D02*
X013486Y007281D01*
X013621Y007146D01*
X014030Y007146D02*
X014210Y007146D01*
X014210Y007191D02*
X014210Y007011D01*
X014210Y007191D02*
X014120Y007281D01*
X014030Y007191D01*
X013210Y007101D02*
X013075Y007101D01*
X013030Y007146D01*
X013030Y007236D01*
X013075Y007281D01*
X013210Y007281D01*
X013210Y007011D01*
X013120Y007101D02*
X013030Y007011D01*
X012915Y007011D02*
X012915Y007191D01*
X012825Y007281D01*
X012735Y007191D01*
X012735Y007011D01*
X012621Y007056D02*
X012576Y007011D01*
X012486Y007011D01*
X012441Y007056D01*
X012441Y007146D01*
X012486Y007191D01*
X012531Y007191D01*
X012621Y007146D01*
X012621Y007281D01*
X012441Y007281D01*
X012735Y007146D02*
X012915Y007146D01*
X012910Y006761D02*
X012730Y006761D01*
X012210Y006671D02*
X012165Y006626D01*
X012075Y006626D01*
X012030Y006671D01*
X012030Y006761D01*
X012120Y006761D01*
X012210Y006851D02*
X012210Y006671D01*
X012210Y006851D02*
X012165Y006896D01*
X012075Y006896D01*
X012030Y006851D01*
X011915Y006896D02*
X011735Y006626D01*
X011735Y006896D01*
X011621Y006896D02*
X011486Y006896D01*
X011441Y006851D01*
X011441Y006671D01*
X011486Y006626D01*
X011621Y006626D01*
X011621Y006896D01*
X011690Y007031D02*
X011600Y007121D01*
X011600Y007301D01*
X011780Y007301D02*
X011780Y007121D01*
X011690Y007031D01*
X011895Y007076D02*
X011940Y007031D01*
X012030Y007031D01*
X012075Y007076D01*
X012075Y007166D02*
X011985Y007211D01*
X011940Y007211D01*
X011895Y007166D01*
X011895Y007076D01*
X011915Y006896D02*
X011915Y006626D01*
X012075Y007166D02*
X012075Y007301D01*
X011895Y007301D01*
X011210Y006851D02*
X011210Y006671D01*
X011165Y006626D01*
X011075Y006626D01*
X011030Y006671D01*
X011030Y006761D01*
X011120Y006761D01*
X011210Y006851D02*
X011165Y006896D01*
X011075Y006896D01*
X011030Y006851D01*
X010915Y006896D02*
X010735Y006626D01*
X010735Y006896D01*
X010621Y006896D02*
X010486Y006896D01*
X010441Y006851D01*
X010441Y006671D01*
X010486Y006626D01*
X010621Y006626D01*
X010621Y006896D01*
X010690Y007031D02*
X010600Y007121D01*
X010600Y007301D01*
X010780Y007301D02*
X010780Y007121D01*
X010690Y007031D01*
X010895Y007076D02*
X010940Y007031D01*
X011030Y007031D01*
X011075Y007076D01*
X011075Y007166D02*
X010985Y007211D01*
X010940Y007211D01*
X010895Y007166D01*
X010895Y007076D01*
X010915Y006896D02*
X010915Y006626D01*
X011075Y007166D02*
X011075Y007301D01*
X010895Y007301D01*
X010210Y006851D02*
X010210Y006671D01*
X010165Y006626D01*
X010075Y006626D01*
X010030Y006671D01*
X010030Y006761D01*
X010120Y006761D01*
X010210Y006851D02*
X010165Y006896D01*
X010075Y006896D01*
X010030Y006851D01*
X009915Y006896D02*
X009735Y006626D01*
X009735Y006896D01*
X009621Y006896D02*
X009486Y006896D01*
X009441Y006851D01*
X009441Y006671D01*
X009486Y006626D01*
X009621Y006626D01*
X009621Y006896D01*
X009690Y007031D02*
X009600Y007121D01*
X009600Y007301D01*
X009780Y007301D02*
X009780Y007121D01*
X009690Y007031D01*
X009895Y007076D02*
X009940Y007031D01*
X010030Y007031D01*
X010075Y007076D01*
X010075Y007166D02*
X009985Y007211D01*
X009940Y007211D01*
X009895Y007166D01*
X009895Y007076D01*
X009915Y006896D02*
X009915Y006626D01*
X010075Y007166D02*
X010075Y007301D01*
X009895Y007301D01*
X021779Y005915D02*
X021779Y005825D01*
X021824Y005780D01*
X021959Y005780D01*
X021959Y005690D02*
X021959Y005960D01*
X021824Y005960D01*
X021779Y005915D01*
X022074Y005915D02*
X022119Y005960D01*
X022209Y005960D01*
X022254Y005915D01*
X022254Y005870D01*
X022209Y005825D01*
X022119Y005825D01*
X022074Y005780D01*
X022074Y005735D01*
X022119Y005690D01*
X022209Y005690D01*
X022254Y005735D01*
X022368Y005735D02*
X022413Y005690D01*
X022504Y005690D01*
X022549Y005735D01*
X022549Y005915D01*
X022504Y005960D01*
X022413Y005960D01*
X022368Y005915D01*
X022655Y005960D02*
X022745Y005960D01*
X022700Y005960D02*
X022700Y005690D01*
X022745Y005690D02*
X022655Y005690D01*
X021355Y016701D02*
X021355Y016971D01*
X021265Y016881D01*
X021175Y016971D01*
X021175Y016701D01*
X021060Y016746D02*
X021015Y016701D01*
X020925Y016701D01*
X020880Y016746D01*
X020766Y016701D02*
X020586Y016701D01*
X020471Y016701D02*
X020471Y016971D01*
X020336Y016971D01*
X020291Y016926D01*
X020291Y016836D01*
X020336Y016791D01*
X020471Y016791D01*
X020381Y016791D02*
X020291Y016701D01*
X020766Y016701D02*
X020766Y016971D01*
X020880Y016926D02*
X020925Y016971D01*
X021015Y016971D01*
X021060Y016926D01*
X021060Y016746D01*
X021060Y017101D02*
X021015Y017146D01*
X021015Y017236D01*
X021105Y017236D01*
X021195Y017326D02*
X021195Y017146D01*
X021150Y017101D01*
X021060Y017101D01*
X020900Y017101D02*
X020900Y017371D01*
X020720Y017101D01*
X020720Y017371D01*
X020606Y017371D02*
X020471Y017371D01*
X020426Y017326D01*
X020426Y017146D01*
X020471Y017101D01*
X020606Y017101D01*
X020606Y017371D01*
X021015Y017326D02*
X021060Y017371D01*
X021150Y017371D01*
X021195Y017326D01*
X019195Y017326D02*
X019195Y017146D01*
X019150Y017101D01*
X019060Y017101D01*
X019015Y017146D01*
X018900Y017191D02*
X018720Y017371D01*
X018606Y017281D02*
X018516Y017371D01*
X018516Y017101D01*
X018606Y017101D02*
X018426Y017101D01*
X018471Y016971D02*
X018606Y016971D01*
X018606Y016701D01*
X018471Y016701D01*
X018426Y016746D01*
X018426Y016926D01*
X018471Y016971D01*
X018720Y016971D02*
X018720Y016701D01*
X018900Y016971D01*
X018900Y016701D01*
X019015Y016746D02*
X019015Y016836D01*
X019105Y016836D01*
X019195Y016746D02*
X019150Y016701D01*
X019060Y016701D01*
X019015Y016746D01*
X019195Y016746D02*
X019195Y016926D01*
X019150Y016971D01*
X019060Y016971D01*
X019015Y016926D01*
X018900Y017101D02*
X018900Y017371D01*
X019015Y017326D02*
X019060Y017371D01*
X019150Y017371D01*
X019195Y017326D01*
X018855Y017236D02*
X018720Y017101D01*
X018195Y017101D02*
X018060Y017101D01*
X018015Y017146D01*
X018015Y017326D01*
X018060Y017371D01*
X018195Y017371D01*
X018195Y017101D01*
X018150Y016971D02*
X018195Y016926D01*
X018195Y016746D01*
X018150Y016701D01*
X018060Y016701D01*
X018015Y016746D01*
X018015Y016836D01*
X018105Y016836D01*
X018015Y016926D02*
X018060Y016971D01*
X018150Y016971D01*
X017900Y016971D02*
X017720Y016701D01*
X017720Y016971D01*
X017606Y016971D02*
X017471Y016971D01*
X017426Y016926D01*
X017426Y016746D01*
X017471Y016701D01*
X017606Y016701D01*
X017606Y016971D01*
X017606Y017101D02*
X017426Y017101D01*
X017516Y017101D02*
X017516Y017371D01*
X017606Y017281D01*
X017720Y017326D02*
X017765Y017371D01*
X017855Y017371D01*
X017900Y017326D01*
X017900Y017146D01*
X017855Y017101D01*
X017765Y017101D01*
X017720Y017146D01*
X017720Y017326D01*
X017900Y016971D02*
X017900Y016701D01*
X017195Y016746D02*
X017150Y016701D01*
X017060Y016701D01*
X017015Y016746D01*
X017015Y016836D01*
X017105Y016836D01*
X017195Y016926D02*
X017195Y016746D01*
X017195Y016926D02*
X017150Y016971D01*
X017060Y016971D01*
X017015Y016926D01*
X016900Y016971D02*
X016720Y016701D01*
X016720Y016971D01*
X016606Y016971D02*
X016471Y016971D01*
X016426Y016926D01*
X016426Y016746D01*
X016471Y016701D01*
X016606Y016701D01*
X016606Y016971D01*
X016614Y017101D02*
X016614Y017371D01*
X016704Y017281D01*
X016810Y017371D02*
X016900Y017371D01*
X016855Y017371D02*
X016855Y017101D01*
X016900Y017101D02*
X016810Y017101D01*
X016704Y017101D02*
X016524Y017101D01*
X016195Y017146D02*
X016150Y017101D01*
X016060Y017101D01*
X016015Y017146D01*
X016015Y017191D01*
X016060Y017236D01*
X016150Y017236D01*
X016195Y017281D01*
X016195Y017326D01*
X016150Y017371D01*
X016060Y017371D01*
X016015Y017326D01*
X015900Y017326D02*
X015900Y017281D01*
X015855Y017236D01*
X015765Y017236D01*
X015720Y017191D01*
X015720Y017146D01*
X015765Y017101D01*
X015855Y017101D01*
X015900Y017146D01*
X015900Y016971D02*
X015720Y016701D01*
X015720Y016971D01*
X015606Y016971D02*
X015471Y016971D01*
X015426Y016926D01*
X015426Y016746D01*
X015471Y016701D01*
X015606Y016701D01*
X015606Y016971D01*
X015606Y017101D02*
X015426Y017101D01*
X015516Y017101D02*
X015516Y017371D01*
X015606Y017281D01*
X015720Y017326D02*
X015765Y017371D01*
X015855Y017371D01*
X015900Y017326D01*
X015900Y016971D02*
X015900Y016701D01*
X016015Y016746D02*
X016015Y016836D01*
X016105Y016836D01*
X016195Y016926D02*
X016195Y016746D01*
X016150Y016701D01*
X016060Y016701D01*
X016015Y016746D01*
X016015Y016926D02*
X016060Y016971D01*
X016150Y016971D01*
X016195Y016926D01*
X016900Y016971D02*
X016900Y016701D01*
X017060Y017101D02*
X017015Y017146D01*
X017015Y017326D01*
X017060Y017371D01*
X017195Y017371D01*
X017195Y017101D01*
X017060Y017101D01*
X015195Y017146D02*
X015150Y017101D01*
X015060Y017101D01*
X015015Y017146D01*
X015015Y017236D01*
X015105Y017236D01*
X015195Y017326D02*
X015195Y017146D01*
X015195Y017326D02*
X015150Y017371D01*
X015060Y017371D01*
X015015Y017326D01*
X014900Y017371D02*
X014720Y017101D01*
X014720Y017371D01*
X014606Y017371D02*
X014471Y017371D01*
X014426Y017326D01*
X014426Y017146D01*
X014471Y017101D01*
X014606Y017101D01*
X014606Y017371D01*
X014900Y017371D02*
X014900Y017101D01*
X014900Y016971D02*
X014720Y016701D01*
X014720Y016971D01*
X014606Y016971D02*
X014471Y016971D01*
X014426Y016926D01*
X014426Y016746D01*
X014471Y016701D01*
X014606Y016701D01*
X014606Y016971D01*
X014900Y016971D02*
X014900Y016701D01*
X015015Y016746D02*
X015015Y016836D01*
X015105Y016836D01*
X015195Y016926D02*
X015195Y016746D01*
X015150Y016701D01*
X015060Y016701D01*
X015015Y016746D01*
X015015Y016926D02*
X015060Y016971D01*
X015150Y016971D01*
X015195Y016926D01*
X014145Y016926D02*
X014145Y016746D01*
X014100Y016701D01*
X014010Y016701D01*
X013965Y016746D01*
X013965Y016836D01*
X014055Y016836D01*
X014145Y016926D02*
X014100Y016971D01*
X014010Y016971D01*
X013965Y016926D01*
X013850Y016971D02*
X013670Y016701D01*
X013670Y016971D01*
X013556Y016971D02*
X013421Y016971D01*
X013376Y016926D01*
X013376Y016746D01*
X013421Y016701D01*
X013556Y016701D01*
X013556Y016971D01*
X013568Y017101D02*
X013658Y017101D01*
X013703Y017146D01*
X013805Y017146D02*
X013805Y017101D01*
X013850Y017101D01*
X013850Y017146D01*
X013805Y017146D01*
X013965Y017146D02*
X013965Y017191D01*
X014010Y017236D01*
X014055Y017236D01*
X014010Y017236D02*
X013965Y017281D01*
X013965Y017326D01*
X014010Y017371D01*
X014100Y017371D01*
X014145Y017326D01*
X014145Y017146D02*
X014100Y017101D01*
X014010Y017101D01*
X013965Y017146D01*
X013850Y016971D02*
X013850Y016701D01*
X013205Y016701D02*
X013205Y016881D01*
X013115Y016971D01*
X013025Y016881D01*
X013025Y016701D01*
X012910Y016701D02*
X012730Y016701D01*
X012820Y016701D02*
X012820Y016971D01*
X012910Y016881D01*
X013025Y016836D02*
X013205Y016836D01*
X013175Y017091D02*
X013085Y017091D01*
X013130Y017091D02*
X013130Y017361D01*
X013175Y017361D02*
X013085Y017361D01*
X012979Y017361D02*
X012798Y017091D01*
X012798Y017361D01*
X012684Y017271D02*
X012594Y017361D01*
X012594Y017091D01*
X012684Y017091D02*
X012504Y017091D01*
X012436Y016971D02*
X012616Y016971D01*
X012616Y016836D01*
X012526Y016881D01*
X012481Y016881D01*
X012436Y016836D01*
X012436Y016746D01*
X012481Y016701D01*
X012571Y016701D01*
X012616Y016746D01*
X012205Y016701D02*
X012205Y016881D01*
X012115Y016971D01*
X012025Y016881D01*
X012025Y016701D01*
X011910Y016701D02*
X011730Y016701D01*
X011820Y016701D02*
X011820Y016971D01*
X011910Y016881D01*
X012025Y016836D02*
X012205Y016836D01*
X012175Y017101D02*
X012085Y017101D01*
X012130Y017101D02*
X012130Y017371D01*
X012175Y017371D02*
X012085Y017371D01*
X011979Y017371D02*
X011798Y017101D01*
X011798Y017371D01*
X011684Y017326D02*
X011639Y017371D01*
X011549Y017371D01*
X011504Y017326D01*
X011504Y017281D01*
X011684Y017101D01*
X011504Y017101D01*
X011436Y016971D02*
X011526Y016926D01*
X011616Y016836D01*
X011481Y016836D01*
X011436Y016791D01*
X011436Y016746D01*
X011481Y016701D01*
X011571Y016701D01*
X011616Y016746D01*
X011616Y016836D01*
X011205Y016836D02*
X011025Y016836D01*
X011025Y016881D02*
X011025Y016701D01*
X010910Y016701D02*
X010730Y016701D01*
X010820Y016701D02*
X010820Y016971D01*
X010910Y016881D01*
X011025Y016881D02*
X011115Y016971D01*
X011205Y016881D01*
X011205Y016701D01*
X010616Y016701D02*
X010616Y016746D01*
X010436Y016926D01*
X010436Y016971D01*
X010616Y016971D01*
X010561Y017101D02*
X010606Y017146D01*
X010561Y017101D02*
X010471Y017101D01*
X010426Y017146D01*
X010426Y017191D01*
X010471Y017236D01*
X010561Y017236D01*
X010606Y017281D01*
X010606Y017326D01*
X010561Y017371D01*
X010471Y017371D01*
X010426Y017326D01*
X010215Y017326D02*
X010215Y017146D01*
X010170Y017101D01*
X010080Y017101D01*
X010035Y017146D01*
X010035Y017236D01*
X010125Y017236D01*
X010215Y017326D02*
X010170Y017371D01*
X010080Y017371D01*
X010035Y017326D01*
X009920Y017371D02*
X009740Y017101D01*
X009740Y017371D01*
X009626Y017371D02*
X009491Y017371D01*
X009446Y017326D01*
X009446Y017146D01*
X009491Y017101D01*
X009626Y017101D01*
X009626Y017371D01*
X009920Y017371D02*
X009920Y017101D01*
X009820Y016971D02*
X009820Y016701D01*
X009910Y016701D02*
X009730Y016701D01*
X009616Y016746D02*
X009616Y016791D01*
X009571Y016836D01*
X009481Y016836D01*
X009436Y016791D01*
X009436Y016746D01*
X009481Y016701D01*
X009571Y016701D01*
X009616Y016746D01*
X009571Y016836D02*
X009616Y016881D01*
X009616Y016926D01*
X009571Y016971D01*
X009481Y016971D01*
X009436Y016926D01*
X009436Y016881D01*
X009481Y016836D01*
X009205Y016926D02*
X009205Y016746D01*
X009160Y016701D01*
X009070Y016701D01*
X009025Y016746D01*
X009025Y016836D01*
X009115Y016836D01*
X009205Y016926D02*
X009160Y016971D01*
X009070Y016971D01*
X009025Y016926D01*
X008910Y016971D02*
X008730Y016701D01*
X008730Y016971D01*
X008616Y016971D02*
X008481Y016971D01*
X008436Y016926D01*
X008436Y016746D01*
X008481Y016701D01*
X008616Y016701D01*
X008616Y016971D01*
X008578Y017101D02*
X008668Y017101D01*
X008713Y017146D01*
X008668Y017101D01*
X008578Y017101D01*
X008533Y017146D01*
X008533Y017191D01*
X008578Y017236D01*
X008623Y017236D01*
X008578Y017236D01*
X008533Y017281D01*
X008533Y017326D01*
X008578Y017371D01*
X008668Y017371D01*
X008713Y017326D01*
X008668Y017371D01*
X008578Y017371D01*
X008533Y017326D01*
X008533Y017281D01*
X008578Y017236D01*
X008533Y017191D01*
X008533Y017146D01*
X008578Y017101D01*
X008815Y017101D02*
X008860Y017101D01*
X008860Y017146D01*
X008815Y017146D01*
X008815Y017101D01*
X008860Y017101D01*
X008860Y017146D01*
X008815Y017146D01*
X008815Y017101D01*
X008910Y016971D02*
X008910Y016701D01*
X009020Y017101D02*
X009110Y017101D01*
X009155Y017146D01*
X009110Y017101D01*
X009020Y017101D01*
X008975Y017146D01*
X008975Y017191D01*
X009020Y017236D01*
X009065Y017236D01*
X009020Y017236D01*
X008975Y017281D01*
X008975Y017326D01*
X009020Y017371D01*
X009110Y017371D01*
X009155Y017326D01*
X009110Y017371D01*
X009020Y017371D01*
X008975Y017326D01*
X008975Y017281D01*
X009020Y017236D01*
X008975Y017191D01*
X008975Y017146D01*
X009020Y017101D01*
X008215Y017101D02*
X008215Y017371D01*
X008080Y017371D01*
X008035Y017326D01*
X008035Y017236D01*
X008080Y017191D01*
X008215Y017191D01*
X008125Y017191D02*
X008035Y017101D01*
X007920Y017101D02*
X007740Y017371D01*
X007626Y017326D02*
X007581Y017371D01*
X007491Y017371D01*
X007446Y017326D01*
X007446Y017281D01*
X007626Y017101D01*
X007446Y017101D01*
X007616Y016971D02*
X007616Y016701D01*
X007436Y016701D01*
X007205Y016746D02*
X007160Y016701D01*
X007070Y016701D01*
X007025Y016746D01*
X007025Y016791D01*
X007070Y016836D01*
X007160Y016836D01*
X007205Y016881D01*
X007205Y016926D01*
X007160Y016971D01*
X007070Y016971D01*
X007025Y016926D01*
X006910Y016971D02*
X006910Y016701D01*
X006775Y016701D01*
X006730Y016746D01*
X006730Y016926D01*
X006775Y016971D01*
X006910Y016971D01*
X006920Y017101D02*
X006740Y017371D01*
X006626Y017326D02*
X006581Y017371D01*
X006491Y017371D01*
X006446Y017326D01*
X006446Y017281D01*
X006626Y017101D01*
X006446Y017101D01*
X006526Y016971D02*
X006436Y016881D01*
X006436Y016701D01*
X006436Y016836D02*
X006616Y016836D01*
X006616Y016881D02*
X006526Y016971D01*
X006616Y016881D02*
X006616Y016701D01*
X006115Y016746D02*
X006070Y016701D01*
X005980Y016701D01*
X005935Y016746D01*
X005935Y016791D01*
X005980Y016836D01*
X006025Y016836D01*
X005980Y016836D02*
X005935Y016881D01*
X005935Y016926D01*
X005980Y016971D01*
X006070Y016971D01*
X006115Y016926D01*
X006035Y017101D02*
X006125Y017191D01*
X006080Y017191D02*
X006215Y017191D01*
X006215Y017101D02*
X006215Y017371D01*
X006080Y017371D01*
X006035Y017326D01*
X006035Y017236D01*
X006080Y017191D01*
X005920Y017371D02*
X005740Y017371D01*
X005830Y017371D02*
X005830Y017101D01*
X005626Y017146D02*
X005581Y017101D01*
X005491Y017101D01*
X005446Y017146D01*
X005446Y017191D01*
X005491Y017236D01*
X005581Y017236D01*
X005626Y017281D01*
X005626Y017326D01*
X005581Y017371D01*
X005491Y017371D01*
X005446Y017326D01*
X005538Y016971D02*
X005493Y016926D01*
X005493Y016881D01*
X005538Y016836D01*
X005493Y016791D01*
X005493Y016746D01*
X005538Y016701D01*
X005628Y016701D01*
X005673Y016746D01*
X005775Y016746D02*
X005775Y016701D01*
X005820Y016701D01*
X005820Y016746D01*
X005775Y016746D01*
X005673Y016926D02*
X005628Y016971D01*
X005538Y016971D01*
X005538Y016836D02*
X005583Y016836D01*
X006740Y017101D02*
X006920Y017371D01*
X007035Y017371D02*
X007215Y017371D01*
X007125Y017371D02*
X007125Y017101D01*
X007740Y017101D02*
X007920Y017371D01*
X007865Y016971D02*
X007775Y016971D01*
X007730Y016926D01*
X007865Y016971D02*
X007910Y016926D01*
X007910Y016746D01*
X007865Y016701D01*
X007775Y016701D01*
X007730Y016746D01*
X008025Y016746D02*
X008025Y016791D01*
X008070Y016836D01*
X008160Y016836D01*
X008205Y016881D01*
X008205Y016926D01*
X008160Y016971D01*
X008070Y016971D01*
X008025Y016926D01*
X008025Y016746D02*
X008070Y016701D01*
X008160Y016701D01*
X008205Y016746D01*
X009820Y016971D02*
X009910Y016881D01*
X010025Y016881D02*
X010025Y016701D01*
X010025Y016836D02*
X010205Y016836D01*
X010205Y016881D02*
X010115Y016971D01*
X010025Y016881D01*
X010205Y016881D02*
X010205Y016701D01*
X010810Y017101D02*
X010810Y017371D01*
X010900Y017371D02*
X010720Y017371D01*
X011015Y017326D02*
X011060Y017371D01*
X011150Y017371D01*
X011195Y017326D01*
X011195Y017146D01*
X011150Y017101D01*
X011060Y017101D01*
X011015Y017146D01*
X011979Y017101D02*
X011979Y017371D01*
X012979Y017361D02*
X012979Y017091D01*
X013523Y017146D02*
X013568Y017101D01*
X013523Y017146D02*
X013523Y017191D01*
X013568Y017236D01*
X013613Y017236D01*
X013568Y017236D02*
X013523Y017281D01*
X013523Y017326D01*
X013568Y017371D01*
X013658Y017371D01*
X013703Y017326D01*
X004195Y017896D02*
X004150Y017851D01*
X004060Y017851D01*
X004015Y017896D01*
X004015Y017986D01*
X004105Y017986D01*
X004195Y018076D02*
X004195Y017896D01*
X004195Y018076D02*
X004150Y018121D01*
X004060Y018121D01*
X004015Y018076D01*
X003900Y018121D02*
X003720Y017851D01*
X003720Y018121D01*
X003606Y018121D02*
X003471Y018121D01*
X003426Y018076D01*
X003426Y017896D01*
X003471Y017851D01*
X003606Y017851D01*
X003606Y018121D01*
X003900Y018121D02*
X003900Y017851D01*
X003880Y018881D02*
X003880Y019151D01*
X003700Y018881D01*
X003700Y019151D01*
X003586Y019151D02*
X003451Y019151D01*
X003406Y019106D01*
X003406Y018926D01*
X003451Y018881D01*
X003586Y018881D01*
X003586Y019151D01*
X003995Y019106D02*
X004040Y019151D01*
X004130Y019151D01*
X004175Y019106D01*
X004175Y018926D01*
X004130Y018881D01*
X004040Y018881D01*
X003995Y018926D01*
X003995Y019016D01*
X004085Y019016D01*
D13*
X001983Y017694D02*
X001756Y017694D01*
X001870Y017807D02*
X001870Y017580D01*
X000927Y017613D02*
X000700Y017613D01*
X003433Y016850D02*
X003660Y016850D01*
X003547Y016850D02*
X003547Y017190D01*
X003660Y017077D01*
X003603Y016190D02*
X003660Y016134D01*
X003603Y016190D02*
X003490Y016190D01*
X003433Y016134D01*
X003433Y016077D01*
X003660Y015850D01*
X003433Y015850D01*
X003490Y015190D02*
X003433Y015134D01*
X003433Y015077D01*
X003490Y015020D01*
X003433Y014963D01*
X003433Y014907D01*
X003490Y014850D01*
X003603Y014850D01*
X003660Y014907D01*
X003547Y015020D02*
X003490Y015020D01*
X003490Y015190D02*
X003603Y015190D01*
X003660Y015134D01*
X003500Y013960D02*
X003670Y013790D01*
X003443Y013790D01*
X003500Y013620D02*
X003500Y013960D01*
X003443Y012860D02*
X003670Y012860D01*
X003670Y012690D01*
X003557Y012747D01*
X003500Y012747D01*
X003443Y012690D01*
X003443Y012577D01*
X003500Y012520D01*
X003613Y012520D01*
X003670Y012577D01*
X003393Y011910D02*
X003507Y011854D01*
X003620Y011740D01*
X003450Y011740D01*
X003393Y011683D01*
X003393Y011627D01*
X003450Y011570D01*
X003563Y011570D01*
X003620Y011627D01*
X003620Y011740D01*
X003620Y010670D02*
X003393Y010670D01*
X003393Y010614D01*
X003620Y010387D01*
X003620Y010330D01*
X003563Y009670D02*
X003450Y009670D01*
X003393Y009614D01*
X003393Y009557D01*
X003450Y009500D01*
X003563Y009500D01*
X003620Y009557D01*
X003620Y009614D01*
X003563Y009670D01*
X003563Y009500D02*
X003620Y009443D01*
X003620Y009387D01*
X003563Y009330D01*
X003450Y009330D01*
X003393Y009387D01*
X003393Y009443D01*
X003450Y009500D01*
X003486Y008900D02*
X003429Y008844D01*
X003429Y008730D01*
X003486Y008673D01*
X003656Y008673D01*
X003656Y008560D02*
X003656Y008900D01*
X003486Y008900D01*
X003288Y008900D02*
X003288Y008617D01*
X003231Y008560D01*
X003118Y008560D01*
X003061Y008617D01*
X003061Y008900D01*
X002920Y008900D02*
X002693Y008900D01*
X002806Y008900D02*
X002806Y008560D01*
X001943Y008774D02*
X001716Y008774D01*
X001830Y008887D02*
X001830Y008660D01*
X000937Y008833D02*
X000710Y008833D01*
X003798Y008900D02*
X003798Y008560D01*
X004024Y008900D01*
X004024Y008560D01*
X004157Y008560D02*
X004270Y008560D01*
X004213Y008560D02*
X004213Y008900D01*
X004157Y008900D02*
X004270Y008900D01*
X023415Y016360D02*
X023415Y016700D01*
X023528Y016700D02*
X023302Y016700D01*
X023670Y016700D02*
X023670Y016417D01*
X023727Y016360D01*
X023840Y016360D01*
X023897Y016417D01*
X023897Y016700D01*
X024038Y016644D02*
X024038Y016530D01*
X024095Y016473D01*
X024265Y016473D01*
X024265Y016360D02*
X024265Y016700D01*
X024095Y016700D01*
X024038Y016644D01*
X024407Y016700D02*
X024633Y016700D01*
X024520Y016700D02*
X024520Y016360D01*
X024775Y016417D02*
X024775Y016700D01*
X025002Y016700D02*
X025002Y016417D01*
X024945Y016360D01*
X024832Y016360D01*
X024775Y016417D01*
X025143Y016417D02*
X025143Y016644D01*
X025200Y016700D01*
X025313Y016700D01*
X025370Y016644D01*
X025370Y016417D01*
X025313Y016360D01*
X025200Y016360D01*
X025143Y016417D01*
X024180Y015833D02*
X024067Y015946D01*
X024067Y015606D01*
X024180Y015606D02*
X023953Y015606D01*
X024010Y014696D02*
X024123Y014696D01*
X024180Y014639D01*
X024010Y014696D02*
X023953Y014639D01*
X023953Y014583D01*
X024180Y014356D01*
X023953Y014356D01*
X024010Y013446D02*
X023953Y013389D01*
X023953Y013333D01*
X024010Y013276D01*
X023953Y013219D01*
X023953Y013163D01*
X024010Y013106D01*
X024123Y013106D01*
X024180Y013163D01*
X024067Y013276D02*
X024010Y013276D01*
X024010Y013446D02*
X024123Y013446D01*
X024180Y013389D01*
X024010Y012196D02*
X024180Y012026D01*
X023953Y012026D01*
X024010Y011856D02*
X024010Y012196D01*
X023953Y010946D02*
X024180Y010946D01*
X024180Y010776D01*
X024067Y010833D01*
X024010Y010833D01*
X023953Y010776D01*
X023953Y010663D01*
X024010Y010606D01*
X024123Y010606D01*
X024180Y010663D01*
X023953Y009696D02*
X024067Y009639D01*
X024180Y009526D01*
X024010Y009526D01*
X023953Y009469D01*
X023953Y009413D01*
X024010Y009356D01*
X024123Y009356D01*
X024180Y009413D01*
X024180Y009526D01*
X024180Y008446D02*
X023953Y008446D01*
X023953Y008389D01*
X024180Y008163D01*
X024180Y008106D01*
X024123Y007196D02*
X024010Y007196D01*
X023953Y007139D01*
X023953Y007083D01*
X024010Y007026D01*
X024123Y007026D01*
X024180Y007083D01*
X024180Y007139D01*
X024123Y007196D01*
X024123Y007026D02*
X024180Y006969D01*
X024180Y006913D01*
X024123Y006856D01*
X024010Y006856D01*
X023953Y006913D01*
X023953Y006969D01*
X024010Y007026D01*
X025708Y006240D02*
X025935Y006240D01*
X025822Y006127D02*
X025822Y006354D01*
X026733Y006280D02*
X026960Y006280D01*
X025822Y017567D02*
X025822Y017794D01*
X025935Y017680D02*
X025708Y017680D01*
X026683Y017650D02*
X026910Y017650D01*
D14*
X003716Y004765D02*
X003615Y004866D01*
X003736Y005015D01*
X003705Y005075D01*
X003684Y005139D01*
X003494Y005158D01*
X003494Y005302D01*
X003684Y005321D01*
X003705Y005385D01*
X003736Y005445D01*
X003615Y005594D01*
X003716Y005695D01*
X003865Y005574D01*
X003925Y005605D01*
X003989Y005626D01*
X004008Y005816D01*
X004152Y005816D01*
X004171Y005626D01*
X004235Y005605D01*
X004295Y005574D01*
X004444Y005695D01*
X004545Y005594D01*
X004424Y005445D01*
X004455Y005385D01*
X004476Y005321D01*
X004666Y005302D01*
X004666Y005158D01*
X004476Y005139D01*
X004455Y005075D01*
X004424Y005015D01*
X004545Y004866D01*
X004444Y004765D01*
X004295Y004886D01*
X004235Y004855D01*
X004151Y005059D01*
X004188Y005081D01*
X004220Y005110D01*
X004244Y005146D01*
X004259Y005187D01*
X004265Y005230D01*
X004259Y005274D01*
X004244Y005315D01*
X004219Y005352D01*
X004186Y005381D01*
X004147Y005402D01*
X004104Y005413D01*
X004060Y005413D01*
X004017Y005403D01*
X003978Y005383D01*
X003944Y005355D01*
X003918Y005319D01*
X003902Y005278D01*
X003896Y005234D01*
X003900Y005190D01*
X003915Y005148D01*
X003939Y005111D01*
X003971Y005081D01*
X004009Y005059D01*
X003925Y004855D01*
X003865Y004886D01*
X003716Y004765D01*
X003693Y004788D02*
X003745Y004788D01*
X003815Y004845D02*
X003636Y004845D01*
X003644Y004903D02*
X003944Y004903D01*
X003968Y004960D02*
X003691Y004960D01*
X003734Y005018D02*
X003992Y005018D01*
X003981Y005076D02*
X003705Y005076D01*
X003686Y005133D02*
X003924Y005133D01*
X003900Y005191D02*
X003494Y005191D01*
X003494Y005248D02*
X003898Y005248D01*
X003913Y005306D02*
X003531Y005306D01*
X003698Y005363D02*
X003954Y005363D01*
X003902Y005594D02*
X004258Y005594D01*
X004319Y005594D02*
X004545Y005594D01*
X004498Y005536D02*
X003662Y005536D01*
X003709Y005478D02*
X004451Y005478D01*
X004437Y005421D02*
X003723Y005421D01*
X003615Y005594D02*
X003841Y005594D01*
X003771Y005651D02*
X003672Y005651D01*
X003991Y005651D02*
X004169Y005651D01*
X004163Y005709D02*
X003997Y005709D01*
X004003Y005766D02*
X004157Y005766D01*
X004389Y005651D02*
X004488Y005651D01*
X004462Y005363D02*
X004206Y005363D01*
X004247Y005306D02*
X004629Y005306D01*
X004666Y005248D02*
X004262Y005248D01*
X004260Y005191D02*
X004666Y005191D01*
X004474Y005133D02*
X004236Y005133D01*
X004179Y005076D02*
X004455Y005076D01*
X004426Y005018D02*
X004168Y005018D01*
X004192Y004960D02*
X004469Y004960D01*
X004516Y004903D02*
X004216Y004903D01*
X004345Y004845D02*
X004524Y004845D01*
X004467Y004788D02*
X004415Y004788D01*
D15*
X021979Y010260D02*
X021981Y010304D01*
X021985Y010327D01*
X021993Y010348D01*
X022006Y010367D01*
X022029Y010388D01*
X022057Y010403D01*
X022087Y010412D01*
X022119Y010415D01*
X022488Y010415D01*
X022488Y010581D01*
X021869Y010581D01*
X021869Y010422D01*
X021956Y010422D01*
X021956Y010419D01*
X021955Y010415D01*
X021953Y010412D01*
X021947Y010407D01*
X021932Y010396D01*
X021913Y010380D01*
X021897Y010362D01*
X021875Y010327D01*
X021860Y010287D01*
X021854Y010246D01*
X021856Y010167D01*
X021864Y010129D01*
X021881Y010093D01*
X021905Y010062D01*
X021928Y010043D01*
X021953Y010028D01*
X021981Y010017D01*
X022025Y010008D01*
X022069Y010004D01*
X022484Y010004D01*
X022484Y010165D01*
X022104Y010165D01*
X022075Y010168D01*
X022047Y010175D01*
X022021Y010188D01*
X022005Y010200D01*
X021992Y010216D01*
X021983Y010234D01*
X021980Y010247D01*
X021979Y010260D01*
X021981Y010304D01*
X021981Y010306D02*
X021867Y010306D01*
X021870Y010314D02*
X021983Y010314D01*
X021984Y010323D02*
X021873Y010323D01*
X021878Y010331D02*
X021986Y010331D01*
X021990Y010340D02*
X021883Y010340D01*
X021888Y010348D02*
X021993Y010348D01*
X021999Y010357D02*
X021894Y010357D01*
X021900Y010365D02*
X022005Y010365D01*
X022013Y010374D02*
X021908Y010374D01*
X021916Y010382D02*
X022023Y010382D01*
X022034Y010391D02*
X021926Y010391D01*
X021936Y010399D02*
X022050Y010399D01*
X022073Y010408D02*
X021948Y010408D01*
X021955Y010416D02*
X022488Y010416D01*
X022488Y010415D02*
X022488Y010581D01*
X021869Y010581D01*
X021869Y010422D01*
X021956Y010422D01*
X021956Y010419D01*
X021955Y010415D01*
X021953Y010412D01*
X021954Y010411D02*
X021948Y010406D01*
X021869Y010425D02*
X022488Y010425D01*
X022488Y010433D02*
X021869Y010433D01*
X021869Y010442D02*
X022488Y010442D01*
X022488Y010450D02*
X021869Y010450D01*
X021869Y010459D02*
X022488Y010459D01*
X022488Y010467D02*
X021869Y010467D01*
X021869Y010476D02*
X022488Y010476D01*
X022488Y010484D02*
X021869Y010484D01*
X021869Y010493D02*
X022488Y010493D01*
X022488Y010501D02*
X021869Y010501D01*
X021869Y010510D02*
X022488Y010510D01*
X022488Y010518D02*
X021869Y010518D01*
X021869Y010527D02*
X022488Y010527D01*
X022488Y010535D02*
X021869Y010535D01*
X021869Y010544D02*
X022488Y010544D01*
X022488Y010552D02*
X021869Y010552D01*
X021869Y010561D02*
X022488Y010561D01*
X022488Y010569D02*
X021869Y010569D01*
X021869Y010578D02*
X022488Y010578D01*
X022485Y010679D02*
X021870Y010679D01*
X021870Y010845D01*
X022197Y010845D01*
X022246Y010848D01*
X022294Y010857D01*
X022317Y010866D01*
X022337Y010879D01*
X022353Y010897D01*
X022365Y010918D01*
X022374Y010946D01*
X022376Y010976D01*
X022373Y011005D01*
X022364Y011033D01*
X022355Y011049D01*
X022342Y011064D01*
X022327Y011075D01*
X022296Y011089D01*
X022262Y011095D01*
X021868Y011095D01*
X021868Y011258D01*
X022293Y011258D01*
X022336Y011254D01*
X022378Y011242D01*
X022417Y011223D01*
X022452Y011197D01*
X022461Y011187D01*
X022482Y011152D01*
X022495Y011113D01*
X021868Y011113D01*
X021868Y011105D02*
X022496Y011105D01*
X022495Y011113D02*
X022501Y011072D01*
X022500Y011013D01*
X022491Y010955D01*
X022488Y010945D01*
X022483Y010935D01*
X022457Y010898D01*
X022426Y010866D01*
X022391Y010838D01*
X022391Y010837D01*
X022485Y010837D01*
X022485Y010679D01*
X022485Y010680D02*
X021870Y010680D01*
X021870Y010688D02*
X022485Y010688D01*
X022485Y010697D02*
X021870Y010697D01*
X021870Y010705D02*
X022485Y010705D01*
X022485Y010714D02*
X021870Y010714D01*
X021870Y010722D02*
X022485Y010722D01*
X022485Y010731D02*
X021870Y010731D01*
X021870Y010739D02*
X022485Y010739D01*
X022485Y010748D02*
X021870Y010748D01*
X021870Y010756D02*
X022485Y010756D01*
X022485Y010765D02*
X021870Y010765D01*
X021870Y010773D02*
X022485Y010773D01*
X022485Y010782D02*
X021870Y010782D01*
X021870Y010790D02*
X022485Y010790D01*
X022485Y010799D02*
X021870Y010799D01*
X021870Y010807D02*
X022485Y010807D01*
X022485Y010816D02*
X021870Y010816D01*
X021870Y010824D02*
X022485Y010824D01*
X022485Y010833D02*
X021870Y010833D01*
X021870Y010841D02*
X022395Y010841D01*
X022406Y010850D02*
X022255Y010850D01*
X022297Y010858D02*
X022417Y010858D01*
X022427Y010867D02*
X022318Y010867D01*
X022331Y010875D02*
X022435Y010875D01*
X022443Y010884D02*
X022341Y010884D01*
X022349Y010892D02*
X022451Y010892D01*
X022459Y010901D02*
X022355Y010901D01*
X022360Y010909D02*
X022465Y010909D01*
X022471Y010918D02*
X022365Y010918D01*
X022368Y010926D02*
X022477Y010926D01*
X022483Y010935D02*
X022370Y010935D01*
X022373Y010943D02*
X022487Y010943D01*
X022490Y010952D02*
X022374Y010952D01*
X022375Y010960D02*
X022492Y010960D01*
X022493Y010969D02*
X022376Y010969D01*
X022376Y010977D02*
X022494Y010977D01*
X022496Y010986D02*
X022375Y010986D01*
X022374Y010994D02*
X022497Y010994D01*
X022498Y011003D02*
X022373Y011003D01*
X022371Y011011D02*
X022499Y011011D01*
X022500Y011020D02*
X022368Y011020D01*
X022366Y011028D02*
X022500Y011028D01*
X022500Y011037D02*
X022362Y011037D01*
X022357Y011045D02*
X022500Y011045D01*
X022501Y011054D02*
X022351Y011054D01*
X022343Y011062D02*
X022501Y011062D01*
X022501Y011071D02*
X022333Y011071D01*
X022318Y011079D02*
X022500Y011079D01*
X022499Y011088D02*
X022299Y011088D01*
X022296Y011258D02*
X021868Y011258D01*
X021868Y011249D02*
X022353Y011249D01*
X022381Y011241D02*
X021868Y011241D01*
X021868Y011232D02*
X022398Y011232D01*
X022416Y011224D02*
X021868Y011224D01*
X021868Y011215D02*
X022428Y011215D01*
X022439Y011207D02*
X021868Y011207D01*
X021868Y011198D02*
X022450Y011198D01*
X022459Y011190D02*
X021868Y011190D01*
X021868Y011181D02*
X022464Y011181D01*
X022469Y011173D02*
X021868Y011173D01*
X021868Y011164D02*
X022474Y011164D01*
X022479Y011156D02*
X021868Y011156D01*
X021868Y011147D02*
X022483Y011147D01*
X022486Y011139D02*
X021868Y011139D01*
X021868Y011130D02*
X022489Y011130D01*
X022492Y011122D02*
X021868Y011122D01*
X021868Y011096D02*
X022498Y011096D01*
X022488Y011434D02*
X021975Y011434D01*
X021975Y011316D01*
X021870Y011316D01*
X021870Y011433D01*
X021815Y011433D01*
X021796Y011430D01*
X021778Y011423D01*
X021768Y011415D01*
X021760Y011404D01*
X021756Y011392D01*
X021753Y011356D01*
X021756Y011319D01*
X021757Y011308D01*
X021757Y011305D01*
X021638Y011305D01*
X021638Y011306D01*
X021635Y011358D01*
X021635Y011419D01*
X021642Y011459D01*
X021656Y011497D01*
X021678Y011531D01*
X021706Y011560D01*
X021725Y011573D01*
X021746Y011583D01*
X021768Y011589D01*
X021852Y011596D01*
X021870Y011596D01*
X021870Y011650D01*
X021975Y011755D01*
X021976Y011598D01*
X022488Y011598D01*
X022488Y011434D01*
X022488Y011436D02*
X021638Y011436D01*
X021636Y011428D02*
X021789Y011428D01*
X021773Y011419D02*
X021635Y011419D01*
X021635Y011411D02*
X021765Y011411D01*
X021759Y011402D02*
X021635Y011402D01*
X021635Y011394D02*
X021757Y011394D01*
X021755Y011385D02*
X021635Y011385D01*
X021635Y011377D02*
X021755Y011377D01*
X021754Y011368D02*
X021635Y011368D01*
X021635Y011360D02*
X021753Y011360D01*
X021753Y011351D02*
X021635Y011351D01*
X021636Y011343D02*
X021754Y011343D01*
X021755Y011334D02*
X021636Y011334D01*
X021637Y011326D02*
X021755Y011326D01*
X021756Y011317D02*
X021637Y011317D01*
X021638Y011309D02*
X021757Y011309D01*
X021870Y011317D02*
X021975Y011317D01*
X021975Y011326D02*
X021870Y011326D01*
X021870Y011334D02*
X021975Y011334D01*
X021975Y011343D02*
X021870Y011343D01*
X021870Y011351D02*
X021975Y011351D01*
X021975Y011360D02*
X021870Y011360D01*
X021870Y011368D02*
X021975Y011368D01*
X021975Y011377D02*
X021870Y011377D01*
X021870Y011385D02*
X021975Y011385D01*
X021975Y011394D02*
X021870Y011394D01*
X021870Y011402D02*
X021975Y011402D01*
X021975Y011411D02*
X021870Y011411D01*
X021870Y011419D02*
X021975Y011419D01*
X021975Y011428D02*
X021870Y011428D01*
X021870Y011598D02*
X022488Y011598D01*
X022488Y011589D02*
X021770Y011589D01*
X021740Y011581D02*
X022488Y011581D01*
X022488Y011572D02*
X021723Y011572D01*
X021711Y011564D02*
X022488Y011564D01*
X022488Y011555D02*
X021701Y011555D01*
X021693Y011547D02*
X022488Y011547D01*
X022488Y011538D02*
X021685Y011538D01*
X021677Y011530D02*
X022488Y011530D01*
X022488Y011521D02*
X021672Y011521D01*
X021667Y011513D02*
X022488Y011513D01*
X022488Y011504D02*
X021661Y011504D01*
X021656Y011496D02*
X022488Y011496D01*
X022488Y011487D02*
X021653Y011487D01*
X021650Y011479D02*
X022488Y011479D01*
X022488Y011470D02*
X021646Y011470D01*
X021643Y011462D02*
X022488Y011462D01*
X022488Y011453D02*
X021641Y011453D01*
X021639Y011445D02*
X022488Y011445D01*
X022486Y011711D02*
X022485Y011911D01*
X022208Y012079D01*
X022205Y012081D01*
X022274Y012152D01*
X022489Y012152D01*
X022489Y012315D01*
X022487Y012317D01*
X021726Y012317D01*
X021633Y012154D01*
X022095Y012154D01*
X021871Y011930D01*
X021871Y011746D01*
X022093Y011973D01*
X022486Y011711D01*
X022486Y011717D02*
X022477Y011717D01*
X022486Y011725D02*
X022465Y011725D01*
X022452Y011734D02*
X022486Y011734D01*
X022486Y011742D02*
X022439Y011742D01*
X022426Y011751D02*
X022486Y011751D01*
X022486Y011759D02*
X022414Y011759D01*
X022401Y011768D02*
X022486Y011768D01*
X022486Y011776D02*
X022388Y011776D01*
X022375Y011785D02*
X022486Y011785D01*
X022486Y011793D02*
X022363Y011793D01*
X022350Y011802D02*
X022486Y011802D01*
X022485Y011810D02*
X022337Y011810D01*
X022324Y011819D02*
X022485Y011819D01*
X022485Y011827D02*
X022312Y011827D01*
X022299Y011836D02*
X022485Y011836D01*
X022485Y011844D02*
X022286Y011844D01*
X022273Y011853D02*
X022485Y011853D01*
X022485Y011861D02*
X022261Y011861D01*
X022248Y011870D02*
X022485Y011870D01*
X022485Y011878D02*
X022235Y011878D01*
X022222Y011887D02*
X022485Y011887D01*
X022485Y011895D02*
X022210Y011895D01*
X022197Y011904D02*
X022485Y011904D01*
X022483Y011912D02*
X022184Y011912D01*
X022171Y011921D02*
X022469Y011921D01*
X022455Y011929D02*
X022159Y011929D01*
X022146Y011938D02*
X022441Y011938D01*
X022427Y011946D02*
X022133Y011946D01*
X022120Y011955D02*
X022413Y011955D01*
X022399Y011963D02*
X022108Y011963D01*
X022095Y011972D02*
X022385Y011972D01*
X022371Y011980D02*
X021921Y011980D01*
X021913Y011972D02*
X022092Y011972D01*
X022083Y011963D02*
X021904Y011963D01*
X021896Y011955D02*
X022075Y011955D01*
X022067Y011946D02*
X021887Y011946D01*
X021879Y011938D02*
X022058Y011938D01*
X022050Y011929D02*
X021871Y011929D01*
X021871Y011921D02*
X022042Y011921D01*
X022034Y011912D02*
X021871Y011912D01*
X021871Y011904D02*
X022025Y011904D01*
X022017Y011895D02*
X021871Y011895D01*
X021871Y011887D02*
X022009Y011887D01*
X022000Y011878D02*
X021871Y011878D01*
X021871Y011870D02*
X021992Y011870D01*
X021984Y011861D02*
X021871Y011861D01*
X021871Y011853D02*
X021975Y011853D01*
X021967Y011844D02*
X021871Y011844D01*
X021871Y011836D02*
X021959Y011836D01*
X021950Y011827D02*
X021871Y011827D01*
X021871Y011819D02*
X021942Y011819D01*
X021934Y011810D02*
X021871Y011810D01*
X021871Y011802D02*
X021925Y011802D01*
X021917Y011793D02*
X021871Y011793D01*
X021871Y011785D02*
X021909Y011785D01*
X021901Y011776D02*
X021871Y011776D01*
X021871Y011768D02*
X021892Y011768D01*
X021884Y011759D02*
X021871Y011759D01*
X021871Y011751D02*
X021876Y011751D01*
X021920Y011700D02*
X021975Y011700D01*
X021975Y011708D02*
X021928Y011708D01*
X021937Y011717D02*
X021975Y011717D01*
X021975Y011725D02*
X021945Y011725D01*
X021954Y011734D02*
X021975Y011734D01*
X021975Y011742D02*
X021962Y011742D01*
X021971Y011751D02*
X021975Y011751D01*
X021975Y011691D02*
X021911Y011691D01*
X021903Y011683D02*
X021975Y011683D01*
X021976Y011674D02*
X021894Y011674D01*
X021886Y011666D02*
X021976Y011666D01*
X021976Y011657D02*
X021877Y011657D01*
X021870Y011649D02*
X021976Y011649D01*
X021976Y011640D02*
X021870Y011640D01*
X021870Y011632D02*
X021976Y011632D01*
X021976Y011623D02*
X021870Y011623D01*
X021870Y011615D02*
X021976Y011615D01*
X021976Y011606D02*
X021870Y011606D01*
X021631Y011878D02*
X020988Y011878D01*
X020984Y011870D02*
X021621Y011870D01*
X021612Y011861D02*
X020981Y011861D01*
X020982Y011867D02*
X020995Y011892D01*
X021012Y011915D01*
X021034Y011933D01*
X021063Y011949D01*
X021094Y011958D01*
X021127Y011961D01*
X021724Y011961D01*
X021508Y011769D01*
X021477Y011735D01*
X021453Y011695D01*
X021448Y011680D01*
X021445Y011665D01*
X021445Y011575D01*
X021440Y011521D01*
X020806Y011521D01*
X020787Y011533D01*
X020767Y011541D01*
X020754Y011544D01*
X020741Y011543D01*
X020719Y011536D01*
X020700Y011525D01*
X020685Y011508D01*
X020674Y011488D01*
X020668Y011468D01*
X020666Y011447D01*
X020666Y011423D01*
X020666Y011423D01*
X020665Y011424D01*
X020652Y011441D01*
X020643Y011461D01*
X020637Y011475D01*
X020633Y011484D01*
X020624Y011519D01*
X020621Y011554D01*
X020624Y011588D01*
X020633Y011621D01*
X020648Y011652D01*
X020670Y011683D01*
X020896Y011683D01*
X020901Y011679D02*
X020962Y011622D01*
X020980Y011607D01*
X021001Y011597D01*
X021024Y011593D01*
X021047Y011594D01*
X021069Y011602D01*
X021088Y011615D01*
X021103Y011633D01*
X021115Y011655D01*
X021123Y011679D01*
X021127Y011704D01*
X021126Y011733D01*
X021117Y011761D01*
X021102Y011786D01*
X021088Y011799D01*
X021071Y011808D01*
X021053Y011812D01*
X021036Y011812D01*
X021018Y011808D01*
X021011Y011804D01*
X021006Y011799D01*
X020982Y011766D01*
X020979Y011760D01*
X020977Y011753D01*
X020978Y011746D01*
X020975Y011765D01*
X020972Y011802D01*
X020975Y011839D01*
X020982Y011867D01*
X020979Y011853D02*
X021602Y011853D01*
X021593Y011844D02*
X020976Y011844D01*
X020975Y011836D02*
X021583Y011836D01*
X021573Y011827D02*
X020974Y011827D01*
X020973Y011819D02*
X021564Y011819D01*
X021554Y011810D02*
X021061Y011810D01*
X021083Y011802D02*
X021545Y011802D01*
X021535Y011793D02*
X021094Y011793D01*
X021103Y011785D02*
X021526Y011785D01*
X021516Y011776D02*
X021108Y011776D01*
X021113Y011768D02*
X021507Y011768D01*
X021499Y011759D02*
X021118Y011759D01*
X021120Y011751D02*
X021491Y011751D01*
X021483Y011742D02*
X021123Y011742D01*
X021125Y011734D02*
X021476Y011734D01*
X021471Y011725D02*
X021126Y011725D01*
X021126Y011717D02*
X021466Y011717D01*
X021461Y011708D02*
X021127Y011708D01*
X021126Y011700D02*
X021456Y011700D01*
X021452Y011691D02*
X021125Y011691D01*
X021124Y011683D02*
X021449Y011683D01*
X021447Y011674D02*
X021121Y011674D01*
X021119Y011666D02*
X021445Y011666D01*
X021445Y011657D02*
X021116Y011657D01*
X021111Y011649D02*
X021445Y011649D01*
X021445Y011640D02*
X021107Y011640D01*
X021102Y011632D02*
X021445Y011632D01*
X021445Y011623D02*
X021095Y011623D01*
X021087Y011615D02*
X021445Y011615D01*
X021445Y011606D02*
X021075Y011606D01*
X021056Y011598D02*
X021445Y011598D01*
X021445Y011589D02*
X020624Y011589D01*
X020623Y011581D02*
X021445Y011581D01*
X021445Y011572D02*
X020622Y011572D01*
X020622Y011564D02*
X021444Y011564D01*
X021443Y011555D02*
X020621Y011555D01*
X020622Y011547D02*
X021442Y011547D01*
X021442Y011538D02*
X020774Y011538D01*
X020792Y011530D02*
X021441Y011530D01*
X021440Y011521D02*
X021426Y011469D01*
X021402Y011421D01*
X021370Y011375D01*
X021332Y011335D01*
X021288Y011300D01*
X021222Y011263D01*
X021150Y011238D01*
X021075Y011227D01*
X020999Y011229D01*
X020958Y011237D01*
X020919Y011251D01*
X020882Y011271D01*
X020837Y011307D01*
X020801Y011351D01*
X020836Y011351D01*
X020842Y011352D01*
X020847Y011354D01*
X020861Y011366D01*
X020872Y011381D01*
X020875Y011389D01*
X020877Y011412D01*
X020873Y011434D01*
X020863Y011454D01*
X020837Y011490D01*
X020823Y011507D01*
X020806Y011521D01*
X020816Y011513D02*
X021438Y011513D01*
X021435Y011504D02*
X020825Y011504D01*
X020832Y011496D02*
X021433Y011496D01*
X021431Y011487D02*
X020839Y011487D01*
X020845Y011479D02*
X021428Y011479D01*
X021426Y011470D02*
X020851Y011470D01*
X020857Y011462D02*
X021422Y011462D01*
X021418Y011453D02*
X020863Y011453D01*
X020868Y011445D02*
X021414Y011445D01*
X021409Y011436D02*
X020872Y011436D01*
X020874Y011428D02*
X021405Y011428D01*
X021401Y011419D02*
X020876Y011419D01*
X020877Y011411D02*
X021395Y011411D01*
X021389Y011402D02*
X020876Y011402D01*
X020876Y011394D02*
X021383Y011394D01*
X021377Y011385D02*
X020874Y011385D01*
X020869Y011377D02*
X021371Y011377D01*
X021363Y011368D02*
X020863Y011368D01*
X020854Y011360D02*
X021355Y011360D01*
X021347Y011351D02*
X020838Y011351D01*
X020815Y011334D02*
X021331Y011334D01*
X021339Y011343D02*
X020808Y011343D01*
X020822Y011326D02*
X021320Y011326D01*
X021310Y011317D02*
X020829Y011317D01*
X020836Y011309D02*
X021299Y011309D01*
X021288Y011300D02*
X020845Y011300D01*
X020856Y011292D02*
X021273Y011292D01*
X021258Y011283D02*
X020867Y011283D01*
X020877Y011275D02*
X021243Y011275D01*
X021228Y011266D02*
X020891Y011266D01*
X020907Y011258D02*
X021207Y011258D01*
X021183Y011249D02*
X020924Y011249D01*
X020948Y011241D02*
X021158Y011241D01*
X021112Y011232D02*
X020983Y011232D01*
X020666Y011428D02*
X020662Y011428D01*
X020666Y011436D02*
X020656Y011436D01*
X020650Y011445D02*
X020666Y011445D01*
X020667Y011453D02*
X020646Y011453D01*
X020643Y011462D02*
X020668Y011462D01*
X020669Y011470D02*
X020639Y011470D01*
X020635Y011479D02*
X020671Y011479D01*
X020674Y011487D02*
X020632Y011487D01*
X020630Y011496D02*
X020678Y011496D01*
X020683Y011504D02*
X020628Y011504D01*
X020626Y011513D02*
X020689Y011513D01*
X020697Y011521D02*
X020624Y011521D01*
X020623Y011530D02*
X020708Y011530D01*
X020725Y011538D02*
X020622Y011538D01*
X020626Y011598D02*
X020999Y011598D01*
X020981Y011606D02*
X020629Y011606D01*
X020631Y011615D02*
X020971Y011615D01*
X020961Y011623D02*
X020634Y011623D01*
X020638Y011632D02*
X020952Y011632D01*
X020943Y011640D02*
X020642Y011640D01*
X020646Y011649D02*
X020934Y011649D01*
X020925Y011657D02*
X020652Y011657D01*
X020658Y011666D02*
X020916Y011666D01*
X020907Y011674D02*
X020664Y011674D01*
X020670Y011683D02*
X020696Y011710D01*
X020720Y011727D01*
X020747Y011738D01*
X020776Y011741D01*
X020805Y011737D01*
X020832Y011726D01*
X020901Y011679D01*
X020884Y011691D02*
X020678Y011691D01*
X020686Y011700D02*
X020871Y011700D01*
X020858Y011708D02*
X020694Y011708D01*
X020705Y011717D02*
X020846Y011717D01*
X020833Y011725D02*
X020717Y011725D01*
X020737Y011734D02*
X020813Y011734D01*
X020976Y011759D02*
X020979Y011759D01*
X020977Y011751D02*
X020978Y011751D01*
X020975Y011768D02*
X020983Y011768D01*
X020989Y011776D02*
X020974Y011776D01*
X020973Y011785D02*
X020996Y011785D01*
X021002Y011793D02*
X020973Y011793D01*
X020972Y011802D02*
X021009Y011802D01*
X021028Y011810D02*
X020973Y011810D01*
X020992Y011887D02*
X021640Y011887D01*
X021650Y011895D02*
X020997Y011895D01*
X021004Y011904D02*
X021660Y011904D01*
X021669Y011912D02*
X021011Y011912D01*
X021020Y011921D02*
X021679Y011921D01*
X021688Y011929D02*
X021030Y011929D01*
X021043Y011938D02*
X021698Y011938D01*
X021707Y011946D02*
X021058Y011946D01*
X021083Y011955D02*
X021717Y011955D01*
X021930Y011989D02*
X022357Y011989D01*
X022343Y011997D02*
X021938Y011997D01*
X021947Y012006D02*
X022329Y012006D01*
X022315Y012014D02*
X021955Y012014D01*
X021964Y012023D02*
X022301Y012023D01*
X022287Y012031D02*
X021972Y012031D01*
X021981Y012040D02*
X022273Y012040D01*
X022259Y012048D02*
X021989Y012048D01*
X021998Y012057D02*
X022245Y012057D01*
X022231Y012065D02*
X022006Y012065D01*
X022015Y012074D02*
X022217Y012074D01*
X022206Y012082D02*
X022023Y012082D01*
X022032Y012091D02*
X022214Y012091D01*
X022223Y012099D02*
X022040Y012099D01*
X022049Y012108D02*
X022231Y012108D01*
X022239Y012116D02*
X022057Y012116D01*
X022066Y012125D02*
X022248Y012125D01*
X022256Y012133D02*
X022074Y012133D01*
X022083Y012142D02*
X022264Y012142D01*
X022272Y012150D02*
X022091Y012150D01*
X022010Y012391D02*
X022010Y012392D01*
X022009Y012398D01*
X022004Y012422D01*
X022004Y012483D01*
X022008Y012505D01*
X022015Y012526D01*
X022026Y012546D01*
X022049Y012573D01*
X022077Y012594D01*
X022109Y012609D01*
X022142Y012617D01*
X022176Y012620D01*
X022484Y012620D01*
X022484Y012784D01*
X021898Y012783D01*
X021871Y012631D01*
X021984Y012631D01*
X021986Y012627D01*
X021984Y012621D01*
X021972Y012613D01*
X021931Y012586D01*
X021916Y012574D01*
X021904Y012558D01*
X021881Y012523D01*
X021867Y012499D01*
X021858Y012473D01*
X021855Y012445D01*
X021858Y012391D01*
X022010Y012391D01*
X022009Y012397D02*
X021858Y012397D01*
X021857Y012405D02*
X022008Y012405D01*
X022006Y012414D02*
X021857Y012414D01*
X021856Y012422D02*
X022004Y012422D01*
X022004Y012431D02*
X021856Y012431D01*
X021855Y012439D02*
X022004Y012439D01*
X022004Y012448D02*
X021855Y012448D01*
X021856Y012456D02*
X022004Y012456D01*
X022004Y012465D02*
X021857Y012465D01*
X021859Y012473D02*
X022004Y012473D01*
X022004Y012482D02*
X021861Y012482D01*
X021864Y012490D02*
X022005Y012490D01*
X022007Y012499D02*
X021867Y012499D01*
X021872Y012507D02*
X022008Y012507D01*
X022011Y012516D02*
X021877Y012516D01*
X021882Y012524D02*
X022014Y012524D01*
X022019Y012533D02*
X021887Y012533D01*
X021893Y012541D02*
X022023Y012541D01*
X022029Y012550D02*
X021899Y012550D01*
X021904Y012558D02*
X022036Y012558D01*
X022043Y012567D02*
X021911Y012567D01*
X021918Y012575D02*
X022052Y012575D01*
X022063Y012584D02*
X021928Y012584D01*
X021940Y012592D02*
X022074Y012592D01*
X022091Y012601D02*
X021953Y012601D01*
X021966Y012609D02*
X022110Y012609D01*
X022150Y012618D02*
X021979Y012618D01*
X021986Y012626D02*
X022484Y012626D01*
X022484Y012635D02*
X021872Y012635D01*
X021873Y012643D02*
X022484Y012643D01*
X022484Y012652D02*
X021875Y012652D01*
X021876Y012660D02*
X022484Y012660D01*
X022484Y012669D02*
X021878Y012669D01*
X021879Y012677D02*
X022484Y012677D01*
X022484Y012686D02*
X021881Y012686D01*
X021882Y012694D02*
X022484Y012694D01*
X022484Y012703D02*
X021884Y012703D01*
X021885Y012711D02*
X022484Y012711D01*
X022484Y012720D02*
X021887Y012720D01*
X021888Y012728D02*
X022484Y012728D01*
X022484Y012737D02*
X021890Y012737D01*
X021891Y012745D02*
X022484Y012745D01*
X022484Y012754D02*
X021893Y012754D01*
X021894Y012762D02*
X022484Y012762D01*
X022484Y012771D02*
X021896Y012771D01*
X021897Y012779D02*
X022484Y012779D01*
X022484Y012870D02*
X022476Y012873D01*
X022424Y012887D01*
X022371Y012891D01*
X022200Y012890D01*
X022200Y013051D01*
X022233Y013051D01*
X022276Y013054D01*
X022319Y013062D01*
X022326Y013064D01*
X022337Y013069D01*
X022346Y013075D01*
X022375Y013105D01*
X022383Y013117D01*
X022388Y013131D01*
X022394Y013173D01*
X022392Y013234D01*
X022388Y013253D01*
X022379Y013271D01*
X022367Y013286D01*
X022356Y013294D01*
X022344Y013300D01*
X022331Y013303D01*
X022307Y013303D01*
X022283Y013299D01*
X022261Y013290D01*
X022248Y013281D01*
X022138Y013281D01*
X022139Y013289D02*
X022260Y013289D01*
X022248Y013281D02*
X022238Y013270D01*
X022226Y013251D01*
X022218Y013229D01*
X022214Y013207D01*
X022208Y013150D01*
X022201Y013111D01*
X022190Y013073D01*
X022186Y013065D01*
X022180Y013058D01*
X022172Y013053D01*
X022172Y013051D01*
X022196Y013051D01*
X022196Y012891D01*
X022006Y012891D01*
X021977Y012895D01*
X021950Y012905D01*
X021926Y012922D01*
X021907Y012944D01*
X021880Y012995D01*
X021863Y013051D01*
X021854Y013119D01*
X021962Y013119D01*
X021961Y013124D02*
X021964Y013109D01*
X021969Y013094D01*
X021977Y013081D01*
X021987Y013070D01*
X021999Y013062D01*
X022012Y013056D01*
X022034Y013051D01*
X022056Y013051D01*
X022077Y013056D01*
X022082Y013058D01*
X022086Y013061D01*
X022097Y013073D01*
X022107Y013091D01*
X022114Y013110D01*
X022123Y013162D01*
X022132Y013249D01*
X022143Y013310D01*
X022162Y013368D01*
X022176Y013395D01*
X022196Y013419D01*
X022220Y013439D01*
X022254Y013456D01*
X022291Y013464D01*
X022333Y013464D01*
X022374Y013457D01*
X022413Y013442D01*
X022432Y013431D01*
X022449Y013416D01*
X022462Y013398D01*
X022486Y013348D01*
X022498Y013294D01*
X022499Y013230D01*
X022392Y013230D01*
X022391Y013238D02*
X022499Y013238D01*
X022499Y013230D02*
X022490Y013166D01*
X022476Y013125D01*
X022455Y013088D01*
X022427Y013055D01*
X022426Y013053D01*
X022425Y013050D01*
X022426Y013048D01*
X022428Y013046D01*
X022430Y013045D01*
X022471Y013036D01*
X022482Y013033D01*
X022483Y013032D01*
X022484Y013031D01*
X022484Y013029D01*
X022484Y012870D01*
X022484Y012873D02*
X022477Y012873D01*
X022484Y012881D02*
X022445Y012881D01*
X022484Y012890D02*
X022387Y012890D01*
X022484Y012898D02*
X022200Y012898D01*
X022196Y012898D02*
X021968Y012898D01*
X021947Y012907D02*
X022196Y012907D01*
X022200Y012907D02*
X022484Y012907D01*
X022484Y012915D02*
X022200Y012915D01*
X022196Y012915D02*
X021935Y012915D01*
X021924Y012924D02*
X022196Y012924D01*
X022200Y012924D02*
X022484Y012924D01*
X022484Y012932D02*
X022200Y012932D01*
X022196Y012932D02*
X021917Y012932D01*
X021910Y012941D02*
X022196Y012941D01*
X022200Y012941D02*
X022484Y012941D01*
X022484Y012949D02*
X022200Y012949D01*
X022196Y012949D02*
X021904Y012949D01*
X021900Y012958D02*
X022196Y012958D01*
X022200Y012958D02*
X022484Y012958D01*
X022484Y012966D02*
X022200Y012966D01*
X022196Y012966D02*
X021895Y012966D01*
X021891Y012975D02*
X022196Y012975D01*
X022200Y012975D02*
X022484Y012975D01*
X022484Y012983D02*
X022200Y012983D01*
X022196Y012983D02*
X021886Y012983D01*
X021882Y012992D02*
X022196Y012992D01*
X022200Y012992D02*
X022484Y012992D01*
X022484Y013000D02*
X022200Y013000D01*
X022196Y013000D02*
X021878Y013000D01*
X021876Y013009D02*
X022196Y013009D01*
X022200Y013009D02*
X022484Y013009D01*
X022484Y013017D02*
X022200Y013017D01*
X022196Y013017D02*
X021873Y013017D01*
X021871Y013026D02*
X022196Y013026D01*
X022200Y013026D02*
X022484Y013026D01*
X022477Y013034D02*
X022200Y013034D01*
X022196Y013034D02*
X021868Y013034D01*
X021865Y013043D02*
X022196Y013043D01*
X022200Y013043D02*
X022440Y013043D01*
X022425Y013051D02*
X022237Y013051D01*
X022188Y013068D02*
X022093Y013068D01*
X022099Y013077D02*
X022191Y013077D01*
X022194Y013085D02*
X022104Y013085D01*
X022108Y013094D02*
X022196Y013094D01*
X022199Y013102D02*
X022111Y013102D01*
X022114Y013111D02*
X022201Y013111D01*
X022203Y013119D02*
X022116Y013119D01*
X022117Y013128D02*
X022204Y013128D01*
X022206Y013136D02*
X022119Y013136D01*
X022120Y013145D02*
X022207Y013145D01*
X022208Y013153D02*
X022121Y013153D01*
X022123Y013162D02*
X022209Y013162D01*
X022210Y013170D02*
X022124Y013170D01*
X022125Y013179D02*
X022211Y013179D01*
X022212Y013187D02*
X022126Y013187D01*
X022126Y013196D02*
X022213Y013196D01*
X022214Y013204D02*
X022127Y013204D01*
X022128Y013213D02*
X022215Y013213D01*
X022217Y013221D02*
X022129Y013221D01*
X022130Y013230D02*
X022218Y013230D01*
X022222Y013238D02*
X022131Y013238D01*
X022132Y013247D02*
X022225Y013247D01*
X022229Y013255D02*
X022133Y013255D01*
X022135Y013264D02*
X022234Y013264D01*
X022240Y013272D02*
X022136Y013272D01*
X022141Y013298D02*
X022280Y013298D01*
X022349Y013298D02*
X022497Y013298D01*
X022495Y013306D02*
X022142Y013306D01*
X022145Y013315D02*
X022493Y013315D01*
X022491Y013323D02*
X022147Y013323D01*
X022150Y013332D02*
X022490Y013332D01*
X022488Y013340D02*
X022153Y013340D01*
X022156Y013349D02*
X022486Y013349D01*
X022481Y013357D02*
X022159Y013357D01*
X022161Y013366D02*
X022477Y013366D01*
X022473Y013374D02*
X022165Y013374D01*
X022170Y013383D02*
X022469Y013383D01*
X022465Y013391D02*
X022174Y013391D01*
X022180Y013400D02*
X022461Y013400D01*
X022454Y013408D02*
X022187Y013408D01*
X022194Y013417D02*
X022447Y013417D01*
X022438Y013425D02*
X022203Y013425D01*
X022214Y013434D02*
X022427Y013434D01*
X022412Y013442D02*
X022227Y013442D01*
X022244Y013451D02*
X022390Y013451D01*
X022360Y013459D02*
X022269Y013459D01*
X022258Y013531D02*
X022171Y013526D01*
X022084Y013537D01*
X022001Y013564D01*
X021960Y013587D01*
X021925Y013618D01*
X021899Y013650D01*
X021878Y013686D01*
X021862Y013726D01*
X021855Y013769D01*
X021856Y013847D01*
X021860Y013866D01*
X021881Y013918D01*
X021890Y013933D01*
X021902Y013947D01*
X021940Y013982D01*
X021950Y013991D01*
X021949Y013993D01*
X021946Y013996D01*
X021867Y013995D01*
X021896Y014148D01*
X022706Y014148D01*
X022853Y013985D01*
X022290Y013985D01*
X022290Y013980D01*
X022290Y013979D01*
X022289Y013977D01*
X022287Y013977D01*
X022286Y013977D01*
X022259Y013986D01*
X022228Y013991D01*
X022127Y013992D01*
X022094Y013988D01*
X022063Y013977D01*
X022034Y013960D01*
X022007Y013936D01*
X021984Y013907D01*
X021977Y013893D01*
X021871Y013893D01*
X021874Y013901D02*
X021981Y013901D01*
X021977Y013893D02*
X021974Y013877D01*
X021972Y013834D01*
X021974Y013811D01*
X021980Y013789D01*
X021991Y013768D01*
X022017Y013737D01*
X022048Y013713D01*
X022085Y013697D01*
X022124Y013689D01*
X022202Y013689D01*
X022280Y013701D01*
X022311Y013713D01*
X022338Y013732D01*
X022359Y013758D01*
X022373Y013788D01*
X022380Y013824D01*
X022380Y013861D01*
X022374Y013890D01*
X022362Y013918D01*
X022347Y013939D01*
X022328Y013956D01*
X022305Y013968D01*
X022302Y013970D01*
X022299Y013972D01*
X022295Y013973D01*
X022293Y013973D01*
X022296Y013976D01*
X022413Y013976D01*
X022441Y013956D01*
X022464Y013930D01*
X022482Y013899D01*
X022492Y013866D01*
X022498Y013818D01*
X022497Y013770D01*
X022490Y013722D01*
X022478Y013686D01*
X022461Y013652D01*
X022438Y013622D01*
X022410Y013596D01*
X022363Y013566D01*
X022312Y013544D01*
X022258Y013531D01*
X022278Y013536D02*
X022098Y013536D01*
X022063Y013544D02*
X022313Y013544D01*
X022333Y013553D02*
X022036Y013553D01*
X022010Y013561D02*
X022353Y013561D01*
X022370Y013570D02*
X021991Y013570D01*
X021975Y013578D02*
X022383Y013578D01*
X022396Y013587D02*
X021960Y013587D01*
X021951Y013595D02*
X022409Y013595D01*
X022418Y013604D02*
X021941Y013604D01*
X021931Y013612D02*
X022427Y013612D01*
X022437Y013621D02*
X021923Y013621D01*
X021916Y013629D02*
X022443Y013629D01*
X022450Y013638D02*
X021909Y013638D01*
X021903Y013646D02*
X022456Y013646D01*
X022462Y013655D02*
X021897Y013655D01*
X021892Y013663D02*
X022467Y013663D01*
X022471Y013672D02*
X021887Y013672D01*
X021881Y013680D02*
X022476Y013680D01*
X022479Y013689D02*
X021877Y013689D01*
X021874Y013697D02*
X022084Y013697D01*
X022065Y013706D02*
X021870Y013706D01*
X021867Y013714D02*
X022047Y013714D01*
X022036Y013723D02*
X021864Y013723D01*
X021861Y013731D02*
X022024Y013731D01*
X022014Y013740D02*
X021860Y013740D01*
X021859Y013748D02*
X022007Y013748D01*
X022000Y013757D02*
X021857Y013757D01*
X021856Y013765D02*
X021993Y013765D01*
X021988Y013774D02*
X021855Y013774D01*
X021855Y013782D02*
X021984Y013782D01*
X021980Y013791D02*
X021855Y013791D01*
X021855Y013799D02*
X021977Y013799D01*
X021975Y013808D02*
X021855Y013808D01*
X021856Y013816D02*
X021973Y013816D01*
X021973Y013825D02*
X021856Y013825D01*
X021856Y013833D02*
X021972Y013833D01*
X021972Y013842D02*
X021856Y013842D01*
X021857Y013850D02*
X021973Y013850D01*
X021973Y013859D02*
X021858Y013859D01*
X021861Y013867D02*
X021974Y013867D01*
X021974Y013876D02*
X021864Y013876D01*
X021867Y013884D02*
X021975Y013884D01*
X021986Y013910D02*
X021878Y013910D01*
X021881Y013918D02*
X021993Y013918D01*
X021999Y013927D02*
X021886Y013927D01*
X021892Y013935D02*
X022006Y013935D01*
X022016Y013944D02*
X021899Y013944D01*
X021908Y013952D02*
X022025Y013952D01*
X022035Y013961D02*
X021917Y013961D01*
X021926Y013969D02*
X022050Y013969D01*
X022066Y013978D02*
X021935Y013978D01*
X021945Y013986D02*
X022090Y013986D01*
X021947Y013995D02*
X022844Y013995D01*
X022837Y014003D02*
X021869Y014003D01*
X021870Y014012D02*
X022829Y014012D01*
X022821Y014020D02*
X021872Y014020D01*
X021873Y014029D02*
X022814Y014029D01*
X022806Y014037D02*
X021875Y014037D01*
X021877Y014046D02*
X022798Y014046D01*
X022791Y014054D02*
X021878Y014054D01*
X021880Y014063D02*
X022783Y014063D01*
X022775Y014071D02*
X021881Y014071D01*
X021883Y014080D02*
X022768Y014080D01*
X022760Y014088D02*
X021885Y014088D01*
X021886Y014097D02*
X022752Y014097D01*
X022745Y014105D02*
X021888Y014105D01*
X021890Y014114D02*
X022737Y014114D01*
X022729Y014122D02*
X021891Y014122D01*
X021893Y014131D02*
X022722Y014131D01*
X022714Y014139D02*
X021894Y014139D01*
X021896Y014148D02*
X022706Y014148D01*
X022852Y013986D02*
X022257Y013986D01*
X022284Y013978D02*
X022289Y013978D01*
X022303Y013969D02*
X022422Y013969D01*
X022434Y013961D02*
X022319Y013961D01*
X022332Y013952D02*
X022444Y013952D01*
X022452Y013944D02*
X022342Y013944D01*
X022350Y013935D02*
X022459Y013935D01*
X022466Y013927D02*
X022356Y013927D01*
X022362Y013918D02*
X022471Y013918D01*
X022476Y013910D02*
X022366Y013910D01*
X022369Y013901D02*
X022480Y013901D01*
X022484Y013893D02*
X022373Y013893D01*
X022375Y013884D02*
X022486Y013884D01*
X022489Y013876D02*
X022377Y013876D01*
X022379Y013867D02*
X022492Y013867D01*
X022493Y013859D02*
X022380Y013859D01*
X022380Y013850D02*
X022494Y013850D01*
X022495Y013842D02*
X022380Y013842D01*
X022380Y013833D02*
X022496Y013833D01*
X022497Y013825D02*
X022380Y013825D01*
X022379Y013816D02*
X022498Y013816D01*
X022498Y013808D02*
X022377Y013808D01*
X022375Y013799D02*
X022498Y013799D01*
X022498Y013791D02*
X022374Y013791D01*
X022370Y013782D02*
X022498Y013782D01*
X022497Y013774D02*
X022366Y013774D01*
X022363Y013765D02*
X022497Y013765D01*
X022495Y013757D02*
X022358Y013757D01*
X022351Y013748D02*
X022494Y013748D01*
X022493Y013740D02*
X022344Y013740D01*
X022337Y013731D02*
X022491Y013731D01*
X022490Y013723D02*
X022325Y013723D01*
X022313Y013714D02*
X022488Y013714D01*
X022485Y013706D02*
X022293Y013706D01*
X022256Y013697D02*
X022482Y013697D01*
X022188Y013527D02*
X022164Y013527D01*
X022057Y013449D02*
X022056Y013450D01*
X022056Y013283D01*
X022054Y013283D01*
X022032Y013280D01*
X022012Y013273D01*
X021993Y013260D01*
X021979Y013244D01*
X021968Y013225D01*
X021961Y013202D01*
X021959Y013178D01*
X021961Y013124D01*
X021961Y013128D02*
X021854Y013128D01*
X021854Y013136D02*
X021961Y013136D01*
X021960Y013145D02*
X021854Y013145D01*
X021854Y013153D02*
X021960Y013153D01*
X021960Y013162D02*
X021854Y013162D01*
X021854Y013170D02*
X021959Y013170D01*
X021959Y013179D02*
X021854Y013179D01*
X021854Y013187D02*
X021960Y013187D01*
X021961Y013196D02*
X021855Y013196D01*
X021854Y013188D02*
X021862Y013257D01*
X021875Y013305D01*
X021896Y013351D01*
X021919Y013383D01*
X021947Y013410D01*
X021981Y013431D01*
X022018Y013444D01*
X022057Y013449D01*
X022056Y013442D02*
X022014Y013442D01*
X021990Y013434D02*
X022056Y013434D01*
X022056Y013425D02*
X021972Y013425D01*
X021958Y013417D02*
X022056Y013417D01*
X022056Y013408D02*
X021945Y013408D01*
X021936Y013400D02*
X022056Y013400D01*
X022056Y013391D02*
X021927Y013391D01*
X021918Y013383D02*
X022056Y013383D01*
X022056Y013374D02*
X021912Y013374D01*
X021906Y013366D02*
X022056Y013366D01*
X022056Y013357D02*
X021900Y013357D01*
X021895Y013349D02*
X022056Y013349D01*
X022056Y013340D02*
X021891Y013340D01*
X021887Y013332D02*
X022056Y013332D01*
X022056Y013323D02*
X021883Y013323D01*
X021879Y013315D02*
X022056Y013315D01*
X022056Y013306D02*
X021876Y013306D01*
X021873Y013298D02*
X022056Y013298D01*
X022056Y013289D02*
X021871Y013289D01*
X021868Y013281D02*
X022035Y013281D01*
X022011Y013272D02*
X021866Y013272D01*
X021864Y013264D02*
X021998Y013264D01*
X021989Y013255D02*
X021862Y013255D01*
X021861Y013247D02*
X021981Y013247D01*
X021975Y013238D02*
X021860Y013238D01*
X021859Y013230D02*
X021971Y013230D01*
X021967Y013221D02*
X021858Y013221D01*
X021857Y013213D02*
X021964Y013213D01*
X021962Y013204D02*
X021856Y013204D01*
X021854Y013188D02*
X021854Y013119D01*
X021855Y013111D02*
X021963Y013111D01*
X021966Y013102D02*
X021856Y013102D01*
X021857Y013094D02*
X021969Y013094D01*
X021974Y013085D02*
X021858Y013085D01*
X021860Y013077D02*
X021981Y013077D01*
X021990Y013068D02*
X021861Y013068D01*
X021862Y013060D02*
X022004Y013060D01*
X022084Y013060D02*
X022181Y013060D01*
X022172Y013051D02*
X021863Y013051D01*
X022307Y013060D02*
X022431Y013060D01*
X022438Y013068D02*
X022336Y013068D01*
X022348Y013077D02*
X022446Y013077D01*
X022453Y013085D02*
X022356Y013085D01*
X022364Y013094D02*
X022458Y013094D01*
X022463Y013102D02*
X022372Y013102D01*
X022379Y013111D02*
X022468Y013111D01*
X022473Y013119D02*
X022384Y013119D01*
X022387Y013128D02*
X022477Y013128D01*
X022480Y013136D02*
X022389Y013136D01*
X022390Y013145D02*
X022483Y013145D01*
X022486Y013153D02*
X022391Y013153D01*
X022392Y013162D02*
X022489Y013162D01*
X022491Y013170D02*
X022394Y013170D01*
X022394Y013179D02*
X022492Y013179D01*
X022493Y013187D02*
X022394Y013187D01*
X022393Y013196D02*
X022494Y013196D01*
X022496Y013204D02*
X022393Y013204D01*
X022393Y013213D02*
X022497Y013213D01*
X022498Y013221D02*
X022392Y013221D01*
X022389Y013247D02*
X022499Y013247D01*
X022499Y013255D02*
X022387Y013255D01*
X022383Y013264D02*
X022499Y013264D01*
X022498Y013272D02*
X022378Y013272D01*
X022371Y013281D02*
X022498Y013281D01*
X022498Y013289D02*
X022363Y013289D01*
X022294Y014230D02*
X022252Y014234D01*
X022213Y014247D01*
X022197Y014257D01*
X022183Y014270D01*
X022163Y014297D01*
X022147Y014327D01*
X022123Y014392D01*
X022108Y014460D01*
X022092Y014540D01*
X022081Y014570D01*
X022064Y014598D01*
X022051Y014610D01*
X022036Y014618D01*
X022020Y014621D01*
X022004Y014619D01*
X021989Y014612D01*
X021977Y014602D01*
X021969Y014589D01*
X021963Y014571D01*
X021959Y014553D01*
X021957Y014519D01*
X021959Y014485D01*
X021963Y014465D01*
X021971Y014445D01*
X021929Y014445D01*
X021936Y014445D02*
X021858Y014445D01*
X021859Y014437D02*
X021938Y014437D01*
X021932Y014437D02*
X021976Y014437D01*
X021971Y014445D02*
X021982Y014428D01*
X021993Y014416D01*
X022006Y014407D01*
X022021Y014401D01*
X022031Y014399D01*
X022042Y014398D01*
X022042Y014245D01*
X022014Y014248D01*
X021963Y014329D01*
X021911Y014508D01*
X021954Y014673D01*
X022074Y014652D01*
X022177Y014479D01*
X022268Y014312D01*
X022396Y014355D01*
X022431Y014510D01*
X022290Y014795D01*
X022438Y014514D01*
X022402Y014352D01*
X022271Y014308D01*
X022257Y014315D01*
X022068Y014640D01*
X021960Y014659D01*
X021915Y014510D01*
X021968Y014344D01*
X022025Y014267D01*
X022011Y014248D01*
X021989Y014256D01*
X021958Y014270D01*
X021941Y014281D01*
X021925Y014295D01*
X021895Y014333D01*
X021874Y014376D01*
X021860Y014429D01*
X021854Y014484D01*
X021854Y014555D01*
X021860Y014611D01*
X021876Y014666D01*
X021902Y014716D01*
X021917Y014735D01*
X021934Y014750D01*
X021955Y014762D01*
X021998Y014776D01*
X022042Y014781D01*
X022087Y014777D01*
X022106Y014771D01*
X022124Y014761D01*
X022139Y014748D01*
X022160Y014721D01*
X022177Y014692D01*
X022189Y014660D01*
X022223Y014517D01*
X022235Y014470D01*
X022254Y014426D01*
X022264Y014412D01*
X022277Y014401D01*
X022292Y014393D01*
X022309Y014389D01*
X022326Y014390D01*
X022342Y014395D01*
X022357Y014404D01*
X022369Y014416D01*
X022382Y014437D01*
X022390Y014460D01*
X022393Y014485D01*
X022393Y014538D01*
X022390Y014561D01*
X022381Y014585D01*
X022367Y014607D01*
X022349Y014625D01*
X022332Y014636D01*
X022312Y014642D01*
X022292Y014643D01*
X022290Y014643D01*
X022290Y014795D01*
X022304Y014794D01*
X022327Y014790D01*
X022377Y014773D01*
X022400Y014761D01*
X022421Y014744D01*
X022438Y014724D01*
X022468Y014677D01*
X022484Y014643D01*
X022492Y014607D01*
X022499Y014506D01*
X022497Y014454D01*
X022418Y014454D01*
X022425Y014454D02*
X022388Y014454D01*
X022390Y014462D02*
X022427Y014462D01*
X022420Y014462D02*
X022497Y014462D01*
X022497Y014454D02*
X022490Y014402D01*
X022479Y014363D01*
X022461Y014326D01*
X022437Y014293D01*
X022408Y014264D01*
X022386Y014249D01*
X022361Y014239D01*
X022335Y014233D01*
X022294Y014230D01*
X022263Y014233D02*
X022332Y014233D01*
X022367Y014241D02*
X022230Y014241D01*
X022208Y014250D02*
X022387Y014250D01*
X022399Y014258D02*
X022195Y014258D01*
X022186Y014267D02*
X022411Y014267D01*
X022420Y014275D02*
X022179Y014275D01*
X022173Y014284D02*
X022428Y014284D01*
X022437Y014292D02*
X022167Y014292D01*
X022161Y014301D02*
X022443Y014301D01*
X022449Y014309D02*
X022157Y014309D01*
X022152Y014318D02*
X022265Y014318D01*
X022268Y014309D02*
X022275Y014309D01*
X022285Y014318D02*
X022455Y014318D01*
X022461Y014326D02*
X022310Y014326D01*
X022300Y014318D02*
X022255Y014318D01*
X022250Y014326D02*
X022325Y014326D01*
X022336Y014335D02*
X022465Y014335D01*
X022470Y014343D02*
X022361Y014343D01*
X022351Y014335D02*
X022246Y014335D01*
X022256Y014335D02*
X022144Y014335D01*
X022141Y014343D02*
X022251Y014343D01*
X022246Y014352D02*
X022138Y014352D01*
X022135Y014360D02*
X022242Y014360D01*
X022237Y014369D02*
X022132Y014369D01*
X022128Y014377D02*
X022232Y014377D01*
X022228Y014386D02*
X022125Y014386D01*
X022123Y014394D02*
X022223Y014394D01*
X022219Y014403D02*
X022121Y014403D01*
X022119Y014411D02*
X022214Y014411D01*
X022209Y014420D02*
X022117Y014420D01*
X022115Y014428D02*
X022205Y014428D01*
X022200Y014437D02*
X022113Y014437D01*
X022111Y014445D02*
X022195Y014445D01*
X022191Y014454D02*
X022109Y014454D01*
X022108Y014462D02*
X022186Y014462D01*
X022181Y014471D02*
X022106Y014471D01*
X022104Y014479D02*
X022177Y014479D01*
X022172Y014488D02*
X022102Y014488D01*
X022101Y014496D02*
X022167Y014496D01*
X022162Y014505D02*
X022099Y014505D01*
X022097Y014513D02*
X022157Y014513D01*
X022152Y014522D02*
X022096Y014522D01*
X022094Y014530D02*
X022146Y014530D01*
X022141Y014539D02*
X022092Y014539D01*
X022089Y014547D02*
X022136Y014547D01*
X022131Y014556D02*
X022086Y014556D01*
X022083Y014564D02*
X022126Y014564D01*
X022121Y014573D02*
X022080Y014573D01*
X022074Y014581D02*
X022116Y014581D01*
X022111Y014590D02*
X022069Y014590D01*
X022064Y014598D02*
X022106Y014598D01*
X022101Y014607D02*
X022055Y014607D01*
X022041Y014615D02*
X022096Y014615D01*
X022091Y014624D02*
X021941Y014624D01*
X021949Y014624D02*
X021864Y014624D01*
X021866Y014632D02*
X021952Y014632D01*
X021943Y014632D02*
X022086Y014632D01*
X022081Y014641D02*
X021946Y014641D01*
X021948Y014649D02*
X022076Y014649D01*
X022063Y014641D02*
X022194Y014641D01*
X022192Y014649D02*
X022015Y014649D01*
X022041Y014658D02*
X021950Y014658D01*
X021952Y014666D02*
X021992Y014666D01*
X021967Y014658D02*
X022190Y014658D01*
X022187Y014666D02*
X021877Y014666D01*
X021874Y014658D02*
X021960Y014658D01*
X021957Y014649D02*
X021871Y014649D01*
X021869Y014641D02*
X021954Y014641D01*
X021947Y014615D02*
X021861Y014615D01*
X021860Y014607D02*
X021944Y014607D01*
X021937Y014607D02*
X021983Y014607D01*
X021975Y014598D02*
X021935Y014598D01*
X021942Y014598D02*
X021859Y014598D01*
X021858Y014590D02*
X021939Y014590D01*
X021932Y014590D02*
X021970Y014590D01*
X021966Y014581D02*
X021930Y014581D01*
X021937Y014581D02*
X021857Y014581D01*
X021856Y014573D02*
X021934Y014573D01*
X021928Y014573D02*
X021963Y014573D01*
X021961Y014564D02*
X021926Y014564D01*
X021931Y014564D02*
X021855Y014564D01*
X021854Y014556D02*
X021929Y014556D01*
X021923Y014556D02*
X021960Y014556D01*
X021959Y014547D02*
X021921Y014547D01*
X021926Y014547D02*
X021854Y014547D01*
X021854Y014539D02*
X021924Y014539D01*
X021919Y014539D02*
X021958Y014539D01*
X021958Y014530D02*
X021917Y014530D01*
X021921Y014530D02*
X021854Y014530D01*
X021854Y014522D02*
X021919Y014522D01*
X021915Y014522D02*
X021957Y014522D01*
X021958Y014513D02*
X021912Y014513D01*
X021916Y014513D02*
X021854Y014513D01*
X021854Y014505D02*
X021917Y014505D01*
X021912Y014505D02*
X021958Y014505D01*
X021958Y014496D02*
X021914Y014496D01*
X021919Y014496D02*
X021854Y014496D01*
X021854Y014488D02*
X021922Y014488D01*
X021917Y014488D02*
X021959Y014488D01*
X021960Y014479D02*
X021919Y014479D01*
X021925Y014479D02*
X021854Y014479D01*
X021855Y014471D02*
X021928Y014471D01*
X021922Y014471D02*
X021962Y014471D01*
X021964Y014462D02*
X021924Y014462D01*
X021930Y014462D02*
X021856Y014462D01*
X021857Y014454D02*
X021933Y014454D01*
X021927Y014454D02*
X021967Y014454D01*
X021982Y014428D02*
X021934Y014428D01*
X021941Y014428D02*
X021860Y014428D01*
X021862Y014420D02*
X021944Y014420D01*
X021937Y014420D02*
X021990Y014420D01*
X022001Y014411D02*
X021939Y014411D01*
X021947Y014411D02*
X021864Y014411D01*
X021867Y014403D02*
X021949Y014403D01*
X021942Y014403D02*
X022017Y014403D01*
X022042Y014394D02*
X021944Y014394D01*
X021952Y014394D02*
X021869Y014394D01*
X021871Y014386D02*
X021955Y014386D01*
X021946Y014386D02*
X022042Y014386D01*
X022042Y014377D02*
X021949Y014377D01*
X021957Y014377D02*
X021874Y014377D01*
X021878Y014369D02*
X021960Y014369D01*
X021951Y014369D02*
X022042Y014369D01*
X022042Y014360D02*
X021954Y014360D01*
X021956Y014352D02*
X022042Y014352D01*
X022042Y014343D02*
X021959Y014343D01*
X021961Y014335D02*
X022042Y014335D01*
X022042Y014326D02*
X021965Y014326D01*
X021970Y014318D02*
X022042Y014318D01*
X022042Y014309D02*
X021975Y014309D01*
X021981Y014301D02*
X022042Y014301D01*
X022042Y014292D02*
X021986Y014292D01*
X021991Y014284D02*
X022042Y014284D01*
X022042Y014275D02*
X021997Y014275D01*
X022002Y014267D02*
X022042Y014267D01*
X022042Y014258D02*
X022008Y014258D01*
X022006Y014250D02*
X022012Y014250D01*
X022013Y014250D02*
X022042Y014250D01*
X022025Y014267D02*
X021965Y014267D01*
X021950Y014275D02*
X022019Y014275D01*
X022013Y014284D02*
X021938Y014284D01*
X021928Y014292D02*
X022006Y014292D01*
X022000Y014301D02*
X021920Y014301D01*
X021914Y014309D02*
X021994Y014309D01*
X021987Y014318D02*
X021907Y014318D01*
X021900Y014326D02*
X021981Y014326D01*
X021975Y014335D02*
X021894Y014335D01*
X021890Y014343D02*
X021969Y014343D01*
X021966Y014352D02*
X021886Y014352D01*
X021882Y014360D02*
X021963Y014360D01*
X021984Y014258D02*
X022019Y014258D01*
X022147Y014326D02*
X022260Y014326D01*
X022241Y014343D02*
X022376Y014343D01*
X022386Y014352D02*
X022474Y014352D01*
X022478Y014360D02*
X022397Y014360D01*
X022404Y014360D02*
X022231Y014360D01*
X022236Y014352D02*
X022401Y014352D01*
X022399Y014369D02*
X022481Y014369D01*
X022483Y014377D02*
X022401Y014377D01*
X022408Y014377D02*
X022221Y014377D01*
X022226Y014369D02*
X022406Y014369D01*
X022403Y014386D02*
X022485Y014386D01*
X022488Y014394D02*
X022405Y014394D01*
X022411Y014394D02*
X022340Y014394D01*
X022355Y014403D02*
X022413Y014403D01*
X022407Y014403D02*
X022490Y014403D01*
X022491Y014411D02*
X022409Y014411D01*
X022415Y014411D02*
X022364Y014411D01*
X022371Y014420D02*
X022417Y014420D01*
X022411Y014420D02*
X022492Y014420D01*
X022494Y014428D02*
X022413Y014428D01*
X022419Y014428D02*
X022377Y014428D01*
X022382Y014437D02*
X022421Y014437D01*
X022414Y014437D02*
X022495Y014437D01*
X022496Y014445D02*
X022416Y014445D01*
X022423Y014445D02*
X022385Y014445D01*
X022391Y014471D02*
X022428Y014471D01*
X022422Y014471D02*
X022498Y014471D01*
X022498Y014479D02*
X022424Y014479D01*
X022430Y014479D02*
X022392Y014479D01*
X022393Y014488D02*
X022432Y014488D01*
X022426Y014488D02*
X022498Y014488D01*
X022499Y014496D02*
X022428Y014496D01*
X022434Y014496D02*
X022393Y014496D01*
X022393Y014505D02*
X022436Y014505D01*
X022430Y014505D02*
X022499Y014505D01*
X022499Y014513D02*
X022429Y014513D01*
X022438Y014513D02*
X022393Y014513D01*
X022393Y014522D02*
X022434Y014522D01*
X022425Y014522D02*
X022498Y014522D01*
X022497Y014530D02*
X022421Y014530D01*
X022429Y014530D02*
X022393Y014530D01*
X022393Y014539D02*
X022425Y014539D01*
X022417Y014539D02*
X022497Y014539D01*
X022496Y014547D02*
X022413Y014547D01*
X022420Y014547D02*
X022392Y014547D01*
X022391Y014556D02*
X022416Y014556D01*
X022408Y014556D02*
X022496Y014556D01*
X022495Y014564D02*
X022404Y014564D01*
X022412Y014564D02*
X022389Y014564D01*
X022386Y014573D02*
X022407Y014573D01*
X022400Y014573D02*
X022494Y014573D01*
X022494Y014581D02*
X022396Y014581D01*
X022403Y014581D02*
X022383Y014581D01*
X022378Y014590D02*
X022398Y014590D01*
X022392Y014590D02*
X022493Y014590D01*
X022493Y014598D02*
X022387Y014598D01*
X022394Y014598D02*
X022373Y014598D01*
X022367Y014607D02*
X022389Y014607D01*
X022383Y014607D02*
X022492Y014607D01*
X022490Y014615D02*
X022379Y014615D01*
X022385Y014615D02*
X022359Y014615D01*
X022350Y014624D02*
X022380Y014624D01*
X022375Y014624D02*
X022488Y014624D01*
X022486Y014632D02*
X022370Y014632D01*
X022376Y014632D02*
X022337Y014632D01*
X022315Y014641D02*
X022371Y014641D01*
X022366Y014641D02*
X022484Y014641D01*
X022481Y014649D02*
X022362Y014649D01*
X022367Y014649D02*
X022290Y014649D01*
X022290Y014658D02*
X022362Y014658D01*
X022358Y014658D02*
X022477Y014658D01*
X022473Y014666D02*
X022354Y014666D01*
X022358Y014666D02*
X022290Y014666D01*
X022290Y014675D02*
X022353Y014675D01*
X022349Y014675D02*
X022469Y014675D01*
X022464Y014683D02*
X022345Y014683D01*
X022349Y014683D02*
X022290Y014683D01*
X022290Y014692D02*
X022344Y014692D01*
X022341Y014692D02*
X022459Y014692D01*
X022453Y014700D02*
X022337Y014700D01*
X022340Y014700D02*
X022290Y014700D01*
X022290Y014709D02*
X022335Y014709D01*
X022333Y014709D02*
X022448Y014709D01*
X022442Y014717D02*
X022328Y014717D01*
X022331Y014717D02*
X022290Y014717D01*
X022290Y014726D02*
X022326Y014726D01*
X022324Y014726D02*
X022437Y014726D01*
X022429Y014734D02*
X022320Y014734D01*
X022322Y014734D02*
X022290Y014734D01*
X022290Y014743D02*
X022317Y014743D01*
X022316Y014743D02*
X022422Y014743D01*
X022412Y014751D02*
X022312Y014751D01*
X022313Y014751D02*
X022290Y014751D01*
X022290Y014760D02*
X022309Y014760D01*
X022307Y014760D02*
X022402Y014760D01*
X022386Y014768D02*
X022303Y014768D01*
X022304Y014768D02*
X022290Y014768D01*
X022290Y014777D02*
X022300Y014777D01*
X022299Y014777D02*
X022366Y014777D01*
X022341Y014785D02*
X022295Y014785D01*
X022290Y014785D01*
X022290Y014794D02*
X022291Y014794D01*
X022305Y014794D01*
X022162Y014717D02*
X021903Y014717D01*
X021898Y014709D02*
X022167Y014709D01*
X022172Y014700D02*
X021894Y014700D01*
X021890Y014692D02*
X022177Y014692D01*
X022180Y014683D02*
X021885Y014683D01*
X021881Y014675D02*
X022183Y014675D01*
X022196Y014632D02*
X022072Y014632D01*
X022077Y014624D02*
X022198Y014624D01*
X022200Y014615D02*
X022082Y014615D01*
X022087Y014607D02*
X022202Y014607D01*
X022204Y014598D02*
X022092Y014598D01*
X022097Y014590D02*
X022206Y014590D01*
X022208Y014581D02*
X022102Y014581D01*
X022107Y014573D02*
X022210Y014573D01*
X022212Y014564D02*
X022112Y014564D01*
X022117Y014556D02*
X022214Y014556D01*
X022216Y014547D02*
X022122Y014547D01*
X022127Y014539D02*
X022218Y014539D01*
X022220Y014530D02*
X022132Y014530D01*
X022137Y014522D02*
X022222Y014522D01*
X022224Y014513D02*
X022142Y014513D01*
X022147Y014505D02*
X022226Y014505D01*
X022228Y014496D02*
X022152Y014496D01*
X022157Y014488D02*
X022231Y014488D01*
X022233Y014479D02*
X022161Y014479D01*
X022166Y014471D02*
X022235Y014471D01*
X022239Y014462D02*
X022171Y014462D01*
X022176Y014454D02*
X022242Y014454D01*
X022246Y014445D02*
X022181Y014445D01*
X022186Y014437D02*
X022249Y014437D01*
X022253Y014428D02*
X022191Y014428D01*
X022196Y014420D02*
X022258Y014420D01*
X022264Y014411D02*
X022201Y014411D01*
X022206Y014403D02*
X022274Y014403D01*
X022289Y014394D02*
X022211Y014394D01*
X022216Y014386D02*
X022410Y014386D01*
X022157Y014726D02*
X021910Y014726D01*
X021916Y014734D02*
X022150Y014734D01*
X022143Y014743D02*
X021926Y014743D01*
X021936Y014751D02*
X022135Y014751D01*
X022125Y014760D02*
X021951Y014760D01*
X021974Y014768D02*
X022111Y014768D01*
X022088Y014777D02*
X022004Y014777D01*
X021996Y014615D02*
X021939Y014615D01*
X021723Y012312D02*
X022489Y012312D01*
X022489Y012303D02*
X021718Y012303D01*
X021713Y012295D02*
X022489Y012295D01*
X022489Y012286D02*
X021708Y012286D01*
X021704Y012278D02*
X022489Y012278D01*
X022489Y012269D02*
X021699Y012269D01*
X021694Y012261D02*
X022489Y012261D01*
X022489Y012252D02*
X021689Y012252D01*
X021684Y012244D02*
X022489Y012244D01*
X022489Y012235D02*
X021679Y012235D01*
X021674Y012227D02*
X022489Y012227D01*
X022489Y012218D02*
X021670Y012218D01*
X021665Y012210D02*
X022489Y012210D01*
X022489Y012201D02*
X021660Y012201D01*
X021655Y012193D02*
X022489Y012193D01*
X022489Y012184D02*
X021650Y012184D01*
X021645Y012176D02*
X022489Y012176D01*
X022489Y012167D02*
X021641Y012167D01*
X021636Y012159D02*
X022489Y012159D01*
X022488Y010415D02*
X022146Y010415D01*
X022104Y010165D02*
X022082Y010166D01*
X022061Y010171D01*
X022041Y010178D01*
X022021Y010188D01*
X022024Y010187D02*
X021855Y010187D01*
X021855Y010195D02*
X022012Y010195D01*
X022002Y010204D02*
X021855Y010204D01*
X021855Y010212D02*
X021995Y010212D01*
X021990Y010221D02*
X021855Y010221D01*
X021854Y010229D02*
X021985Y010229D01*
X021982Y010238D02*
X021854Y010238D01*
X021854Y010246D02*
X021980Y010246D01*
X021979Y010255D02*
X021855Y010255D01*
X021857Y010263D02*
X021979Y010263D01*
X021980Y010272D02*
X021858Y010272D01*
X021859Y010280D02*
X021980Y010280D01*
X021980Y010289D02*
X021861Y010289D01*
X021864Y010297D02*
X021981Y010297D01*
X021979Y010260D02*
X021980Y010247D01*
X021983Y010234D01*
X021897Y010363D02*
X021913Y010381D01*
X021932Y010397D01*
X021980Y010017D02*
X022009Y010010D01*
X022039Y010006D01*
X022069Y010004D01*
X022484Y010004D01*
X022484Y010165D01*
X022104Y010165D01*
X022068Y010170D02*
X021856Y010170D01*
X021856Y010178D02*
X022041Y010178D01*
X021981Y010017D02*
X021960Y010024D01*
X021940Y010034D01*
X021921Y010047D01*
X021905Y010062D01*
X021908Y010059D02*
X022484Y010059D01*
X022484Y010051D02*
X021918Y010051D01*
X021929Y010042D02*
X022484Y010042D01*
X022484Y010034D02*
X021943Y010034D01*
X021960Y010025D02*
X022484Y010025D01*
X022484Y010017D02*
X021983Y010017D01*
X022022Y010008D02*
X022484Y010008D01*
X022484Y010068D02*
X021901Y010068D01*
X021894Y010076D02*
X022484Y010076D01*
X022484Y010085D02*
X021887Y010085D01*
X021881Y010093D02*
X022484Y010093D01*
X022484Y010102D02*
X021877Y010102D01*
X021873Y010110D02*
X022484Y010110D01*
X022484Y010119D02*
X021869Y010119D01*
X021865Y010127D02*
X022484Y010127D01*
X022484Y010136D02*
X021863Y010136D01*
X021861Y010144D02*
X022484Y010144D01*
X022484Y010153D02*
X021859Y010153D01*
X021857Y010161D02*
X022484Y010161D01*
X021855Y010167D02*
X021853Y010206D01*
X021854Y010246D01*
X021857Y010167D02*
X021861Y010144D01*
X021867Y010122D01*
X021877Y010100D01*
X021890Y010080D01*
X021906Y010063D01*
X021854Y010246D02*
X021857Y010271D01*
X021863Y010296D01*
X021871Y010319D01*
X021883Y010342D01*
X021897Y010362D01*
X021983Y010235D02*
X021990Y010221D01*
X021998Y010208D01*
X022009Y010198D01*
X022021Y010189D01*
X022057Y010403D02*
X022077Y010409D01*
X022098Y010413D01*
X022119Y010415D01*
X022006Y010367D02*
X021996Y010353D01*
X021988Y010338D01*
X021983Y010322D01*
X021981Y010304D01*
X022006Y010367D02*
X022021Y010382D01*
X022038Y010394D01*
X022057Y010403D01*
X022114Y009667D02*
X022055Y009655D01*
X022000Y009633D01*
X021950Y009600D01*
X021907Y009558D01*
X021873Y009509D01*
X021849Y009454D01*
X021836Y009395D01*
X021835Y009334D01*
X021842Y009278D01*
X021855Y009222D01*
X021873Y009176D01*
X021900Y009136D01*
X021936Y009102D01*
X021978Y009077D01*
X022023Y009060D01*
X022071Y009051D01*
X022071Y009216D01*
X022070Y009216D01*
X022046Y009219D01*
X022024Y009227D01*
X022004Y009240D01*
X021987Y009257D01*
X021975Y009277D01*
X021964Y009309D01*
X021961Y009343D01*
X021964Y009377D01*
X021971Y009410D01*
X021979Y009427D01*
X021991Y009442D01*
X022028Y009470D01*
X022069Y009490D01*
X022113Y009502D01*
X022159Y009506D01*
X022221Y009501D01*
X022282Y009487D01*
X022311Y009474D01*
X022337Y009455D01*
X022357Y009430D01*
X022370Y009401D01*
X022377Y009369D01*
X022379Y009337D01*
X022376Y009313D01*
X022369Y009290D01*
X022358Y009268D01*
X022344Y009250D01*
X022326Y009235D01*
X022302Y009222D01*
X022276Y009213D01*
X022249Y009209D01*
X022249Y009049D01*
X022251Y009049D01*
X022270Y009050D01*
X022288Y009054D01*
X022343Y009075D01*
X022392Y009107D01*
X022434Y009149D01*
X022466Y009198D01*
X022484Y009241D01*
X022495Y009286D01*
X022367Y009286D01*
X022370Y009294D02*
X022496Y009294D01*
X022495Y009286D02*
X022499Y009333D01*
X022495Y009395D01*
X022484Y009457D01*
X022470Y009499D01*
X022449Y009538D01*
X022422Y009574D01*
X022390Y009604D01*
X022350Y009631D01*
X022306Y009651D01*
X022045Y009651D01*
X022025Y009643D02*
X022325Y009643D01*
X022343Y009634D02*
X022004Y009634D01*
X021989Y009626D02*
X022358Y009626D01*
X022370Y009617D02*
X021977Y009617D01*
X021964Y009609D02*
X022383Y009609D01*
X022394Y009600D02*
X021951Y009600D01*
X021942Y009592D02*
X022403Y009592D01*
X022412Y009583D02*
X021933Y009583D01*
X021924Y009575D02*
X022421Y009575D01*
X022428Y009566D02*
X021916Y009566D01*
X021907Y009558D02*
X022435Y009558D01*
X022441Y009549D02*
X021901Y009549D01*
X021895Y009541D02*
X022448Y009541D01*
X022453Y009532D02*
X021889Y009532D01*
X021883Y009524D02*
X022457Y009524D01*
X022462Y009515D02*
X021877Y009515D01*
X021872Y009507D02*
X022466Y009507D01*
X022470Y009498D02*
X022233Y009498D01*
X022270Y009490D02*
X022473Y009490D01*
X022476Y009481D02*
X022295Y009481D01*
X022313Y009473D02*
X022479Y009473D01*
X022482Y009464D02*
X022324Y009464D01*
X022335Y009456D02*
X022484Y009456D01*
X022486Y009447D02*
X022343Y009447D01*
X022349Y009439D02*
X022487Y009439D01*
X022489Y009430D02*
X022356Y009430D01*
X022360Y009422D02*
X022490Y009422D01*
X022492Y009413D02*
X022364Y009413D01*
X022368Y009405D02*
X022493Y009405D01*
X022495Y009396D02*
X022371Y009396D01*
X022373Y009388D02*
X022496Y009388D01*
X022496Y009379D02*
X022375Y009379D01*
X022377Y009371D02*
X022497Y009371D01*
X022497Y009362D02*
X022378Y009362D01*
X022378Y009354D02*
X022498Y009354D01*
X022498Y009345D02*
X022379Y009345D01*
X022379Y009337D02*
X022499Y009337D01*
X022499Y009328D02*
X022378Y009328D01*
X022377Y009320D02*
X022498Y009320D01*
X022497Y009311D02*
X022376Y009311D01*
X022373Y009303D02*
X022497Y009303D01*
X022493Y009277D02*
X022363Y009277D01*
X022358Y009269D02*
X022491Y009269D01*
X022489Y009260D02*
X022352Y009260D01*
X022345Y009252D02*
X022487Y009252D01*
X022485Y009243D02*
X022336Y009243D01*
X022325Y009235D02*
X022481Y009235D01*
X022478Y009226D02*
X022310Y009226D01*
X022289Y009218D02*
X022474Y009218D01*
X022471Y009209D02*
X022250Y009209D01*
X022249Y009201D02*
X022467Y009201D01*
X022462Y009192D02*
X022249Y009192D01*
X022249Y009184D02*
X022457Y009184D01*
X022451Y009175D02*
X022249Y009175D01*
X022249Y009167D02*
X022445Y009167D01*
X022440Y009158D02*
X022249Y009158D01*
X022249Y009150D02*
X022434Y009150D01*
X022426Y009141D02*
X022249Y009141D01*
X022249Y009133D02*
X022417Y009133D01*
X022409Y009124D02*
X022249Y009124D01*
X022249Y009116D02*
X022400Y009116D01*
X022392Y009107D02*
X022249Y009107D01*
X022249Y009099D02*
X022378Y009099D01*
X022365Y009090D02*
X022249Y009090D01*
X022249Y009082D02*
X022352Y009082D01*
X022337Y009073D02*
X022249Y009073D01*
X022249Y009065D02*
X022315Y009065D01*
X022293Y009056D02*
X022249Y009056D01*
X022265Y008980D02*
X022078Y008980D01*
X022115Y008988D02*
X022211Y008988D01*
X022156Y008997D02*
X022152Y008997D01*
X022154Y008997D02*
X022014Y008965D01*
X021907Y008881D01*
X021841Y008748D01*
X021834Y008690D01*
X021834Y008688D01*
X021836Y008683D01*
X021951Y008683D01*
X021957Y008727D01*
X021983Y008774D01*
X022027Y008806D01*
X022063Y008822D01*
X022122Y008833D01*
X022196Y008835D01*
X022246Y008828D01*
X022292Y008813D01*
X022334Y008791D01*
X022375Y008724D01*
X022384Y008653D01*
X022360Y008582D01*
X022320Y008538D01*
X022271Y008516D01*
X022209Y008501D01*
X022152Y008501D01*
X022075Y008511D01*
X022010Y008541D01*
X021977Y008575D01*
X021956Y008614D01*
X021952Y008662D01*
X021952Y008666D01*
X021835Y008664D01*
X021845Y008585D01*
X021867Y008521D01*
X021921Y008443D01*
X021971Y008400D01*
X022063Y008359D01*
X022149Y008348D01*
X022232Y008358D01*
X022329Y008385D01*
X022380Y008417D01*
X022425Y008464D01*
X022456Y008508D01*
X022481Y008581D01*
X022491Y008680D01*
X022475Y008798D01*
X022405Y008910D01*
X022307Y008973D01*
X022154Y008997D01*
X022084Y008517D02*
X022117Y008511D01*
X022150Y008507D01*
X022183Y008506D01*
X022220Y008504D02*
X022453Y008504D01*
X022457Y008512D02*
X022255Y008512D01*
X022281Y008521D02*
X022460Y008521D01*
X022463Y008529D02*
X022300Y008529D01*
X022319Y008538D02*
X022466Y008538D01*
X022469Y008546D02*
X022327Y008546D01*
X022335Y008555D02*
X022472Y008555D01*
X022475Y008563D02*
X022343Y008563D01*
X022351Y008572D02*
X022478Y008572D01*
X022481Y008580D02*
X022358Y008580D01*
X022362Y008589D02*
X022482Y008589D01*
X022483Y008597D02*
X022365Y008597D01*
X022368Y008606D02*
X022483Y008606D01*
X022484Y008614D02*
X022371Y008614D01*
X022374Y008623D02*
X022485Y008623D01*
X022486Y008631D02*
X022377Y008631D01*
X022379Y008640D02*
X022487Y008640D01*
X022488Y008648D02*
X022382Y008648D01*
X022384Y008657D02*
X022489Y008657D01*
X022489Y008665D02*
X022382Y008665D01*
X022381Y008674D02*
X022490Y008674D01*
X022491Y008682D02*
X022380Y008682D01*
X022379Y008691D02*
X022490Y008691D01*
X022488Y008699D02*
X022378Y008699D01*
X022377Y008708D02*
X022487Y008708D01*
X022486Y008716D02*
X022376Y008716D01*
X022375Y008725D02*
X022485Y008725D01*
X022484Y008733D02*
X022369Y008733D01*
X022364Y008742D02*
X022483Y008742D01*
X022481Y008750D02*
X022359Y008750D01*
X022354Y008759D02*
X022480Y008759D01*
X022479Y008767D02*
X022349Y008767D01*
X022343Y008776D02*
X022478Y008776D01*
X022477Y008784D02*
X022338Y008784D01*
X022331Y008793D02*
X022476Y008793D01*
X022473Y008801D02*
X022315Y008801D01*
X022298Y008810D02*
X022468Y008810D01*
X022462Y008818D02*
X022276Y008818D01*
X022250Y008827D02*
X022457Y008827D01*
X022452Y008835D02*
X021884Y008835D01*
X021880Y008827D02*
X022088Y008827D01*
X022054Y008818D02*
X021876Y008818D01*
X021872Y008810D02*
X022035Y008810D01*
X022020Y008801D02*
X021867Y008801D01*
X021863Y008793D02*
X022009Y008793D01*
X021997Y008784D02*
X021859Y008784D01*
X021855Y008776D02*
X021985Y008776D01*
X021979Y008767D02*
X021850Y008767D01*
X021846Y008759D02*
X021974Y008759D01*
X021970Y008750D02*
X021842Y008750D01*
X021840Y008742D02*
X021965Y008742D01*
X021960Y008733D02*
X021839Y008733D01*
X021838Y008725D02*
X021957Y008725D01*
X021956Y008716D02*
X021837Y008716D01*
X021836Y008708D02*
X021954Y008708D01*
X021953Y008699D02*
X021835Y008699D01*
X021834Y008691D02*
X021952Y008691D01*
X021958Y008687D02*
X021958Y008678D01*
X021831Y008678D01*
X021831Y008670D02*
X021831Y008664D01*
X021831Y008670D02*
X021956Y008670D01*
X021952Y008665D02*
X021901Y008665D01*
X021952Y008657D02*
X021836Y008657D01*
X021837Y008648D02*
X021953Y008648D01*
X021954Y008640D02*
X021838Y008640D01*
X021839Y008631D02*
X021955Y008631D01*
X021955Y008623D02*
X021840Y008623D01*
X021841Y008614D02*
X021956Y008614D01*
X021961Y008606D02*
X021842Y008606D01*
X021843Y008597D02*
X021965Y008597D01*
X021970Y008589D02*
X021845Y008589D01*
X021847Y008580D02*
X021974Y008580D01*
X021980Y008572D02*
X021850Y008572D01*
X021853Y008563D02*
X021989Y008563D01*
X021997Y008555D02*
X021855Y008555D01*
X021858Y008546D02*
X022005Y008546D01*
X022017Y008538D02*
X021861Y008538D01*
X021864Y008529D02*
X022036Y008529D01*
X022054Y008521D02*
X021867Y008521D01*
X021873Y008512D02*
X022073Y008512D01*
X022132Y008504D02*
X021879Y008504D01*
X021885Y008495D02*
X022447Y008495D01*
X022441Y008487D02*
X021891Y008487D01*
X021897Y008478D02*
X022435Y008478D01*
X022429Y008470D02*
X021903Y008470D01*
X021908Y008461D02*
X022422Y008461D01*
X022414Y008453D02*
X021914Y008453D01*
X021920Y008444D02*
X022406Y008444D01*
X022398Y008436D02*
X021930Y008436D01*
X021939Y008427D02*
X022390Y008427D01*
X022382Y008419D02*
X021949Y008419D01*
X021959Y008410D02*
X022369Y008410D01*
X022355Y008402D02*
X021969Y008402D01*
X021986Y008393D02*
X022342Y008393D01*
X022328Y008385D02*
X022006Y008385D01*
X022025Y008376D02*
X022297Y008376D01*
X022267Y008368D02*
X022044Y008368D01*
X022063Y008359D02*
X022236Y008359D01*
X022171Y008351D02*
X022129Y008351D01*
X022118Y008827D02*
X022151Y008829D01*
X022183Y008829D01*
X022215Y008826D01*
X022305Y008537D02*
X022277Y008524D01*
X022246Y008514D01*
X022215Y008508D01*
X022183Y008506D01*
X022243Y008992D02*
X022205Y008997D01*
X022167Y008998D01*
X022129Y008996D01*
X022092Y008991D01*
X022041Y008971D02*
X022310Y008971D01*
X022323Y008963D02*
X022011Y008963D01*
X022000Y008954D02*
X022336Y008954D01*
X022350Y008946D02*
X021989Y008946D01*
X021979Y008937D02*
X022363Y008937D01*
X022376Y008929D02*
X021968Y008929D01*
X021957Y008920D02*
X022389Y008920D01*
X022402Y008912D02*
X021946Y008912D01*
X021935Y008903D02*
X022409Y008903D01*
X022415Y008895D02*
X021924Y008895D01*
X021914Y008886D02*
X022420Y008886D01*
X022425Y008878D02*
X021905Y008878D01*
X021901Y008869D02*
X022431Y008869D01*
X022436Y008861D02*
X021897Y008861D01*
X021893Y008852D02*
X022441Y008852D01*
X022446Y008844D02*
X021888Y008844D01*
X022498Y008681D02*
X022497Y008645D01*
X022493Y008609D01*
X022486Y008574D01*
X022476Y008539D01*
X022359Y008594D02*
X022349Y008577D01*
X022336Y008561D01*
X022321Y008548D01*
X022305Y008537D01*
X022322Y008376D02*
X022349Y008388D01*
X022374Y008403D01*
X022397Y008420D01*
X022418Y008440D01*
X022436Y008462D01*
X022453Y008486D01*
X022466Y008512D01*
X022477Y008539D01*
X022484Y008276D02*
X021852Y008276D01*
X021852Y008119D01*
X021939Y008119D01*
X021937Y008110D01*
X021920Y008097D01*
X021889Y008067D01*
X021865Y008037D01*
X021849Y008002D01*
X021839Y007959D01*
X021834Y007905D01*
X021837Y007867D01*
X021847Y007831D01*
X021863Y007800D01*
X021884Y007772D01*
X021911Y007749D01*
X021941Y007732D01*
X021941Y007730D01*
X021940Y007729D01*
X021936Y007725D01*
X021917Y007707D01*
X021887Y007676D01*
X021862Y007641D01*
X021847Y007609D01*
X021837Y007575D01*
X021835Y007540D01*
X021839Y007490D01*
X021849Y007440D01*
X021862Y007406D01*
X021882Y007375D01*
X021908Y007350D01*
X021945Y007327D01*
X021986Y007312D01*
X022029Y007305D01*
X022485Y007305D01*
X022485Y007472D01*
X022080Y007472D01*
X022044Y007476D01*
X022011Y007489D01*
X021995Y007500D01*
X021982Y007514D01*
X021972Y007531D01*
X021967Y007550D01*
X021964Y007587D01*
X021968Y007623D01*
X021973Y007640D01*
X021982Y007656D01*
X021994Y007669D01*
X022016Y007685D01*
X022040Y007696D01*
X022066Y007702D01*
X022110Y007705D01*
X022485Y007705D01*
X022485Y007875D01*
X022069Y007875D01*
X022042Y007878D01*
X022017Y007888D01*
X021994Y007903D01*
X021981Y007917D01*
X021835Y007917D01*
X021834Y007909D02*
X021989Y007909D01*
X021981Y007917D02*
X021971Y007935D01*
X021965Y007953D01*
X021964Y007973D01*
X021966Y008007D01*
X021969Y008025D01*
X021977Y008042D01*
X021988Y008057D01*
X022026Y008090D01*
X022048Y008102D01*
X022073Y008107D01*
X022098Y008106D01*
X022484Y008106D01*
X022484Y008276D01*
X022484Y008274D02*
X021852Y008274D01*
X021852Y008266D02*
X022484Y008266D01*
X022484Y008257D02*
X021852Y008257D01*
X021852Y008249D02*
X022484Y008249D01*
X022484Y008240D02*
X021852Y008240D01*
X021852Y008232D02*
X022484Y008232D01*
X022484Y008223D02*
X021852Y008223D01*
X021852Y008215D02*
X022484Y008215D01*
X022484Y008206D02*
X021852Y008206D01*
X021852Y008198D02*
X022484Y008198D01*
X022484Y008189D02*
X021852Y008189D01*
X021852Y008181D02*
X022484Y008181D01*
X022484Y008172D02*
X021852Y008172D01*
X021852Y008164D02*
X022484Y008164D01*
X022484Y008155D02*
X021852Y008155D01*
X021852Y008147D02*
X022484Y008147D01*
X022484Y008138D02*
X021852Y008138D01*
X021852Y008130D02*
X022484Y008130D01*
X022484Y008121D02*
X021852Y008121D01*
X021901Y008079D02*
X022013Y008079D01*
X022023Y008087D02*
X021910Y008087D01*
X021919Y008096D02*
X022037Y008096D01*
X022059Y008104D02*
X021929Y008104D01*
X021938Y008113D02*
X022484Y008113D01*
X022485Y007875D02*
X021836Y007875D01*
X021836Y007883D02*
X022029Y007883D01*
X022011Y007892D02*
X021835Y007892D01*
X021834Y007900D02*
X021998Y007900D01*
X021976Y007926D02*
X021836Y007926D01*
X021837Y007934D02*
X021971Y007934D01*
X021969Y007943D02*
X021837Y007943D01*
X021838Y007951D02*
X021966Y007951D01*
X021965Y007960D02*
X021839Y007960D01*
X021841Y007968D02*
X021964Y007968D01*
X021964Y007977D02*
X021843Y007977D01*
X021845Y007985D02*
X021965Y007985D01*
X021965Y007994D02*
X021847Y007994D01*
X021849Y008002D02*
X021966Y008002D01*
X021967Y008011D02*
X021853Y008011D01*
X021857Y008019D02*
X021968Y008019D01*
X021970Y008028D02*
X021861Y008028D01*
X021865Y008036D02*
X021974Y008036D01*
X021979Y008045D02*
X021871Y008045D01*
X021878Y008053D02*
X021985Y008053D01*
X021993Y008062D02*
X021885Y008062D01*
X021892Y008070D02*
X022003Y008070D01*
X021837Y007866D02*
X022485Y007866D01*
X022485Y007858D02*
X021839Y007858D01*
X021842Y007849D02*
X022485Y007849D01*
X022485Y007841D02*
X021844Y007841D01*
X021847Y007832D02*
X022485Y007832D01*
X022485Y007824D02*
X021851Y007824D01*
X021855Y007815D02*
X022485Y007815D01*
X022485Y007807D02*
X021859Y007807D01*
X021864Y007798D02*
X022485Y007798D01*
X022485Y007790D02*
X021871Y007790D01*
X021878Y007781D02*
X022485Y007781D01*
X022485Y007773D02*
X021884Y007773D01*
X021894Y007764D02*
X022485Y007764D01*
X022485Y007756D02*
X021904Y007756D01*
X021915Y007747D02*
X022485Y007747D01*
X022485Y007739D02*
X021930Y007739D01*
X021941Y007730D02*
X022485Y007730D01*
X022485Y007722D02*
X021932Y007722D01*
X021923Y007713D02*
X022485Y007713D01*
X022485Y007467D02*
X021844Y007467D01*
X021842Y007475D02*
X022055Y007475D01*
X022025Y007484D02*
X021840Y007484D01*
X021839Y007492D02*
X022006Y007492D01*
X021994Y007501D02*
X021838Y007501D01*
X021838Y007509D02*
X021987Y007509D01*
X021980Y007518D02*
X021837Y007518D01*
X021836Y007526D02*
X021975Y007526D01*
X021971Y007535D02*
X021835Y007535D01*
X021835Y007543D02*
X021969Y007543D01*
X021967Y007552D02*
X021836Y007552D01*
X021836Y007560D02*
X021966Y007560D01*
X021966Y007569D02*
X021837Y007569D01*
X021838Y007577D02*
X021965Y007577D01*
X021964Y007586D02*
X021840Y007586D01*
X021842Y007594D02*
X021965Y007594D01*
X021966Y007603D02*
X021845Y007603D01*
X021847Y007611D02*
X021967Y007611D01*
X021968Y007620D02*
X021852Y007620D01*
X021856Y007628D02*
X021970Y007628D01*
X021972Y007637D02*
X021860Y007637D01*
X021865Y007645D02*
X021976Y007645D01*
X021981Y007654D02*
X021871Y007654D01*
X021877Y007662D02*
X021988Y007662D01*
X021996Y007671D02*
X021883Y007671D01*
X021890Y007679D02*
X022008Y007679D01*
X022022Y007688D02*
X021898Y007688D01*
X021906Y007696D02*
X022041Y007696D01*
X022104Y007705D02*
X021915Y007705D01*
X021845Y007458D02*
X022485Y007458D01*
X022485Y007450D02*
X021847Y007450D01*
X021849Y007441D02*
X022485Y007441D01*
X022485Y007433D02*
X021852Y007433D01*
X021855Y007424D02*
X022485Y007424D01*
X022485Y007416D02*
X021858Y007416D01*
X021861Y007407D02*
X022485Y007407D01*
X022485Y007399D02*
X021867Y007399D01*
X021872Y007390D02*
X022485Y007390D01*
X022485Y007382D02*
X021878Y007382D01*
X021884Y007373D02*
X022485Y007373D01*
X022485Y007365D02*
X021893Y007365D01*
X021902Y007356D02*
X022485Y007356D01*
X022485Y007348D02*
X021912Y007348D01*
X021925Y007339D02*
X022485Y007339D01*
X022485Y007331D02*
X021939Y007331D01*
X021958Y007322D02*
X022485Y007322D01*
X022485Y007314D02*
X021981Y007314D01*
X022028Y007305D02*
X022485Y007305D01*
X022305Y008801D02*
X022284Y008811D01*
X022262Y008819D01*
X022239Y008825D01*
X022215Y008828D01*
X022322Y008376D02*
X022288Y008364D01*
X022254Y008355D01*
X022219Y008348D01*
X022183Y008344D01*
X022148Y008342D01*
X022006Y008785D02*
X022026Y008798D01*
X022048Y008810D01*
X022070Y008818D01*
X022094Y008824D01*
X022118Y008827D01*
X021991Y008566D02*
X022012Y008549D01*
X022034Y008535D01*
X022058Y008524D01*
X022083Y008516D01*
X021992Y008567D02*
X021982Y008580D01*
X021973Y008593D01*
X021966Y008608D01*
X021958Y008687D02*
X021959Y008706D01*
X021964Y008724D01*
X021971Y008742D01*
X021980Y008758D01*
X021992Y008772D01*
X022006Y008785D01*
X021879Y008844D02*
X021898Y008872D01*
X021919Y008897D01*
X021943Y008920D01*
X021969Y008941D01*
X021998Y008958D01*
X022028Y008973D01*
X022059Y008984D01*
X022092Y008991D01*
X022071Y009056D02*
X022045Y009056D01*
X022071Y009065D02*
X022012Y009065D01*
X021989Y009073D02*
X022071Y009073D01*
X022071Y009082D02*
X021970Y009082D01*
X021956Y009090D02*
X022071Y009090D01*
X022071Y009099D02*
X021942Y009099D01*
X021931Y009107D02*
X022071Y009107D01*
X022071Y009116D02*
X021922Y009116D01*
X021913Y009124D02*
X022071Y009124D01*
X022071Y009133D02*
X021904Y009133D01*
X021897Y009141D02*
X022071Y009141D01*
X022071Y009150D02*
X021891Y009150D01*
X021885Y009158D02*
X022071Y009158D01*
X022071Y009167D02*
X021880Y009167D01*
X021874Y009175D02*
X022071Y009175D01*
X022071Y009184D02*
X021870Y009184D01*
X021867Y009192D02*
X022071Y009192D01*
X022071Y009201D02*
X021863Y009201D01*
X021860Y009209D02*
X022071Y009209D01*
X022056Y009218D02*
X021857Y009218D01*
X021854Y009226D02*
X022025Y009226D01*
X022012Y009235D02*
X021852Y009235D01*
X021850Y009243D02*
X022000Y009243D01*
X021992Y009252D02*
X021848Y009252D01*
X021846Y009260D02*
X021985Y009260D01*
X021980Y009269D02*
X021844Y009269D01*
X021843Y009277D02*
X021975Y009277D01*
X021972Y009286D02*
X021841Y009286D01*
X021840Y009294D02*
X021969Y009294D01*
X021967Y009303D02*
X021839Y009303D01*
X021838Y009311D02*
X021964Y009311D01*
X021963Y009320D02*
X021837Y009320D01*
X021836Y009328D02*
X021962Y009328D01*
X021962Y009337D02*
X021835Y009337D01*
X021835Y009345D02*
X021961Y009345D01*
X021962Y009354D02*
X021835Y009354D01*
X021835Y009362D02*
X021963Y009362D01*
X021963Y009371D02*
X021836Y009371D01*
X021836Y009379D02*
X021964Y009379D01*
X021966Y009388D02*
X021836Y009388D01*
X021836Y009396D02*
X021968Y009396D01*
X021970Y009405D02*
X021838Y009405D01*
X021840Y009413D02*
X021972Y009413D01*
X021976Y009422D02*
X021842Y009422D01*
X021844Y009430D02*
X021981Y009430D01*
X021988Y009439D02*
X021846Y009439D01*
X021848Y009447D02*
X021998Y009447D01*
X022009Y009456D02*
X021850Y009456D01*
X021853Y009464D02*
X022020Y009464D01*
X022034Y009473D02*
X021857Y009473D01*
X021861Y009481D02*
X022051Y009481D01*
X022068Y009490D02*
X021865Y009490D01*
X021868Y009498D02*
X022098Y009498D01*
X022120Y010415D02*
X022146Y010415D01*
X022151Y009668D02*
X022227Y009668D01*
X022212Y009670D02*
X022114Y009667D01*
X022077Y009660D02*
X022276Y009660D01*
X022260Y009664D02*
X022212Y009670D01*
X022260Y009664D02*
X022306Y009651D01*
X022360Y008949D02*
X022382Y008935D01*
X022401Y008917D01*
X022419Y008898D01*
X022305Y008800D02*
X022321Y008789D01*
X022336Y008776D01*
X022349Y008761D01*
X022359Y008744D01*
X022367Y008726D01*
X022373Y008704D01*
X022376Y008682D01*
X022376Y008659D01*
X022373Y008637D01*
X022367Y008615D01*
X022359Y008594D01*
X022360Y008949D02*
X022332Y008964D01*
X022303Y008976D01*
X022273Y008985D01*
X022243Y008992D01*
X022419Y008898D02*
X022439Y008871D01*
X022456Y008842D01*
X022471Y008812D01*
X022482Y008780D01*
X022491Y008748D01*
X022496Y008715D01*
X022498Y008681D01*
X021842Y008576D02*
X021836Y008605D01*
X021832Y008634D01*
X021831Y008664D01*
X021842Y008576D02*
X021850Y008549D01*
X021861Y008522D01*
X021874Y008497D01*
X021890Y008472D01*
X021908Y008450D01*
X021932Y008426D01*
X021958Y008404D01*
X021986Y008385D01*
X022016Y008370D01*
X022048Y008357D01*
X022081Y008349D01*
X022114Y008344D01*
X022148Y008342D01*
X021831Y008678D02*
X021834Y008713D01*
X021841Y008747D01*
X021851Y008781D01*
X021864Y008813D01*
X021880Y008844D01*
X021956Y008670D02*
X021957Y008649D01*
X021960Y008628D01*
X021966Y008608D01*
X021932Y010396D02*
X021947Y010407D01*
D16*
X022393Y009810D03*
M02*
