G75*
G70*
%OFA0B0*%
%FSLAX24Y24*%
%IPPOS*%
%LPD*%
%AMOC8*
5,1,8,0,0,1.08239X$1,22.5*
%
%ADD10C,0.0070*%
%ADD11R,0.0276X0.0354*%
%ADD12R,0.0315X0.0315*%
%ADD13C,0.0000*%
%ADD14R,0.0630X0.0551*%
%ADD15R,0.0354X0.0276*%
%ADD16C,0.0740*%
%ADD17R,0.0551X0.0630*%
%ADD18R,0.0079X0.0591*%
%ADD19R,0.0591X0.0079*%
%ADD20R,0.0740X0.0740*%
%ADD21R,0.0250X0.0500*%
%ADD22R,0.0600X0.0300*%
%ADD23R,0.0276X0.0669*%
%ADD24R,0.0217X0.0472*%
%ADD25R,0.2283X0.2520*%
%ADD26R,0.0315X0.0866*%
%ADD27C,0.0250*%
%ADD28R,0.0709X0.0472*%
%ADD29R,0.0610X0.0236*%
%ADD30R,0.0870X0.0240*%
%ADD31C,0.0100*%
%ADD32R,0.1030X0.1030*%
%ADD33R,0.1969X0.0945*%
%ADD34R,0.1969X0.0630*%
%ADD35C,0.0500*%
%ADD36C,0.0350*%
%ADD37C,0.0240*%
%ADD38C,0.0160*%
%ADD39C,0.0400*%
%ADD40C,0.0330*%
%ADD41C,0.0080*%
%ADD42C,0.0320*%
%ADD43C,0.0200*%
D10*
X000330Y004500D02*
X000330Y019500D01*
X027330Y019500D01*
X027330Y004500D01*
X000330Y004500D01*
X001804Y004690D02*
X002050Y004896D01*
X002061Y004917D01*
X002093Y004841D01*
X002171Y004763D01*
X002274Y004720D01*
X002386Y004720D01*
X002489Y004763D01*
X002567Y004841D01*
X002610Y004944D01*
X002610Y005056D01*
X002567Y005159D01*
X002489Y005237D01*
X002386Y005280D01*
X002274Y005280D01*
X002227Y005260D01*
X002269Y005500D01*
X002213Y005821D01*
X002050Y006104D01*
X001800Y006313D01*
X001493Y006425D01*
X001167Y006425D01*
X000860Y006313D01*
X000610Y006104D01*
X000610Y006104D01*
X000610Y006104D01*
X000520Y005947D01*
X000520Y007091D01*
X000567Y007044D01*
X000644Y006967D01*
X000745Y006925D01*
X000790Y006925D01*
X000790Y006859D01*
X000881Y006768D01*
X001639Y006768D01*
X001730Y006859D01*
X001730Y006884D01*
X001981Y006884D01*
X002097Y006932D01*
X002169Y007004D01*
X002181Y007009D01*
X002271Y007099D01*
X002276Y007111D01*
X002487Y007322D01*
X002535Y007437D01*
X002535Y007525D01*
X002552Y007542D01*
X002552Y007946D01*
X002498Y008000D01*
X002552Y008054D01*
X002552Y008285D01*
X004671Y008285D01*
X004819Y008347D01*
X004848Y008375D01*
X004848Y008290D01*
X005146Y008290D01*
X005146Y008549D01*
X005021Y008549D01*
X005513Y009041D01*
X005575Y009189D01*
X005575Y009325D01*
X005603Y009325D01*
X005694Y009416D01*
X005694Y010411D01*
X005603Y010501D01*
X005159Y010501D01*
X005157Y010499D01*
X005154Y010501D01*
X004711Y010501D01*
X004630Y010421D01*
X004601Y010491D01*
X004511Y010581D01*
X004394Y010630D01*
X004266Y010630D01*
X004149Y010581D01*
X004088Y010520D01*
X004058Y010550D01*
X004112Y010604D01*
X004112Y010985D01*
X004119Y010979D01*
X004236Y010930D01*
X004364Y010930D01*
X004481Y010979D01*
X004553Y011050D01*
X004624Y010979D01*
X007036Y010979D01*
X007127Y011070D01*
X007127Y013296D01*
X007159Y013219D01*
X007249Y013129D01*
X007357Y013084D01*
X007418Y013023D01*
X007519Y012981D01*
X007533Y012981D01*
X007529Y012977D01*
X007508Y012942D01*
X007498Y012902D01*
X007498Y012778D01*
X007796Y012778D01*
X007796Y012710D01*
X007498Y012710D01*
X007498Y012586D01*
X007508Y012546D01*
X007529Y012511D01*
X007540Y012500D01*
X007498Y012458D01*
X007498Y012054D01*
X007552Y012000D01*
X007498Y011946D01*
X007498Y011542D01*
X007555Y011485D01*
X007555Y011165D01*
X007544Y011170D01*
X007416Y011170D01*
X007299Y011121D01*
X007209Y011031D01*
X007160Y010914D01*
X007160Y010786D01*
X007209Y010669D01*
X007299Y010579D01*
X007416Y010530D01*
X007544Y010530D01*
X007652Y010575D01*
X007681Y010575D01*
X007681Y010569D01*
X007723Y010468D01*
X007812Y010379D01*
X007784Y010379D01*
X007693Y010289D01*
X007693Y009688D01*
X007784Y009597D01*
X008128Y009597D01*
X008219Y009688D01*
X008219Y010225D01*
X008441Y010225D01*
X008441Y010071D01*
X008429Y010043D01*
X008429Y009571D01*
X008471Y009470D01*
X008675Y009266D01*
X008594Y009300D01*
X008466Y009300D01*
X008406Y009275D01*
X008345Y009275D01*
X008288Y009332D01*
X007884Y009332D01*
X007830Y009278D01*
X007776Y009332D01*
X007372Y009332D01*
X007305Y009265D01*
X007035Y009265D01*
X007003Y009297D01*
X007003Y009379D01*
X007040Y009416D01*
X007040Y010411D01*
X006949Y010501D01*
X006506Y010501D01*
X006496Y010491D01*
X006457Y010501D01*
X006314Y010501D01*
X006314Y009948D01*
X006244Y009948D01*
X006244Y009878D01*
X006314Y009878D01*
X006314Y009325D01*
X006453Y009325D01*
X006453Y009314D01*
X006422Y009322D01*
X006298Y009322D01*
X006298Y009024D01*
X006230Y009024D01*
X006230Y008956D01*
X005971Y008956D01*
X005971Y008792D01*
X005982Y008753D01*
X006002Y008718D01*
X006031Y008689D01*
X006066Y008668D01*
X006106Y008658D01*
X006230Y008658D01*
X006230Y008956D01*
X006298Y008956D01*
X006298Y008658D01*
X006422Y008658D01*
X006462Y008668D01*
X006497Y008689D01*
X006520Y008712D01*
X006574Y008658D01*
X006978Y008658D01*
X007035Y008715D01*
X007325Y008715D01*
X007372Y008668D01*
X007776Y008668D01*
X007830Y008722D01*
X007884Y008668D01*
X008288Y008668D01*
X008339Y008719D01*
X008349Y008709D01*
X008385Y008694D01*
X008385Y008391D01*
X008373Y008403D01*
X007535Y008403D01*
X007445Y008312D01*
X007445Y007711D01*
X007535Y007621D01*
X008370Y007621D01*
X008370Y007318D01*
X008384Y007303D01*
X008370Y007289D01*
X008370Y006924D01*
X008384Y006909D01*
X008378Y006903D01*
X008164Y006903D01*
X008081Y006820D01*
X007966Y006820D01*
X007849Y006771D01*
X007759Y006681D01*
X007710Y006564D01*
X007710Y006436D01*
X007759Y006319D01*
X007849Y006229D01*
X007966Y006180D01*
X008041Y006180D01*
X007976Y006115D01*
X007282Y006115D01*
X007276Y006122D01*
X007290Y006137D01*
X007290Y006501D01*
X007271Y006520D01*
X007280Y006535D01*
X007290Y006574D01*
X007290Y006689D01*
X006854Y006689D01*
X006854Y006737D01*
X007290Y006737D01*
X007290Y006851D01*
X007280Y006891D01*
X007271Y006905D01*
X007290Y006924D01*
X007290Y007289D01*
X007276Y007303D01*
X007290Y007318D01*
X007290Y007682D01*
X007199Y007773D01*
X006463Y007773D01*
X006463Y008312D01*
X006373Y008403D01*
X005535Y008403D01*
X005512Y008380D01*
X005512Y008414D01*
X005502Y008454D01*
X005481Y008489D01*
X005452Y008518D01*
X005417Y008538D01*
X005378Y008549D01*
X005214Y008549D01*
X005214Y008290D01*
X005146Y008290D01*
X005146Y008222D01*
X004886Y008222D01*
X004878Y008230D01*
X002782Y008230D01*
X002691Y008139D01*
X002691Y007066D01*
X002782Y006975D01*
X004878Y006975D01*
X004969Y007066D01*
X004969Y007327D01*
X005207Y007327D01*
X005238Y007340D01*
X005274Y007340D01*
X005391Y007389D01*
X005481Y007479D01*
X005504Y007534D01*
X005512Y007542D01*
X005512Y007553D01*
X005530Y007596D01*
X005530Y007626D01*
X005535Y007621D01*
X006370Y007621D01*
X006370Y007381D01*
X005882Y007381D01*
X005781Y007339D01*
X005674Y007233D01*
X005597Y007156D01*
X005555Y007055D01*
X005555Y006114D01*
X004969Y005528D01*
X004969Y005619D01*
X004878Y005710D01*
X002782Y005710D01*
X002691Y005619D01*
X002691Y004861D01*
X002782Y004770D01*
X004878Y004770D01*
X004969Y004861D01*
X004969Y004965D01*
X005125Y004965D01*
X005226Y005007D01*
X005445Y005226D01*
X005445Y004719D01*
X005474Y004690D01*
X001804Y004690D01*
X001822Y004706D02*
X005458Y004706D01*
X005445Y004774D02*
X004882Y004774D01*
X004951Y004843D02*
X005445Y004843D01*
X005445Y004911D02*
X004969Y004911D01*
X005159Y004980D02*
X005445Y004980D01*
X005445Y005048D02*
X005267Y005048D01*
X005335Y005117D02*
X005445Y005117D01*
X005445Y005185D02*
X005404Y005185D01*
X005630Y005411D02*
X005986Y005767D01*
X006063Y005844D01*
X006105Y005945D01*
X006105Y006831D01*
X006370Y006831D01*
X006370Y006737D01*
X006806Y006737D01*
X006806Y006689D01*
X006370Y006689D01*
X006370Y006574D01*
X006380Y006535D01*
X006389Y006520D01*
X006370Y006501D01*
X006370Y006137D01*
X006384Y006122D01*
X006370Y006108D01*
X006370Y005743D01*
X006384Y005728D01*
X006370Y005714D01*
X006370Y005411D01*
X005630Y005411D01*
X005678Y005459D02*
X006370Y005459D01*
X006370Y005528D02*
X005746Y005528D01*
X005815Y005596D02*
X006370Y005596D01*
X006370Y005665D02*
X005883Y005665D01*
X005952Y005733D02*
X006380Y005733D01*
X006370Y005802D02*
X006020Y005802D01*
X006074Y005870D02*
X006370Y005870D01*
X006370Y005939D02*
X006102Y005939D01*
X006105Y006007D02*
X006370Y006007D01*
X006370Y006076D02*
X006105Y006076D01*
X006105Y006144D02*
X006370Y006144D01*
X006370Y006213D02*
X006105Y006213D01*
X006105Y006281D02*
X006370Y006281D01*
X006370Y006350D02*
X006105Y006350D01*
X006105Y006418D02*
X006370Y006418D01*
X006370Y006487D02*
X006105Y006487D01*
X006105Y006555D02*
X006375Y006555D01*
X006370Y006624D02*
X006105Y006624D01*
X006105Y006692D02*
X006806Y006692D01*
X006854Y006692D02*
X007769Y006692D01*
X007735Y006624D02*
X007290Y006624D01*
X007285Y006555D02*
X007710Y006555D01*
X007710Y006487D02*
X007290Y006487D01*
X007290Y006418D02*
X007718Y006418D01*
X007746Y006350D02*
X007290Y006350D01*
X007290Y006281D02*
X007796Y006281D01*
X007888Y006213D02*
X007290Y006213D01*
X007290Y006144D02*
X008005Y006144D01*
X008055Y005925D02*
X006830Y005925D01*
X006715Y005925D01*
X006705Y005915D01*
X006830Y005531D02*
X008011Y005531D01*
X008080Y005600D01*
X008055Y005925D02*
X008449Y006319D01*
X008830Y006319D01*
X008830Y006713D02*
X008243Y006713D01*
X008030Y006500D01*
X007838Y006761D02*
X007290Y006761D01*
X007290Y006829D02*
X008090Y006829D01*
X008159Y006898D02*
X007276Y006898D01*
X007290Y006966D02*
X008370Y006966D01*
X008370Y007035D02*
X007290Y007035D01*
X007290Y007103D02*
X008370Y007103D01*
X008370Y007172D02*
X007290Y007172D01*
X007290Y007240D02*
X008370Y007240D01*
X008379Y007309D02*
X007281Y007309D01*
X007290Y007377D02*
X008370Y007377D01*
X008370Y007446D02*
X007290Y007446D01*
X007290Y007514D02*
X008370Y007514D01*
X008370Y007583D02*
X007290Y007583D01*
X007290Y007651D02*
X007505Y007651D01*
X007445Y007720D02*
X007253Y007720D01*
X007445Y007788D02*
X006463Y007788D01*
X006463Y007857D02*
X007445Y007857D01*
X007445Y007925D02*
X006463Y007925D01*
X006463Y007994D02*
X007445Y007994D01*
X007445Y008062D02*
X006463Y008062D01*
X006463Y008131D02*
X007445Y008131D01*
X007445Y008199D02*
X006463Y008199D01*
X006463Y008268D02*
X007445Y008268D01*
X007468Y008336D02*
X006440Y008336D01*
X006479Y008679D02*
X006553Y008679D01*
X006298Y008679D02*
X006230Y008679D01*
X006230Y008747D02*
X006298Y008747D01*
X006298Y008816D02*
X006230Y008816D01*
X006230Y008884D02*
X006298Y008884D01*
X006298Y008953D02*
X006230Y008953D01*
X006230Y009021D02*
X005494Y009021D01*
X005534Y009090D02*
X005971Y009090D01*
X005971Y009024D02*
X006230Y009024D01*
X006230Y009322D01*
X006106Y009322D01*
X006066Y009312D01*
X006031Y009291D01*
X006002Y009262D01*
X005982Y009227D01*
X005971Y009188D01*
X005971Y009024D01*
X005971Y008953D02*
X005425Y008953D01*
X005357Y008884D02*
X005971Y008884D01*
X005971Y008816D02*
X005288Y008816D01*
X005220Y008747D02*
X005985Y008747D01*
X006049Y008679D02*
X005151Y008679D01*
X005083Y008610D02*
X008385Y008610D01*
X008385Y008542D02*
X005404Y008542D01*
X005490Y008473D02*
X008385Y008473D01*
X008385Y008405D02*
X005512Y008405D01*
X005214Y008405D02*
X005146Y008405D01*
X005146Y008473D02*
X005214Y008473D01*
X005214Y008542D02*
X005146Y008542D01*
X005146Y008336D02*
X005214Y008336D01*
X005146Y008268D02*
X002552Y008268D01*
X002552Y008199D02*
X002751Y008199D01*
X002691Y008131D02*
X002552Y008131D01*
X002552Y008062D02*
X002691Y008062D01*
X002691Y007994D02*
X002505Y007994D01*
X002552Y007925D02*
X002691Y007925D01*
X002691Y007857D02*
X002552Y007857D01*
X002552Y007788D02*
X002691Y007788D01*
X002691Y007720D02*
X002552Y007720D01*
X002552Y007651D02*
X002691Y007651D01*
X002691Y007583D02*
X002552Y007583D01*
X002535Y007514D02*
X002691Y007514D01*
X002691Y007446D02*
X002535Y007446D01*
X002510Y007377D02*
X002691Y007377D01*
X002691Y007309D02*
X002474Y007309D01*
X002405Y007240D02*
X002691Y007240D01*
X002691Y007172D02*
X002337Y007172D01*
X002273Y007103D02*
X002691Y007103D01*
X002722Y007035D02*
X002207Y007035D01*
X002131Y006966D02*
X005555Y006966D01*
X005555Y006898D02*
X002015Y006898D01*
X001700Y006829D02*
X005555Y006829D01*
X005555Y006761D02*
X000520Y006761D01*
X000520Y006829D02*
X000820Y006829D01*
X000790Y006898D02*
X000520Y006898D01*
X000520Y006966D02*
X000646Y006966D01*
X000577Y007035D02*
X000520Y007035D01*
X000520Y006692D02*
X005555Y006692D01*
X005555Y006624D02*
X000520Y006624D01*
X000520Y006555D02*
X005555Y006555D01*
X005555Y006487D02*
X000520Y006487D01*
X000520Y006418D02*
X001148Y006418D01*
X000959Y006350D02*
X000520Y006350D01*
X000520Y006281D02*
X000822Y006281D01*
X000860Y006313D02*
X000860Y006313D01*
X000740Y006213D02*
X000520Y006213D01*
X000520Y006144D02*
X000658Y006144D01*
X000594Y006076D02*
X000520Y006076D01*
X000520Y006007D02*
X000555Y006007D01*
X001512Y006418D02*
X005555Y006418D01*
X005555Y006350D02*
X001701Y006350D01*
X001800Y006313D02*
X001800Y006313D01*
X001838Y006281D02*
X005555Y006281D01*
X005555Y006213D02*
X001920Y006213D01*
X002002Y006144D02*
X005555Y006144D01*
X005517Y006076D02*
X002066Y006076D01*
X002050Y006104D02*
X002050Y006104D01*
X002105Y006007D02*
X005448Y006007D01*
X005380Y005939D02*
X002145Y005939D01*
X002184Y005870D02*
X005311Y005870D01*
X005243Y005802D02*
X002216Y005802D01*
X002213Y005821D02*
X002213Y005821D01*
X002228Y005733D02*
X005174Y005733D01*
X005106Y005665D02*
X004924Y005665D01*
X004969Y005596D02*
X005037Y005596D01*
X006830Y006319D02*
X006951Y006319D01*
X006960Y006310D01*
X006370Y006761D02*
X006105Y006761D01*
X006105Y006829D02*
X006370Y006829D01*
X005871Y007377D02*
X005363Y007377D01*
X005448Y007446D02*
X006370Y007446D01*
X006370Y007514D02*
X005496Y007514D01*
X005524Y007583D02*
X006370Y007583D01*
X005750Y007309D02*
X004969Y007309D01*
X004969Y007240D02*
X005681Y007240D01*
X005613Y007172D02*
X004969Y007172D01*
X004969Y007103D02*
X005575Y007103D01*
X005555Y007035D02*
X004938Y007035D01*
X004848Y008336D02*
X004794Y008336D01*
X006230Y009090D02*
X006298Y009090D01*
X006298Y009158D02*
X006230Y009158D01*
X006230Y009227D02*
X006298Y009227D01*
X006298Y009295D02*
X006230Y009295D01*
X006244Y009325D02*
X006244Y009878D01*
X005966Y009878D01*
X005966Y009460D01*
X005977Y009420D01*
X005997Y009385D01*
X006026Y009356D01*
X006062Y009336D01*
X006101Y009325D01*
X006244Y009325D01*
X006244Y009364D02*
X006314Y009364D01*
X006314Y009432D02*
X006244Y009432D01*
X006244Y009501D02*
X006314Y009501D01*
X006314Y009569D02*
X006244Y009569D01*
X006244Y009638D02*
X006314Y009638D01*
X006314Y009706D02*
X006244Y009706D01*
X006244Y009775D02*
X006314Y009775D01*
X006314Y009843D02*
X006244Y009843D01*
X006244Y009912D02*
X005694Y009912D01*
X005694Y009980D02*
X005966Y009980D01*
X005966Y009948D02*
X006244Y009948D01*
X006244Y010501D01*
X006101Y010501D01*
X006062Y010491D01*
X006026Y010470D01*
X005997Y010442D01*
X005977Y010406D01*
X005966Y010367D01*
X005966Y009948D01*
X005966Y010049D02*
X005694Y010049D01*
X005694Y010117D02*
X005966Y010117D01*
X005966Y010186D02*
X005694Y010186D01*
X005694Y010254D02*
X005966Y010254D01*
X005966Y010323D02*
X005694Y010323D01*
X005694Y010391D02*
X005973Y010391D01*
X006015Y010460D02*
X005645Y010460D01*
X006244Y010460D02*
X006314Y010460D01*
X006314Y010391D02*
X006244Y010391D01*
X006244Y010323D02*
X006314Y010323D01*
X006314Y010254D02*
X006244Y010254D01*
X006244Y010186D02*
X006314Y010186D01*
X006314Y010117D02*
X006244Y010117D01*
X006244Y010049D02*
X006314Y010049D01*
X006314Y009980D02*
X006244Y009980D01*
X005966Y009843D02*
X005694Y009843D01*
X005694Y009775D02*
X005966Y009775D01*
X005966Y009706D02*
X005694Y009706D01*
X005694Y009638D02*
X005966Y009638D01*
X005966Y009569D02*
X005694Y009569D01*
X005694Y009501D02*
X005966Y009501D01*
X005974Y009432D02*
X005694Y009432D01*
X005641Y009364D02*
X006019Y009364D01*
X006038Y009295D02*
X005575Y009295D01*
X005575Y009227D02*
X005982Y009227D01*
X005971Y009158D02*
X005562Y009158D01*
X004330Y009500D02*
X004124Y009294D01*
X003780Y009294D01*
X003780Y010294D02*
X004314Y010294D01*
X004330Y010310D01*
X004095Y010528D02*
X004080Y010528D01*
X004105Y010597D02*
X004186Y010597D01*
X004112Y010665D02*
X007212Y010665D01*
X007182Y010734D02*
X004112Y010734D01*
X004112Y010802D02*
X007160Y010802D01*
X007160Y010871D02*
X004112Y010871D01*
X004112Y010939D02*
X004215Y010939D01*
X004385Y010939D02*
X007171Y010939D01*
X007199Y011008D02*
X007065Y011008D01*
X007127Y011076D02*
X007253Y011076D01*
X007355Y011145D02*
X007127Y011145D01*
X007127Y011213D02*
X007555Y011213D01*
X007555Y011282D02*
X007127Y011282D01*
X007127Y011350D02*
X007555Y011350D01*
X007555Y011419D02*
X007127Y011419D01*
X007127Y011487D02*
X007553Y011487D01*
X007498Y011556D02*
X007127Y011556D01*
X007127Y011624D02*
X007498Y011624D01*
X007498Y011693D02*
X007127Y011693D01*
X007127Y011761D02*
X007498Y011761D01*
X007498Y011830D02*
X007127Y011830D01*
X007127Y011898D02*
X007498Y011898D01*
X007518Y011967D02*
X007127Y011967D01*
X007127Y012035D02*
X007517Y012035D01*
X007498Y012104D02*
X007127Y012104D01*
X007127Y012172D02*
X007498Y012172D01*
X007498Y012241D02*
X007127Y012241D01*
X007127Y012309D02*
X007498Y012309D01*
X007498Y012378D02*
X007127Y012378D01*
X007127Y012446D02*
X007498Y012446D01*
X007527Y012515D02*
X007127Y012515D01*
X007127Y012583D02*
X007499Y012583D01*
X007498Y012652D02*
X007127Y012652D01*
X007127Y012720D02*
X007796Y012720D01*
X007864Y012720D02*
X008340Y012720D01*
X008340Y012652D02*
X008162Y012652D01*
X008162Y012710D02*
X007864Y012710D01*
X007864Y012778D01*
X008162Y012778D01*
X008162Y012902D01*
X008152Y012942D01*
X008131Y012977D01*
X008108Y013000D01*
X008162Y013054D01*
X008162Y013458D01*
X008071Y013549D01*
X007715Y013549D01*
X007701Y013581D01*
X007611Y013671D01*
X007494Y013720D01*
X007490Y013720D01*
X007511Y013729D01*
X007601Y013819D01*
X007650Y013936D01*
X007650Y014064D01*
X007601Y014181D01*
X007511Y014271D01*
X007394Y014320D01*
X007279Y014320D01*
X007109Y014489D01*
X007162Y014542D01*
X007162Y014946D01*
X007108Y015000D01*
X007118Y015010D01*
X007149Y014979D01*
X007266Y014930D01*
X007394Y014930D01*
X007511Y014979D01*
X007601Y015069D01*
X007650Y015186D01*
X008340Y015186D01*
X008340Y015118D02*
X007621Y015118D01*
X007650Y015186D02*
X007650Y015314D01*
X007601Y015431D01*
X007511Y015521D01*
X007394Y015570D01*
X007266Y015570D01*
X007149Y015521D01*
X007124Y015496D01*
X007071Y015549D01*
X006662Y015549D01*
X006662Y015554D01*
X007003Y015554D01*
X007329Y015880D01*
X007444Y015880D01*
X007561Y015929D01*
X007651Y016019D01*
X007700Y016136D01*
X007700Y016264D01*
X007651Y016381D01*
X007561Y016471D01*
X007444Y016520D01*
X007316Y016520D01*
X007199Y016471D01*
X007109Y016381D01*
X007090Y016337D01*
X007051Y016431D01*
X006961Y016521D01*
X006844Y016570D01*
X006716Y016570D01*
X006622Y016531D01*
X006589Y016531D01*
X006571Y016549D01*
X006089Y016549D01*
X005998Y016458D01*
X005998Y016054D01*
X006052Y016000D01*
X005998Y015946D01*
X005998Y015934D01*
X005662Y015934D01*
X005662Y015946D01*
X005608Y016000D01*
X005662Y016054D01*
X005662Y016458D01*
X005571Y016549D01*
X005520Y016549D01*
X005520Y016564D01*
X005550Y016636D01*
X005550Y016764D01*
X005501Y016881D01*
X005411Y016971D01*
X005294Y017020D01*
X005166Y017020D01*
X005049Y016971D01*
X004959Y016881D01*
X004910Y016764D01*
X004910Y016636D01*
X004959Y016519D01*
X005009Y016469D01*
X004998Y016458D01*
X004998Y016054D01*
X005052Y016000D01*
X004998Y015946D01*
X004998Y015542D01*
X005040Y015500D01*
X004998Y015458D01*
X004998Y015054D01*
X005052Y015000D01*
X004998Y014946D01*
X004998Y014542D01*
X005089Y014451D01*
X005571Y014451D01*
X005580Y014460D01*
X005589Y014451D01*
X006055Y014451D01*
X006055Y013809D01*
X004624Y013809D01*
X004533Y013718D01*
X004533Y012249D01*
X004511Y012271D01*
X004394Y012320D01*
X004279Y012320D01*
X004165Y012434D01*
X004162Y012434D01*
X004162Y012446D01*
X004533Y012446D01*
X004533Y012378D02*
X004221Y012378D01*
X004162Y012446D02*
X004108Y012500D01*
X004162Y012554D01*
X004162Y012958D01*
X004071Y013049D01*
X003589Y013049D01*
X003501Y012961D01*
X003311Y012961D01*
X003275Y013047D01*
X003127Y013195D01*
X002995Y013250D01*
X003127Y013305D01*
X003275Y013453D01*
X003311Y013539D01*
X003501Y013539D01*
X003589Y013451D01*
X004071Y013451D01*
X004162Y013542D01*
X004533Y013542D01*
X004533Y013474D02*
X004094Y013474D01*
X004162Y013542D02*
X004162Y013946D01*
X004108Y014000D01*
X004118Y014010D01*
X004149Y013979D01*
X004266Y013930D01*
X004394Y013930D01*
X004511Y013979D01*
X004601Y014069D01*
X004650Y014186D01*
X004650Y014314D01*
X004601Y014431D01*
X004511Y014521D01*
X004394Y014570D01*
X004266Y014570D01*
X004149Y014521D01*
X004124Y014496D01*
X004120Y014500D01*
X004162Y014542D01*
X004162Y014723D01*
X004266Y014680D01*
X004394Y014680D01*
X004511Y014729D01*
X004601Y014819D01*
X004650Y014936D01*
X004650Y015064D01*
X004601Y015181D01*
X004511Y015271D01*
X004394Y015320D01*
X004279Y015320D01*
X004162Y015437D01*
X004162Y015458D01*
X004120Y015500D01*
X004162Y015542D01*
X004162Y015723D01*
X004266Y015680D01*
X004394Y015680D01*
X004511Y015729D01*
X004601Y015819D01*
X004650Y015936D01*
X004650Y016064D01*
X004601Y016181D01*
X004511Y016271D01*
X004394Y016320D01*
X004279Y016320D01*
X004162Y016437D01*
X004162Y016458D01*
X004120Y016500D01*
X004162Y016542D01*
X004162Y016723D01*
X004266Y016680D01*
X004394Y016680D01*
X004511Y016729D01*
X004601Y016819D01*
X004650Y016936D01*
X004650Y017064D01*
X004601Y017181D01*
X004511Y017271D01*
X004394Y017320D01*
X004279Y017320D01*
X004194Y017405D01*
X004661Y017405D01*
X004791Y017459D01*
X004807Y017475D01*
X004934Y017475D01*
X005127Y017555D01*
X005275Y017703D01*
X005331Y017837D01*
X005343Y017798D01*
X005381Y017725D01*
X005430Y017658D01*
X005488Y017600D01*
X005555Y017551D01*
X005628Y017513D01*
X005707Y017488D01*
X005789Y017475D01*
X005795Y017475D01*
X005795Y017965D01*
X005865Y017965D01*
X005865Y017475D01*
X005871Y017475D01*
X005953Y017488D01*
X006032Y017513D01*
X006105Y017551D01*
X006172Y017600D01*
X006230Y017658D01*
X006279Y017725D01*
X006317Y017798D01*
X006329Y017837D01*
X006385Y017703D01*
X006533Y017555D01*
X006726Y017475D01*
X006786Y017475D01*
X007340Y016921D01*
X007451Y016810D01*
X008001Y016810D01*
X008340Y016471D01*
X008340Y012479D01*
X008330Y012489D01*
X008229Y012531D01*
X008143Y012531D01*
X008152Y012546D01*
X008162Y012586D01*
X008162Y012710D01*
X008162Y012789D02*
X008340Y012789D01*
X008340Y012857D02*
X008162Y012857D01*
X008156Y012926D02*
X008340Y012926D01*
X008340Y012994D02*
X008114Y012994D01*
X008162Y013063D02*
X008340Y013063D01*
X008340Y013131D02*
X008162Y013131D01*
X008162Y013200D02*
X008340Y013200D01*
X008340Y013268D02*
X008162Y013268D01*
X008162Y013337D02*
X008340Y013337D01*
X008340Y013405D02*
X008162Y013405D01*
X008147Y013474D02*
X008340Y013474D01*
X008340Y013542D02*
X008078Y013542D01*
X008340Y013611D02*
X007672Y013611D01*
X007593Y013679D02*
X008340Y013679D01*
X008340Y013748D02*
X007530Y013748D01*
X007599Y013816D02*
X008340Y013816D01*
X008340Y013885D02*
X007629Y013885D01*
X007650Y013953D02*
X008340Y013953D01*
X008340Y014022D02*
X007650Y014022D01*
X007639Y014090D02*
X008340Y014090D01*
X008340Y014159D02*
X007611Y014159D01*
X007556Y014227D02*
X008340Y014227D01*
X008340Y014296D02*
X007453Y014296D01*
X007235Y014364D02*
X008340Y014364D01*
X008340Y014433D02*
X007166Y014433D01*
X007121Y014501D02*
X008340Y014501D01*
X008340Y014570D02*
X007162Y014570D01*
X007162Y014638D02*
X008340Y014638D01*
X008340Y014707D02*
X007162Y014707D01*
X007162Y014775D02*
X008340Y014775D01*
X008340Y014844D02*
X007162Y014844D01*
X007162Y014912D02*
X008340Y014912D01*
X008340Y014981D02*
X007513Y014981D01*
X007582Y015049D02*
X008340Y015049D01*
X008340Y015255D02*
X007650Y015255D01*
X007646Y015323D02*
X008340Y015323D01*
X008340Y015392D02*
X007618Y015392D01*
X007573Y015460D02*
X008340Y015460D01*
X008340Y015529D02*
X007494Y015529D01*
X007324Y015256D02*
X007330Y015250D01*
X007324Y015256D02*
X006830Y015256D01*
X006330Y015256D01*
X005830Y015256D01*
X005330Y015256D02*
X005330Y015744D01*
X006330Y015744D01*
X006924Y015744D01*
X007380Y016200D01*
X007675Y016077D02*
X008340Y016077D01*
X008340Y016145D02*
X007700Y016145D01*
X007700Y016214D02*
X008340Y016214D01*
X008340Y016282D02*
X007692Y016282D01*
X007664Y016351D02*
X008340Y016351D01*
X008340Y016419D02*
X007614Y016419D01*
X007522Y016488D02*
X008324Y016488D01*
X008255Y016556D02*
X006877Y016556D01*
X006995Y016488D02*
X007238Y016488D01*
X007146Y016419D02*
X007056Y016419D01*
X007085Y016351D02*
X007096Y016351D01*
X006683Y016556D02*
X005520Y016556D01*
X005545Y016625D02*
X008187Y016625D01*
X008118Y016693D02*
X005550Y016693D01*
X005550Y016762D02*
X008050Y016762D01*
X008080Y017000D02*
X007530Y017000D01*
X006830Y017700D01*
X006830Y018000D01*
X006349Y017789D02*
X006312Y017789D01*
X006276Y017721D02*
X006377Y017721D01*
X006435Y017652D02*
X006225Y017652D01*
X006150Y017584D02*
X006504Y017584D01*
X006629Y017515D02*
X006035Y017515D01*
X005865Y017515D02*
X005795Y017515D01*
X005795Y017584D02*
X005865Y017584D01*
X005865Y017652D02*
X005795Y017652D01*
X005795Y017721D02*
X005865Y017721D01*
X005865Y017789D02*
X005795Y017789D01*
X005795Y017858D02*
X005865Y017858D01*
X005865Y017926D02*
X005795Y017926D01*
X005435Y017652D02*
X005225Y017652D01*
X005283Y017721D02*
X005384Y017721D01*
X005348Y017789D02*
X005311Y017789D01*
X005156Y017584D02*
X005510Y017584D01*
X005625Y017515D02*
X005031Y017515D01*
X004761Y017447D02*
X006815Y017447D01*
X006883Y017378D02*
X004221Y017378D01*
X004074Y017256D02*
X004330Y017000D01*
X004544Y016762D02*
X004910Y016762D01*
X004910Y016693D02*
X004425Y016693D01*
X004235Y016693D02*
X004162Y016693D01*
X004162Y016625D02*
X004915Y016625D01*
X004943Y016556D02*
X004162Y016556D01*
X004133Y016488D02*
X004990Y016488D01*
X004998Y016419D02*
X004180Y016419D01*
X004248Y016351D02*
X004998Y016351D01*
X004998Y016282D02*
X004485Y016282D01*
X004569Y016214D02*
X004998Y016214D01*
X004998Y016145D02*
X004616Y016145D01*
X004645Y016077D02*
X004998Y016077D01*
X005044Y016008D02*
X004650Y016008D01*
X004650Y015940D02*
X004998Y015940D01*
X004998Y015871D02*
X004623Y015871D01*
X004585Y015803D02*
X004998Y015803D01*
X004998Y015734D02*
X004517Y015734D01*
X004330Y016000D02*
X004074Y016256D01*
X003830Y016256D01*
X004162Y015666D02*
X004998Y015666D01*
X004998Y015597D02*
X004162Y015597D01*
X004149Y015529D02*
X005011Y015529D01*
X005000Y015460D02*
X004160Y015460D01*
X004207Y015392D02*
X004998Y015392D01*
X004998Y015323D02*
X004276Y015323D01*
X004074Y015256D02*
X004330Y015000D01*
X004558Y014775D02*
X004998Y014775D01*
X004998Y014707D02*
X004458Y014707D01*
X004395Y014570D02*
X004998Y014570D01*
X004998Y014638D02*
X004162Y014638D01*
X004162Y014570D02*
X004265Y014570D01*
X004202Y014707D02*
X004162Y014707D01*
X004128Y014501D02*
X004121Y014501D01*
X004324Y014256D02*
X003830Y014256D01*
X004155Y013953D02*
X004211Y013953D01*
X004162Y013885D02*
X006055Y013885D01*
X006055Y013953D02*
X004449Y013953D01*
X004554Y014022D02*
X006055Y014022D01*
X006055Y014090D02*
X004610Y014090D01*
X004638Y014159D02*
X006055Y014159D01*
X006055Y014227D02*
X004650Y014227D01*
X004650Y014296D02*
X006055Y014296D01*
X006055Y014364D02*
X004629Y014364D01*
X004600Y014433D02*
X006055Y014433D01*
X006830Y014500D02*
X007330Y014000D01*
X006830Y014500D02*
X006830Y014744D01*
X007128Y014981D02*
X007147Y014981D01*
X007166Y015529D02*
X007092Y015529D01*
X007046Y015597D02*
X008340Y015597D01*
X008340Y015666D02*
X007114Y015666D01*
X007183Y015734D02*
X008340Y015734D01*
X008340Y015803D02*
X007251Y015803D01*
X007320Y015871D02*
X008340Y015871D01*
X008340Y015940D02*
X007572Y015940D01*
X007641Y016008D02*
X008340Y016008D01*
X009120Y016008D02*
X009544Y016008D01*
X009552Y016000D02*
X009498Y015946D01*
X009498Y015570D01*
X009466Y015570D01*
X009349Y015521D01*
X009259Y015431D01*
X009210Y015314D01*
X009210Y015186D01*
X009120Y015186D01*
X009120Y015118D02*
X009239Y015118D01*
X009259Y015069D02*
X009349Y014979D01*
X009466Y014930D01*
X009498Y014930D01*
X009498Y014554D01*
X009552Y014500D01*
X009498Y014446D01*
X009498Y014042D01*
X009589Y013951D01*
X009734Y013951D01*
X009918Y013767D01*
X010019Y013725D01*
X010108Y013725D01*
X010216Y013680D01*
X010344Y013680D01*
X010390Y013699D01*
X010390Y012971D01*
X011010Y012351D01*
X011010Y012236D01*
X011046Y012150D01*
X009699Y012150D01*
X009120Y012729D01*
X009120Y016979D01*
X008552Y017547D01*
X008726Y017475D01*
X008934Y017475D01*
X009127Y017555D01*
X009275Y017703D01*
X009330Y017835D01*
X009385Y017703D01*
X009533Y017555D01*
X009726Y017475D01*
X009934Y017475D01*
X010127Y017555D01*
X010275Y017703D01*
X010330Y017835D01*
X010385Y017703D01*
X010533Y017555D01*
X010726Y017475D01*
X010934Y017475D01*
X011127Y017555D01*
X011275Y017703D01*
X011330Y017835D01*
X011385Y017703D01*
X011533Y017555D01*
X011726Y017475D01*
X011934Y017475D01*
X012127Y017555D01*
X012275Y017703D01*
X012330Y017835D01*
X012385Y017703D01*
X012533Y017555D01*
X012726Y017475D01*
X012810Y017475D01*
X012810Y016761D01*
X012921Y016650D01*
X013511Y016060D01*
X014057Y016060D01*
X014139Y015979D01*
X014256Y015930D01*
X014384Y015930D01*
X014501Y015979D01*
X014591Y016069D01*
X014640Y016186D01*
X014640Y016191D01*
X015695Y015136D01*
X015695Y015088D01*
X015445Y015088D01*
X015445Y015214D01*
X015260Y015399D01*
X015260Y015484D01*
X015211Y015601D01*
X015121Y015691D01*
X015004Y015740D01*
X014876Y015740D01*
X014759Y015691D01*
X014669Y015601D01*
X014650Y015556D01*
X014650Y015564D01*
X014601Y015681D01*
X014511Y015771D01*
X014394Y015820D01*
X014266Y015820D01*
X014149Y015771D01*
X014080Y015703D01*
X014011Y015771D01*
X013894Y015820D01*
X013766Y015820D01*
X013649Y015771D01*
X013559Y015681D01*
X013510Y015564D01*
X013510Y015436D01*
X013559Y015319D01*
X013649Y015229D01*
X013766Y015180D01*
X013881Y015180D01*
X014502Y014559D01*
X014614Y014448D01*
X014746Y014448D01*
X014746Y014278D01*
X014837Y014188D01*
X016299Y014188D01*
X016358Y014188D01*
X016417Y014188D01*
X016579Y014188D01*
X016291Y013900D01*
X016176Y013900D01*
X016059Y013851D01*
X015969Y013761D01*
X015920Y013644D01*
X015920Y013516D01*
X015969Y013399D01*
X016059Y013309D01*
X016176Y013260D01*
X016210Y013260D01*
X016210Y013136D01*
X016250Y013040D01*
X016109Y013040D01*
X015600Y013549D01*
X015600Y013664D01*
X015551Y013781D01*
X015461Y013871D01*
X015344Y013920D01*
X015216Y013920D01*
X015099Y013871D01*
X015009Y013781D01*
X014960Y013664D01*
X014960Y013536D01*
X015009Y013419D01*
X015099Y013329D01*
X015216Y013280D01*
X015331Y013280D01*
X015951Y012660D01*
X016759Y012660D01*
X016870Y012771D01*
X017038Y012939D01*
X017049Y012929D01*
X017166Y012880D01*
X017294Y012880D01*
X017411Y012929D01*
X017501Y013019D01*
X017510Y013040D01*
X017510Y013036D01*
X017559Y012919D01*
X017649Y012829D01*
X017766Y012780D01*
X017894Y012780D01*
X018011Y012829D01*
X018101Y012919D01*
X018150Y013036D01*
X018150Y013164D01*
X018123Y013230D01*
X018224Y013230D01*
X018341Y013279D01*
X018431Y013369D01*
X018480Y013486D01*
X018480Y013614D01*
X018431Y013731D01*
X018350Y013813D01*
X018350Y013899D01*
X018122Y014126D01*
X018122Y014188D01*
X018505Y014188D01*
X018562Y014188D01*
X018562Y014241D01*
X018562Y014241D01*
X018562Y014188D01*
X018622Y014188D01*
X018639Y014188D01*
X018620Y014169D01*
X018620Y013911D01*
X018731Y013800D01*
X018989Y013542D01*
X019018Y013542D01*
X018480Y013542D01*
X018480Y013611D02*
X018921Y013611D01*
X018852Y013679D02*
X018453Y013679D01*
X018415Y013748D02*
X018784Y013748D01*
X018715Y013816D02*
X018350Y013816D01*
X018350Y013885D02*
X018647Y013885D01*
X018620Y013953D02*
X018296Y013953D01*
X018227Y014022D02*
X018620Y014022D01*
X018620Y014090D02*
X018159Y014090D01*
X018122Y014159D02*
X018620Y014159D01*
X018562Y014198D02*
X018562Y014638D01*
X017932Y014638D02*
X017932Y014048D01*
X018160Y013820D01*
X018160Y013550D01*
X018399Y013337D02*
X019018Y013337D01*
X019018Y013405D02*
X018446Y013405D01*
X018475Y013474D02*
X019018Y013474D01*
X019018Y013542D02*
X019018Y011743D01*
X019018Y011685D01*
X019018Y010930D01*
X018931Y010930D01*
X018811Y010810D01*
X018781Y010780D01*
X018751Y010851D01*
X018661Y010941D01*
X018544Y010990D01*
X018416Y010990D01*
X018299Y010941D01*
X018209Y010851D01*
X018160Y010734D01*
X018160Y010614D01*
X018074Y010650D01*
X017946Y010650D01*
X017916Y010638D01*
X018339Y011060D01*
X018454Y011060D01*
X018571Y011109D01*
X018661Y011199D01*
X018710Y011316D01*
X018710Y011444D01*
X018661Y011561D01*
X018571Y011651D01*
X018454Y011700D01*
X018326Y011700D01*
X018209Y011651D01*
X018119Y011561D01*
X018110Y011540D01*
X018101Y011561D01*
X018011Y011651D01*
X017894Y011700D01*
X017766Y011700D01*
X017649Y011651D01*
X017565Y011568D01*
X017481Y011651D01*
X017364Y011700D01*
X017236Y011700D01*
X017119Y011651D01*
X017029Y011561D01*
X016980Y011444D01*
X016980Y011329D01*
X016881Y011230D01*
X016636Y011230D01*
X016680Y011336D01*
X016680Y011464D01*
X016631Y011581D01*
X016541Y011671D01*
X016424Y011720D01*
X016296Y011720D01*
X016179Y011671D01*
X016089Y011581D01*
X016084Y011570D01*
X015763Y011570D01*
X015682Y011650D01*
X015751Y011679D01*
X015841Y011769D01*
X015890Y011886D01*
X015890Y012014D01*
X015841Y012131D01*
X015751Y012221D01*
X015634Y012270D01*
X015506Y012270D01*
X015476Y012258D01*
X015480Y012266D01*
X015480Y012394D01*
X015431Y012511D01*
X015341Y012601D01*
X015224Y012650D01*
X015096Y012650D01*
X014979Y012601D01*
X014889Y012511D01*
X014840Y012394D01*
X014840Y012279D01*
X014751Y012190D01*
X014642Y012190D01*
X014642Y013260D01*
X014642Y013993D01*
X014552Y014084D01*
X013887Y014084D01*
X013931Y014129D01*
X013980Y014246D01*
X013980Y014374D01*
X013931Y014491D01*
X013841Y014581D01*
X013724Y014630D01*
X013596Y014630D01*
X013479Y014581D01*
X013389Y014491D01*
X013340Y014374D01*
X013340Y014246D01*
X013389Y014129D01*
X013479Y014039D01*
X013596Y013990D01*
X013724Y013990D01*
X013749Y014001D01*
X013742Y013993D01*
X013742Y013332D01*
X013384Y013332D01*
X013330Y013278D01*
X013307Y013301D01*
X013272Y013322D01*
X013232Y013332D01*
X013108Y013332D01*
X013108Y013034D01*
X013040Y013034D01*
X013040Y012966D01*
X012781Y012966D01*
X012781Y012802D01*
X012792Y012763D01*
X012812Y012728D01*
X012841Y012699D01*
X012876Y012678D01*
X012916Y012668D01*
X013040Y012668D01*
X013040Y012966D01*
X013108Y012966D01*
X013108Y012668D01*
X013232Y012668D01*
X013272Y012678D01*
X013285Y012686D01*
X013285Y012640D01*
X013266Y012594D01*
X013266Y012466D01*
X013315Y012349D01*
X013405Y012259D01*
X013522Y012210D01*
X013607Y012210D01*
X013692Y012125D01*
X013742Y012125D01*
X013742Y011088D01*
X013379Y011088D01*
X013379Y011241D01*
X013361Y011259D01*
X013361Y011741D01*
X013379Y011759D01*
X013379Y012241D01*
X013288Y012332D01*
X012884Y012332D01*
X012830Y012278D01*
X012807Y012301D01*
X012772Y012322D01*
X012732Y012332D01*
X012608Y012332D01*
X012608Y012034D01*
X012540Y012034D01*
X012540Y011966D01*
X012281Y011966D01*
X012281Y011802D01*
X012292Y011763D01*
X012312Y011728D01*
X012341Y011699D01*
X012376Y011678D01*
X012416Y011668D01*
X012540Y011668D01*
X012540Y011966D01*
X012608Y011966D01*
X012608Y011668D01*
X012625Y011668D01*
X012619Y011661D01*
X012570Y011544D01*
X012570Y011416D01*
X012608Y011325D01*
X012608Y011034D01*
X012540Y011034D01*
X012540Y010966D01*
X012281Y010966D01*
X012281Y010957D01*
X011253Y011985D01*
X011266Y011980D01*
X011394Y011980D01*
X011511Y012029D01*
X011601Y012119D01*
X011650Y012236D01*
X011650Y012364D01*
X011601Y012481D01*
X011511Y012571D01*
X011394Y012620D01*
X011279Y012620D01*
X010770Y013129D01*
X010770Y013830D01*
X010792Y013824D01*
X010819Y013824D01*
X010819Y013937D01*
X010819Y013937D01*
X010819Y013824D01*
X010846Y013824D01*
X010899Y013838D01*
X010912Y013845D01*
X010933Y013824D01*
X011103Y013824D01*
X011117Y013838D01*
X011132Y013824D01*
X011302Y013824D01*
X011322Y013844D01*
X011343Y013824D01*
X011512Y013824D01*
X011526Y013838D01*
X011540Y013824D01*
X011688Y013824D01*
X011846Y013665D01*
X011957Y013554D01*
X012023Y013554D01*
X012099Y013479D01*
X012216Y013430D01*
X012344Y013430D01*
X012438Y013469D01*
X012571Y013469D01*
X012589Y013451D01*
X013071Y013451D01*
X013162Y013542D01*
X013742Y013542D01*
X013742Y013474D02*
X013094Y013474D01*
X013162Y013542D02*
X013162Y013946D01*
X013108Y014000D01*
X013162Y014054D01*
X013162Y014458D01*
X013071Y014549D01*
X013020Y014549D01*
X013020Y014579D01*
X012909Y014690D01*
X012716Y014883D01*
X012505Y014883D01*
X012505Y014976D01*
X012484Y014996D01*
X012505Y015016D01*
X012505Y015110D01*
X012751Y015110D01*
X012910Y014951D01*
X012910Y014836D01*
X012959Y014719D01*
X013049Y014629D01*
X013166Y014580D01*
X013294Y014580D01*
X013411Y014629D01*
X013501Y014719D01*
X013550Y014836D01*
X013550Y014964D01*
X013501Y015081D01*
X013411Y015171D01*
X013294Y015220D01*
X013179Y015220D01*
X013020Y015379D01*
X012924Y015474D01*
X012950Y015536D01*
X012950Y015664D01*
X012901Y015781D01*
X012811Y015871D01*
X012694Y015920D01*
X012566Y015920D01*
X012449Y015871D01*
X012359Y015781D01*
X012327Y015704D01*
X012030Y015704D01*
X012030Y016048D01*
X012015Y016063D01*
X012015Y016180D01*
X012044Y016180D01*
X012161Y016229D01*
X012251Y016319D01*
X012300Y016436D01*
X012300Y016564D01*
X012251Y016681D01*
X012161Y016771D01*
X012044Y016820D01*
X011916Y016820D01*
X011834Y016786D01*
X011788Y016832D01*
X011384Y016832D01*
X011330Y016778D01*
X011307Y016801D01*
X011272Y016822D01*
X011232Y016832D01*
X011108Y016832D01*
X011108Y016534D01*
X011040Y016534D01*
X011040Y016466D01*
X010781Y016466D01*
X010781Y016302D01*
X010792Y016263D01*
X010812Y016228D01*
X010841Y016199D01*
X010876Y016178D01*
X010916Y016168D01*
X010933Y016168D01*
X010919Y016154D01*
X010904Y016168D01*
X010735Y016168D01*
X010614Y016048D01*
X010614Y015704D01*
X010260Y015704D01*
X010199Y015643D01*
X010162Y015681D01*
X010162Y015946D01*
X010108Y016000D01*
X010162Y016054D01*
X010162Y016066D01*
X010165Y016066D01*
X010279Y016180D01*
X010394Y016180D01*
X010511Y016229D01*
X010601Y016319D01*
X010650Y016436D01*
X010650Y016564D01*
X010601Y016681D01*
X010511Y016771D01*
X010394Y016820D01*
X010266Y016820D01*
X010149Y016771D01*
X010059Y016681D01*
X010010Y016564D01*
X010010Y016549D01*
X009589Y016549D01*
X009498Y016458D01*
X009498Y016054D01*
X009552Y016000D01*
X009498Y015940D02*
X009120Y015940D01*
X009120Y015871D02*
X009498Y015871D01*
X009498Y015803D02*
X009120Y015803D01*
X009120Y015734D02*
X009498Y015734D01*
X009498Y015666D02*
X009120Y015666D01*
X009120Y015597D02*
X009498Y015597D01*
X009366Y015529D02*
X009120Y015529D01*
X009120Y015460D02*
X009287Y015460D01*
X009242Y015392D02*
X009120Y015392D01*
X009120Y015323D02*
X009214Y015323D01*
X009210Y015255D02*
X009120Y015255D01*
X009210Y015186D02*
X009259Y015069D01*
X009278Y015049D02*
X009120Y015049D01*
X009120Y014981D02*
X009347Y014981D01*
X009498Y014912D02*
X009120Y014912D01*
X009120Y014844D02*
X009498Y014844D01*
X009498Y014775D02*
X009120Y014775D01*
X009120Y014707D02*
X009498Y014707D01*
X009498Y014638D02*
X009120Y014638D01*
X009120Y014570D02*
X009498Y014570D01*
X009551Y014501D02*
X009120Y014501D01*
X009120Y014433D02*
X009498Y014433D01*
X009498Y014364D02*
X009120Y014364D01*
X009120Y014296D02*
X009498Y014296D01*
X009498Y014227D02*
X009120Y014227D01*
X009120Y014159D02*
X009498Y014159D01*
X009498Y014090D02*
X009120Y014090D01*
X009120Y014022D02*
X009518Y014022D01*
X009587Y013953D02*
X009120Y013953D01*
X009120Y013885D02*
X009801Y013885D01*
X009869Y013816D02*
X009120Y013816D01*
X009120Y013748D02*
X009965Y013748D01*
X010390Y013679D02*
X009120Y013679D01*
X009120Y013611D02*
X010390Y013611D01*
X010390Y013542D02*
X009120Y013542D01*
X009120Y013474D02*
X010390Y013474D01*
X010390Y013405D02*
X009120Y013405D01*
X009120Y013337D02*
X010390Y013337D01*
X010390Y013268D02*
X009120Y013268D01*
X009120Y013200D02*
X010390Y013200D01*
X010390Y013131D02*
X009120Y013131D01*
X009120Y013063D02*
X010390Y013063D01*
X010390Y012994D02*
X009120Y012994D01*
X009120Y012926D02*
X010436Y012926D01*
X010504Y012857D02*
X009120Y012857D01*
X009120Y012789D02*
X010573Y012789D01*
X010641Y012720D02*
X009129Y012720D01*
X009197Y012652D02*
X010710Y012652D01*
X010778Y012583D02*
X009266Y012583D01*
X009334Y012515D02*
X010847Y012515D01*
X010915Y012446D02*
X009403Y012446D01*
X009471Y012378D02*
X010984Y012378D01*
X011010Y012309D02*
X009540Y012309D01*
X009608Y012241D02*
X011010Y012241D01*
X011037Y012172D02*
X009677Y012172D01*
X009620Y011960D02*
X008930Y012650D01*
X008930Y016900D01*
X008330Y017500D01*
X008330Y018500D01*
X007830Y019000D01*
X007330Y018500D02*
X007330Y017550D01*
X007630Y017250D01*
X008270Y017250D01*
X008730Y016790D01*
X008730Y012530D01*
X009530Y011730D01*
X010920Y011730D01*
X012540Y010110D01*
X014192Y010110D01*
X014192Y010268D02*
X012702Y010268D01*
X011010Y011960D01*
X009620Y011960D01*
X009340Y011651D02*
X009340Y011651D01*
X009451Y011540D01*
X010841Y011540D01*
X012341Y010040D01*
X012257Y010040D01*
X012211Y010151D01*
X012121Y010241D01*
X012004Y010290D01*
X011876Y010290D01*
X011759Y010241D01*
X011669Y010151D01*
X011620Y010034D01*
X011620Y009906D01*
X011669Y009789D01*
X011759Y009699D01*
X011785Y009688D01*
X011699Y009601D01*
X011650Y009484D01*
X011650Y009356D01*
X011699Y009239D01*
X011789Y009149D01*
X011889Y009107D01*
X010732Y007951D01*
X010699Y007965D01*
X010571Y007965D01*
X010454Y007916D01*
X010370Y007833D01*
X010370Y008321D01*
X010479Y008430D01*
X010594Y008430D01*
X010711Y008479D01*
X010801Y008569D01*
X010850Y008686D01*
X010850Y008814D01*
X010801Y008931D01*
X010711Y009021D01*
X010594Y009070D01*
X010466Y009070D01*
X010349Y009021D01*
X010259Y008931D01*
X010210Y008814D01*
X010210Y008699D01*
X010094Y008582D01*
X010063Y008656D01*
X009986Y008733D01*
X009551Y009168D01*
X009776Y009168D01*
X009830Y009222D01*
X009884Y009168D01*
X010288Y009168D01*
X010379Y009259D01*
X010379Y009677D01*
X010431Y009699D01*
X010521Y009789D01*
X010570Y009906D01*
X010570Y010030D01*
X010771Y010030D01*
X010984Y009817D01*
X011029Y009709D01*
X011119Y009619D01*
X011236Y009570D01*
X011364Y009570D01*
X011481Y009619D01*
X011571Y009709D01*
X011620Y009826D01*
X011620Y009954D01*
X011571Y010071D01*
X011481Y010161D01*
X011373Y010206D01*
X011312Y010267D01*
X011312Y010879D01*
X011221Y010970D01*
X010541Y010970D01*
X010451Y010879D01*
X010451Y010222D01*
X010431Y010241D01*
X010314Y010290D01*
X010209Y010290D01*
X010209Y010879D01*
X010119Y010970D01*
X009579Y010970D01*
X009500Y011049D01*
X009500Y011164D01*
X009451Y011281D01*
X009361Y011371D01*
X009244Y011420D01*
X009116Y011420D01*
X008999Y011371D01*
X008954Y011326D01*
X008900Y011380D01*
X008944Y011380D01*
X009061Y011429D01*
X009151Y011519D01*
X009200Y011636D01*
X009200Y011764D01*
X009180Y011811D01*
X009340Y011651D01*
X009367Y011624D02*
X009195Y011624D01*
X009200Y011693D02*
X009299Y011693D01*
X009230Y011761D02*
X009200Y011761D01*
X009167Y011556D02*
X009436Y011556D01*
X009383Y011350D02*
X011031Y011350D01*
X010963Y011419D02*
X009247Y011419D01*
X009113Y011419D02*
X009037Y011419D01*
X008977Y011350D02*
X008930Y011350D01*
X009120Y011487D02*
X010894Y011487D01*
X011100Y011282D02*
X009451Y011282D01*
X009480Y011213D02*
X011168Y011213D01*
X011237Y011145D02*
X009500Y011145D01*
X009500Y011076D02*
X011305Y011076D01*
X011374Y011008D02*
X009541Y011008D01*
X009180Y011100D02*
X009779Y010501D01*
X009779Y010500D01*
X010209Y010528D02*
X010451Y010528D01*
X010451Y010460D02*
X010209Y010460D01*
X010209Y010391D02*
X010451Y010391D01*
X010451Y010323D02*
X010209Y010323D01*
X010401Y010254D02*
X010451Y010254D01*
X010451Y010597D02*
X010209Y010597D01*
X010209Y010665D02*
X010451Y010665D01*
X010451Y010734D02*
X010209Y010734D01*
X010209Y010802D02*
X010451Y010802D01*
X010451Y010871D02*
X010209Y010871D01*
X010150Y010939D02*
X010510Y010939D01*
X011252Y010939D02*
X011442Y010939D01*
X011511Y010871D02*
X011312Y010871D01*
X011312Y010802D02*
X011579Y010802D01*
X011648Y010734D02*
X011312Y010734D01*
X011312Y010665D02*
X011716Y010665D01*
X011785Y010597D02*
X011312Y010597D01*
X011312Y010528D02*
X011853Y010528D01*
X011922Y010460D02*
X011312Y010460D01*
X011312Y010391D02*
X011990Y010391D01*
X012059Y010323D02*
X011312Y010323D01*
X011325Y010254D02*
X011789Y010254D01*
X011703Y010186D02*
X011423Y010186D01*
X011526Y010117D02*
X011655Y010117D01*
X011626Y010049D02*
X011581Y010049D01*
X011609Y009980D02*
X011620Y009980D01*
X011620Y009912D02*
X011620Y009912D01*
X011620Y009843D02*
X011646Y009843D01*
X011683Y009775D02*
X011599Y009775D01*
X011569Y009706D02*
X011751Y009706D01*
X011735Y009638D02*
X011500Y009638D01*
X011685Y009569D02*
X010379Y009569D01*
X010379Y009501D02*
X011657Y009501D01*
X011650Y009432D02*
X010379Y009432D01*
X010379Y009364D02*
X011650Y009364D01*
X011675Y009295D02*
X010379Y009295D01*
X010347Y009227D02*
X011711Y009227D01*
X011779Y009158D02*
X009561Y009158D01*
X009629Y009090D02*
X011871Y009090D01*
X011802Y009021D02*
X010712Y009021D01*
X010780Y008953D02*
X011734Y008953D01*
X011665Y008884D02*
X010821Y008884D01*
X010849Y008816D02*
X011597Y008816D01*
X011528Y008747D02*
X010850Y008747D01*
X010847Y008679D02*
X011460Y008679D01*
X011391Y008610D02*
X010818Y008610D01*
X010774Y008542D02*
X011323Y008542D01*
X011254Y008473D02*
X010697Y008473D01*
X010453Y008405D02*
X011186Y008405D01*
X011117Y008336D02*
X010385Y008336D01*
X010370Y008268D02*
X011049Y008268D01*
X010980Y008199D02*
X010370Y008199D01*
X010370Y008131D02*
X010912Y008131D01*
X010843Y008062D02*
X010370Y008062D01*
X010370Y007994D02*
X010775Y007994D01*
X010475Y007925D02*
X010370Y007925D01*
X010370Y007857D02*
X010394Y007857D01*
X010635Y007645D02*
X010695Y007645D01*
X012535Y009485D01*
X012600Y009485D01*
X014580Y009480D01*
X014698Y009362D01*
X014940Y009362D01*
X015098Y009362D02*
X015098Y008978D01*
X014960Y008840D01*
X014770Y008840D01*
X014290Y009320D01*
X012700Y009320D01*
X011185Y007845D01*
X011190Y007635D01*
X011478Y007776D02*
X011554Y007851D01*
X011671Y007900D01*
X011799Y007900D01*
X011916Y007851D01*
X012006Y007761D01*
X012055Y007644D01*
X012055Y007533D01*
X012407Y007190D01*
X013356Y007190D01*
X013341Y007199D01*
X013312Y007228D01*
X013292Y007263D01*
X013281Y007302D01*
X013281Y007466D01*
X013540Y007466D01*
X013540Y007534D01*
X013281Y007534D01*
X013281Y007698D01*
X013292Y007737D01*
X013299Y007750D01*
X013292Y007763D01*
X013281Y007802D01*
X013281Y007966D01*
X013540Y007966D01*
X013540Y008034D01*
X013281Y008034D01*
X013281Y008198D01*
X013292Y008237D01*
X013299Y008250D01*
X013292Y008263D01*
X013281Y008302D01*
X013281Y008466D01*
X013540Y008466D01*
X013540Y008534D01*
X013281Y008534D01*
X013281Y008698D01*
X013292Y008737D01*
X013299Y008750D01*
X013292Y008763D01*
X013281Y008802D01*
X013281Y008966D01*
X013540Y008966D01*
X013540Y009034D01*
X013281Y009034D01*
X013281Y009130D01*
X012777Y009130D01*
X011445Y007833D01*
X011461Y007816D01*
X011478Y007776D01*
X011473Y007788D02*
X011490Y007788D01*
X011469Y007857D02*
X011566Y007857D01*
X011540Y007925D02*
X012015Y007925D01*
X012010Y007936D02*
X012059Y007819D01*
X012149Y007729D01*
X012266Y007680D01*
X012394Y007680D01*
X012511Y007729D01*
X012601Y007819D01*
X012650Y007936D01*
X012650Y008064D01*
X012601Y008181D01*
X012511Y008271D01*
X012394Y008320D01*
X012266Y008320D01*
X012149Y008271D01*
X012059Y008181D01*
X012010Y008064D01*
X012010Y007936D01*
X012010Y007994D02*
X011610Y007994D01*
X011680Y008062D02*
X012010Y008062D01*
X012038Y008131D02*
X011751Y008131D01*
X011821Y008199D02*
X012076Y008199D01*
X012145Y008268D02*
X011891Y008268D01*
X011962Y008336D02*
X013281Y008336D01*
X013281Y008405D02*
X012032Y008405D01*
X012102Y008473D02*
X013540Y008473D01*
X013540Y008466D02*
X013608Y008466D01*
X013608Y008332D01*
X013608Y008034D01*
X013540Y008034D01*
X013540Y008466D01*
X013540Y008405D02*
X013608Y008405D01*
X013608Y008336D02*
X013540Y008336D01*
X013540Y008268D02*
X013608Y008268D01*
X013608Y008199D02*
X013540Y008199D01*
X013540Y008131D02*
X013608Y008131D01*
X013608Y008062D02*
X013540Y008062D01*
X013540Y007994D02*
X012650Y007994D01*
X012650Y008062D02*
X013281Y008062D01*
X013281Y008131D02*
X012622Y008131D01*
X012584Y008199D02*
X013282Y008199D01*
X013291Y008268D02*
X012515Y008268D01*
X012243Y008610D02*
X013281Y008610D01*
X013281Y008542D02*
X012173Y008542D01*
X012313Y008679D02*
X013281Y008679D01*
X013298Y008747D02*
X012384Y008747D01*
X012454Y008816D02*
X013281Y008816D01*
X013281Y008884D02*
X012525Y008884D01*
X012595Y008953D02*
X013281Y008953D01*
X013281Y009090D02*
X012736Y009090D01*
X012665Y009021D02*
X013540Y009021D01*
X013540Y008966D02*
X013608Y008966D01*
X013608Y008668D01*
X013608Y008534D01*
X013540Y008534D01*
X013540Y008966D01*
X013540Y008953D02*
X013608Y008953D01*
X013608Y008884D02*
X013540Y008884D01*
X013540Y008816D02*
X013608Y008816D01*
X013608Y008747D02*
X013540Y008747D01*
X013540Y008679D02*
X013608Y008679D01*
X013608Y008610D02*
X013540Y008610D01*
X013540Y008542D02*
X013608Y008542D01*
X014086Y008500D02*
X014256Y008330D01*
X015100Y008330D01*
X015190Y008450D01*
X015560Y008450D01*
X015885Y008785D01*
X015885Y009362D01*
X015728Y009362D02*
X015728Y008868D01*
X015550Y008690D01*
X015330Y008690D01*
X015370Y008730D01*
X015370Y008770D01*
X015330Y008690D02*
X014396Y008690D01*
X014086Y009000D01*
X014650Y009660D02*
X012220Y009660D01*
X011980Y009420D01*
X011970Y009420D01*
X012060Y009850D02*
X011940Y009970D01*
X012060Y009850D02*
X014550Y009850D01*
X014730Y010030D01*
X014730Y010300D01*
X014605Y010425D01*
X014192Y010425D01*
X014192Y010583D02*
X014747Y010583D01*
X014940Y010390D01*
X014940Y009950D01*
X014650Y009660D01*
X015255Y009362D02*
X015255Y010425D01*
X015870Y011040D01*
X016960Y011040D01*
X017300Y011380D01*
X016998Y011487D02*
X016670Y011487D01*
X016680Y011419D02*
X016980Y011419D01*
X016980Y011350D02*
X016680Y011350D01*
X016657Y011282D02*
X016933Y011282D01*
X016360Y011400D02*
X016320Y011380D01*
X015500Y011380D01*
X015500Y011510D01*
X015325Y011685D01*
X014192Y011685D01*
X014192Y011843D02*
X015463Y011843D01*
X015570Y011950D01*
X015866Y011830D02*
X019018Y011830D01*
X019018Y011898D02*
X015890Y011898D01*
X015890Y011967D02*
X019018Y011967D01*
X019018Y012035D02*
X015881Y012035D01*
X015853Y012104D02*
X019018Y012104D01*
X019018Y012172D02*
X015801Y012172D01*
X015705Y012241D02*
X019018Y012241D01*
X019018Y012309D02*
X015480Y012309D01*
X015480Y012378D02*
X019018Y012378D01*
X019018Y012446D02*
X015458Y012446D01*
X015428Y012515D02*
X019018Y012515D01*
X019018Y012583D02*
X015360Y012583D01*
X015350Y012650D02*
X015480Y012520D01*
X015350Y012650D02*
X014980Y012650D01*
X014790Y012460D01*
X014790Y012290D01*
X014673Y012173D01*
X014673Y012157D01*
X014192Y012157D01*
X013973Y012157D01*
X013970Y012160D01*
X013660Y012160D01*
X013610Y012210D01*
X013340Y012210D01*
X013290Y012260D01*
X013311Y012309D02*
X013354Y012309D01*
X013379Y012241D02*
X013449Y012241D01*
X013379Y012172D02*
X013645Y012172D01*
X013742Y012104D02*
X013379Y012104D01*
X013379Y012035D02*
X013742Y012035D01*
X013742Y011967D02*
X013379Y011967D01*
X013379Y011898D02*
X013742Y011898D01*
X013742Y011830D02*
X013379Y011830D01*
X013379Y011761D02*
X013742Y011761D01*
X013742Y011693D02*
X013361Y011693D01*
X013361Y011624D02*
X013742Y011624D01*
X013742Y011556D02*
X013361Y011556D01*
X013361Y011487D02*
X013742Y011487D01*
X013742Y011419D02*
X013361Y011419D01*
X013361Y011350D02*
X013742Y011350D01*
X013742Y011282D02*
X013361Y011282D01*
X013379Y011213D02*
X013742Y011213D01*
X013742Y011145D02*
X013379Y011145D01*
X013188Y010898D02*
X014192Y010898D01*
X014192Y011055D02*
X014675Y011055D01*
X014890Y011270D01*
X014660Y010740D02*
X014192Y010740D01*
X013780Y010740D01*
X013730Y010690D01*
X013742Y010708D02*
X013742Y010458D01*
X012781Y010458D01*
X012540Y010699D01*
X012540Y010966D01*
X012608Y010966D01*
X012608Y010668D01*
X012732Y010668D01*
X012772Y010678D01*
X012807Y010699D01*
X012830Y010722D01*
X012884Y010668D01*
X013288Y010668D01*
X013328Y010708D01*
X013742Y010708D01*
X013742Y010665D02*
X012574Y010665D01*
X012540Y010734D02*
X012608Y010734D01*
X012608Y010802D02*
X012540Y010802D01*
X012540Y010871D02*
X012608Y010871D01*
X012608Y010939D02*
X012540Y010939D01*
X012540Y011008D02*
X012231Y011008D01*
X012281Y011034D02*
X012540Y011034D01*
X012540Y011332D01*
X012416Y011332D01*
X012376Y011322D01*
X012341Y011301D01*
X012312Y011272D01*
X012292Y011237D01*
X012281Y011198D01*
X012281Y011034D01*
X012281Y011076D02*
X012163Y011076D01*
X012094Y011145D02*
X012281Y011145D01*
X012285Y011213D02*
X012026Y011213D01*
X011957Y011282D02*
X012321Y011282D01*
X012540Y011282D02*
X012608Y011282D01*
X012597Y011350D02*
X011889Y011350D01*
X011820Y011419D02*
X012570Y011419D01*
X012570Y011487D02*
X011752Y011487D01*
X011683Y011556D02*
X012575Y011556D01*
X012603Y011624D02*
X011615Y011624D01*
X011546Y011693D02*
X012352Y011693D01*
X012293Y011761D02*
X011478Y011761D01*
X011409Y011830D02*
X012281Y011830D01*
X012281Y011898D02*
X011341Y011898D01*
X011272Y011967D02*
X012540Y011967D01*
X012540Y012034D02*
X012281Y012034D01*
X012281Y012198D01*
X012292Y012237D01*
X012312Y012272D01*
X012341Y012301D01*
X012376Y012322D01*
X012416Y012332D01*
X012540Y012332D01*
X012540Y012034D01*
X012540Y012035D02*
X012608Y012035D01*
X012608Y012104D02*
X012540Y012104D01*
X012540Y012172D02*
X012608Y012172D01*
X012608Y012241D02*
X012540Y012241D01*
X012540Y012309D02*
X012608Y012309D01*
X012793Y012309D02*
X012861Y012309D01*
X013274Y012446D02*
X011616Y012446D01*
X011644Y012378D02*
X013303Y012378D01*
X013266Y012515D02*
X011568Y012515D01*
X011483Y012583D02*
X013266Y012583D01*
X013285Y012652D02*
X011247Y012652D01*
X011179Y012720D02*
X012820Y012720D01*
X012785Y012789D02*
X011110Y012789D01*
X011042Y012857D02*
X012781Y012857D01*
X012781Y012926D02*
X010973Y012926D01*
X010905Y012994D02*
X013040Y012994D01*
X013040Y013034D02*
X012781Y013034D01*
X012781Y013198D01*
X012792Y013237D01*
X012812Y013272D01*
X012841Y013301D01*
X012876Y013322D01*
X012916Y013332D01*
X013040Y013332D01*
X013040Y013034D01*
X013040Y013063D02*
X013108Y013063D01*
X013108Y013131D02*
X013040Y013131D01*
X013040Y013200D02*
X013108Y013200D01*
X013108Y013268D02*
X013040Y013268D01*
X012810Y013268D02*
X010770Y013268D01*
X010770Y013200D02*
X012782Y013200D01*
X012781Y013131D02*
X010770Y013131D01*
X010836Y013063D02*
X012781Y013063D01*
X013040Y012926D02*
X013108Y012926D01*
X013108Y012857D02*
X013040Y012857D01*
X013040Y012789D02*
X013108Y012789D01*
X013108Y012720D02*
X013040Y012720D01*
X013586Y012530D02*
X013586Y012500D01*
X013771Y012315D01*
X014192Y012315D01*
X014192Y012000D02*
X014830Y012000D01*
X015160Y012330D01*
X014862Y012446D02*
X014642Y012446D01*
X014642Y012378D02*
X014840Y012378D01*
X014840Y012309D02*
X014642Y012309D01*
X014642Y012241D02*
X014802Y012241D01*
X014892Y012515D02*
X014642Y012515D01*
X014642Y012583D02*
X014960Y012583D01*
X014642Y012652D02*
X019018Y012652D01*
X019018Y012720D02*
X016819Y012720D01*
X016887Y012789D02*
X017746Y012789D01*
X017620Y012857D02*
X016956Y012857D01*
X017024Y012926D02*
X017056Y012926D01*
X016880Y013050D02*
X016680Y012850D01*
X016030Y012850D01*
X015280Y013600D01*
X014986Y013474D02*
X014642Y013474D01*
X014642Y013542D02*
X014960Y013542D01*
X014960Y013611D02*
X014642Y013611D01*
X014642Y013679D02*
X014966Y013679D01*
X014995Y013748D02*
X014642Y013748D01*
X014642Y013816D02*
X015043Y013816D01*
X015131Y013885D02*
X014642Y013885D01*
X014642Y013953D02*
X016344Y013953D01*
X016358Y014028D02*
X016358Y014638D01*
X016358Y015232D01*
X015634Y015956D01*
X015634Y016220D01*
X015380Y016220D01*
X015030Y016570D01*
X015030Y016569D02*
X014068Y017530D01*
X014127Y017555D01*
X014275Y017703D01*
X014330Y017835D01*
X014385Y017703D01*
X014533Y017555D01*
X014726Y017475D01*
X014934Y017475D01*
X015127Y017555D01*
X015275Y017703D01*
X015330Y017835D01*
X015385Y017703D01*
X015533Y017555D01*
X015726Y017475D01*
X015934Y017475D01*
X016127Y017555D01*
X016275Y017703D01*
X016330Y017835D01*
X016385Y017703D01*
X016533Y017555D01*
X016726Y017475D01*
X016934Y017475D01*
X017127Y017555D01*
X017275Y017703D01*
X017330Y017835D01*
X017385Y017703D01*
X017533Y017555D01*
X017726Y017475D01*
X017934Y017475D01*
X018127Y017555D01*
X018275Y017703D01*
X018330Y017835D01*
X018385Y017703D01*
X018533Y017555D01*
X018726Y017475D01*
X018934Y017475D01*
X019127Y017555D01*
X019275Y017703D01*
X019355Y017896D01*
X019355Y018104D01*
X019275Y018297D01*
X019127Y018445D01*
X018995Y018500D01*
X019127Y018555D01*
X019275Y018703D01*
X019355Y018896D01*
X019355Y019104D01*
X019275Y019297D01*
X019262Y019310D01*
X020398Y019310D01*
X020385Y019297D01*
X020305Y019104D01*
X020305Y018896D01*
X020385Y018703D01*
X020533Y018555D01*
X020665Y018500D01*
X020571Y018461D01*
X020159Y018461D01*
X020071Y018549D01*
X019589Y018549D01*
X019498Y018458D01*
X019498Y018054D01*
X019552Y018000D01*
X019529Y017977D01*
X019508Y017942D01*
X019498Y017902D01*
X019498Y017778D01*
X019796Y017778D01*
X019796Y017710D01*
X019864Y017710D01*
X019864Y017451D01*
X020028Y017451D01*
X020067Y017462D01*
X020102Y017482D01*
X020131Y017511D01*
X020152Y017546D01*
X020162Y017586D01*
X020162Y017710D01*
X019864Y017710D01*
X019864Y017778D01*
X020162Y017778D01*
X020162Y017902D01*
X020152Y017942D01*
X020131Y017977D01*
X020108Y018000D01*
X020159Y018051D01*
X020305Y018051D01*
X020305Y017896D01*
X020385Y017703D01*
X020533Y017555D01*
X020726Y017475D01*
X020934Y017475D01*
X021127Y017555D01*
X021275Y017703D01*
X021313Y017795D01*
X021395Y017795D01*
X021400Y017790D01*
X021375Y017764D01*
X021375Y017336D01*
X021466Y017245D01*
X022194Y017245D01*
X022285Y017336D01*
X022285Y017360D01*
X022701Y017360D01*
X022896Y017165D01*
X022896Y016832D01*
X022884Y016832D01*
X022830Y016778D01*
X022776Y016832D01*
X022372Y016832D01*
X022281Y016741D01*
X022281Y016478D01*
X022274Y016485D01*
X022279Y016502D01*
X022279Y016666D01*
X022020Y016666D01*
X022020Y016734D01*
X022279Y016734D01*
X022279Y016898D01*
X022268Y016937D01*
X022248Y016972D01*
X022219Y017001D01*
X022184Y017022D01*
X022144Y017032D01*
X022020Y017032D01*
X022020Y016734D01*
X021952Y016734D01*
X021952Y017032D01*
X021828Y017032D01*
X021788Y017022D01*
X021753Y017001D01*
X021730Y016978D01*
X021676Y017032D01*
X021272Y017032D01*
X021181Y016941D01*
X021181Y016481D01*
X021155Y016454D01*
X021044Y016500D01*
X020916Y016500D01*
X020805Y016454D01*
X020774Y016485D01*
X020779Y016502D01*
X020779Y016666D01*
X020520Y016666D01*
X020520Y016734D01*
X020779Y016734D01*
X020779Y016898D01*
X020768Y016937D01*
X020748Y016972D01*
X020719Y017001D01*
X020684Y017022D01*
X020644Y017032D01*
X020520Y017032D01*
X020520Y016734D01*
X020452Y016734D01*
X020452Y017032D01*
X020328Y017032D01*
X020288Y017022D01*
X020253Y017001D01*
X020230Y016978D01*
X020176Y017032D01*
X019772Y017032D01*
X019681Y016941D01*
X019681Y016481D01*
X019622Y016422D01*
X019622Y015978D01*
X019713Y015888D01*
X020156Y015888D01*
X020230Y015961D01*
X020304Y015888D01*
X020747Y015888D01*
X020783Y015924D01*
X020799Y015909D01*
X020916Y015860D01*
X021044Y015860D01*
X021161Y015909D01*
X021177Y015924D01*
X021213Y015888D01*
X021656Y015888D01*
X021730Y015961D01*
X021804Y015888D01*
X021835Y015888D01*
X021835Y015788D01*
X021759Y015711D01*
X021710Y015594D01*
X021710Y015466D01*
X021759Y015349D01*
X021849Y015259D01*
X021966Y015210D01*
X022094Y015210D01*
X022211Y015259D01*
X022281Y015329D01*
X022281Y015259D01*
X022309Y015231D01*
X022260Y015114D01*
X022260Y014986D01*
X022309Y014869D01*
X022399Y014779D01*
X022516Y014730D01*
X022644Y014730D01*
X022761Y014779D01*
X022851Y014869D01*
X022900Y014986D01*
X022900Y015114D01*
X022873Y015179D01*
X022884Y015168D01*
X023288Y015168D01*
X023379Y015259D01*
X023379Y015680D01*
X023444Y015680D01*
X023561Y015729D01*
X023651Y015819D01*
X023700Y015936D01*
X023700Y016064D01*
X023651Y016181D01*
X023561Y016271D01*
X023444Y016320D01*
X023379Y016320D01*
X023379Y016741D01*
X023288Y016832D01*
X023276Y016832D01*
X023276Y017323D01*
X022859Y017740D01*
X022285Y017740D01*
X022285Y017764D01*
X022194Y017855D01*
X021915Y017855D01*
X021565Y018205D01*
X021313Y018205D01*
X021275Y018297D01*
X021127Y018445D01*
X020995Y018500D01*
X021127Y018555D01*
X021275Y018703D01*
X021284Y018725D01*
X021716Y018725D01*
X022274Y018167D01*
X022375Y018125D01*
X024116Y018125D01*
X024498Y017743D01*
X024498Y017554D01*
X024552Y017500D01*
X024498Y017446D01*
X024498Y017042D01*
X024589Y016951D01*
X024677Y016951D01*
X024896Y016733D01*
X025011Y016685D01*
X025403Y016685D01*
X025425Y016663D01*
X025425Y016087D01*
X025385Y016047D01*
X025330Y015915D01*
X025275Y016047D01*
X025127Y016195D01*
X024934Y016275D01*
X024726Y016275D01*
X024533Y016195D01*
X024385Y016047D01*
X024305Y015854D01*
X024305Y015646D01*
X024385Y015453D01*
X024533Y015305D01*
X024726Y015225D01*
X024934Y015225D01*
X025127Y015305D01*
X025275Y015453D01*
X025330Y015585D01*
X025385Y015453D01*
X025425Y015413D01*
X025425Y014837D01*
X025385Y014797D01*
X025330Y014665D01*
X025275Y014797D01*
X025127Y014945D01*
X024934Y015025D01*
X024726Y015025D01*
X024533Y014945D01*
X024385Y014797D01*
X024305Y014604D01*
X024305Y014396D01*
X024385Y014203D01*
X024533Y014055D01*
X024726Y013975D01*
X024934Y013975D01*
X025042Y014019D01*
X025140Y013921D01*
X025140Y013682D01*
X025127Y013695D01*
X024934Y013775D01*
X024726Y013775D01*
X024533Y013695D01*
X024385Y013547D01*
X024305Y013354D01*
X024305Y013146D01*
X024349Y013038D01*
X024140Y012829D01*
X024140Y012813D01*
X024121Y012831D01*
X024004Y012880D01*
X023876Y012880D01*
X023759Y012831D01*
X023735Y012808D01*
X023721Y012841D01*
X023631Y012931D01*
X023514Y012980D01*
X023386Y012980D01*
X023269Y012931D01*
X023179Y012841D01*
X023130Y012724D01*
X023130Y012609D01*
X023120Y012599D01*
X023120Y012109D01*
X022987Y011976D01*
X022951Y012061D01*
X022861Y012151D01*
X022744Y012200D01*
X022616Y012200D01*
X022556Y012175D01*
X022412Y012175D01*
X022412Y012279D01*
X022321Y012370D01*
X021641Y012370D01*
X021551Y012279D01*
X021551Y011560D01*
X021309Y011560D01*
X021309Y012279D01*
X021219Y012370D01*
X020539Y012370D01*
X020448Y012279D01*
X020448Y012044D01*
X020371Y012121D01*
X020326Y012140D01*
X020370Y012246D01*
X020370Y012374D01*
X020341Y012443D01*
X020369Y012470D01*
X020484Y012470D01*
X020601Y012519D01*
X020691Y012609D01*
X020740Y012726D01*
X020740Y012854D01*
X020691Y012971D01*
X020601Y013061D01*
X020496Y013105D01*
X020530Y013186D01*
X020530Y013314D01*
X020481Y013431D01*
X020391Y013521D01*
X020274Y013570D01*
X020230Y013570D01*
X020230Y015079D01*
X020119Y015190D01*
X019839Y015470D01*
X019833Y015470D01*
X019751Y015551D01*
X019634Y015600D01*
X019506Y015600D01*
X019389Y015551D01*
X019299Y015461D01*
X019250Y015344D01*
X019250Y015216D01*
X019299Y015099D01*
X019389Y015009D01*
X019479Y014971D01*
X019439Y014931D01*
X019400Y014838D01*
X018980Y015259D01*
X018980Y015364D01*
X018931Y015481D01*
X018841Y015571D01*
X018724Y015620D01*
X018596Y015620D01*
X018479Y015571D01*
X018389Y015481D01*
X018340Y015364D01*
X018340Y015236D01*
X018389Y015119D01*
X018419Y015088D01*
X018351Y015088D01*
X016971Y015088D01*
X017051Y015169D01*
X017100Y015286D01*
X017100Y015414D01*
X017089Y015440D01*
X017181Y015479D01*
X017263Y015560D01*
X017309Y015560D01*
X017615Y015867D01*
X017615Y015908D01*
X017647Y015908D01*
X017738Y015998D01*
X017738Y016418D01*
X017748Y016428D01*
X017768Y016463D01*
X017779Y016502D01*
X017779Y016666D01*
X017520Y016666D01*
X017520Y016734D01*
X017779Y016734D01*
X017779Y016898D01*
X017768Y016937D01*
X017748Y016972D01*
X017719Y017001D01*
X017684Y017022D01*
X017644Y017032D01*
X017520Y017032D01*
X017520Y016734D01*
X017452Y016734D01*
X017452Y017032D01*
X017328Y017032D01*
X017288Y017022D01*
X017253Y017001D01*
X017230Y016978D01*
X017176Y017032D01*
X016772Y017032D01*
X016681Y016941D01*
X016681Y016683D01*
X016640Y016641D01*
X016640Y016532D01*
X016613Y016532D01*
X016522Y016442D01*
X016522Y016020D01*
X016511Y016031D01*
X016439Y016061D01*
X016439Y016461D01*
X016348Y016552D01*
X015944Y016552D01*
X015890Y016498D01*
X015867Y016521D01*
X015832Y016542D01*
X015792Y016552D01*
X015668Y016552D01*
X015668Y016254D01*
X015600Y016254D01*
X015345Y016254D01*
X015413Y016186D01*
X015600Y016186D01*
X015600Y016254D01*
X015600Y016428D01*
X015621Y016449D01*
X015670Y016566D01*
X015670Y016694D01*
X015621Y016811D01*
X015531Y016901D01*
X015414Y016950D01*
X015286Y016950D01*
X015169Y016901D01*
X015079Y016811D01*
X015030Y016694D01*
X015030Y016569D01*
X015030Y016625D02*
X014974Y016625D01*
X015030Y016693D02*
X014906Y016693D01*
X014837Y016762D02*
X015058Y016762D01*
X015097Y016830D02*
X014769Y016830D01*
X014700Y016899D02*
X015166Y016899D01*
X015205Y016967D02*
X014632Y016967D01*
X014563Y017036D02*
X015092Y017036D01*
X015129Y016999D02*
X015246Y016950D01*
X015374Y016950D01*
X015491Y016999D01*
X015581Y017089D01*
X015630Y017206D01*
X015630Y017334D01*
X015581Y017451D01*
X015491Y017541D01*
X015374Y017590D01*
X015246Y017590D01*
X015129Y017541D01*
X015039Y017451D01*
X014990Y017334D01*
X014990Y017206D01*
X015039Y017089D01*
X015129Y016999D01*
X015032Y017104D02*
X014495Y017104D01*
X014426Y017173D02*
X015004Y017173D01*
X014990Y017241D02*
X014358Y017241D01*
X014289Y017310D02*
X014990Y017310D01*
X015008Y017378D02*
X014221Y017378D01*
X014152Y017447D02*
X015037Y017447D01*
X015031Y017515D02*
X015102Y017515D01*
X015156Y017584D02*
X015231Y017584D01*
X015225Y017652D02*
X015435Y017652D01*
X015389Y017584D02*
X015504Y017584D01*
X015518Y017515D02*
X015629Y017515D01*
X015583Y017447D02*
X021375Y017447D01*
X021375Y017515D02*
X021031Y017515D01*
X021156Y017584D02*
X021375Y017584D01*
X021375Y017652D02*
X021225Y017652D01*
X021283Y017721D02*
X021375Y017721D01*
X021400Y017789D02*
X021311Y017789D01*
X021775Y017995D02*
X024247Y017995D01*
X024315Y017926D02*
X021844Y017926D01*
X021912Y017858D02*
X024384Y017858D01*
X024452Y017789D02*
X024260Y017789D01*
X024285Y017764D02*
X024194Y017855D01*
X023466Y017855D01*
X023375Y017764D01*
X023375Y017336D01*
X023466Y017245D01*
X024194Y017245D01*
X024285Y017336D01*
X024285Y017764D01*
X024285Y017721D02*
X024498Y017721D01*
X024498Y017652D02*
X024285Y017652D01*
X024285Y017584D02*
X024498Y017584D01*
X024537Y017515D02*
X024285Y017515D01*
X024285Y017447D02*
X024498Y017447D01*
X024498Y017378D02*
X024285Y017378D01*
X024259Y017310D02*
X024498Y017310D01*
X024498Y017241D02*
X023276Y017241D01*
X023276Y017173D02*
X024498Y017173D01*
X024498Y017104D02*
X023276Y017104D01*
X023276Y017036D02*
X024504Y017036D01*
X024573Y016967D02*
X023276Y016967D01*
X023276Y016899D02*
X024730Y016899D01*
X024799Y016830D02*
X023290Y016830D01*
X023359Y016762D02*
X024867Y016762D01*
X024992Y016693D02*
X023379Y016693D01*
X023379Y016625D02*
X025425Y016625D01*
X025425Y016556D02*
X023379Y016556D01*
X023379Y016488D02*
X025425Y016488D01*
X025425Y016419D02*
X023379Y016419D01*
X023379Y016351D02*
X025425Y016351D01*
X025425Y016282D02*
X023535Y016282D01*
X023619Y016214D02*
X024577Y016214D01*
X024483Y016145D02*
X023666Y016145D01*
X023695Y016077D02*
X024414Y016077D01*
X024369Y016008D02*
X023700Y016008D01*
X023700Y015940D02*
X024340Y015940D01*
X024312Y015871D02*
X023673Y015871D01*
X023635Y015803D02*
X024305Y015803D01*
X024305Y015734D02*
X023567Y015734D01*
X023379Y015666D02*
X024305Y015666D01*
X024325Y015597D02*
X023379Y015597D01*
X023379Y015529D02*
X024353Y015529D01*
X024382Y015460D02*
X023379Y015460D01*
X023379Y015392D02*
X024446Y015392D01*
X024514Y015323D02*
X023379Y015323D01*
X023375Y015255D02*
X024654Y015255D01*
X025006Y015255D02*
X025425Y015255D01*
X025425Y015323D02*
X025146Y015323D01*
X025214Y015392D02*
X025425Y015392D01*
X025382Y015460D02*
X025278Y015460D01*
X025307Y015529D02*
X025353Y015529D01*
X025425Y015186D02*
X023306Y015186D01*
X022898Y015118D02*
X025425Y015118D01*
X025425Y015049D02*
X022900Y015049D01*
X022898Y014981D02*
X024618Y014981D01*
X024500Y014912D02*
X022869Y014912D01*
X022826Y014844D02*
X024431Y014844D01*
X024376Y014775D02*
X022752Y014775D01*
X022408Y014775D02*
X020230Y014775D01*
X020230Y014707D02*
X024347Y014707D01*
X024319Y014638D02*
X020230Y014638D01*
X020230Y014570D02*
X024305Y014570D01*
X024305Y014501D02*
X020230Y014501D01*
X020230Y014433D02*
X024305Y014433D01*
X024318Y014364D02*
X020230Y014364D01*
X020230Y014296D02*
X024346Y014296D01*
X024375Y014227D02*
X020230Y014227D01*
X020230Y014159D02*
X024429Y014159D01*
X024498Y014090D02*
X020230Y014090D01*
X020230Y014022D02*
X024613Y014022D01*
X024659Y013748D02*
X023344Y013748D01*
X023350Y013734D02*
X023301Y013851D01*
X023211Y013941D01*
X023094Y013990D01*
X022966Y013990D01*
X022849Y013941D01*
X022759Y013851D01*
X022710Y013734D01*
X022710Y013606D01*
X022759Y013489D01*
X022849Y013399D01*
X022966Y013350D01*
X023094Y013350D01*
X023211Y013399D01*
X023301Y013489D01*
X023350Y013606D01*
X023350Y013734D01*
X023350Y013679D02*
X024517Y013679D01*
X024448Y013611D02*
X023350Y013611D01*
X023323Y013542D02*
X024383Y013542D01*
X024354Y013474D02*
X023286Y013474D01*
X023218Y013405D02*
X024326Y013405D01*
X024305Y013337D02*
X020521Y013337D01*
X020530Y013268D02*
X024305Y013268D01*
X024305Y013200D02*
X020530Y013200D01*
X020507Y013131D02*
X024311Y013131D01*
X024339Y013063D02*
X020598Y013063D01*
X020669Y012994D02*
X024305Y012994D01*
X024237Y012926D02*
X023637Y012926D01*
X023706Y012857D02*
X023821Y012857D01*
X024059Y012857D02*
X024168Y012857D01*
X024330Y012750D02*
X024830Y013250D01*
X024330Y012750D02*
X024330Y011000D01*
X023420Y010090D01*
X020170Y010090D01*
X019992Y010268D01*
X019468Y010268D01*
X019468Y010425D02*
X020065Y010425D01*
X020230Y010260D01*
X023090Y010260D01*
X023830Y011000D01*
X023330Y011000D02*
X023228Y010898D01*
X019468Y010898D01*
X019468Y011055D02*
X022905Y011055D01*
X023520Y011670D01*
X023770Y011670D01*
X023520Y011950D02*
X023520Y012220D01*
X023860Y012560D01*
X023940Y012560D01*
X023450Y012660D02*
X023310Y012520D01*
X023310Y012030D01*
X022650Y011370D01*
X019468Y011370D01*
X019468Y011213D02*
X022783Y011213D01*
X023520Y011950D01*
X023115Y012104D02*
X022909Y012104D01*
X022962Y012035D02*
X023046Y012035D01*
X023120Y012172D02*
X022811Y012172D01*
X023120Y012241D02*
X022412Y012241D01*
X022382Y012309D02*
X023120Y012309D01*
X023120Y012378D02*
X020368Y012378D01*
X020370Y012309D02*
X020478Y012309D01*
X020448Y012241D02*
X020368Y012241D01*
X020339Y012172D02*
X020448Y012172D01*
X020448Y012104D02*
X020389Y012104D01*
X020190Y011850D02*
X020183Y011843D01*
X019468Y011843D01*
X019468Y012000D02*
X019850Y012000D01*
X019930Y012080D01*
X019930Y012190D01*
X020050Y012310D01*
X020345Y012446D02*
X023120Y012446D01*
X023120Y012515D02*
X020591Y012515D01*
X020666Y012583D02*
X023120Y012583D01*
X023130Y012652D02*
X020709Y012652D01*
X020737Y012720D02*
X023130Y012720D01*
X023157Y012789D02*
X020740Y012789D01*
X020739Y012857D02*
X023194Y012857D01*
X023263Y012926D02*
X020710Y012926D01*
X020420Y012790D02*
X020260Y012630D01*
X019468Y012630D01*
X019468Y012787D02*
X019987Y012787D01*
X020060Y012860D01*
X020060Y013100D01*
X020210Y013250D01*
X020439Y013474D02*
X022774Y013474D01*
X022737Y013542D02*
X020341Y013542D01*
X020230Y013611D02*
X022710Y013611D01*
X022710Y013679D02*
X020230Y013679D01*
X020230Y013748D02*
X022716Y013748D01*
X022744Y013816D02*
X020230Y013816D01*
X020230Y013885D02*
X022792Y013885D01*
X022877Y013953D02*
X020230Y013953D01*
X020040Y013550D02*
X019890Y013400D01*
X019890Y013020D01*
X019815Y012945D01*
X019468Y012945D01*
X019018Y012926D02*
X018104Y012926D01*
X018132Y012994D02*
X019018Y012994D01*
X019018Y013063D02*
X018150Y013063D01*
X018150Y013131D02*
X019018Y013131D01*
X019018Y013200D02*
X018135Y013200D01*
X018315Y013268D02*
X019018Y013268D01*
X019018Y012857D02*
X018040Y012857D01*
X017914Y012789D02*
X019018Y012789D01*
X017830Y013100D02*
X017830Y013710D01*
X017775Y013765D01*
X017775Y014638D01*
X017617Y014638D02*
X017617Y013667D01*
X017500Y013550D01*
X017302Y013722D02*
X017180Y013600D01*
X017180Y013250D01*
X017230Y013200D01*
X017477Y012994D02*
X017528Y012994D01*
X017556Y012926D02*
X017404Y012926D01*
X016880Y013050D02*
X016880Y013550D01*
X017145Y013815D01*
X017145Y014638D01*
X017302Y014638D02*
X017302Y013722D01*
X016987Y014057D02*
X016530Y013600D01*
X016530Y013200D01*
X016210Y013200D02*
X015949Y013200D01*
X015881Y013268D02*
X016157Y013268D01*
X016031Y013337D02*
X015812Y013337D01*
X015744Y013405D02*
X015966Y013405D01*
X015938Y013474D02*
X015675Y013474D01*
X015607Y013542D02*
X015920Y013542D01*
X015920Y013611D02*
X015600Y013611D01*
X015594Y013679D02*
X015935Y013679D01*
X015963Y013748D02*
X015565Y013748D01*
X015517Y013816D02*
X016023Y013816D01*
X016139Y013885D02*
X015429Y013885D01*
X015022Y013405D02*
X014642Y013405D01*
X014642Y013337D02*
X015091Y013337D01*
X015343Y013268D02*
X014642Y013268D01*
X014642Y013260D02*
X014589Y013260D01*
X014589Y013260D01*
X014589Y013260D01*
X014642Y013260D01*
X014642Y013200D02*
X015412Y013200D01*
X015480Y013131D02*
X014642Y013131D01*
X014642Y013063D02*
X015549Y013063D01*
X015617Y012994D02*
X014642Y012994D01*
X014642Y012926D02*
X015686Y012926D01*
X015754Y012857D02*
X014642Y012857D01*
X014642Y012789D02*
X015823Y012789D01*
X015891Y012720D02*
X014642Y012720D01*
X014192Y013102D02*
X013688Y013102D01*
X013586Y013000D01*
X013790Y013260D02*
X013620Y013430D01*
X013620Y013850D01*
X013742Y013816D02*
X013162Y013816D01*
X013162Y013748D02*
X013742Y013748D01*
X013742Y013679D02*
X013162Y013679D01*
X013162Y013611D02*
X013742Y013611D01*
X013742Y013405D02*
X010770Y013405D01*
X010770Y013337D02*
X013742Y013337D01*
X013790Y013260D02*
X014192Y013260D01*
X013742Y013885D02*
X013162Y013885D01*
X013155Y013953D02*
X013742Y013953D01*
X013893Y014090D02*
X016481Y014090D01*
X016413Y014022D02*
X014614Y014022D01*
X014797Y014227D02*
X013972Y014227D01*
X013980Y014296D02*
X014746Y014296D01*
X014746Y014364D02*
X013980Y014364D01*
X013956Y014433D02*
X014746Y014433D01*
X014560Y014501D02*
X013922Y014501D01*
X013853Y014570D02*
X014492Y014570D01*
X014502Y014559D02*
X014502Y014559D01*
X014423Y014638D02*
X013421Y014638D01*
X013467Y014570D02*
X013020Y014570D01*
X013039Y014638D02*
X012961Y014638D01*
X012971Y014707D02*
X012892Y014707D01*
X012935Y014775D02*
X012824Y014775D01*
X012755Y014844D02*
X012910Y014844D01*
X012910Y014912D02*
X012505Y014912D01*
X012500Y014981D02*
X012881Y014981D01*
X012812Y015049D02*
X012505Y015049D01*
X012830Y015300D02*
X012150Y015300D01*
X012150Y015499D02*
X012531Y015499D01*
X012630Y015600D01*
X012950Y015597D02*
X013524Y015597D01*
X013510Y015529D02*
X012947Y015529D01*
X012939Y015460D02*
X013510Y015460D01*
X013529Y015392D02*
X013007Y015392D01*
X013020Y015379D02*
X013020Y015379D01*
X013076Y015323D02*
X013557Y015323D01*
X013623Y015255D02*
X013144Y015255D01*
X013376Y015186D02*
X013752Y015186D01*
X013944Y015118D02*
X013465Y015118D01*
X013515Y015049D02*
X014012Y015049D01*
X014081Y014981D02*
X013543Y014981D01*
X013550Y014912D02*
X014149Y014912D01*
X014218Y014844D02*
X013550Y014844D01*
X013525Y014775D02*
X014286Y014775D01*
X014355Y014707D02*
X013489Y014707D01*
X013398Y014501D02*
X013119Y014501D01*
X013162Y014433D02*
X013364Y014433D01*
X013340Y014364D02*
X013162Y014364D01*
X013162Y014296D02*
X013340Y014296D01*
X013348Y014227D02*
X013162Y014227D01*
X013162Y014159D02*
X013376Y014159D01*
X013427Y014090D02*
X013162Y014090D01*
X013130Y014022D02*
X013520Y014022D01*
X013944Y014159D02*
X016550Y014159D01*
X016358Y014188D02*
X016358Y014241D01*
X016358Y014241D01*
X016358Y014241D01*
X016358Y014188D01*
X016358Y014227D02*
X016358Y014227D01*
X016830Y014170D02*
X016240Y013580D01*
X016212Y013131D02*
X016018Y013131D01*
X016086Y013063D02*
X016241Y013063D01*
X016987Y014057D02*
X016987Y014638D01*
X016830Y014638D02*
X016830Y014170D01*
X016673Y014638D02*
X016673Y015243D01*
X016780Y015350D01*
X017000Y015118D02*
X018390Y015118D01*
X018361Y015186D02*
X017058Y015186D01*
X017087Y015255D02*
X018340Y015255D01*
X018340Y015323D02*
X017100Y015323D01*
X017100Y015392D02*
X018352Y015392D01*
X018380Y015460D02*
X017136Y015460D01*
X017231Y015529D02*
X018436Y015529D01*
X018541Y015597D02*
X017346Y015597D01*
X017414Y015666D02*
X021740Y015666D01*
X021711Y015597D02*
X019641Y015597D01*
X019499Y015597D02*
X018779Y015597D01*
X018884Y015529D02*
X019366Y015529D01*
X019298Y015460D02*
X018940Y015460D01*
X018968Y015392D02*
X019270Y015392D01*
X019250Y015323D02*
X018980Y015323D01*
X018984Y015255D02*
X019250Y015255D01*
X019263Y015186D02*
X019053Y015186D01*
X019121Y015118D02*
X019291Y015118D01*
X019348Y015049D02*
X019190Y015049D01*
X019258Y014981D02*
X019457Y014981D01*
X019431Y014912D02*
X019327Y014912D01*
X019395Y014844D02*
X019402Y014844D01*
X019710Y014750D02*
X019890Y014570D01*
X019890Y013630D01*
X019835Y013575D01*
X019468Y013575D01*
X019468Y013732D02*
X019068Y013732D01*
X018810Y013990D01*
X018810Y014090D01*
X019050Y014330D01*
X019468Y014502D02*
X018660Y015310D01*
X018660Y015300D01*
X017615Y015871D02*
X020890Y015871D01*
X021070Y015871D02*
X021835Y015871D01*
X021835Y015803D02*
X017551Y015803D01*
X017483Y015734D02*
X021781Y015734D01*
X021752Y015940D02*
X021708Y015940D01*
X022025Y016200D02*
X022025Y015535D01*
X022030Y015530D01*
X021710Y015529D02*
X019774Y015529D01*
X019849Y015460D02*
X021713Y015460D01*
X021741Y015392D02*
X019917Y015392D01*
X019986Y015323D02*
X021784Y015323D01*
X021859Y015255D02*
X020054Y015255D01*
X020123Y015186D02*
X022290Y015186D01*
X022285Y015255D02*
X022201Y015255D01*
X022276Y015323D02*
X022281Y015323D01*
X022262Y015118D02*
X020191Y015118D01*
X020230Y015049D02*
X022260Y015049D01*
X022262Y014981D02*
X020230Y014981D01*
X020230Y014912D02*
X022291Y014912D01*
X022334Y014844D02*
X020230Y014844D01*
X020040Y015000D02*
X020040Y013550D01*
X020492Y013405D02*
X022842Y013405D01*
X023316Y013816D02*
X025140Y013816D01*
X025140Y013748D02*
X025001Y013748D01*
X025140Y013885D02*
X023268Y013885D01*
X023183Y013953D02*
X025108Y013953D01*
X025330Y014000D02*
X024830Y014500D01*
X025313Y014707D02*
X025347Y014707D01*
X025376Y014775D02*
X025284Y014775D01*
X025229Y014844D02*
X025425Y014844D01*
X025425Y014912D02*
X025160Y014912D01*
X025042Y014981D02*
X025425Y014981D01*
X025330Y014000D02*
X025330Y010500D01*
X024960Y010130D01*
X024570Y010130D01*
X024310Y009870D01*
X020140Y009870D01*
X019900Y010110D01*
X019468Y010110D01*
X019670Y009850D02*
X019140Y009850D01*
X018890Y010100D01*
X018890Y010620D01*
X019010Y010740D01*
X019468Y010740D01*
X019468Y010583D02*
X020367Y010583D01*
X020380Y010580D01*
X019670Y009850D02*
X019730Y009790D01*
X019962Y009569D02*
X022850Y009569D01*
X022806Y009525D02*
X021861Y009525D01*
X021770Y009434D01*
X021770Y009066D01*
X021836Y009000D01*
X021770Y008934D01*
X021770Y008566D01*
X021836Y008500D01*
X021770Y008434D01*
X021770Y008066D01*
X021836Y008000D01*
X021770Y007934D01*
X021770Y007566D01*
X021861Y007475D01*
X022085Y007475D01*
X022085Y007415D01*
X022127Y007314D01*
X022204Y007237D01*
X022580Y006861D01*
X022580Y006856D01*
X022629Y006739D01*
X022719Y006649D01*
X022836Y006600D01*
X022841Y006600D01*
X023148Y006293D01*
X023249Y006251D01*
X023308Y006251D01*
X023258Y006157D01*
X023245Y006026D01*
X023264Y005965D01*
X023264Y005948D01*
X023283Y005902D01*
X023298Y005854D01*
X023308Y005842D01*
X023314Y005827D01*
X023350Y005792D01*
X023382Y005753D01*
X023396Y005746D01*
X023407Y005734D01*
X023453Y005715D01*
X023498Y005692D01*
X023514Y005690D01*
X023528Y005684D01*
X023578Y005684D01*
X023628Y005679D01*
X023644Y005684D01*
X024146Y005684D01*
X024235Y005721D01*
X024321Y005721D01*
X024339Y005739D01*
X024388Y005739D01*
X024388Y005686D01*
X024479Y005595D01*
X025181Y005595D01*
X025272Y005686D01*
X025272Y005715D01*
X025375Y005715D01*
X025433Y005739D01*
X025391Y005500D01*
X025447Y005179D01*
X025447Y005179D01*
X025610Y004896D01*
X025856Y004690D01*
X025262Y004690D01*
X025275Y004703D01*
X025355Y004896D01*
X025355Y005104D01*
X025275Y005297D01*
X025127Y005445D01*
X024934Y005525D01*
X024726Y005525D01*
X024533Y005445D01*
X024385Y005297D01*
X024330Y005165D01*
X024275Y005297D01*
X024127Y005445D01*
X023934Y005525D01*
X023726Y005525D01*
X023618Y005481D01*
X021589Y007510D01*
X020834Y007510D01*
X020859Y007535D01*
X020879Y007570D01*
X020890Y007610D01*
X020890Y007725D01*
X020325Y007725D01*
X020325Y007775D01*
X020890Y007775D01*
X020890Y007890D01*
X020879Y007930D01*
X020859Y007965D01*
X020830Y007994D01*
X020823Y007998D01*
X020890Y008066D01*
X020890Y008434D01*
X020824Y008500D01*
X020890Y008566D01*
X020890Y008934D01*
X020824Y009000D01*
X020890Y009066D01*
X020890Y009434D01*
X020799Y009525D01*
X019918Y009525D01*
X020001Y009609D01*
X020040Y009702D01*
X020061Y009680D01*
X022961Y009680D01*
X022952Y009671D01*
X022918Y009642D01*
X022914Y009633D01*
X022806Y009525D01*
X022916Y009638D02*
X020013Y009638D01*
X020824Y009501D02*
X021836Y009501D01*
X021770Y009432D02*
X020890Y009432D01*
X020890Y009364D02*
X021770Y009364D01*
X021770Y009295D02*
X020890Y009295D01*
X020890Y009227D02*
X021770Y009227D01*
X021770Y009158D02*
X020890Y009158D01*
X020890Y009090D02*
X021770Y009090D01*
X021815Y009021D02*
X020845Y009021D01*
X020872Y008953D02*
X021788Y008953D01*
X021770Y008884D02*
X020890Y008884D01*
X020890Y008816D02*
X021770Y008816D01*
X021770Y008747D02*
X020890Y008747D01*
X020890Y008679D02*
X021770Y008679D01*
X021770Y008610D02*
X020890Y008610D01*
X020866Y008542D02*
X021794Y008542D01*
X021809Y008473D02*
X020851Y008473D01*
X020890Y008405D02*
X021770Y008405D01*
X021770Y008336D02*
X020890Y008336D01*
X020890Y008268D02*
X021770Y008268D01*
X021770Y008199D02*
X020890Y008199D01*
X020890Y008131D02*
X021770Y008131D01*
X021774Y008062D02*
X020886Y008062D01*
X020831Y007994D02*
X021829Y007994D01*
X021770Y007925D02*
X020881Y007925D01*
X020890Y007857D02*
X021770Y007857D01*
X021770Y007788D02*
X020890Y007788D01*
X020890Y007720D02*
X021770Y007720D01*
X021770Y007651D02*
X020890Y007651D01*
X020883Y007583D02*
X021770Y007583D01*
X021822Y007514D02*
X020838Y007514D01*
X020275Y007725D02*
X019710Y007725D01*
X019710Y007610D01*
X019721Y007570D01*
X019741Y007535D01*
X019766Y007510D01*
X019190Y007510D01*
X019201Y007521D01*
X019222Y007556D01*
X019232Y007596D01*
X019232Y007720D01*
X018934Y007720D01*
X018934Y007788D01*
X019232Y007788D01*
X019710Y007788D01*
X019710Y007775D02*
X020275Y007775D01*
X020275Y007725D01*
X019762Y007514D02*
X019194Y007514D01*
X019229Y007583D02*
X019717Y007583D01*
X019710Y007651D02*
X019232Y007651D01*
X019232Y007720D02*
X019710Y007720D01*
X019710Y007775D02*
X019710Y007890D01*
X019721Y007930D01*
X019741Y007965D01*
X019751Y007975D01*
X019455Y007975D01*
X019395Y008000D01*
X019376Y008000D01*
X019268Y008045D01*
X019213Y008045D01*
X019178Y008010D01*
X019201Y007987D01*
X019222Y007952D01*
X019232Y007912D01*
X019232Y007788D01*
X019232Y007857D02*
X019710Y007857D01*
X019719Y007925D02*
X019229Y007925D01*
X019195Y007994D02*
X019411Y007994D01*
X018900Y008266D02*
X018720Y008366D01*
X018720Y009362D01*
X018562Y009362D02*
X018562Y007548D01*
X018790Y007320D01*
X021510Y007320D01*
X023830Y005000D01*
X024322Y005185D02*
X024338Y005185D01*
X024367Y005254D02*
X024293Y005254D01*
X024250Y005322D02*
X024410Y005322D01*
X024478Y005391D02*
X024182Y005391D01*
X024094Y005459D02*
X024566Y005459D01*
X024478Y005596D02*
X023503Y005596D01*
X023571Y005528D02*
X025396Y005528D01*
X025391Y005500D02*
X025391Y005500D01*
X025398Y005459D02*
X025094Y005459D01*
X025182Y005391D02*
X025410Y005391D01*
X025422Y005322D02*
X025250Y005322D01*
X025293Y005254D02*
X025434Y005254D01*
X025446Y005185D02*
X025322Y005185D01*
X025350Y005117D02*
X025483Y005117D01*
X025523Y005048D02*
X025355Y005048D01*
X025355Y004980D02*
X025562Y004980D01*
X025602Y004911D02*
X025355Y004911D01*
X025333Y004843D02*
X025675Y004843D01*
X025610Y004896D02*
X025610Y004896D01*
X025756Y004774D02*
X025305Y004774D01*
X025276Y004706D02*
X025838Y004706D01*
X025408Y005596D02*
X025182Y005596D01*
X025251Y005665D02*
X025420Y005665D01*
X025418Y005733D02*
X025432Y005733D01*
X024409Y005665D02*
X023434Y005665D01*
X023410Y005733D02*
X023366Y005733D01*
X023340Y005802D02*
X023297Y005802D01*
X023293Y005870D02*
X023229Y005870D01*
X023268Y005939D02*
X023160Y005939D01*
X023092Y006007D02*
X023251Y006007D01*
X023250Y006076D02*
X023023Y006076D01*
X022955Y006144D02*
X023256Y006144D01*
X023287Y006213D02*
X022886Y006213D01*
X022818Y006281D02*
X023177Y006281D01*
X023092Y006350D02*
X022749Y006350D01*
X022681Y006418D02*
X023023Y006418D01*
X022955Y006487D02*
X022612Y006487D01*
X022544Y006555D02*
X022886Y006555D01*
X022780Y006624D02*
X022475Y006624D01*
X022407Y006692D02*
X022675Y006692D01*
X022620Y006761D02*
X022338Y006761D01*
X022270Y006829D02*
X022591Y006829D01*
X022544Y006898D02*
X022201Y006898D01*
X022133Y006966D02*
X022475Y006966D01*
X022407Y007035D02*
X022064Y007035D01*
X021996Y007103D02*
X022338Y007103D01*
X022270Y007172D02*
X021927Y007172D01*
X021859Y007240D02*
X022201Y007240D01*
X022204Y007237D02*
X022204Y007237D01*
X022133Y007309D02*
X021790Y007309D01*
X021722Y007377D02*
X022101Y007377D01*
X022085Y007446D02*
X021653Y007446D01*
X020800Y007030D02*
X022830Y005000D01*
X022108Y005453D02*
X021934Y005525D01*
X021726Y005525D01*
X021533Y005445D01*
X021385Y005297D01*
X021329Y005163D01*
X021317Y005202D01*
X021279Y005275D01*
X021230Y005342D01*
X021172Y005400D01*
X021105Y005449D01*
X021032Y005487D01*
X020953Y005512D01*
X020871Y005525D01*
X020865Y005525D01*
X020865Y005035D01*
X020795Y005035D01*
X020795Y005525D01*
X020789Y005525D01*
X020707Y005512D01*
X020628Y005487D01*
X020555Y005449D01*
X020488Y005400D01*
X020430Y005342D01*
X020381Y005275D01*
X020343Y005202D01*
X020331Y005163D01*
X020275Y005297D01*
X020127Y005445D01*
X019934Y005525D01*
X019726Y005525D01*
X019533Y005445D01*
X019385Y005297D01*
X019330Y005165D01*
X019275Y005297D01*
X019127Y005445D01*
X018993Y005501D01*
X019032Y005513D01*
X019105Y005551D01*
X019172Y005600D01*
X019230Y005658D01*
X019279Y005725D01*
X019317Y005798D01*
X019337Y005862D01*
X019339Y005859D01*
X019429Y005769D01*
X019546Y005720D01*
X019674Y005720D01*
X019791Y005769D01*
X019881Y005859D01*
X019930Y005976D01*
X019930Y006104D01*
X019881Y006221D01*
X019791Y006311D01*
X019674Y006360D01*
X019546Y006360D01*
X019429Y006311D01*
X019339Y006221D01*
X019323Y006183D01*
X019317Y006202D01*
X019279Y006275D01*
X019230Y006342D01*
X019172Y006400D01*
X019105Y006449D01*
X019032Y006487D01*
X021075Y006487D01*
X021006Y006555D02*
X013650Y006555D01*
X013650Y006564D02*
X013635Y006600D01*
X017199Y006600D01*
X017843Y007244D01*
X017879Y007209D01*
X017996Y007160D01*
X018124Y007160D01*
X018241Y007209D01*
X018262Y007229D01*
X018540Y006951D01*
X018651Y006840D01*
X020721Y006840D01*
X022108Y005453D01*
X022102Y005459D02*
X022094Y005459D01*
X022034Y005528D02*
X019059Y005528D01*
X019094Y005459D02*
X019566Y005459D01*
X019478Y005391D02*
X019182Y005391D01*
X019250Y005322D02*
X019410Y005322D01*
X019367Y005254D02*
X019293Y005254D01*
X019322Y005185D02*
X019338Y005185D01*
X019167Y005596D02*
X021965Y005596D01*
X021897Y005665D02*
X019235Y005665D01*
X019283Y005733D02*
X019515Y005733D01*
X019396Y005802D02*
X019318Y005802D01*
X019705Y005733D02*
X021828Y005733D01*
X021760Y005802D02*
X019824Y005802D01*
X019886Y005870D02*
X021691Y005870D01*
X021623Y005939D02*
X019914Y005939D01*
X019930Y006007D02*
X021554Y006007D01*
X021486Y006076D02*
X019930Y006076D01*
X019913Y006144D02*
X021417Y006144D01*
X021349Y006213D02*
X019885Y006213D01*
X019822Y006281D02*
X021280Y006281D01*
X021212Y006350D02*
X019699Y006350D01*
X019521Y006350D02*
X019223Y006350D01*
X019275Y006281D02*
X019398Y006281D01*
X019335Y006213D02*
X019311Y006213D01*
X019148Y006418D02*
X021143Y006418D01*
X020938Y006624D02*
X017222Y006624D01*
X017291Y006692D02*
X020869Y006692D01*
X020801Y006761D02*
X017359Y006761D01*
X017428Y006829D02*
X020732Y006829D01*
X020800Y007030D02*
X018730Y007030D01*
X018405Y007355D01*
X018405Y009362D01*
X018247Y009362D02*
X018247Y007667D01*
X018060Y007480D01*
X017847Y007240D02*
X017839Y007240D01*
X017770Y007172D02*
X017969Y007172D01*
X018151Y007172D02*
X018320Y007172D01*
X018388Y007103D02*
X017702Y007103D01*
X017633Y007035D02*
X018457Y007035D01*
X018525Y006966D02*
X017565Y006966D01*
X017496Y006898D02*
X018594Y006898D01*
X018707Y006512D02*
X018628Y006487D01*
X018027Y006487D01*
X017934Y006525D02*
X017726Y006525D01*
X017533Y006445D01*
X017385Y006297D01*
X017330Y006165D01*
X017275Y006297D01*
X017127Y006445D01*
X016934Y006525D01*
X016726Y006525D01*
X016533Y006445D01*
X016385Y006297D01*
X016355Y006225D01*
X016355Y006434D01*
X016264Y006525D01*
X015396Y006525D01*
X015305Y006434D01*
X015305Y006225D01*
X015275Y006297D01*
X015127Y006445D01*
X014934Y006525D01*
X014726Y006525D01*
X014533Y006445D01*
X014385Y006297D01*
X014330Y006165D01*
X014275Y006297D01*
X014127Y006445D01*
X013934Y006525D01*
X013726Y006525D01*
X013650Y006494D01*
X013650Y006564D01*
X013590Y006790D02*
X017120Y006790D01*
X017680Y007350D01*
X017680Y008500D01*
X017302Y008878D01*
X017302Y009362D01*
X017145Y009362D02*
X017145Y010005D01*
X017030Y010070D01*
X016804Y009843D02*
X015760Y009843D01*
X015760Y009812D02*
X015760Y010001D01*
X016159Y010400D01*
X016959Y010400D01*
X017029Y010470D01*
X017192Y010470D01*
X017160Y010394D01*
X017160Y010363D01*
X017094Y010390D01*
X016966Y010390D01*
X016849Y010341D01*
X016759Y010251D01*
X016710Y010134D01*
X016710Y010006D01*
X016759Y009889D01*
X016835Y009812D01*
X016673Y009812D01*
X016673Y009759D01*
X016673Y009759D01*
X016673Y009812D01*
X015760Y009812D01*
X015760Y009912D02*
X016749Y009912D01*
X016721Y009980D02*
X015760Y009980D01*
X015807Y010049D02*
X016710Y010049D01*
X016710Y010117D02*
X015876Y010117D01*
X015944Y010186D02*
X016731Y010186D01*
X016761Y010254D02*
X016013Y010254D01*
X016081Y010323D02*
X016830Y010323D01*
X017018Y010460D02*
X017187Y010460D01*
X017160Y010391D02*
X016150Y010391D01*
X016080Y010590D02*
X016880Y010590D01*
X016950Y010660D01*
X017670Y010660D01*
X018390Y011380D01*
X018607Y011145D02*
X019018Y011145D01*
X019018Y011213D02*
X018667Y011213D01*
X018696Y011282D02*
X019018Y011282D01*
X019018Y011350D02*
X018710Y011350D01*
X018710Y011419D02*
X019018Y011419D01*
X019018Y011487D02*
X018692Y011487D01*
X018664Y011556D02*
X019018Y011556D01*
X019018Y011624D02*
X018599Y011624D01*
X018472Y011693D02*
X019018Y011693D01*
X019018Y011685D02*
X019071Y011685D01*
X019018Y011685D01*
X019071Y011685D02*
X019071Y011685D01*
X019071Y011685D01*
X019018Y011761D02*
X015834Y011761D01*
X015765Y011693D02*
X016230Y011693D01*
X016131Y011624D02*
X015709Y011624D01*
X016490Y011693D02*
X017218Y011693D01*
X017091Y011624D02*
X016589Y011624D01*
X016642Y011556D02*
X017026Y011556D01*
X017382Y011693D02*
X017748Y011693D01*
X017621Y011624D02*
X017509Y011624D01*
X017830Y011380D02*
X017260Y010810D01*
X015950Y010810D01*
X015413Y010273D01*
X015413Y009362D01*
X015570Y009362D02*
X015570Y010080D01*
X016080Y010590D01*
X016673Y009833D02*
X016673Y009362D01*
X016830Y009362D02*
X016830Y008840D01*
X017030Y008640D01*
X017030Y008400D01*
X016830Y008200D01*
X016550Y008200D01*
X016450Y008100D01*
X016450Y007792D01*
X016408Y007750D01*
X016880Y007750D02*
X016890Y007470D01*
X017352Y007750D02*
X017352Y007982D01*
X017380Y008010D01*
X017382Y008008D01*
X017380Y008010D02*
X017380Y008510D01*
X016990Y008900D01*
X016990Y009360D01*
X016987Y009362D01*
X017460Y009362D02*
X017460Y008980D01*
X017690Y008750D01*
X017860Y008750D01*
X017890Y008780D01*
X017910Y008760D01*
X017920Y008760D01*
X017932Y009362D02*
X017932Y009792D01*
X018480Y010340D01*
X018480Y010670D01*
X018160Y010665D02*
X017944Y010665D01*
X018012Y010734D02*
X018160Y010734D01*
X018188Y010802D02*
X018081Y010802D01*
X018149Y010871D02*
X018228Y010871D01*
X018218Y010939D02*
X018296Y010939D01*
X018286Y011008D02*
X019018Y011008D01*
X019018Y011076D02*
X018492Y011076D01*
X018664Y010939D02*
X019018Y010939D01*
X018872Y010871D02*
X018732Y010871D01*
X018772Y010802D02*
X018803Y010802D01*
X018010Y010330D02*
X017775Y010095D01*
X017775Y009362D01*
X017617Y009362D02*
X017617Y010193D01*
X017480Y010330D01*
X018090Y009720D02*
X018260Y009890D01*
X018540Y009890D01*
X018590Y009940D01*
X018090Y009720D02*
X018090Y009362D01*
X019440Y009360D02*
X019550Y009250D01*
X020300Y009250D01*
X020300Y008750D02*
X019520Y008750D01*
X019440Y008830D01*
X019450Y008820D01*
X019480Y009320D02*
X019440Y009360D01*
X016673Y009759D02*
X016673Y009759D01*
X016673Y009775D02*
X016673Y009775D01*
X016515Y009362D02*
X016515Y008685D01*
X016680Y008520D01*
X016358Y008378D02*
X015650Y007670D01*
X015750Y007570D01*
X015760Y007570D01*
X015450Y008000D02*
X016043Y008593D01*
X016043Y009362D01*
X016200Y009362D02*
X016200Y008510D01*
X015190Y007500D01*
X014086Y007500D01*
X014080Y007494D01*
X014080Y007200D01*
X013880Y007000D01*
X012330Y007000D01*
X011735Y007580D01*
X012055Y007583D02*
X012620Y007583D01*
X012620Y007604D02*
X012620Y007476D01*
X012669Y007359D01*
X012759Y007269D01*
X012876Y007220D01*
X013004Y007220D01*
X013121Y007269D01*
X013211Y007359D01*
X013260Y007476D01*
X013260Y007604D01*
X013211Y007721D01*
X013121Y007811D01*
X013004Y007860D01*
X012876Y007860D01*
X012759Y007811D01*
X012669Y007721D01*
X012620Y007604D01*
X012640Y007651D02*
X012052Y007651D01*
X012024Y007720D02*
X012171Y007720D01*
X012089Y007788D02*
X011980Y007788D01*
X012043Y007857D02*
X011904Y007857D01*
X012489Y007720D02*
X012668Y007720D01*
X012735Y007788D02*
X012571Y007788D01*
X012617Y007857D02*
X012868Y007857D01*
X013012Y007857D02*
X013281Y007857D01*
X013281Y007925D02*
X012645Y007925D01*
X013145Y007788D02*
X013285Y007788D01*
X013287Y007720D02*
X013212Y007720D01*
X013240Y007651D02*
X013281Y007651D01*
X013281Y007583D02*
X013260Y007583D01*
X013260Y007514D02*
X013540Y007514D01*
X013540Y007534D02*
X013540Y007832D01*
X013540Y007966D01*
X013608Y007966D01*
X013608Y007534D01*
X013540Y007534D01*
X013540Y007583D02*
X013608Y007583D01*
X013608Y007651D02*
X013540Y007651D01*
X013540Y007720D02*
X013608Y007720D01*
X013608Y007788D02*
X013540Y007788D01*
X013540Y007857D02*
X013608Y007857D01*
X013608Y007925D02*
X013540Y007925D01*
X014086Y008000D02*
X014510Y008000D01*
X015450Y008000D01*
X016358Y008378D02*
X016358Y009362D01*
X013742Y010460D02*
X012779Y010460D01*
X012711Y010528D02*
X013742Y010528D01*
X013742Y010597D02*
X012642Y010597D01*
X012608Y011076D02*
X012540Y011076D01*
X012540Y011145D02*
X012608Y011145D01*
X012608Y011213D02*
X012540Y011213D01*
X012540Y011693D02*
X012608Y011693D01*
X012608Y011761D02*
X012540Y011761D01*
X012540Y011830D02*
X012608Y011830D01*
X012608Y011898D02*
X012540Y011898D01*
X012281Y012035D02*
X011518Y012035D01*
X011586Y012104D02*
X012281Y012104D01*
X012281Y012172D02*
X011623Y012172D01*
X011650Y012241D02*
X012294Y012241D01*
X012355Y012309D02*
X011650Y012309D01*
X011330Y012300D02*
X010580Y013050D01*
X010580Y014150D01*
X010495Y014235D01*
X010495Y014493D01*
X010495Y014693D02*
X010273Y014693D01*
X009874Y014294D01*
X009874Y014244D01*
X009830Y014244D01*
X009830Y014756D02*
X009965Y014891D01*
X010495Y014891D01*
X010495Y015101D02*
X009679Y015101D01*
X009530Y015250D01*
X009830Y015744D02*
X010274Y015300D01*
X010495Y015300D01*
X010614Y015734D02*
X010162Y015734D01*
X010162Y015803D02*
X010614Y015803D01*
X010614Y015871D02*
X010162Y015871D01*
X010162Y015940D02*
X010614Y015940D01*
X010614Y016008D02*
X010116Y016008D01*
X010175Y016077D02*
X010643Y016077D01*
X010711Y016145D02*
X010244Y016145D01*
X010086Y016256D02*
X010330Y016500D01*
X010035Y016625D02*
X009120Y016625D01*
X009120Y016693D02*
X010070Y016693D01*
X010139Y016762D02*
X009120Y016762D01*
X009120Y016830D02*
X010908Y016830D01*
X010916Y016832D02*
X010876Y016822D01*
X010841Y016801D01*
X010812Y016772D01*
X010792Y016737D01*
X010781Y016698D01*
X010781Y016534D01*
X011040Y016534D01*
X011040Y016832D01*
X010916Y016832D01*
X011040Y016830D02*
X011108Y016830D01*
X011108Y016762D02*
X011040Y016762D01*
X011040Y016693D02*
X011108Y016693D01*
X011108Y016625D02*
X011040Y016625D01*
X011040Y016556D02*
X011108Y016556D01*
X011108Y016466D02*
X011108Y016168D01*
X011131Y016168D01*
X011117Y016154D01*
X011103Y016168D01*
X011040Y016168D01*
X011040Y016466D01*
X011108Y016466D01*
X011108Y016419D02*
X011040Y016419D01*
X011040Y016351D02*
X011108Y016351D01*
X011108Y016282D02*
X011040Y016282D01*
X011040Y016214D02*
X011108Y016214D01*
X010826Y016214D02*
X010475Y016214D01*
X010565Y016282D02*
X010787Y016282D01*
X010781Y016351D02*
X010614Y016351D01*
X010643Y016419D02*
X010781Y016419D01*
X010781Y016556D02*
X010650Y016556D01*
X010650Y016488D02*
X011040Y016488D01*
X010781Y016625D02*
X010625Y016625D01*
X010590Y016693D02*
X010781Y016693D01*
X010806Y016762D02*
X010521Y016762D01*
X010010Y016556D02*
X009120Y016556D01*
X009120Y016488D02*
X009527Y016488D01*
X009498Y016419D02*
X009120Y016419D01*
X009120Y016351D02*
X009498Y016351D01*
X009498Y016282D02*
X009120Y016282D01*
X009120Y016214D02*
X009498Y016214D01*
X009498Y016145D02*
X009120Y016145D01*
X009120Y016077D02*
X009498Y016077D01*
X009830Y016256D02*
X010086Y016256D01*
X010177Y015666D02*
X010222Y015666D01*
X011825Y015813D02*
X011825Y016495D01*
X011830Y016500D01*
X012015Y016145D02*
X013426Y016145D01*
X013358Y016214D02*
X012125Y016214D01*
X012215Y016282D02*
X013289Y016282D01*
X013221Y016351D02*
X012264Y016351D01*
X012293Y016419D02*
X013152Y016419D01*
X013084Y016488D02*
X012300Y016488D01*
X012300Y016556D02*
X013015Y016556D01*
X012947Y016625D02*
X012275Y016625D01*
X012240Y016693D02*
X012878Y016693D01*
X012810Y016762D02*
X012171Y016762D01*
X011790Y016830D02*
X012810Y016830D01*
X012810Y016899D02*
X009120Y016899D01*
X009120Y016967D02*
X012810Y016967D01*
X012810Y017036D02*
X009063Y017036D01*
X008995Y017104D02*
X012810Y017104D01*
X012810Y017173D02*
X008926Y017173D01*
X008858Y017241D02*
X012810Y017241D01*
X012810Y017310D02*
X008789Y017310D01*
X008721Y017378D02*
X012810Y017378D01*
X012810Y017447D02*
X008652Y017447D01*
X008629Y017515D02*
X008584Y017515D01*
X009031Y017515D02*
X009629Y017515D01*
X009504Y017584D02*
X009156Y017584D01*
X009225Y017652D02*
X009435Y017652D01*
X009377Y017721D02*
X009283Y017721D01*
X009311Y017789D02*
X009349Y017789D01*
X010031Y017515D02*
X010629Y017515D01*
X010504Y017584D02*
X010156Y017584D01*
X010225Y017652D02*
X010435Y017652D01*
X010377Y017721D02*
X010283Y017721D01*
X010311Y017789D02*
X010349Y017789D01*
X011031Y017515D02*
X011629Y017515D01*
X011504Y017584D02*
X011156Y017584D01*
X011225Y017652D02*
X011435Y017652D01*
X011377Y017721D02*
X011283Y017721D01*
X011311Y017789D02*
X011349Y017789D01*
X012031Y017515D02*
X012629Y017515D01*
X012504Y017584D02*
X012156Y017584D01*
X012225Y017652D02*
X012435Y017652D01*
X012377Y017721D02*
X012283Y017721D01*
X012311Y017789D02*
X012349Y017789D01*
X012830Y018000D02*
X013000Y017830D01*
X013000Y016840D01*
X013590Y016250D01*
X014320Y016250D01*
X014623Y016145D02*
X014686Y016145D01*
X014755Y016077D02*
X014595Y016077D01*
X014531Y016008D02*
X014823Y016008D01*
X014892Y015940D02*
X014407Y015940D01*
X014436Y015803D02*
X015029Y015803D01*
X015018Y015734D02*
X015097Y015734D01*
X015147Y015666D02*
X015166Y015666D01*
X015213Y015597D02*
X015234Y015597D01*
X015241Y015529D02*
X015303Y015529D01*
X015260Y015460D02*
X015371Y015460D01*
X015440Y015392D02*
X015267Y015392D01*
X015336Y015323D02*
X015508Y015323D01*
X015577Y015255D02*
X015404Y015255D01*
X015445Y015186D02*
X015645Y015186D01*
X015695Y015118D02*
X015445Y015118D01*
X015255Y015135D02*
X014970Y015420D01*
X014940Y015420D01*
X014667Y015597D02*
X014636Y015597D01*
X014608Y015666D02*
X014733Y015666D01*
X014862Y015734D02*
X014549Y015734D01*
X014330Y015500D02*
X014730Y015100D01*
X015030Y015100D01*
X015098Y015032D01*
X015098Y014638D01*
X015255Y014638D02*
X015255Y015135D01*
X015885Y015215D02*
X014100Y017000D01*
X013480Y017000D01*
X013330Y017150D01*
X013560Y017500D02*
X013330Y017730D01*
X013330Y018500D01*
X012830Y019000D01*
X013830Y019000D02*
X014330Y018500D01*
X014330Y017500D01*
X014225Y017652D02*
X014435Y017652D01*
X014377Y017721D02*
X014283Y017721D01*
X014311Y017789D02*
X014349Y017789D01*
X014504Y017584D02*
X014156Y017584D01*
X014084Y017515D02*
X014629Y017515D01*
X015283Y017721D02*
X015377Y017721D01*
X015349Y017789D02*
X015311Y017789D01*
X016031Y017515D02*
X016629Y017515D01*
X016504Y017584D02*
X016156Y017584D01*
X016225Y017652D02*
X016435Y017652D01*
X016377Y017721D02*
X016283Y017721D01*
X016311Y017789D02*
X016349Y017789D01*
X017031Y017515D02*
X017629Y017515D01*
X017504Y017584D02*
X017156Y017584D01*
X017225Y017652D02*
X017435Y017652D01*
X017377Y017721D02*
X017283Y017721D01*
X017311Y017789D02*
X017349Y017789D01*
X018031Y017515D02*
X018629Y017515D01*
X018504Y017584D02*
X018156Y017584D01*
X018225Y017652D02*
X018435Y017652D01*
X018377Y017721D02*
X018283Y017721D01*
X018311Y017789D02*
X018349Y017789D01*
X019031Y017515D02*
X019527Y017515D01*
X019529Y017511D02*
X019558Y017482D01*
X019593Y017462D01*
X019632Y017451D01*
X019796Y017451D01*
X019796Y017710D01*
X019498Y017710D01*
X019498Y017586D01*
X019508Y017546D01*
X019529Y017511D01*
X019498Y017584D02*
X019156Y017584D01*
X019225Y017652D02*
X019498Y017652D01*
X019498Y017789D02*
X019311Y017789D01*
X019339Y017858D02*
X019498Y017858D01*
X019504Y017926D02*
X019355Y017926D01*
X019355Y017995D02*
X019546Y017995D01*
X019498Y018063D02*
X019355Y018063D01*
X019344Y018132D02*
X019498Y018132D01*
X019498Y018200D02*
X019315Y018200D01*
X019287Y018269D02*
X019498Y018269D01*
X019498Y018337D02*
X019235Y018337D01*
X019167Y018406D02*
X019498Y018406D01*
X019514Y018474D02*
X019057Y018474D01*
X019098Y018543D02*
X019582Y018543D01*
X019294Y018748D02*
X020366Y018748D01*
X020338Y018817D02*
X019322Y018817D01*
X019351Y018885D02*
X020309Y018885D01*
X020305Y018954D02*
X019355Y018954D01*
X019355Y019022D02*
X020305Y019022D01*
X020305Y019091D02*
X019355Y019091D01*
X019332Y019159D02*
X020328Y019159D01*
X020356Y019228D02*
X019304Y019228D01*
X019276Y019296D02*
X020384Y019296D01*
X020408Y018680D02*
X019252Y018680D01*
X019184Y018611D02*
X020476Y018611D01*
X020562Y018543D02*
X020078Y018543D01*
X020146Y018474D02*
X020603Y018474D01*
X021057Y018474D02*
X021967Y018474D01*
X022036Y018406D02*
X021167Y018406D01*
X021235Y018337D02*
X022104Y018337D01*
X022173Y018269D02*
X021287Y018269D01*
X021570Y018200D02*
X022241Y018200D01*
X022359Y018132D02*
X021638Y018132D01*
X021707Y018063D02*
X024178Y018063D01*
X023400Y017789D02*
X022260Y017789D01*
X021830Y017550D02*
X022780Y017550D01*
X023086Y017244D01*
X023086Y016500D01*
X023086Y016294D01*
X023380Y016000D01*
X023086Y015706D01*
X023086Y015500D01*
X022574Y015500D02*
X022580Y015050D01*
X022705Y015935D02*
X022574Y016066D01*
X022574Y016500D01*
X022281Y016488D02*
X022275Y016488D01*
X022279Y016556D02*
X022281Y016556D01*
X022279Y016625D02*
X022281Y016625D01*
X022281Y016693D02*
X022020Y016693D01*
X022020Y016762D02*
X021952Y016762D01*
X021952Y016830D02*
X022020Y016830D01*
X022020Y016899D02*
X021952Y016899D01*
X021952Y016967D02*
X022020Y016967D01*
X022251Y016967D02*
X022896Y016967D01*
X022896Y016899D02*
X022278Y016899D01*
X022279Y016830D02*
X022370Y016830D01*
X022301Y016762D02*
X022279Y016762D01*
X022778Y016830D02*
X022882Y016830D01*
X022896Y017036D02*
X015528Y017036D01*
X015588Y017104D02*
X022896Y017104D01*
X022889Y017173D02*
X015616Y017173D01*
X015630Y017241D02*
X022820Y017241D01*
X022752Y017310D02*
X022259Y017310D01*
X023015Y017584D02*
X023375Y017584D01*
X023375Y017652D02*
X022947Y017652D01*
X022878Y017721D02*
X023375Y017721D01*
X023375Y017515D02*
X023084Y017515D01*
X023152Y017447D02*
X023375Y017447D01*
X023375Y017378D02*
X023221Y017378D01*
X023276Y017310D02*
X023401Y017310D01*
X021401Y017310D02*
X015630Y017310D01*
X015612Y017378D02*
X021375Y017378D01*
X021207Y016967D02*
X020751Y016967D01*
X020778Y016899D02*
X021181Y016899D01*
X021181Y016830D02*
X020779Y016830D01*
X020779Y016762D02*
X021181Y016762D01*
X021181Y016693D02*
X020520Y016693D01*
X020520Y016762D02*
X020452Y016762D01*
X020452Y016830D02*
X020520Y016830D01*
X020520Y016899D02*
X020452Y016899D01*
X020452Y016967D02*
X020520Y016967D01*
X020779Y016625D02*
X021181Y016625D01*
X021181Y016556D02*
X020779Y016556D01*
X020775Y016488D02*
X020886Y016488D01*
X021074Y016488D02*
X021181Y016488D01*
X020960Y016200D02*
X020525Y016200D01*
X020252Y015940D02*
X020208Y015940D01*
X019661Y015940D02*
X019229Y015940D01*
X019197Y015908D02*
X019288Y015998D01*
X019288Y016250D01*
X019394Y016250D01*
X019511Y016299D01*
X019601Y016389D01*
X019650Y016506D01*
X019650Y016634D01*
X019601Y016751D01*
X019511Y016841D01*
X019394Y016890D01*
X019266Y016890D01*
X019149Y016841D01*
X019059Y016751D01*
X019059Y016898D01*
X019048Y016937D01*
X019028Y016972D01*
X018999Y017001D01*
X018964Y017022D01*
X018924Y017032D01*
X018800Y017032D01*
X018800Y016734D01*
X018732Y016734D01*
X018732Y017032D01*
X018608Y017032D01*
X018568Y017022D01*
X018533Y017001D01*
X018510Y016978D01*
X018456Y017032D01*
X018052Y017032D01*
X017961Y016941D01*
X017961Y016459D01*
X018052Y016368D01*
X018072Y016368D01*
X018072Y015998D01*
X018163Y015908D01*
X018606Y015908D01*
X018680Y015981D01*
X018754Y015908D01*
X019197Y015908D01*
X019288Y016008D02*
X019622Y016008D01*
X019622Y016077D02*
X019288Y016077D01*
X019288Y016145D02*
X019622Y016145D01*
X019622Y016214D02*
X019288Y016214D01*
X019471Y016282D02*
X019622Y016282D01*
X019622Y016351D02*
X019563Y016351D01*
X019614Y016419D02*
X019622Y016419D01*
X019642Y016488D02*
X019681Y016488D01*
X019681Y016556D02*
X019650Y016556D01*
X019650Y016625D02*
X019681Y016625D01*
X019681Y016693D02*
X019625Y016693D01*
X019591Y016762D02*
X019681Y016762D01*
X019681Y016830D02*
X019523Y016830D01*
X019681Y016899D02*
X019058Y016899D01*
X019059Y016830D02*
X019137Y016830D01*
X019069Y016762D02*
X019059Y016762D01*
X019059Y016751D02*
X019059Y016751D01*
X019031Y016967D02*
X019707Y016967D01*
X019330Y016570D02*
X018980Y016220D01*
X018975Y016220D01*
X018722Y015940D02*
X018638Y015940D01*
X018131Y015940D02*
X017679Y015940D01*
X017738Y016008D02*
X018072Y016008D01*
X018072Y016077D02*
X017738Y016077D01*
X017738Y016145D02*
X018072Y016145D01*
X018072Y016214D02*
X017738Y016214D01*
X017738Y016282D02*
X018072Y016282D01*
X018072Y016351D02*
X017738Y016351D01*
X017739Y016419D02*
X018001Y016419D01*
X017961Y016488D02*
X017775Y016488D01*
X017779Y016556D02*
X017961Y016556D01*
X017961Y016625D02*
X017779Y016625D01*
X017779Y016762D02*
X017961Y016762D01*
X017961Y016830D02*
X017779Y016830D01*
X017778Y016899D02*
X017961Y016899D01*
X017987Y016967D02*
X017751Y016967D01*
X017520Y016967D02*
X017452Y016967D01*
X017452Y016899D02*
X017520Y016899D01*
X017520Y016830D02*
X017452Y016830D01*
X017452Y016762D02*
X017520Y016762D01*
X017520Y016693D02*
X017961Y016693D01*
X017425Y016220D02*
X017425Y015945D01*
X017230Y015750D01*
X017000Y015750D01*
X016515Y015575D02*
X016330Y015760D01*
X016515Y015575D02*
X016515Y014638D01*
X016043Y014638D02*
X016043Y015287D01*
X013830Y017500D01*
X013560Y017500D01*
X014330Y018165D02*
X014275Y018297D01*
X014127Y018445D01*
X013993Y018501D01*
X014032Y018513D01*
X014105Y018551D01*
X014172Y018600D01*
X014230Y018658D01*
X014279Y018725D01*
X014317Y018798D01*
X014329Y018837D01*
X014385Y018703D01*
X014533Y018555D01*
X014665Y018500D01*
X014533Y018445D01*
X014385Y018297D01*
X014330Y018165D01*
X014315Y018200D02*
X014345Y018200D01*
X014373Y018269D02*
X014287Y018269D01*
X014235Y018337D02*
X014425Y018337D01*
X014493Y018406D02*
X014167Y018406D01*
X014057Y018474D02*
X014603Y018474D01*
X014562Y018543D02*
X014089Y018543D01*
X014184Y018611D02*
X014476Y018611D01*
X014408Y018680D02*
X014246Y018680D01*
X014291Y018748D02*
X014366Y018748D01*
X014338Y018817D02*
X014322Y018817D01*
X015415Y016967D02*
X016707Y016967D01*
X016681Y016899D02*
X015534Y016899D01*
X015603Y016830D02*
X016681Y016830D01*
X016681Y016762D02*
X015642Y016762D01*
X015670Y016693D02*
X016681Y016693D01*
X016640Y016625D02*
X015670Y016625D01*
X015666Y016556D02*
X016640Y016556D01*
X016568Y016488D02*
X016413Y016488D01*
X016439Y016419D02*
X016522Y016419D01*
X016522Y016351D02*
X016439Y016351D01*
X016439Y016282D02*
X016522Y016282D01*
X016522Y016214D02*
X016439Y016214D01*
X016439Y016145D02*
X016522Y016145D01*
X016522Y016077D02*
X016439Y016077D01*
X015668Y016282D02*
X015600Y016282D01*
X015600Y016214D02*
X015385Y016214D01*
X015600Y016351D02*
X015668Y016351D01*
X015668Y016419D02*
X015600Y016419D01*
X015637Y016488D02*
X015668Y016488D01*
X014960Y015871D02*
X012812Y015871D01*
X012880Y015803D02*
X013724Y015803D01*
X013611Y015734D02*
X012921Y015734D01*
X012949Y015666D02*
X013552Y015666D01*
X013830Y015500D02*
X014692Y014638D01*
X014940Y014638D01*
X015885Y014638D02*
X015885Y015215D01*
X014224Y015803D02*
X013936Y015803D01*
X014049Y015734D02*
X014111Y015734D01*
X014233Y015940D02*
X012030Y015940D01*
X012030Y016008D02*
X014109Y016008D01*
X013495Y016077D02*
X012015Y016077D01*
X012030Y015871D02*
X012448Y015871D01*
X012380Y015803D02*
X012030Y015803D01*
X012030Y015734D02*
X012339Y015734D01*
X012830Y015300D02*
X013230Y014900D01*
X012830Y014500D02*
X012637Y014693D01*
X012150Y014693D01*
X011825Y014179D02*
X011825Y013955D01*
X012036Y013744D01*
X012274Y013744D01*
X012280Y013750D01*
X012286Y013744D01*
X012035Y013542D02*
X010770Y013542D01*
X010770Y013474D02*
X012111Y013474D01*
X011901Y013611D02*
X010770Y013611D01*
X010770Y013679D02*
X011832Y013679D01*
X011764Y013748D02*
X010770Y013748D01*
X010770Y013816D02*
X011695Y013816D01*
X010830Y013800D02*
X010819Y013811D01*
X010819Y014179D01*
X010819Y013885D02*
X010819Y013885D01*
X012830Y014256D02*
X012830Y014500D01*
X008880Y012100D02*
X008530Y012450D01*
X008530Y016550D01*
X008080Y017000D01*
X007431Y016830D02*
X005522Y016830D01*
X005484Y016899D02*
X007363Y016899D01*
X007294Y016967D02*
X005416Y016967D01*
X005230Y016700D02*
X005330Y016600D01*
X005330Y016256D01*
X005662Y016282D02*
X005998Y016282D01*
X005998Y016214D02*
X005662Y016214D01*
X005662Y016145D02*
X005998Y016145D01*
X005998Y016077D02*
X005662Y016077D01*
X005616Y016008D02*
X006044Y016008D01*
X005998Y015940D02*
X005662Y015940D01*
X005662Y016351D02*
X005998Y016351D01*
X005998Y016419D02*
X005662Y016419D01*
X005633Y016488D02*
X006027Y016488D01*
X005044Y016967D02*
X004650Y016967D01*
X004650Y017036D02*
X007226Y017036D01*
X007157Y017104D02*
X004633Y017104D01*
X004605Y017173D02*
X007089Y017173D01*
X007020Y017241D02*
X004542Y017241D01*
X004419Y017310D02*
X006952Y017310D01*
X004976Y016899D02*
X004634Y016899D01*
X004606Y016830D02*
X004938Y016830D01*
X004074Y017256D02*
X003830Y017256D01*
X002880Y017750D02*
X002840Y017750D01*
X002830Y017760D01*
X006830Y019000D02*
X007330Y018500D01*
X011240Y016830D02*
X011382Y016830D01*
X006055Y013816D02*
X004162Y013816D01*
X004162Y013748D02*
X004563Y013748D01*
X004533Y013679D02*
X004162Y013679D01*
X004162Y013611D02*
X004533Y013611D01*
X004533Y013405D02*
X003227Y013405D01*
X003284Y013474D02*
X003566Y013474D01*
X003159Y013337D02*
X004533Y013337D01*
X004533Y013268D02*
X003038Y013268D01*
X003117Y013200D02*
X004533Y013200D01*
X004533Y013131D02*
X003191Y013131D01*
X003260Y013063D02*
X004533Y013063D01*
X004533Y012994D02*
X004126Y012994D01*
X004162Y012926D02*
X004533Y012926D01*
X004533Y012857D02*
X004162Y012857D01*
X004162Y012789D02*
X004533Y012789D01*
X004533Y012720D02*
X004162Y012720D01*
X004162Y012652D02*
X004533Y012652D01*
X004533Y012583D02*
X004162Y012583D01*
X004123Y012515D02*
X004533Y012515D01*
X004533Y012309D02*
X004420Y012309D01*
X004330Y012000D02*
X004086Y012244D01*
X003830Y012244D01*
X003534Y012994D02*
X003297Y012994D01*
X004330Y014250D02*
X004324Y014256D01*
X004532Y014501D02*
X005039Y014501D01*
X004998Y014844D02*
X004612Y014844D01*
X004640Y014912D02*
X004998Y014912D01*
X005032Y014981D02*
X004650Y014981D01*
X004650Y015049D02*
X005003Y015049D01*
X004998Y015118D02*
X004628Y015118D01*
X004597Y015186D02*
X004998Y015186D01*
X004998Y015255D02*
X004528Y015255D01*
X004074Y015256D02*
X003830Y015256D01*
X007127Y013268D02*
X007138Y013268D01*
X007127Y013200D02*
X007178Y013200D01*
X007127Y013131D02*
X007246Y013131D01*
X007127Y013063D02*
X007379Y013063D01*
X007488Y012994D02*
X007127Y012994D01*
X007127Y012926D02*
X007504Y012926D01*
X007498Y012857D02*
X007127Y012857D01*
X007127Y012789D02*
X007498Y012789D01*
X008161Y012583D02*
X008340Y012583D01*
X008340Y012515D02*
X008268Y012515D01*
X008880Y012100D02*
X008880Y011700D01*
X007698Y010528D02*
X004565Y010528D01*
X004614Y010460D02*
X004669Y010460D01*
X004474Y010597D02*
X007281Y010597D01*
X007040Y010391D02*
X007800Y010391D01*
X007732Y010460D02*
X006991Y010460D01*
X007040Y010323D02*
X007727Y010323D01*
X007693Y010254D02*
X007040Y010254D01*
X007040Y010186D02*
X007693Y010186D01*
X007693Y010117D02*
X007040Y010117D01*
X007040Y010049D02*
X007693Y010049D01*
X007693Y009980D02*
X007040Y009980D01*
X007040Y009912D02*
X007693Y009912D01*
X007693Y009843D02*
X007040Y009843D01*
X007040Y009775D02*
X007693Y009775D01*
X007693Y009706D02*
X007040Y009706D01*
X007040Y009638D02*
X007743Y009638D01*
X008169Y009638D02*
X008429Y009638D01*
X008429Y009706D02*
X008219Y009706D01*
X008219Y009775D02*
X008429Y009775D01*
X008429Y009843D02*
X008219Y009843D01*
X008219Y009912D02*
X008429Y009912D01*
X008429Y009980D02*
X008219Y009980D01*
X008219Y010049D02*
X008431Y010049D01*
X008441Y010117D02*
X008219Y010117D01*
X008219Y010186D02*
X008441Y010186D01*
X008430Y009569D02*
X007040Y009569D01*
X007040Y009501D02*
X008458Y009501D01*
X008509Y009432D02*
X007040Y009432D01*
X007003Y009364D02*
X008578Y009364D01*
X008606Y009295D02*
X008646Y009295D01*
X008454Y009295D02*
X008325Y009295D01*
X007847Y009295D02*
X007813Y009295D01*
X007335Y009295D02*
X007005Y009295D01*
X006999Y008679D02*
X007361Y008679D01*
X007787Y008679D02*
X007873Y008679D01*
X008299Y008679D02*
X008385Y008679D01*
X009698Y009021D02*
X010348Y009021D01*
X010280Y008953D02*
X009766Y008953D01*
X009835Y008884D02*
X010239Y008884D01*
X010211Y008816D02*
X009903Y008816D01*
X009972Y008747D02*
X010210Y008747D01*
X010190Y008679D02*
X010040Y008679D01*
X010082Y008610D02*
X010121Y008610D01*
X010180Y008400D02*
X010530Y008750D01*
X010180Y008400D02*
X010180Y007500D01*
X010850Y006830D01*
X013550Y006830D01*
X013590Y006790D01*
X014027Y006487D02*
X014633Y006487D01*
X014506Y006418D02*
X014154Y006418D01*
X014223Y006350D02*
X014437Y006350D01*
X014378Y006281D02*
X014282Y006281D01*
X014310Y006213D02*
X014350Y006213D01*
X015027Y006487D02*
X015357Y006487D01*
X015305Y006418D02*
X015154Y006418D01*
X015223Y006350D02*
X015305Y006350D01*
X015305Y006281D02*
X015282Y006281D01*
X016303Y006487D02*
X016633Y006487D01*
X016506Y006418D02*
X016355Y006418D01*
X016355Y006350D02*
X016437Y006350D01*
X016378Y006281D02*
X016355Y006281D01*
X017027Y006487D02*
X017633Y006487D01*
X017506Y006418D02*
X017154Y006418D01*
X017223Y006350D02*
X017437Y006350D01*
X017378Y006281D02*
X017282Y006281D01*
X017310Y006213D02*
X017350Y006213D01*
X017934Y006525D02*
X018127Y006445D01*
X018275Y006297D01*
X018331Y006163D01*
X018343Y006202D01*
X018381Y006275D01*
X018430Y006342D01*
X018488Y006400D01*
X018555Y006449D01*
X018628Y006487D01*
X018707Y006512D02*
X018789Y006525D01*
X018795Y006525D01*
X018795Y006035D01*
X018865Y006035D01*
X018865Y006525D01*
X018871Y006525D01*
X018953Y006512D01*
X019032Y006487D01*
X018865Y006487D02*
X018795Y006487D01*
X018795Y006418D02*
X018865Y006418D01*
X018865Y006350D02*
X018795Y006350D01*
X018795Y006281D02*
X018865Y006281D01*
X018865Y006213D02*
X018795Y006213D01*
X018795Y006144D02*
X018865Y006144D01*
X018865Y006076D02*
X018795Y006076D01*
X018385Y006281D02*
X018282Y006281D01*
X018310Y006213D02*
X018349Y006213D01*
X018437Y006350D02*
X018223Y006350D01*
X018154Y006418D02*
X018512Y006418D01*
X020094Y005459D02*
X020574Y005459D01*
X020478Y005391D02*
X020182Y005391D01*
X020250Y005322D02*
X020415Y005322D01*
X020370Y005254D02*
X020293Y005254D01*
X020322Y005185D02*
X020338Y005185D01*
X020795Y005185D02*
X020865Y005185D01*
X020865Y005117D02*
X020795Y005117D01*
X020795Y005048D02*
X020865Y005048D01*
X020865Y005254D02*
X020795Y005254D01*
X020795Y005322D02*
X020865Y005322D01*
X020865Y005391D02*
X020795Y005391D01*
X020795Y005459D02*
X020865Y005459D01*
X021086Y005459D02*
X021566Y005459D01*
X021478Y005391D02*
X021182Y005391D01*
X021245Y005322D02*
X021410Y005322D01*
X021367Y005254D02*
X021290Y005254D01*
X021322Y005185D02*
X021338Y005185D01*
X024333Y005733D02*
X024388Y005733D01*
X020506Y011528D02*
X019468Y011528D01*
X019468Y011685D02*
X018955Y011685D01*
X018308Y011693D02*
X017912Y011693D01*
X018039Y011624D02*
X018181Y011624D01*
X018116Y011556D02*
X018104Y011556D01*
X020290Y012660D02*
X020420Y012790D01*
X021280Y012309D02*
X021580Y012309D01*
X021551Y012241D02*
X021309Y012241D01*
X021309Y012172D02*
X021551Y012172D01*
X021551Y012104D02*
X021309Y012104D01*
X021309Y012035D02*
X021551Y012035D01*
X021551Y011967D02*
X021309Y011967D01*
X021309Y011898D02*
X021551Y011898D01*
X021551Y011830D02*
X021309Y011830D01*
X021309Y011761D02*
X021551Y011761D01*
X021551Y011693D02*
X021309Y011693D01*
X021309Y011624D02*
X021551Y011624D01*
X020879Y011900D02*
X020506Y011528D01*
X019468Y013890D02*
X019468Y014502D01*
X020040Y015000D02*
X019760Y015280D01*
X019570Y015280D01*
X020960Y016200D02*
X020980Y016180D01*
X018800Y016762D02*
X018732Y016762D01*
X018732Y016830D02*
X018800Y016830D01*
X018800Y016899D02*
X018732Y016899D01*
X018732Y016967D02*
X018800Y016967D01*
X019796Y017515D02*
X019864Y017515D01*
X019864Y017584D02*
X019796Y017584D01*
X019796Y017652D02*
X019864Y017652D01*
X019864Y017721D02*
X020377Y017721D01*
X020349Y017789D02*
X020162Y017789D01*
X020162Y017858D02*
X020321Y017858D01*
X020305Y017926D02*
X020156Y017926D01*
X020114Y017995D02*
X020305Y017995D01*
X020435Y017652D02*
X020162Y017652D01*
X020162Y017584D02*
X020504Y017584D01*
X020629Y017515D02*
X020133Y017515D01*
X019796Y017721D02*
X019283Y017721D01*
X021098Y018543D02*
X021899Y018543D01*
X021830Y018611D02*
X021184Y018611D01*
X021252Y018680D02*
X021762Y018680D01*
X025083Y016214D02*
X025425Y016214D01*
X025425Y016145D02*
X025177Y016145D01*
X025246Y016077D02*
X025414Y016077D01*
X025369Y016008D02*
X025291Y016008D01*
X025320Y015940D02*
X025340Y015940D01*
X018562Y014241D02*
X018562Y014241D01*
X018562Y014227D02*
X018562Y014227D01*
X012127Y010254D02*
X012091Y010254D01*
X012177Y010186D02*
X012196Y010186D01*
X012225Y010117D02*
X012264Y010117D01*
X012254Y010049D02*
X012333Y010049D01*
X011100Y009638D02*
X010379Y009638D01*
X010439Y009706D02*
X011031Y009706D01*
X011001Y009775D02*
X010507Y009775D01*
X010544Y009843D02*
X010958Y009843D01*
X010890Y009912D02*
X010570Y009912D01*
X010570Y009980D02*
X010821Y009980D01*
X012075Y007514D02*
X012620Y007514D01*
X012633Y007446D02*
X012145Y007446D01*
X012215Y007377D02*
X012661Y007377D01*
X012719Y007309D02*
X012286Y007309D01*
X012356Y007240D02*
X012828Y007240D01*
X013052Y007240D02*
X013305Y007240D01*
X013281Y007309D02*
X013161Y007309D01*
X013219Y007377D02*
X013281Y007377D01*
X013281Y007446D02*
X013247Y007446D01*
X008830Y005925D02*
X008735Y005925D01*
X008730Y005930D01*
X008830Y005531D02*
X008830Y005100D01*
X008780Y005050D01*
X002778Y004774D02*
X002500Y004774D01*
X002568Y004843D02*
X002709Y004843D01*
X002691Y004911D02*
X002596Y004911D01*
X002610Y004980D02*
X002691Y004980D01*
X002691Y005048D02*
X002610Y005048D01*
X002585Y005117D02*
X002691Y005117D01*
X002691Y005185D02*
X002541Y005185D01*
X002450Y005254D02*
X002691Y005254D01*
X002691Y005322D02*
X002238Y005322D01*
X002250Y005391D02*
X002691Y005391D01*
X002691Y005459D02*
X002262Y005459D01*
X002269Y005500D02*
X002269Y005500D01*
X002264Y005528D02*
X002691Y005528D01*
X002691Y005596D02*
X002252Y005596D01*
X002240Y005665D02*
X002736Y005665D01*
X002064Y004911D02*
X002058Y004911D01*
X002050Y004896D02*
X002050Y004896D01*
X002050Y004896D01*
X002092Y004843D02*
X001985Y004843D01*
X001904Y004774D02*
X002160Y004774D01*
X004510Y011008D02*
X004595Y011008D01*
X004300Y011250D02*
X004294Y011244D01*
X003830Y011244D01*
D11*
X006264Y008990D03*
X006776Y008990D03*
X007574Y009000D03*
X008086Y009000D03*
X009574Y009500D03*
X010086Y009500D03*
X012574Y011000D03*
X013086Y011000D03*
X013086Y012000D03*
X012574Y012000D03*
X013074Y013000D03*
X013586Y013000D03*
X015634Y016220D03*
X016146Y016220D03*
X016974Y016700D03*
X017486Y016700D03*
X018254Y016700D03*
X018766Y016700D03*
X019974Y016700D03*
X020486Y016700D03*
X021474Y016700D03*
X021986Y016700D03*
X022574Y016500D03*
X023086Y016500D03*
X023086Y015500D03*
X022574Y015500D03*
X011586Y016500D03*
X011074Y016500D03*
X003861Y017760D03*
X003349Y017760D03*
X013574Y009000D03*
X014086Y009000D03*
X014086Y008500D03*
X013574Y008500D03*
X013574Y008000D03*
X014086Y008000D03*
X014086Y007500D03*
X013574Y007500D03*
D12*
X016835Y016220D03*
X017425Y016220D03*
X018385Y016220D03*
X018975Y016220D03*
X019935Y016200D03*
X020525Y016200D03*
X021435Y016200D03*
X022025Y016200D03*
D13*
X025680Y018500D02*
X025682Y018550D01*
X025688Y018600D01*
X025698Y018650D01*
X025711Y018698D01*
X025728Y018746D01*
X025749Y018792D01*
X025773Y018836D01*
X025801Y018878D01*
X025832Y018918D01*
X025866Y018955D01*
X025903Y018990D01*
X025942Y019021D01*
X025983Y019050D01*
X026027Y019075D01*
X026073Y019097D01*
X026120Y019115D01*
X026168Y019129D01*
X026217Y019140D01*
X026267Y019147D01*
X026317Y019150D01*
X026368Y019149D01*
X026418Y019144D01*
X026468Y019135D01*
X026516Y019123D01*
X026564Y019106D01*
X026610Y019086D01*
X026655Y019063D01*
X026698Y019036D01*
X026738Y019006D01*
X026776Y018973D01*
X026811Y018937D01*
X026844Y018898D01*
X026873Y018857D01*
X026899Y018814D01*
X026922Y018769D01*
X026941Y018722D01*
X026956Y018674D01*
X026968Y018625D01*
X026976Y018575D01*
X026980Y018525D01*
X026980Y018475D01*
X026976Y018425D01*
X026968Y018375D01*
X026956Y018326D01*
X026941Y018278D01*
X026922Y018231D01*
X026899Y018186D01*
X026873Y018143D01*
X026844Y018102D01*
X026811Y018063D01*
X026776Y018027D01*
X026738Y017994D01*
X026698Y017964D01*
X026655Y017937D01*
X026610Y017914D01*
X026564Y017894D01*
X026516Y017877D01*
X026468Y017865D01*
X026418Y017856D01*
X026368Y017851D01*
X026317Y017850D01*
X026267Y017853D01*
X026217Y017860D01*
X026168Y017871D01*
X026120Y017885D01*
X026073Y017903D01*
X026027Y017925D01*
X025983Y017950D01*
X025942Y017979D01*
X025903Y018010D01*
X025866Y018045D01*
X025832Y018082D01*
X025801Y018122D01*
X025773Y018164D01*
X025749Y018208D01*
X025728Y018254D01*
X025711Y018302D01*
X025698Y018350D01*
X025688Y018400D01*
X025682Y018450D01*
X025680Y018500D01*
X000680Y018500D02*
X000682Y018550D01*
X000688Y018600D01*
X000698Y018650D01*
X000711Y018698D01*
X000728Y018746D01*
X000749Y018792D01*
X000773Y018836D01*
X000801Y018878D01*
X000832Y018918D01*
X000866Y018955D01*
X000903Y018990D01*
X000942Y019021D01*
X000983Y019050D01*
X001027Y019075D01*
X001073Y019097D01*
X001120Y019115D01*
X001168Y019129D01*
X001217Y019140D01*
X001267Y019147D01*
X001317Y019150D01*
X001368Y019149D01*
X001418Y019144D01*
X001468Y019135D01*
X001516Y019123D01*
X001564Y019106D01*
X001610Y019086D01*
X001655Y019063D01*
X001698Y019036D01*
X001738Y019006D01*
X001776Y018973D01*
X001811Y018937D01*
X001844Y018898D01*
X001873Y018857D01*
X001899Y018814D01*
X001922Y018769D01*
X001941Y018722D01*
X001956Y018674D01*
X001968Y018625D01*
X001976Y018575D01*
X001980Y018525D01*
X001980Y018475D01*
X001976Y018425D01*
X001968Y018375D01*
X001956Y018326D01*
X001941Y018278D01*
X001922Y018231D01*
X001899Y018186D01*
X001873Y018143D01*
X001844Y018102D01*
X001811Y018063D01*
X001776Y018027D01*
X001738Y017994D01*
X001698Y017964D01*
X001655Y017937D01*
X001610Y017914D01*
X001564Y017894D01*
X001516Y017877D01*
X001468Y017865D01*
X001418Y017856D01*
X001368Y017851D01*
X001317Y017850D01*
X001267Y017853D01*
X001217Y017860D01*
X001168Y017871D01*
X001120Y017885D01*
X001073Y017903D01*
X001027Y017925D01*
X000983Y017950D01*
X000942Y017979D01*
X000903Y018010D01*
X000866Y018045D01*
X000832Y018082D01*
X000801Y018122D01*
X000773Y018164D01*
X000749Y018208D01*
X000728Y018254D01*
X000711Y018302D01*
X000698Y018350D01*
X000688Y018400D01*
X000682Y018450D01*
X000680Y018500D01*
X000680Y005500D02*
X000682Y005550D01*
X000688Y005600D01*
X000698Y005650D01*
X000711Y005698D01*
X000728Y005746D01*
X000749Y005792D01*
X000773Y005836D01*
X000801Y005878D01*
X000832Y005918D01*
X000866Y005955D01*
X000903Y005990D01*
X000942Y006021D01*
X000983Y006050D01*
X001027Y006075D01*
X001073Y006097D01*
X001120Y006115D01*
X001168Y006129D01*
X001217Y006140D01*
X001267Y006147D01*
X001317Y006150D01*
X001368Y006149D01*
X001418Y006144D01*
X001468Y006135D01*
X001516Y006123D01*
X001564Y006106D01*
X001610Y006086D01*
X001655Y006063D01*
X001698Y006036D01*
X001738Y006006D01*
X001776Y005973D01*
X001811Y005937D01*
X001844Y005898D01*
X001873Y005857D01*
X001899Y005814D01*
X001922Y005769D01*
X001941Y005722D01*
X001956Y005674D01*
X001968Y005625D01*
X001976Y005575D01*
X001980Y005525D01*
X001980Y005475D01*
X001976Y005425D01*
X001968Y005375D01*
X001956Y005326D01*
X001941Y005278D01*
X001922Y005231D01*
X001899Y005186D01*
X001873Y005143D01*
X001844Y005102D01*
X001811Y005063D01*
X001776Y005027D01*
X001738Y004994D01*
X001698Y004964D01*
X001655Y004937D01*
X001610Y004914D01*
X001564Y004894D01*
X001516Y004877D01*
X001468Y004865D01*
X001418Y004856D01*
X001368Y004851D01*
X001317Y004850D01*
X001267Y004853D01*
X001217Y004860D01*
X001168Y004871D01*
X001120Y004885D01*
X001073Y004903D01*
X001027Y004925D01*
X000983Y004950D01*
X000942Y004979D01*
X000903Y005010D01*
X000866Y005045D01*
X000832Y005082D01*
X000801Y005122D01*
X000773Y005164D01*
X000749Y005208D01*
X000728Y005254D01*
X000711Y005302D01*
X000698Y005350D01*
X000688Y005400D01*
X000682Y005450D01*
X000680Y005500D01*
X025680Y005500D02*
X025682Y005550D01*
X025688Y005600D01*
X025698Y005650D01*
X025711Y005698D01*
X025728Y005746D01*
X025749Y005792D01*
X025773Y005836D01*
X025801Y005878D01*
X025832Y005918D01*
X025866Y005955D01*
X025903Y005990D01*
X025942Y006021D01*
X025983Y006050D01*
X026027Y006075D01*
X026073Y006097D01*
X026120Y006115D01*
X026168Y006129D01*
X026217Y006140D01*
X026267Y006147D01*
X026317Y006150D01*
X026368Y006149D01*
X026418Y006144D01*
X026468Y006135D01*
X026516Y006123D01*
X026564Y006106D01*
X026610Y006086D01*
X026655Y006063D01*
X026698Y006036D01*
X026738Y006006D01*
X026776Y005973D01*
X026811Y005937D01*
X026844Y005898D01*
X026873Y005857D01*
X026899Y005814D01*
X026922Y005769D01*
X026941Y005722D01*
X026956Y005674D01*
X026968Y005625D01*
X026976Y005575D01*
X026980Y005525D01*
X026980Y005475D01*
X026976Y005425D01*
X026968Y005375D01*
X026956Y005326D01*
X026941Y005278D01*
X026922Y005231D01*
X026899Y005186D01*
X026873Y005143D01*
X026844Y005102D01*
X026811Y005063D01*
X026776Y005027D01*
X026738Y004994D01*
X026698Y004964D01*
X026655Y004937D01*
X026610Y004914D01*
X026564Y004894D01*
X026516Y004877D01*
X026468Y004865D01*
X026418Y004856D01*
X026368Y004851D01*
X026317Y004850D01*
X026267Y004853D01*
X026217Y004860D01*
X026168Y004871D01*
X026120Y004885D01*
X026073Y004903D01*
X026027Y004925D01*
X025983Y004950D01*
X025942Y004979D01*
X025903Y005010D01*
X025866Y005045D01*
X025832Y005082D01*
X025801Y005122D01*
X025773Y005164D01*
X025749Y005208D01*
X025728Y005254D01*
X025711Y005302D01*
X025698Y005350D01*
X025688Y005400D01*
X025682Y005450D01*
X025680Y005500D01*
D14*
X023620Y007809D03*
X023620Y008911D03*
X001260Y008301D03*
X001260Y007199D03*
D15*
X002220Y007744D03*
X002220Y008256D03*
X003780Y009294D03*
X003780Y009806D03*
X003780Y010294D03*
X003780Y010806D03*
X003830Y011244D03*
X003830Y011756D03*
X003830Y012244D03*
X003830Y012756D03*
X003830Y013744D03*
X003830Y014256D03*
X003830Y014744D03*
X003830Y015256D03*
X003830Y015744D03*
X003830Y016256D03*
X003830Y016744D03*
X003830Y017256D03*
X005330Y016256D03*
X005330Y015744D03*
X005330Y015256D03*
X005830Y015256D03*
X006330Y015256D03*
X006830Y015256D03*
X006330Y015744D03*
X006330Y016256D03*
X006330Y014744D03*
X005830Y014744D03*
X005330Y014744D03*
X006830Y014744D03*
X007830Y013256D03*
X007830Y012744D03*
X007830Y012256D03*
X007830Y011744D03*
X012830Y013744D03*
X012830Y014256D03*
X009830Y014244D03*
X009830Y014756D03*
X009830Y015744D03*
X009830Y016256D03*
X019830Y017744D03*
X019830Y018256D03*
X024830Y017756D03*
X024830Y017244D03*
X018900Y008266D03*
X018900Y007754D03*
X024080Y006526D03*
X024080Y006014D03*
X005180Y007744D03*
X005180Y008256D03*
D16*
X002830Y009500D03*
X001830Y009500D03*
X000830Y009500D03*
X000830Y010500D03*
X001830Y010500D03*
X002830Y010500D03*
X002830Y011750D03*
X001830Y011750D03*
X000830Y011750D03*
X000830Y012750D03*
X001830Y012750D03*
X002830Y012750D03*
X002830Y013750D03*
X001830Y013750D03*
X000830Y013750D03*
X000830Y015000D03*
X001830Y015000D03*
X002830Y015000D03*
X002830Y016000D03*
X001830Y016000D03*
X000830Y016000D03*
X000830Y017000D03*
X001830Y017000D03*
X002830Y017000D03*
X004830Y018000D03*
X005830Y018000D03*
X006830Y018000D03*
X006830Y019000D03*
X005830Y019000D03*
X004830Y019000D03*
X007830Y019000D03*
X008830Y019000D03*
X009830Y019000D03*
X010830Y019000D03*
X011830Y019000D03*
X012830Y019000D03*
X013830Y019000D03*
X014830Y019000D03*
X015830Y019000D03*
X016830Y019000D03*
X017830Y019000D03*
X018830Y019000D03*
X020830Y019000D03*
X020830Y018000D03*
X018830Y018000D03*
X017830Y018000D03*
X016830Y018000D03*
X015830Y018000D03*
X014830Y018000D03*
X013830Y018000D03*
X012830Y018000D03*
X011830Y018000D03*
X010830Y018000D03*
X009830Y018000D03*
X008830Y018000D03*
X024830Y015750D03*
X025830Y015750D03*
X026830Y015750D03*
X026830Y014500D03*
X025830Y014500D03*
X024830Y014500D03*
X024830Y013250D03*
X025830Y013250D03*
X026830Y013250D03*
X026830Y012000D03*
X025830Y012000D03*
X024830Y012000D03*
X024830Y010750D03*
X025830Y010750D03*
X026830Y010750D03*
X026830Y009500D03*
X025830Y009500D03*
X024830Y009500D03*
X024830Y008250D03*
X025830Y008250D03*
X026830Y008250D03*
X026830Y007000D03*
X025830Y007000D03*
X024830Y007000D03*
X024830Y005000D03*
X023830Y005000D03*
X022830Y005000D03*
X021830Y005000D03*
X020830Y005000D03*
X019830Y005000D03*
X018830Y005000D03*
X017830Y005000D03*
X016830Y005000D03*
X014830Y005000D03*
X013830Y005000D03*
X012830Y005000D03*
X011830Y005000D03*
X010830Y005000D03*
X009830Y005000D03*
X009830Y006000D03*
X010830Y006000D03*
X011830Y006000D03*
X012830Y006000D03*
X013830Y006000D03*
X014830Y006000D03*
X016830Y006000D03*
X017830Y006000D03*
X018830Y006000D03*
X025830Y017000D03*
X026830Y017000D03*
D17*
X021981Y011900D03*
X020879Y011900D03*
X010881Y010500D03*
X009779Y010500D03*
D18*
X014940Y009362D03*
X015098Y009362D03*
X015255Y009362D03*
X015413Y009362D03*
X015570Y009362D03*
X015728Y009362D03*
X015885Y009362D03*
X016043Y009362D03*
X016200Y009362D03*
X016358Y009362D03*
X016515Y009362D03*
X016673Y009362D03*
X016830Y009362D03*
X016987Y009362D03*
X017145Y009362D03*
X017302Y009362D03*
X017460Y009362D03*
X017617Y009362D03*
X017775Y009362D03*
X017932Y009362D03*
X018090Y009362D03*
X018247Y009362D03*
X018405Y009362D03*
X018562Y009362D03*
X018720Y009362D03*
X018720Y014638D03*
X018562Y014638D03*
X018405Y014638D03*
X018247Y014638D03*
X018090Y014638D03*
X017932Y014638D03*
X017775Y014638D03*
X017617Y014638D03*
X017460Y014638D03*
X017302Y014638D03*
X017145Y014638D03*
X016987Y014638D03*
X016830Y014638D03*
X016673Y014638D03*
X016515Y014638D03*
X016358Y014638D03*
X016200Y014638D03*
X016043Y014638D03*
X015885Y014638D03*
X015728Y014638D03*
X015570Y014638D03*
X015413Y014638D03*
X015255Y014638D03*
X015098Y014638D03*
X014940Y014638D03*
D19*
X014192Y013890D03*
X014192Y013732D03*
X014192Y013575D03*
X014192Y013417D03*
X014192Y013260D03*
X014192Y013102D03*
X014192Y012945D03*
X014192Y012787D03*
X014192Y012630D03*
X014192Y012472D03*
X014192Y012315D03*
X014192Y012157D03*
X014192Y012000D03*
X014192Y011843D03*
X014192Y011685D03*
X014192Y011528D03*
X014192Y011370D03*
X014192Y011213D03*
X014192Y011055D03*
X014192Y010898D03*
X014192Y010740D03*
X014192Y010583D03*
X014192Y010425D03*
X014192Y010268D03*
X014192Y010110D03*
X019468Y010110D03*
X019468Y010268D03*
X019468Y010425D03*
X019468Y010583D03*
X019468Y010740D03*
X019468Y010898D03*
X019468Y011055D03*
X019468Y011213D03*
X019468Y011370D03*
X019468Y011528D03*
X019468Y011685D03*
X019468Y011843D03*
X019468Y012000D03*
X019468Y012157D03*
X019468Y012315D03*
X019468Y012472D03*
X019468Y012630D03*
X019468Y012787D03*
X019468Y012945D03*
X019468Y013102D03*
X019468Y013260D03*
X019468Y013417D03*
X019468Y013575D03*
X019468Y013732D03*
X019468Y013890D03*
D20*
X007830Y018000D03*
X015830Y006000D03*
X015830Y005000D03*
D21*
X024668Y006000D03*
X024992Y006000D03*
D22*
X023830Y017550D03*
X021830Y017550D03*
X021830Y019050D03*
X023830Y019050D03*
D23*
X017352Y007750D03*
X016880Y007750D03*
X016408Y007750D03*
D24*
X008704Y009988D03*
X007956Y009988D03*
X007956Y011012D03*
X008330Y011012D03*
X008704Y011012D03*
D25*
X005830Y012394D03*
D26*
X005381Y009913D03*
X004932Y009913D03*
X006279Y009913D03*
X006728Y009913D03*
D27*
X002330Y005000D03*
X025330Y019000D03*
D28*
X007954Y008012D03*
X005954Y008012D03*
X005954Y005020D03*
X007954Y005020D03*
D29*
X008830Y005531D03*
X008830Y005925D03*
X008830Y006319D03*
X008830Y006713D03*
X008830Y007106D03*
X008830Y007500D03*
X006830Y007500D03*
X006830Y007106D03*
X006830Y006713D03*
X006830Y006319D03*
X006830Y005925D03*
X006830Y005531D03*
D30*
X020300Y007750D03*
X020300Y008250D03*
X020300Y008750D03*
X020300Y009250D03*
X022360Y009250D03*
X022360Y008750D03*
X022360Y008250D03*
X022360Y007750D03*
D31*
X017830Y005000D02*
X017330Y005500D01*
X012330Y005500D01*
X011830Y006000D01*
X008780Y007550D02*
X008660Y007550D01*
X003780Y009806D02*
X003136Y009806D01*
X002830Y009500D01*
X002830Y010500D02*
X003136Y010806D01*
X003780Y010806D01*
X003830Y011756D02*
X002836Y011756D01*
X002830Y011750D01*
X002830Y012750D02*
X002836Y012756D01*
X003830Y012756D01*
X003830Y013744D02*
X002836Y013744D01*
X002830Y013750D01*
X003086Y014744D02*
X002830Y015000D01*
X003086Y014744D02*
X003830Y014744D01*
X003830Y015744D02*
X003086Y015744D01*
X002830Y016000D01*
X003086Y016744D02*
X002830Y017000D01*
X003086Y016744D02*
X003830Y016744D01*
X010345Y015499D02*
X010645Y015499D01*
X010645Y015300D02*
X010345Y015300D01*
X010345Y015101D02*
X010645Y015101D01*
X010645Y014891D02*
X010345Y014891D01*
X010345Y014693D02*
X010645Y014693D01*
X010645Y014493D02*
X010345Y014493D01*
X010819Y014329D02*
X010819Y014029D01*
X011018Y014029D02*
X011018Y014329D01*
X011217Y014329D02*
X011217Y014029D01*
X011427Y014029D02*
X011427Y014329D01*
X011625Y014329D02*
X011625Y014029D01*
X011825Y014029D02*
X011825Y014329D01*
X012000Y014493D02*
X012300Y014493D01*
X012300Y014693D02*
X012000Y014693D01*
X012000Y014891D02*
X012300Y014891D01*
X012300Y015101D02*
X012000Y015101D01*
X012000Y015300D02*
X012300Y015300D01*
X012300Y015499D02*
X012000Y015499D01*
X011825Y015663D02*
X011825Y015963D01*
X011625Y015963D02*
X011625Y015663D01*
X011427Y015663D02*
X011427Y015963D01*
X011217Y015963D02*
X011217Y015663D01*
X011018Y015663D02*
X011018Y015963D01*
X010819Y015963D02*
X010819Y015663D01*
X019830Y018256D02*
X020574Y018256D01*
X020830Y018000D01*
X021480Y018000D01*
X021830Y017650D01*
X021830Y017550D01*
D32*
X011326Y014992D03*
D33*
X003830Y007602D03*
D34*
X003830Y005240D03*
D35*
X001260Y008301D02*
X001649Y008690D01*
X001830Y008690D01*
X001840Y008700D01*
X001840Y008910D01*
X001830Y008920D01*
X001830Y009500D01*
X001830Y010500D01*
X001830Y011750D01*
X001830Y012750D01*
X001830Y013750D01*
X001830Y015000D01*
X001830Y016000D01*
X001830Y017000D01*
X005170Y009830D02*
X005170Y009270D01*
X004590Y008690D01*
X002330Y008690D01*
X001830Y008690D01*
X025830Y008250D02*
X025830Y007610D01*
X025830Y007000D01*
X025830Y008250D02*
X025830Y009500D01*
X025830Y010750D01*
X025830Y012000D01*
X025830Y013250D01*
X025830Y014500D01*
X025830Y015750D01*
X025830Y017000D01*
D36*
X024080Y006014D02*
X023594Y006014D01*
X023580Y006060D01*
X002330Y008690D02*
X002220Y008580D01*
X002220Y008256D01*
D37*
X003830Y007602D02*
X005152Y007602D01*
X005210Y007660D01*
X005180Y007690D01*
X005180Y007744D01*
X005830Y007000D02*
X005830Y006000D01*
X005070Y005240D01*
X003830Y005240D01*
X005830Y007000D02*
X005936Y007106D01*
X006830Y007106D01*
X008660Y007550D02*
X008660Y008850D01*
X008530Y008980D01*
X008510Y009000D01*
X008086Y009000D01*
X007574Y009000D02*
X007564Y008990D01*
X006776Y008990D01*
X006728Y009038D01*
X006728Y009913D01*
X005381Y009913D02*
X005298Y009830D01*
X005170Y009830D01*
X005016Y009830D01*
X004932Y009913D01*
X006264Y008990D02*
X006299Y009025D01*
X006748Y009018D02*
X006776Y008990D01*
X008704Y009626D02*
X009830Y008500D01*
X009830Y007110D01*
X009826Y007106D01*
X008830Y007106D01*
X008830Y007500D02*
X008780Y007550D01*
X008710Y007500D02*
X008660Y007550D01*
X009830Y007110D02*
X009830Y006000D01*
X010830Y006000D01*
X011830Y006000D01*
X010086Y009500D02*
X010086Y009806D01*
X010250Y009970D01*
X009574Y009756D02*
X009330Y010000D01*
X009779Y010449D01*
X009779Y010500D01*
X008704Y010624D02*
X008704Y011012D01*
X008330Y011012D02*
X008330Y011550D01*
X008330Y012100D01*
X008174Y012256D01*
X007830Y012256D01*
X007830Y011744D02*
X007830Y011138D01*
X007956Y011012D01*
X007794Y010850D01*
X007480Y010850D01*
X007956Y011012D02*
X007956Y010624D01*
X008080Y010500D01*
X008580Y010500D01*
X008704Y010624D01*
X008704Y009988D02*
X008704Y009626D01*
X008704Y009988D02*
X009318Y009988D01*
X009330Y010000D01*
X009574Y009756D02*
X009574Y009500D01*
X010881Y010309D02*
X011300Y009890D01*
X010881Y010309D02*
X010881Y010500D01*
X012890Y011480D02*
X013066Y011480D01*
X013086Y011500D01*
X013086Y011000D01*
X013086Y011500D02*
X013086Y012000D01*
X013586Y012530D02*
X013560Y012556D01*
X013560Y012974D01*
X013586Y013000D01*
X012830Y013744D02*
X012286Y013744D01*
X010280Y014000D02*
X010074Y014000D01*
X009830Y014244D01*
X007830Y013256D02*
X007574Y013256D01*
X007430Y013400D01*
X006330Y013000D02*
X006330Y014744D01*
X005830Y014744D01*
X005330Y014744D01*
X006330Y016256D02*
X006774Y016256D01*
X006780Y016250D01*
X011586Y016500D02*
X011830Y016500D01*
X011980Y016500D01*
X016160Y016206D02*
X016160Y015930D01*
X016330Y015760D01*
X021830Y019000D02*
X022430Y018400D01*
X024230Y018400D01*
X024830Y017800D01*
X024830Y017756D01*
X024840Y017770D02*
X024840Y017790D01*
X024830Y017800D01*
X024840Y017770D02*
X024860Y017750D01*
X026830Y017010D02*
X026830Y017000D01*
X021830Y019050D02*
X021780Y019000D01*
X020830Y019000D01*
X006574Y012256D02*
X006330Y012500D01*
X005830Y012500D02*
X005830Y012394D01*
X000830Y009500D02*
X000830Y009060D01*
X000610Y008840D01*
X000610Y007390D01*
X000800Y007200D01*
X001290Y007200D01*
X018894Y008320D02*
X018900Y008266D01*
X018894Y008320D02*
X019440Y008320D01*
X019510Y008250D01*
X020300Y008250D01*
X022360Y008250D02*
X022360Y007750D01*
X022360Y007470D01*
X023304Y006526D01*
X023330Y006526D01*
X022936Y006920D01*
X022900Y006920D01*
X023330Y006526D02*
X024080Y006526D01*
X024080Y006014D02*
X024654Y006014D01*
X025030Y005990D02*
X025320Y005990D01*
X025830Y006500D01*
X025830Y007000D01*
X025800Y007640D02*
X024390Y007640D01*
X024221Y007809D01*
X023620Y007809D01*
X022360Y008250D02*
X022360Y008750D01*
X022360Y009250D01*
X022990Y009320D02*
X023140Y009470D01*
X023320Y009530D01*
X023050Y009300D02*
X023040Y009300D01*
X023020Y009320D01*
X022990Y009320D01*
X023050Y009300D02*
X023439Y008911D01*
X023620Y008911D01*
X022680Y011880D02*
X022660Y011900D01*
X021981Y011900D01*
D38*
X025800Y007640D02*
X025830Y007610D01*
X025020Y006000D02*
X025030Y005990D01*
X025020Y006000D02*
X024992Y006000D01*
X024668Y006000D02*
X024654Y006014D01*
X018830Y005000D02*
X017830Y006000D01*
X009830Y005230D02*
X009830Y005000D01*
X009830Y005230D02*
X009135Y005925D01*
D39*
X001830Y017000D02*
X002590Y017760D01*
X002830Y017760D01*
X003349Y017760D01*
X003861Y017760D02*
X004590Y017760D01*
X004830Y018000D01*
D40*
X004330Y017000D03*
X005230Y016700D03*
X004330Y016000D03*
X004330Y015000D03*
X004330Y014250D03*
X005330Y013000D03*
X005830Y013000D03*
X006330Y013000D03*
X006330Y012500D03*
X005830Y012500D03*
X005330Y012500D03*
X005330Y012000D03*
X005830Y012000D03*
X006330Y012000D03*
X004330Y012000D03*
X004300Y011250D03*
X004330Y010310D03*
X004330Y009500D03*
X005210Y007660D03*
X006960Y006310D03*
X006705Y005915D03*
X008080Y005600D03*
X008730Y005930D03*
X008030Y006500D03*
X008780Y005050D03*
X013330Y006500D03*
X012940Y007540D03*
X012330Y008000D03*
X011735Y007580D03*
X011190Y007635D03*
X010635Y007645D03*
X010530Y008750D03*
X011150Y008720D03*
X010650Y009540D03*
X010250Y009970D03*
X011300Y009890D03*
X011940Y009970D03*
X011970Y009420D03*
X012650Y008620D03*
X014510Y008000D03*
X015100Y008330D03*
X015370Y008770D03*
X016680Y008520D03*
X017920Y008760D03*
X019440Y008830D03*
X019440Y008320D03*
X019420Y007740D03*
X018060Y007480D03*
X016890Y007470D03*
X015760Y007570D03*
X019440Y009360D03*
X019730Y009790D03*
X018590Y009940D03*
X018010Y010330D03*
X017480Y010330D03*
X017030Y010070D03*
X016430Y010120D03*
X014890Y011270D03*
X015500Y011380D03*
X015570Y011950D03*
X015160Y012330D03*
X013586Y012530D03*
X012890Y011480D03*
X011330Y012300D03*
X009930Y013270D03*
X010280Y014000D03*
X012280Y013750D03*
X013660Y014310D03*
X013230Y014900D03*
X013830Y015500D03*
X014330Y015500D03*
X014940Y015420D03*
X016330Y015760D03*
X016780Y015350D03*
X017000Y015750D03*
X018660Y015300D03*
X019570Y015280D03*
X019710Y014750D03*
X019050Y014330D03*
X018160Y013550D03*
X017500Y013550D03*
X017230Y013200D03*
X017830Y013100D03*
X016530Y013200D03*
X016240Y013580D03*
X015280Y013600D03*
X016830Y012000D03*
X016360Y011400D03*
X017300Y011380D03*
X017830Y011380D03*
X018390Y011380D03*
X018480Y010670D03*
X020380Y010580D03*
X020190Y011850D03*
X020050Y012310D03*
X020420Y012790D03*
X020210Y013250D03*
X022680Y011880D03*
X023770Y011670D03*
X023830Y011000D03*
X023330Y011000D03*
X023320Y009530D03*
X022900Y006920D03*
X023580Y006060D03*
X019610Y006040D03*
X009180Y011100D03*
X008880Y011700D03*
X008330Y011550D03*
X007480Y010850D03*
X008530Y008980D03*
X002000Y007280D03*
X007430Y013400D03*
X007330Y014000D03*
X007330Y015250D03*
X007980Y015900D03*
X007380Y016200D03*
X006780Y016250D03*
X009530Y015250D03*
X010330Y016500D03*
X011980Y016500D03*
X013330Y017150D03*
X014320Y016250D03*
X015350Y016630D03*
X015310Y017270D03*
X016370Y017430D03*
X019330Y016570D03*
X020980Y016180D03*
X022030Y015530D03*
X022580Y015050D03*
X022705Y015935D03*
X023380Y016000D03*
X023030Y013670D03*
X023450Y012660D03*
X023940Y012560D03*
X012630Y015600D03*
X002880Y017750D03*
D41*
X013086Y011000D02*
X013188Y010898D01*
X014660Y010740D02*
X014660Y010740D01*
X016673Y009833D02*
X016700Y009860D01*
X018940Y011700D02*
X018955Y011685D01*
X016358Y014028D02*
X016330Y014000D01*
X018562Y014198D02*
X018580Y014180D01*
X018385Y016220D02*
X018385Y016651D01*
X018254Y016700D01*
X016974Y016700D02*
X016835Y016561D01*
X016835Y016220D01*
X016160Y016206D02*
X016146Y016220D01*
X019935Y016200D02*
X019935Y016661D01*
X019974Y016700D01*
X021435Y016661D02*
X021435Y016200D01*
X021435Y016661D02*
X021474Y016700D01*
D42*
X024830Y017244D02*
X025074Y017000D01*
X025830Y017000D01*
X002220Y007744D02*
X002220Y007500D01*
X002000Y007280D01*
X001919Y007199D01*
X001260Y007199D01*
D43*
X024860Y017750D02*
X025170Y017750D01*
X025300Y017620D01*
X026220Y017620D01*
X026830Y017010D01*
M02*
