G75*
G70*
%OFA0B0*%
%FSLAX24Y24*%
%IPPOS*%
%LPD*%
%AMOC8*
5,1,8,0,0,1.08239X$1,22.5*
%
%ADD10R,0.0356X0.0434*%
%ADD11R,0.0395X0.0395*%
%ADD12C,0.1380*%
%ADD13R,0.0710X0.0631*%
%ADD14R,0.0434X0.0356*%
%ADD15C,0.0820*%
%ADD16R,0.0631X0.0710*%
%ADD17R,0.0159X0.0671*%
%ADD18R,0.0671X0.0159*%
%ADD19R,0.0820X0.0820*%
%ADD20R,0.0330X0.0580*%
%ADD21R,0.0680X0.0380*%
%ADD22R,0.0356X0.0749*%
%ADD23R,0.0297X0.0552*%
%ADD24R,0.2363X0.2600*%
%ADD25R,0.0395X0.0946*%
%ADD26C,0.0330*%
%ADD27R,0.0789X0.0552*%
%ADD28R,0.0690X0.0316*%
%ADD29R,0.0950X0.0320*%
%ADD30C,0.0180*%
%ADD31R,0.1110X0.1110*%
%ADD32R,0.2049X0.1025*%
%ADD33R,0.2049X0.0710*%
D10*
X013574Y007500D03*
X014086Y007500D03*
X014086Y008000D03*
X013574Y008000D03*
X013574Y008500D03*
X014086Y008500D03*
X014086Y009000D03*
X013574Y009000D03*
X010086Y009500D03*
X009574Y009500D03*
X008086Y009000D03*
X007574Y009000D03*
X006776Y008990D03*
X006264Y008990D03*
X012574Y011000D03*
X013086Y011000D03*
X013086Y012000D03*
X012574Y012000D03*
X013074Y013000D03*
X013586Y013000D03*
X015634Y016220D03*
X016146Y016220D03*
X016974Y016700D03*
X017486Y016700D03*
X018254Y016700D03*
X018766Y016700D03*
X019974Y016700D03*
X020486Y016700D03*
X021474Y016700D03*
X021986Y016700D03*
X022574Y016500D03*
X023086Y016500D03*
X023086Y015500D03*
X022574Y015500D03*
X011586Y016500D03*
X011074Y016500D03*
X003861Y017760D03*
X003349Y017760D03*
D11*
X016835Y016220D03*
X017425Y016220D03*
X018385Y016220D03*
X018975Y016220D03*
X019935Y016200D03*
X020525Y016200D03*
X021435Y016200D03*
X022025Y016200D03*
D12*
X026330Y018500D03*
X001330Y018500D03*
X001330Y005500D03*
X026330Y005500D03*
D13*
X023620Y007809D03*
X023620Y008911D03*
X001260Y008301D03*
X001260Y007199D03*
D14*
X002220Y007744D03*
X002220Y008256D03*
X003780Y009294D03*
X003780Y009806D03*
X003780Y010294D03*
X003780Y010806D03*
X003830Y011244D03*
X003830Y011756D03*
X003830Y012244D03*
X003830Y012756D03*
X003830Y013744D03*
X003830Y014256D03*
X003830Y014744D03*
X003830Y015256D03*
X003830Y015744D03*
X003830Y016256D03*
X003830Y016744D03*
X003830Y017256D03*
X005330Y016256D03*
X005330Y015744D03*
X005330Y015256D03*
X005830Y015256D03*
X006330Y015256D03*
X006830Y015256D03*
X006330Y015744D03*
X006330Y016256D03*
X006330Y014744D03*
X005830Y014744D03*
X005330Y014744D03*
X006830Y014744D03*
X007830Y013256D03*
X007830Y012744D03*
X007830Y012256D03*
X007830Y011744D03*
X012830Y013744D03*
X012830Y014256D03*
X009830Y014244D03*
X009830Y014756D03*
X009830Y015744D03*
X009830Y016256D03*
X019830Y017744D03*
X019830Y018256D03*
X024830Y017756D03*
X024830Y017244D03*
X018900Y008266D03*
X018900Y007754D03*
X024080Y006526D03*
X024080Y006014D03*
X005180Y007744D03*
X005180Y008256D03*
D15*
X002830Y009500D03*
X001830Y009500D03*
X000830Y009500D03*
X000830Y010500D03*
X001830Y010500D03*
X002830Y010500D03*
X002830Y011750D03*
X001830Y011750D03*
X000830Y011750D03*
X000830Y012750D03*
X001830Y012750D03*
X002830Y012750D03*
X002830Y013750D03*
X001830Y013750D03*
X000830Y013750D03*
X000830Y015000D03*
X001830Y015000D03*
X002830Y015000D03*
X002830Y016000D03*
X001830Y016000D03*
X000830Y016000D03*
X000830Y017000D03*
X001830Y017000D03*
X002830Y017000D03*
X004830Y018000D03*
X005830Y018000D03*
X006830Y018000D03*
X006830Y019000D03*
X005830Y019000D03*
X004830Y019000D03*
X007830Y019000D03*
X008830Y019000D03*
X009830Y019000D03*
X010830Y019000D03*
X011830Y019000D03*
X012830Y019000D03*
X013830Y019000D03*
X014830Y019000D03*
X015830Y019000D03*
X016830Y019000D03*
X017830Y019000D03*
X018830Y019000D03*
X020830Y019000D03*
X020830Y018000D03*
X018830Y018000D03*
X017830Y018000D03*
X016830Y018000D03*
X015830Y018000D03*
X014830Y018000D03*
X013830Y018000D03*
X012830Y018000D03*
X011830Y018000D03*
X010830Y018000D03*
X009830Y018000D03*
X008830Y018000D03*
X024830Y015750D03*
X025830Y015750D03*
X026830Y015750D03*
X026830Y014500D03*
X025830Y014500D03*
X024830Y014500D03*
X024830Y013250D03*
X025830Y013250D03*
X026830Y013250D03*
X026830Y012000D03*
X025830Y012000D03*
X024830Y012000D03*
X024830Y010750D03*
X025830Y010750D03*
X026830Y010750D03*
X026830Y009500D03*
X025830Y009500D03*
X024830Y009500D03*
X024830Y008250D03*
X025830Y008250D03*
X026830Y008250D03*
X026830Y007000D03*
X025830Y007000D03*
X024830Y007000D03*
X024830Y005000D03*
X023830Y005000D03*
X022830Y005000D03*
X021830Y005000D03*
X020830Y005000D03*
X019830Y005000D03*
X018830Y005000D03*
X017830Y005000D03*
X016830Y005000D03*
X014830Y005000D03*
X013830Y005000D03*
X012830Y005000D03*
X011830Y005000D03*
X010830Y005000D03*
X009830Y005000D03*
X009830Y006000D03*
X010830Y006000D03*
X011830Y006000D03*
X012830Y006000D03*
X013830Y006000D03*
X014830Y006000D03*
X016830Y006000D03*
X017830Y006000D03*
X018830Y006000D03*
X025830Y017000D03*
X026830Y017000D03*
D16*
X021981Y011900D03*
X020879Y011900D03*
X010881Y010500D03*
X009779Y010500D03*
D17*
X014940Y009362D03*
X015098Y009362D03*
X015255Y009362D03*
X015413Y009362D03*
X015570Y009362D03*
X015728Y009362D03*
X015885Y009362D03*
X016043Y009362D03*
X016200Y009362D03*
X016358Y009362D03*
X016515Y009362D03*
X016673Y009362D03*
X016830Y009362D03*
X016987Y009362D03*
X017145Y009362D03*
X017302Y009362D03*
X017460Y009362D03*
X017617Y009362D03*
X017775Y009362D03*
X017932Y009362D03*
X018090Y009362D03*
X018247Y009362D03*
X018405Y009362D03*
X018562Y009362D03*
X018720Y009362D03*
X018720Y014638D03*
X018562Y014638D03*
X018405Y014638D03*
X018247Y014638D03*
X018090Y014638D03*
X017932Y014638D03*
X017775Y014638D03*
X017617Y014638D03*
X017460Y014638D03*
X017302Y014638D03*
X017145Y014638D03*
X016987Y014638D03*
X016830Y014638D03*
X016673Y014638D03*
X016515Y014638D03*
X016358Y014638D03*
X016200Y014638D03*
X016043Y014638D03*
X015885Y014638D03*
X015728Y014638D03*
X015570Y014638D03*
X015413Y014638D03*
X015255Y014638D03*
X015098Y014638D03*
X014940Y014638D03*
D18*
X014192Y013890D03*
X014192Y013732D03*
X014192Y013575D03*
X014192Y013417D03*
X014192Y013260D03*
X014192Y013102D03*
X014192Y012945D03*
X014192Y012787D03*
X014192Y012630D03*
X014192Y012472D03*
X014192Y012315D03*
X014192Y012157D03*
X014192Y012000D03*
X014192Y011843D03*
X014192Y011685D03*
X014192Y011528D03*
X014192Y011370D03*
X014192Y011213D03*
X014192Y011055D03*
X014192Y010898D03*
X014192Y010740D03*
X014192Y010583D03*
X014192Y010425D03*
X014192Y010268D03*
X014192Y010110D03*
X019468Y010110D03*
X019468Y010268D03*
X019468Y010425D03*
X019468Y010583D03*
X019468Y010740D03*
X019468Y010898D03*
X019468Y011055D03*
X019468Y011213D03*
X019468Y011370D03*
X019468Y011528D03*
X019468Y011685D03*
X019468Y011843D03*
X019468Y012000D03*
X019468Y012157D03*
X019468Y012315D03*
X019468Y012472D03*
X019468Y012630D03*
X019468Y012787D03*
X019468Y012945D03*
X019468Y013102D03*
X019468Y013260D03*
X019468Y013417D03*
X019468Y013575D03*
X019468Y013732D03*
X019468Y013890D03*
D19*
X007830Y018000D03*
X015830Y006000D03*
X015830Y005000D03*
D20*
X024668Y006000D03*
X024992Y006000D03*
D21*
X023830Y017550D03*
X021830Y017550D03*
X021830Y019050D03*
X023830Y019050D03*
D22*
X017352Y007750D03*
X016880Y007750D03*
X016408Y007750D03*
D23*
X008704Y009988D03*
X007956Y009988D03*
X007956Y011012D03*
X008330Y011012D03*
X008704Y011012D03*
D24*
X005830Y012394D03*
D25*
X005381Y009913D03*
X004932Y009913D03*
X006279Y009913D03*
X006728Y009913D03*
D26*
X002330Y005000D03*
X025330Y019000D03*
D27*
X007954Y008012D03*
X005954Y008012D03*
X005954Y005020D03*
X007954Y005020D03*
D28*
X008830Y005531D03*
X008830Y005925D03*
X008830Y006319D03*
X008830Y006713D03*
X008830Y007106D03*
X008830Y007500D03*
X006830Y007500D03*
X006830Y007106D03*
X006830Y006713D03*
X006830Y006319D03*
X006830Y005925D03*
X006830Y005531D03*
D29*
X020300Y007750D03*
X020300Y008250D03*
X020300Y008750D03*
X020300Y009250D03*
X022360Y009250D03*
X022360Y008750D03*
X022360Y008250D03*
X022360Y007750D03*
D30*
X011825Y014029D02*
X011825Y014329D01*
X011625Y014329D02*
X011625Y014029D01*
X011427Y014029D02*
X011427Y014329D01*
X011217Y014329D02*
X011217Y014029D01*
X011018Y014029D02*
X011018Y014329D01*
X010819Y014329D02*
X010819Y014029D01*
X010645Y014493D02*
X010345Y014493D01*
X010345Y014693D02*
X010645Y014693D01*
X010645Y014891D02*
X010345Y014891D01*
X010345Y015101D02*
X010645Y015101D01*
X010645Y015300D02*
X010345Y015300D01*
X010345Y015499D02*
X010645Y015499D01*
X010819Y015663D02*
X010819Y015963D01*
X011018Y015963D02*
X011018Y015663D01*
X011217Y015663D02*
X011217Y015963D01*
X011427Y015963D02*
X011427Y015663D01*
X011625Y015663D02*
X011625Y015963D01*
X011825Y015963D02*
X011825Y015663D01*
X012000Y015499D02*
X012300Y015499D01*
X012300Y015300D02*
X012000Y015300D01*
X012000Y015101D02*
X012300Y015101D01*
X012300Y014891D02*
X012000Y014891D01*
X012000Y014693D02*
X012300Y014693D01*
X012300Y014493D02*
X012000Y014493D01*
D31*
X011326Y014992D03*
D32*
X003830Y007602D03*
D33*
X003830Y005240D03*
M02*
