G75*
G70*
%OFA0B0*%
%FSLAX24Y24*%
%IPPOS*%
%LPD*%
%AMOC8*
5,1,8,0,0,1.08239X$1,22.5*
%
%ADD10C,0.1380*%
%ADD11C,0.0820*%
%ADD12R,0.0820X0.0820*%
D10*
X001330Y005500D03*
X026330Y005500D03*
X026330Y018500D03*
X001330Y018500D03*
D11*
X009830Y005000D03*
X010830Y005000D03*
X011830Y005000D03*
X012830Y005000D03*
X013830Y005000D03*
X014830Y005000D03*
X016830Y005000D03*
X017830Y005000D03*
X018830Y005000D03*
X019830Y005000D03*
X020830Y005000D03*
X021830Y005000D03*
X022830Y005000D03*
X023830Y005000D03*
X024830Y005000D03*
X024830Y007000D03*
X025830Y007000D03*
X026830Y007000D03*
X026830Y008250D03*
X025830Y008250D03*
X024830Y008250D03*
X024830Y009500D03*
X025830Y009500D03*
X026830Y009500D03*
X026830Y010750D03*
X025830Y010750D03*
X024830Y010750D03*
X024830Y012000D03*
X025830Y012000D03*
X026830Y012000D03*
X026830Y013250D03*
X025830Y013250D03*
X024830Y013250D03*
X024830Y014500D03*
X025830Y014500D03*
X026830Y014500D03*
X026830Y015750D03*
X025830Y015750D03*
X024830Y015750D03*
X025830Y017000D03*
X026830Y017000D03*
X020830Y018000D03*
X018830Y018000D03*
X017830Y018000D03*
X016830Y018000D03*
X015830Y018000D03*
X014830Y018000D03*
X013830Y018000D03*
X012830Y018000D03*
X011830Y018000D03*
X010830Y018000D03*
X009830Y018000D03*
X008830Y018000D03*
X008830Y019000D03*
X007830Y019000D03*
X006830Y019000D03*
X005830Y019000D03*
X004830Y019000D03*
X004830Y018000D03*
X005830Y018000D03*
X006830Y018000D03*
X009830Y019000D03*
X010830Y019000D03*
X011830Y019000D03*
X012830Y019000D03*
X013830Y019000D03*
X014830Y019000D03*
X015830Y019000D03*
X016830Y019000D03*
X017830Y019000D03*
X018830Y019000D03*
X020830Y019000D03*
X002830Y017000D03*
X001830Y017000D03*
X000830Y017000D03*
X000830Y016000D03*
X001830Y016000D03*
X002830Y016000D03*
X002830Y015000D03*
X001830Y015000D03*
X000830Y015000D03*
X000830Y013750D03*
X001830Y013750D03*
X002830Y013750D03*
X002830Y012750D03*
X001830Y012750D03*
X000830Y012750D03*
X000830Y011750D03*
X001830Y011750D03*
X002830Y011750D03*
X002830Y010500D03*
X001830Y010500D03*
X000830Y010500D03*
X000830Y009500D03*
X001830Y009500D03*
X002830Y009500D03*
X009830Y006000D03*
X010830Y006000D03*
X011830Y006000D03*
X012830Y006000D03*
X013830Y006000D03*
X014830Y006000D03*
X016830Y006000D03*
X017830Y006000D03*
X018830Y006000D03*
D12*
X015830Y006000D03*
X015830Y005000D03*
X007830Y018000D03*
M02*
