%
M48
M72
T01C0.0130
T02C0.0400
T03C0.1300
%
T01
X8780Y5050
X8080Y5600
X8730Y5930
X8030Y6500
X6960Y6310
X6705Y5915
X5210Y7660
X2000Y7280
X4330Y9500
X4330Y10310
X4300Y11250
X4330Y12000
X5330Y12000
X5830Y12000
X6330Y12000
X6330Y12500
X5830Y12500
X5330Y12500
X5330Y13000
X5830Y13000
X6330Y13000
X7430Y13400
X7330Y14000
X7330Y15250
X7980Y15900
X7380Y16200
X6780Y16250
X5230Y16700
X4330Y17000
X2880Y17750
X4330Y16000
X4330Y15000
X4330Y14250
X8330Y11550
X8880Y11700
X9180Y11100
X7480Y10850
X10250Y9970
X10650Y9540
X11300Y9890
X11940Y9970
X11970Y9420
X11150Y8720
X10530Y8750
X12330Y8000
X11735Y7580
X11190Y7635
X10635Y7645
X12650Y8620
X14510Y8000
X15100Y8330
X15370Y8770
X16680Y8520
X17920Y8760
X19440Y8830
X19440Y8320
X19420Y7740
X18060Y7480
X16890Y7470
X15760Y7570
X13330Y6500
X12940Y7540
X8530Y8980
X12890Y11480
X11330Y12300
X9930Y13270
X10280Y14000
X12280Y13750
X13660Y14310
X13230Y14900
X13830Y15500
X14330Y15500
X14940Y15420
X16330Y15760
X16780Y15350
X17000Y15750
X18660Y15300
X19570Y15280
X19710Y14750
X19050Y14330
X18160Y13550
X17500Y13550
X17230Y13200
X17830Y13100
X16530Y13200
X16240Y13580
X15280Y13600
X13586Y12530
X15160Y12330
X15570Y11950
X15500Y11380
X14890Y11270
X16360Y11400
X17300Y11380
X17830Y11380
X18390Y11380
X18480Y10670
X18010Y10330
X17480Y10330
X17030Y10070
X16430Y10120
X18590Y9940
X19440Y9360
X19730Y9790
X20380Y10580
X20190Y11850
X20050Y12310
X20420Y12790
X20210Y13250
X22680Y11880
X23770Y11670
X23830Y11000
X23330Y11000
X23320Y9530
X22900Y6920
X23580Y6060
X19610Y6040
X16830Y12000
X23030Y13670
X23450Y12660
X23940Y12560
X22580Y15050
X22030Y15530
X22705Y15935
X23380Y16000
X20980Y16180
X19330Y16570
X16370Y17430
X15310Y17270
X15350Y16630
X14320Y16250
X12630Y15600
X11980Y16500
X13330Y17150
X10330Y16500
X9530Y15250
T02
X9830Y5000
X10830Y5000
X11830Y5000
X12830Y5000
X13830Y5000
X14830Y5000
X15830Y5000
X16830Y5000
X17830Y5000
X18830Y5000
X19830Y5000
X20830Y5000
X21830Y5000
X22830Y5000
X23830Y5000
X24830Y5000
X24830Y7000
X25830Y7000
X26830Y7000
X26830Y8250
X25830Y8250
X24830Y8250
X24830Y9500
X25830Y9500
X26830Y9500
X26830Y10750
X25830Y10750
X24830Y10750
X24830Y12000
X25830Y12000
X26830Y12000
X26830Y13250
X25830Y13250
X24830Y13250
X24830Y14500
X25830Y14500
X26830Y14500
X26830Y15750
X25830Y15750
X24830Y15750
X25830Y17000
X26830Y17000
X20830Y18000
X18830Y18000
X17830Y18000
X16830Y18000
X15830Y18000
X14830Y18000
X13830Y18000
X12830Y18000
X11830Y18000
X10830Y18000
X9830Y18000
X8830Y18000
X7830Y18000
X6830Y18000
X5830Y18000
X4830Y18000
X4830Y19000
X5830Y19000
X6830Y19000
X7830Y19000
X8830Y19000
X9830Y19000
X10830Y19000
X11830Y19000
X12830Y19000
X13830Y19000
X14830Y19000
X15830Y19000
X16830Y19000
X17830Y19000
X18830Y19000
X20830Y19000
X2830Y17000
X1830Y17000
X830Y17000
X830Y16000
X1830Y16000
X2830Y16000
X2830Y15000
X1830Y15000
X830Y15000
X830Y13750
X1830Y13750
X2830Y13750
X2830Y12750
X1830Y12750
X830Y12750
X830Y11750
X1830Y11750
X2830Y11750
X2830Y10500
X1830Y10500
X830Y10500
X830Y9500
X1830Y9500
X2830Y9500
X9830Y6000
X10830Y6000
X11830Y6000
X12830Y6000
X13830Y6000
X14830Y6000
X15830Y6000
X16830Y6000
X17830Y6000
X18830Y6000
T03
X26330Y5500
X1330Y5500
X1330Y18500
X26330Y18500
M30
